<?xml version="1.0" encoding="utf-8"?>
<svg xmlns="http://www.w3.org/2000/svg"
 xmlns:xlink="http://www.w3.org/1999/xlink" width="1360" height="768" >
<defs>
    <style type="text/css"><![CDATA[
        line {
        stroke: #000;
        stroke-width: 5px;
        }
    ]]></style></defs>
<rect x="0" y="0" width="415" height="147" style="fill: white"/>
<line x1="0" y1="0" x2="415" y2="0" style="stroke:rgb(0,0,0);stroke-width:2px" />
<line x1="0" y1="147" x2="0" y2="0" style="stroke:rgb(0,0,0);stroke-width:2px" />
<line x1="415" y1="147" x2="415" y2="0" style="stroke:rgb(0,0,0);stroke-width:2px" />
<line x1="415" y1="147" x2="0" y2="147" style="stroke:rgb(0,0,0);stroke-width:2px"/>
<rect x="0" y="147" width="415" height="124" style="fill: white"/>
<line x1="0" y1="147" x2="415" y2="147" style="stroke:rgb(0,0,0);stroke-width:2px" />
<line x1="0" y1="271" x2="0" y2="147" style="stroke:rgb(0,0,0);stroke-width:2px" />
<line x1="415" y1="271" x2="415" y2="147" style="stroke:rgb(0,0,0);stroke-width:2px" />
<line x1="415" y1="271" x2="0" y2="271" style="stroke:rgb(0,0,0);stroke-width:2px"/>
<rect x="415" y="0" width="111" height="97" style="fill: white"/>
<line x1="415" y1="0" x2="526" y2="0" style="stroke:rgb(0,0,0);stroke-width:2px" />
<line x1="415" y1="97" x2="415" y2="0" style="stroke:rgb(0,0,0);stroke-width:2px" />
<line x1="526" y1="97" x2="526" y2="0" style="stroke:rgb(0,0,0);stroke-width:2px" />
<line x1="526" y1="97" x2="415" y2="97" style="stroke:rgb(0,0,0);stroke-width:2px"/>
<rect x="526" y="0" width="99" height="52" style="fill: white"/>
<line x1="526" y1="0" x2="625" y2="0" style="stroke:rgb(0,0,0);stroke-width:2px" />
<line x1="526" y1="52" x2="526" y2="0" style="stroke:rgb(0,0,0);stroke-width:2px" />
<line x1="625" y1="52" x2="625" y2="0" style="stroke:rgb(0,0,0);stroke-width:2px" />
<line x1="625" y1="52" x2="526" y2="52" style="stroke:rgb(0,0,0);stroke-width:2px"/>
<rect x="625" y="0" width="80" height="52" style="fill: white"/>
<line x1="625" y1="0" x2="705" y2="0" style="stroke:rgb(0,0,0);stroke-width:2px" />
<line x1="625" y1="52" x2="625" y2="0" style="stroke:rgb(0,0,0);stroke-width:2px" />
<line x1="705" y1="52" x2="705" y2="0" style="stroke:rgb(0,0,0);stroke-width:2px" />
<line x1="705" y1="52" x2="625" y2="52" style="stroke:rgb(0,0,0);stroke-width:2px"/>
<rect x="526" y="52" width="90" height="45" style="fill: white"/>
<line x1="526" y1="52" x2="616" y2="52" style="stroke:rgb(0,0,0);stroke-width:2px" />
<line x1="526" y1="97" x2="526" y2="52" style="stroke:rgb(0,0,0);stroke-width:2px" />
<line x1="616" y1="97" x2="616" y2="52" style="stroke:rgb(0,0,0);stroke-width:2px" />
<line x1="616" y1="97" x2="526" y2="97" style="stroke:rgb(0,0,0);stroke-width:2px"/>
<rect x="616" y="52" width="43" height="45" style="fill: white"/>
<line x1="616" y1="52" x2="659" y2="52" style="stroke:rgb(0,0,0);stroke-width:2px" />
<line x1="616" y1="97" x2="616" y2="52" style="stroke:rgb(0,0,0);stroke-width:2px" />
<line x1="659" y1="97" x2="659" y2="52" style="stroke:rgb(0,0,0);stroke-width:2px" />
<line x1="659" y1="97" x2="616" y2="97" style="stroke:rgb(0,0,0);stroke-width:2px"/>
<rect x="659" y="52" width="46" height="45" style="fill: white"/>
<line x1="659" y1="52" x2="705" y2="52" style="stroke:rgb(0,0,0);stroke-width:2px" />
<line x1="659" y1="97" x2="659" y2="52" style="stroke:rgb(0,0,0);stroke-width:2px" />
<line x1="705" y1="97" x2="705" y2="52" style="stroke:rgb(0,0,0);stroke-width:2px" />
<line x1="705" y1="97" x2="659" y2="97" style="stroke:rgb(0,0,0);stroke-width:2px"/>
<rect x="415" y="97" width="122" height="108" style="fill: white"/>
<line x1="415" y1="97" x2="537" y2="97" style="stroke:rgb(0,0,0);stroke-width:2px" />
<line x1="415" y1="205" x2="415" y2="97" style="stroke:rgb(0,0,0);stroke-width:2px" />
<line x1="537" y1="205" x2="537" y2="97" style="stroke:rgb(0,0,0);stroke-width:2px" />
<line x1="537" y1="205" x2="415" y2="205" style="stroke:rgb(0,0,0);stroke-width:2px"/>
<rect x="537" y="97" width="68" height="49" style="fill: white"/>
<line x1="537" y1="97" x2="605" y2="97" style="stroke:rgb(0,0,0);stroke-width:2px" />
<line x1="537" y1="146" x2="537" y2="97" style="stroke:rgb(0,0,0);stroke-width:2px" />
<line x1="605" y1="146" x2="605" y2="97" style="stroke:rgb(0,0,0);stroke-width:2px" />
<line x1="605" y1="146" x2="537" y2="146" style="stroke:rgb(0,0,0);stroke-width:2px"/>
<rect x="537" y="146" width="68" height="59" style="fill: white"/>
<line x1="537" y1="146" x2="605" y2="146" style="stroke:rgb(0,0,0);stroke-width:2px" />
<line x1="537" y1="205" x2="537" y2="146" style="stroke:rgb(0,0,0);stroke-width:2px" />
<line x1="605" y1="205" x2="605" y2="146" style="stroke:rgb(0,0,0);stroke-width:2px" />
<line x1="605" y1="205" x2="537" y2="205" style="stroke:rgb(0,0,0);stroke-width:2px"/>
<rect x="605" y="97" width="100" height="108" style="fill: white"/>
<line x1="605" y1="97" x2="705" y2="97" style="stroke:rgb(0,0,0);stroke-width:2px" />
<line x1="605" y1="205" x2="605" y2="97" style="stroke:rgb(0,0,0);stroke-width:2px" />
<line x1="705" y1="205" x2="705" y2="97" style="stroke:rgb(0,0,0);stroke-width:2px" />
<line x1="705" y1="205" x2="605" y2="205" style="stroke:rgb(0,0,0);stroke-width:2px"/>
<rect x="415" y="205" width="122" height="66" style="fill: white"/>
<line x1="415" y1="205" x2="537" y2="205" style="stroke:rgb(0,0,0);stroke-width:2px" />
<line x1="415" y1="271" x2="415" y2="205" style="stroke:rgb(0,0,0);stroke-width:2px" />
<line x1="537" y1="271" x2="537" y2="205" style="stroke:rgb(0,0,0);stroke-width:2px" />
<line x1="537" y1="271" x2="415" y2="271" style="stroke:rgb(0,0,0);stroke-width:2px"/>
<rect x="537" y="205" width="69" height="66" style="fill: white"/>
<line x1="537" y1="205" x2="606" y2="205" style="stroke:rgb(0,0,0);stroke-width:2px" />
<line x1="537" y1="271" x2="537" y2="205" style="stroke:rgb(0,0,0);stroke-width:2px" />
<line x1="606" y1="271" x2="606" y2="205" style="stroke:rgb(0,0,0);stroke-width:2px" />
<line x1="606" y1="271" x2="537" y2="271" style="stroke:rgb(0,0,0);stroke-width:2px"/>
<rect x="606" y="205" width="99" height="66" style="fill: white"/>
<line x1="606" y1="205" x2="705" y2="205" style="stroke:rgb(0,0,0);stroke-width:2px" />
<line x1="606" y1="271" x2="606" y2="205" style="stroke:rgb(0,0,0);stroke-width:2px" />
<line x1="705" y1="271" x2="705" y2="205" style="stroke:rgb(0,0,0);stroke-width:2px" />
<line x1="705" y1="271" x2="606" y2="271" style="stroke:rgb(0,0,0);stroke-width:2px"/>
<rect x="0" y="271" width="415" height="238" style="fill: white"/>
<line x1="0" y1="271" x2="415" y2="271" style="stroke:rgb(0,0,0);stroke-width:2px" />
<line x1="0" y1="509" x2="0" y2="271" style="stroke:rgb(0,0,0);stroke-width:2px" />
<line x1="415" y1="509" x2="415" y2="271" style="stroke:rgb(0,0,0);stroke-width:2px" />
<line x1="415" y1="509" x2="0" y2="509" style="stroke:rgb(0,0,0);stroke-width:2px"/>
<rect x="415" y="271" width="104" height="141" style="fill: white"/>
<line x1="415" y1="271" x2="519" y2="271" style="stroke:rgb(0,0,0);stroke-width:2px" />
<line x1="415" y1="412" x2="415" y2="271" style="stroke:rgb(0,0,0);stroke-width:2px" />
<line x1="519" y1="412" x2="519" y2="271" style="stroke:rgb(0,0,0);stroke-width:2px" />
<line x1="519" y1="412" x2="415" y2="412" style="stroke:rgb(0,0,0);stroke-width:2px"/>
<rect x="519" y="271" width="186" height="48" style="fill: white"/>
<line x1="519" y1="271" x2="705" y2="271" style="stroke:rgb(0,0,0);stroke-width:2px" />
<line x1="519" y1="319" x2="519" y2="271" style="stroke:rgb(0,0,0);stroke-width:2px" />
<line x1="705" y1="319" x2="705" y2="271" style="stroke:rgb(0,0,0);stroke-width:2px" />
<line x1="705" y1="319" x2="519" y2="319" style="stroke:rgb(0,0,0);stroke-width:2px"/>
<rect x="519" y="319" width="112" height="93" style="fill: white"/>
<line x1="519" y1="319" x2="631" y2="319" style="stroke:rgb(0,0,0);stroke-width:2px" />
<line x1="519" y1="412" x2="519" y2="319" style="stroke:rgb(0,0,0);stroke-width:2px" />
<line x1="631" y1="412" x2="631" y2="319" style="stroke:rgb(0,0,0);stroke-width:2px" />
<line x1="631" y1="412" x2="519" y2="412" style="stroke:rgb(0,0,0);stroke-width:2px"/>
<rect x="631" y="319" width="74" height="93" style="fill: white"/>
<line x1="631" y1="319" x2="705" y2="319" style="stroke:rgb(0,0,0);stroke-width:2px" />
<line x1="631" y1="412" x2="631" y2="319" style="stroke:rgb(0,0,0);stroke-width:2px" />
<line x1="705" y1="412" x2="705" y2="319" style="stroke:rgb(0,0,0);stroke-width:2px" />
<line x1="705" y1="412" x2="631" y2="412" style="stroke:rgb(0,0,0);stroke-width:2px"/>
<rect x="415" y="412" width="104" height="97" style="fill: white"/>
<line x1="415" y1="412" x2="519" y2="412" style="stroke:rgb(0,0,0);stroke-width:2px" />
<line x1="415" y1="509" x2="415" y2="412" style="stroke:rgb(0,0,0);stroke-width:2px" />
<line x1="519" y1="509" x2="519" y2="412" style="stroke:rgb(0,0,0);stroke-width:2px" />
<line x1="519" y1="509" x2="415" y2="509" style="stroke:rgb(0,0,0);stroke-width:2px"/>
<rect x="519" y="412" width="111" height="97" style="fill: white"/>
<line x1="519" y1="412" x2="630" y2="412" style="stroke:rgb(0,0,0);stroke-width:2px" />
<line x1="519" y1="509" x2="519" y2="412" style="stroke:rgb(0,0,0);stroke-width:2px" />
<line x1="630" y1="509" x2="630" y2="412" style="stroke:rgb(0,0,0);stroke-width:2px" />
<line x1="630" y1="509" x2="519" y2="509" style="stroke:rgb(0,0,0);stroke-width:2px"/>
<rect x="630" y="412" width="75" height="97" style="fill: white"/>
<line x1="630" y1="412" x2="705" y2="412" style="stroke:rgb(0,0,0);stroke-width:2px" />
<line x1="630" y1="509" x2="630" y2="412" style="stroke:rgb(0,0,0);stroke-width:2px" />
<line x1="705" y1="509" x2="705" y2="412" style="stroke:rgb(0,0,0);stroke-width:2px" />
<line x1="705" y1="509" x2="630" y2="509" style="stroke:rgb(0,0,0);stroke-width:2px"/>
<rect x="705" y="0" width="62" height="61" style="fill: white"/>
<line x1="705" y1="0" x2="767" y2="0" style="stroke:rgb(0,0,0);stroke-width:2px" />
<line x1="705" y1="61" x2="705" y2="0" style="stroke:rgb(0,0,0);stroke-width:2px" />
<line x1="767" y1="61" x2="767" y2="0" style="stroke:rgb(0,0,0);stroke-width:2px" />
<line x1="767" y1="61" x2="705" y2="61" style="stroke:rgb(0,0,0);stroke-width:2px"/>
<rect x="767" y="0" width="38" height="61" style="fill: white"/>
<line x1="767" y1="0" x2="805" y2="0" style="stroke:rgb(0,0,0);stroke-width:2px" />
<line x1="767" y1="61" x2="767" y2="0" style="stroke:rgb(0,0,0);stroke-width:2px" />
<line x1="805" y1="61" x2="805" y2="0" style="stroke:rgb(0,0,0);stroke-width:2px" />
<line x1="805" y1="61" x2="767" y2="61" style="stroke:rgb(0,0,0);stroke-width:2px"/>
<rect x="805" y="0" width="99" height="61" style="fill: white"/>
<line x1="805" y1="0" x2="904" y2="0" style="stroke:rgb(0,0,0);stroke-width:2px" />
<line x1="805" y1="61" x2="805" y2="0" style="stroke:rgb(0,0,0);stroke-width:2px" />
<line x1="904" y1="61" x2="904" y2="0" style="stroke:rgb(0,0,0);stroke-width:2px" />
<line x1="904" y1="61" x2="805" y2="61" style="stroke:rgb(0,0,0);stroke-width:2px"/>
<rect x="705" y="61" width="100" height="64" style="fill: white"/>
<line x1="705" y1="61" x2="805" y2="61" style="stroke:rgb(0,0,0);stroke-width:2px" />
<line x1="705" y1="125" x2="705" y2="61" style="stroke:rgb(0,0,0);stroke-width:2px" />
<line x1="805" y1="125" x2="805" y2="61" style="stroke:rgb(0,0,0);stroke-width:2px" />
<line x1="805" y1="125" x2="705" y2="125" style="stroke:rgb(0,0,0);stroke-width:2px"/>
<rect x="805" y="61" width="99" height="64" style="fill: white"/>
<line x1="805" y1="61" x2="904" y2="61" style="stroke:rgb(0,0,0);stroke-width:2px" />
<line x1="805" y1="125" x2="805" y2="61" style="stroke:rgb(0,0,0);stroke-width:2px" />
<line x1="904" y1="125" x2="904" y2="61" style="stroke:rgb(0,0,0);stroke-width:2px" />
<line x1="904" y1="125" x2="805" y2="125" style="stroke:rgb(0,0,0);stroke-width:2px"/>
<rect x="904" y="0" width="164" height="125" style="fill: white"/>
<line x1="904" y1="0" x2="1068" y2="0" style="stroke:rgb(0,0,0);stroke-width:2px" />
<line x1="904" y1="125" x2="904" y2="0" style="stroke:rgb(0,0,0);stroke-width:2px" />
<line x1="1068" y1="125" x2="1068" y2="0" style="stroke:rgb(0,0,0);stroke-width:2px" />
<line x1="1068" y1="125" x2="904" y2="125" style="stroke:rgb(0,0,0);stroke-width:2px"/>
<rect x="705" y="125" width="199" height="78" style="fill: white"/>
<line x1="705" y1="125" x2="904" y2="125" style="stroke:rgb(0,0,0);stroke-width:2px" />
<line x1="705" y1="203" x2="705" y2="125" style="stroke:rgb(0,0,0);stroke-width:2px" />
<line x1="904" y1="203" x2="904" y2="125" style="stroke:rgb(0,0,0);stroke-width:2px" />
<line x1="904" y1="203" x2="705" y2="203" style="stroke:rgb(0,0,0);stroke-width:2px"/>
<rect x="904" y="125" width="164" height="78" style="fill: white"/>
<line x1="904" y1="125" x2="1068" y2="125" style="stroke:rgb(0,0,0);stroke-width:2px" />
<line x1="904" y1="203" x2="904" y2="125" style="stroke:rgb(0,0,0);stroke-width:2px" />
<line x1="1068" y1="203" x2="1068" y2="125" style="stroke:rgb(0,0,0);stroke-width:2px" />
<line x1="1068" y1="203" x2="904" y2="203" style="stroke:rgb(0,0,0);stroke-width:2px"/>
<rect x="1068" y="0" width="112" height="91" style="fill: white"/>
<line x1="1068" y1="0" x2="1180" y2="0" style="stroke:rgb(0,0,0);stroke-width:2px" />
<line x1="1068" y1="91" x2="1068" y2="0" style="stroke:rgb(0,0,0);stroke-width:2px" />
<line x1="1180" y1="91" x2="1180" y2="0" style="stroke:rgb(0,0,0);stroke-width:2px" />
<line x1="1180" y1="91" x2="1068" y2="91" style="stroke:rgb(0,0,0);stroke-width:2px"/>
<rect x="1180" y="0" width="61" height="91" style="fill: white"/>
<line x1="1180" y1="0" x2="1241" y2="0" style="stroke:rgb(0,0,0);stroke-width:2px" />
<line x1="1180" y1="91" x2="1180" y2="0" style="stroke:rgb(0,0,0);stroke-width:2px" />
<line x1="1241" y1="91" x2="1241" y2="0" style="stroke:rgb(0,0,0);stroke-width:2px" />
<line x1="1241" y1="91" x2="1180" y2="91" style="stroke:rgb(0,0,0);stroke-width:2px"/>
<rect x="1241" y="0" width="119" height="91" style="fill: white"/>
<line x1="1241" y1="0" x2="1360" y2="0" style="stroke:rgb(0,0,0);stroke-width:2px" />
<line x1="1241" y1="91" x2="1241" y2="0" style="stroke:rgb(0,0,0);stroke-width:2px" />
<line x1="1360" y1="91" x2="1360" y2="0" style="stroke:rgb(0,0,0);stroke-width:2px" />
<line x1="1360" y1="91" x2="1241" y2="91" style="stroke:rgb(0,0,0);stroke-width:2px"/>
<rect x="1068" y="91" width="173" height="112" style="fill: white"/>
<line x1="1068" y1="91" x2="1241" y2="91" style="stroke:rgb(0,0,0);stroke-width:2px" />
<line x1="1068" y1="203" x2="1068" y2="91" style="stroke:rgb(0,0,0);stroke-width:2px" />
<line x1="1241" y1="203" x2="1241" y2="91" style="stroke:rgb(0,0,0);stroke-width:2px" />
<line x1="1241" y1="203" x2="1068" y2="203" style="stroke:rgb(0,0,0);stroke-width:2px"/>
<rect x="1241" y="91" width="119" height="112" style="fill: white"/>
<line x1="1241" y1="91" x2="1360" y2="91" style="stroke:rgb(0,0,0);stroke-width:2px" />
<line x1="1241" y1="203" x2="1241" y2="91" style="stroke:rgb(0,0,0);stroke-width:2px" />
<line x1="1360" y1="203" x2="1360" y2="91" style="stroke:rgb(0,0,0);stroke-width:2px" />
<line x1="1360" y1="203" x2="1241" y2="203" style="stroke:rgb(0,0,0);stroke-width:2px"/>
<rect x="705" y="203" width="655" height="306" style="fill: white"/>
<line x1="705" y1="203" x2="1360" y2="203" style="stroke:rgb(0,0,0);stroke-width:2px" />
<line x1="705" y1="509" x2="705" y2="203" style="stroke:rgb(0,0,0);stroke-width:2px" />
<line x1="1360" y1="509" x2="1360" y2="203" style="stroke:rgb(0,0,0);stroke-width:2px" />
<line x1="1360" y1="509" x2="705" y2="509" style="stroke:rgb(0,0,0);stroke-width:2px"/>
<rect x="0" y="509" width="467" height="259" style="fill: white"/>
<line x1="0" y1="509" x2="467" y2="509" style="stroke:rgb(0,0,0);stroke-width:2px" />
<line x1="0" y1="768" x2="0" y2="509" style="stroke:rgb(0,0,0);stroke-width:2px" />
<line x1="467" y1="768" x2="467" y2="509" style="stroke:rgb(0,0,0);stroke-width:2px" />
<line x1="467" y1="768" x2="0" y2="768" style="stroke:rgb(0,0,0);stroke-width:2px"/>
<rect x="467" y="509" width="238" height="259" style="fill: white"/>
<line x1="467" y1="509" x2="705" y2="509" style="stroke:rgb(0,0,0);stroke-width:2px" />
<line x1="467" y1="768" x2="467" y2="509" style="stroke:rgb(0,0,0);stroke-width:2px" />
<line x1="705" y1="768" x2="705" y2="509" style="stroke:rgb(0,0,0);stroke-width:2px" />
<line x1="705" y1="768" x2="467" y2="768" style="stroke:rgb(0,0,0);stroke-width:2px"/>
<rect x="705" y="509" width="655" height="259" style="fill: white"/>
<line x1="705" y1="509" x2="1360" y2="509" style="stroke:rgb(0,0,0);stroke-width:2px" />
<line x1="705" y1="768" x2="705" y2="509" style="stroke:rgb(0,0,0);stroke-width:2px" />
<line x1="1360" y1="768" x2="1360" y2="509" style="stroke:rgb(0,0,0);stroke-width:2px" />
<line x1="1360" y1="768" x2="705" y2="768" style="stroke:rgb(0,0,0);stroke-width:2px"/>
</svg>