<?xml version="1.0" encoding="utf-8"?>
<svg xmlns="http://www.w3.org/2000/svg"
 xmlns:xlink="http://www.w3.org/1999/xlink" width="1024" height="768" >
<defs>
    <style type="text/css"><![CDATA[
        line {
        stroke: #000;
        stroke-width: 5px;
        }
    ]]></style></defs>
<rect x="0" y="0" width="107" height="260" style="fill: white"/>
<line x1="0" y1="0" x2="107" y2="0" style="stroke:rgb(0,0,0);stroke-width:2px" />
<line x1="0" y1="260" x2="0" y2="0" style="stroke:rgb(0,0,0);stroke-width:2px" />
<line x1="107" y1="260" x2="107" y2="0" style="stroke:rgb(0,0,0);stroke-width:2px" />
<line x1="107" y1="260" x2="0" y2="260" style="stroke:rgb(0,0,0);stroke-width:2px"/>
<rect x="107" y="0" width="48" height="72" style="fill: #fff5ee"/>
<line x1="107" y1="0" x2="155" y2="0" style="stroke:rgb(0,0,0);stroke-width:2px" />
<line x1="107" y1="72" x2="107" y2="0" style="stroke:rgb(0,0,0);stroke-width:2px" />
<line x1="155" y1="72" x2="155" y2="0" style="stroke:rgb(0,0,0);stroke-width:2px" />
<line x1="155" y1="72" x2="107" y2="72" style="stroke:rgb(0,0,0);stroke-width:2px"/>
<rect x="155" y="0" width="41" height="72" style="fill: white"/>
<line x1="155" y1="0" x2="196" y2="0" style="stroke:rgb(0,0,0);stroke-width:2px" />
<line x1="155" y1="72" x2="155" y2="0" style="stroke:rgb(0,0,0);stroke-width:2px" />
<line x1="196" y1="72" x2="196" y2="0" style="stroke:rgb(0,0,0);stroke-width:2px" />
<line x1="196" y1="72" x2="155" y2="72" style="stroke:rgb(0,0,0);stroke-width:2px"/>
<rect x="196" y="0" width="50" height="72" style="fill: #ff7f50"/>
<line x1="196" y1="0" x2="246" y2="0" style="stroke:rgb(0,0,0);stroke-width:2px" />
<line x1="196" y1="72" x2="196" y2="0" style="stroke:rgb(0,0,0);stroke-width:2px" />
<line x1="246" y1="72" x2="246" y2="0" style="stroke:rgb(0,0,0);stroke-width:2px" />
<line x1="246" y1="72" x2="196" y2="72" style="stroke:rgb(0,0,0);stroke-width:2px"/>
<rect x="107" y="72" width="139" height="73" style="fill: white"/>
<line x1="107" y1="72" x2="246" y2="72" style="stroke:rgb(0,0,0);stroke-width:2px" />
<line x1="107" y1="145" x2="107" y2="72" style="stroke:rgb(0,0,0);stroke-width:2px" />
<line x1="246" y1="145" x2="246" y2="72" style="stroke:rgb(0,0,0);stroke-width:2px" />
<line x1="246" y1="145" x2="107" y2="145" style="stroke:rgb(0,0,0);stroke-width:2px"/>
<rect x="246" y="0" width="75" height="145" style="fill: #7FFFD4"/>
<line x1="246" y1="0" x2="321" y2="0" style="stroke:rgb(0,0,0);stroke-width:2px" />
<line x1="246" y1="145" x2="246" y2="0" style="stroke:rgb(0,0,0);stroke-width:2px" />
<line x1="321" y1="145" x2="321" y2="0" style="stroke:rgb(0,0,0);stroke-width:2px" />
<line x1="321" y1="145" x2="246" y2="145" style="stroke:rgb(0,0,0);stroke-width:2px"/>
<rect x="107" y="145" width="94" height="115" style="fill: #000080"/>
<line x1="107" y1="145" x2="201" y2="145" style="stroke:rgb(0,0,0);stroke-width:2px" />
<line x1="107" y1="260" x2="107" y2="145" style="stroke:rgb(0,0,0);stroke-width:2px" />
<line x1="201" y1="260" x2="201" y2="145" style="stroke:rgb(0,0,0);stroke-width:2px" />
<line x1="201" y1="260" x2="107" y2="260" style="stroke:rgb(0,0,0);stroke-width:2px"/>
<rect x="201" y="145" width="120" height="115" style="fill: #2E8B57"/>
<line x1="201" y1="145" x2="321" y2="145" style="stroke:rgb(0,0,0);stroke-width:2px" />
<line x1="201" y1="260" x2="201" y2="145" style="stroke:rgb(0,0,0);stroke-width:2px" />
<line x1="321" y1="260" x2="321" y2="145" style="stroke:rgb(0,0,0);stroke-width:2px" />
<line x1="321" y1="260" x2="201" y2="260" style="stroke:rgb(0,0,0);stroke-width:2px"/>
<rect x="321" y="0" width="179.0" height="260" style="fill: white"/>
<line x1="321" y1="0" x2="500.0" y2="0" style="stroke:rgb(0,0,0);stroke-width:2px" />
<line x1="321" y1="260" x2="321" y2="0" style="stroke:rgb(0,0,0);stroke-width:2px" />
<line x1="500.0" y1="260" x2="500.0" y2="0" style="stroke:rgb(0,0,0);stroke-width:2px" />
<line x1="500.0" y1="260" x2="321" y2="260" style="stroke:rgb(0,0,0);stroke-width:2px"/>
<rect x="0" y="260" width="166" height="80" style="fill: #000080"/>
<line x1="0" y1="260" x2="166" y2="260" style="stroke:rgb(0,0,0);stroke-width:2px" />
<line x1="0" y1="340" x2="0" y2="260" style="stroke:rgb(0,0,0);stroke-width:2px" />
<line x1="166" y1="340" x2="166" y2="260" style="stroke:rgb(0,0,0);stroke-width:2px" />
<line x1="166" y1="340" x2="0" y2="340" style="stroke:rgb(0,0,0);stroke-width:2px"/>
<rect x="166" y="260" width="73" height="80" style="fill: #2E8B57"/>
<line x1="166" y1="260" x2="239" y2="260" style="stroke:rgb(0,0,0);stroke-width:2px" />
<line x1="166" y1="340" x2="166" y2="260" style="stroke:rgb(0,0,0);stroke-width:2px" />
<line x1="239" y1="340" x2="239" y2="260" style="stroke:rgb(0,0,0);stroke-width:2px" />
<line x1="239" y1="340" x2="166" y2="340" style="stroke:rgb(0,0,0);stroke-width:2px"/>
<rect x="239" y="260" width="42" height="80" style="fill: #2E8B57"/>
<line x1="239" y1="260" x2="281" y2="260" style="stroke:rgb(0,0,0);stroke-width:2px" />
<line x1="239" y1="340" x2="239" y2="260" style="stroke:rgb(0,0,0);stroke-width:2px" />
<line x1="281" y1="340" x2="281" y2="260" style="stroke:rgb(0,0,0);stroke-width:2px" />
<line x1="281" y1="340" x2="239" y2="340" style="stroke:rgb(0,0,0);stroke-width:2px"/>
<rect x="0" y="340" width="189" height="55" style="fill: #7FFFD4"/>
<line x1="0" y1="340" x2="189" y2="340" style="stroke:rgb(0,0,0);stroke-width:2px" />
<line x1="0" y1="395" x2="0" y2="340" style="stroke:rgb(0,0,0);stroke-width:2px" />
<line x1="189" y1="395" x2="189" y2="340" style="stroke:rgb(0,0,0);stroke-width:2px" />
<line x1="189" y1="395" x2="0" y2="395" style="stroke:rgb(0,0,0);stroke-width:2px"/>
<rect x="189" y="340" width="92" height="55" style="fill: #40e0d0"/>
<line x1="189" y1="340" x2="281" y2="340" style="stroke:rgb(0,0,0);stroke-width:2px" />
<line x1="189" y1="395" x2="189" y2="340" style="stroke:rgb(0,0,0);stroke-width:2px" />
<line x1="281" y1="395" x2="281" y2="340" style="stroke:rgb(0,0,0);stroke-width:2px" />
<line x1="281" y1="395" x2="189" y2="395" style="stroke:rgb(0,0,0);stroke-width:2px"/>
<rect x="0" y="395" width="109" height="42" style="fill: white"/>
<line x1="0" y1="395" x2="109" y2="395" style="stroke:rgb(0,0,0);stroke-width:2px" />
<line x1="0" y1="437" x2="0" y2="395" style="stroke:rgb(0,0,0);stroke-width:2px" />
<line x1="109" y1="437" x2="109" y2="395" style="stroke:rgb(0,0,0);stroke-width:2px" />
<line x1="109" y1="437" x2="0" y2="437" style="stroke:rgb(0,0,0);stroke-width:2px"/>
<rect x="109" y="395" width="82" height="42" style="fill: #7FFFD4"/>
<line x1="109" y1="395" x2="191" y2="395" style="stroke:rgb(0,0,0);stroke-width:2px" />
<line x1="109" y1="437" x2="109" y2="395" style="stroke:rgb(0,0,0);stroke-width:2px" />
<line x1="191" y1="437" x2="191" y2="395" style="stroke:rgb(0,0,0);stroke-width:2px" />
<line x1="191" y1="437" x2="109" y2="437" style="stroke:rgb(0,0,0);stroke-width:2px"/>
<rect x="191" y="395" width="90" height="42" style="fill: #00ffff"/>
<line x1="191" y1="395" x2="281" y2="395" style="stroke:rgb(0,0,0);stroke-width:2px" />
<line x1="191" y1="437" x2="191" y2="395" style="stroke:rgb(0,0,0);stroke-width:2px" />
<line x1="281" y1="437" x2="281" y2="395" style="stroke:rgb(0,0,0);stroke-width:2px" />
<line x1="281" y1="437" x2="191" y2="437" style="stroke:rgb(0,0,0);stroke-width:2px"/>
<rect x="0" y="437" width="84" height="63.0" style="fill: black"/>
<line x1="0" y1="437" x2="84" y2="437" style="stroke:rgb(0,0,0);stroke-width:2px" />
<line x1="0" y1="500.0" x2="0" y2="437" style="stroke:rgb(0,0,0);stroke-width:2px" />
<line x1="84" y1="500.0" x2="84" y2="437" style="stroke:rgb(0,0,0);stroke-width:2px" />
<line x1="84" y1="500.0" x2="0" y2="500.0" style="stroke:rgb(0,0,0);stroke-width:2px"/>
<rect x="84" y="437" width="107" height="63.0" style="fill: white"/>
<line x1="84" y1="437" x2="191" y2="437" style="stroke:rgb(0,0,0);stroke-width:2px" />
<line x1="84" y1="500.0" x2="84" y2="437" style="stroke:rgb(0,0,0);stroke-width:2px" />
<line x1="191" y1="500.0" x2="191" y2="437" style="stroke:rgb(0,0,0);stroke-width:2px" />
<line x1="191" y1="500.0" x2="84" y2="500.0" style="stroke:rgb(0,0,0);stroke-width:2px"/>
<rect x="191" y="437" width="90" height="63.0" style="fill: white"/>
<line x1="191" y1="437" x2="281" y2="437" style="stroke:rgb(0,0,0);stroke-width:2px" />
<line x1="191" y1="500.0" x2="191" y2="437" style="stroke:rgb(0,0,0);stroke-width:2px" />
<line x1="281" y1="500.0" x2="281" y2="437" style="stroke:rgb(0,0,0);stroke-width:2px" />
<line x1="281" y1="500.0" x2="191" y2="500.0" style="stroke:rgb(0,0,0);stroke-width:2px"/>
<rect x="281" y="260" width="128" height="240.0" style="fill: white"/>
<line x1="281" y1="260" x2="409" y2="260" style="stroke:rgb(0,0,0);stroke-width:2px" />
<line x1="281" y1="500.0" x2="281" y2="260" style="stroke:rgb(0,0,0);stroke-width:2px" />
<line x1="409" y1="500.0" x2="409" y2="260" style="stroke:rgb(0,0,0);stroke-width:2px" />
<line x1="409" y1="500.0" x2="281" y2="500.0" style="stroke:rgb(0,0,0);stroke-width:2px"/>
<rect x="409" y="260" width="91.0" height="240.0" style="fill: #ff7f50"/>
<line x1="409" y1="260" x2="500.0" y2="260" style="stroke:rgb(0,0,0);stroke-width:2px" />
<line x1="409" y1="500.0" x2="409" y2="260" style="stroke:rgb(0,0,0);stroke-width:2px" />
<line x1="500.0" y1="500.0" x2="500.0" y2="260" style="stroke:rgb(0,0,0);stroke-width:2px" />
<line x1="500.0" y1="500.0" x2="409" y2="500.0" style="stroke:rgb(0,0,0);stroke-width:2px"/>
</svg>