<?xml version="1.0" encoding="utf-8"?>
<svg xmlns="http://www.w3.org/2000/svg"
 xmlns:xlink="http://www.w3.org/1999/xlink" width="1024" height="768" >
<defs>
    <style type="text/css"><![CDATA[
        line {
        stroke: #000;
        stroke-width: 5px;
        }
    ]]></style></defs>
<rect x="0" y="0" width="202" height="337" style="fill: red"/>
<line x1="0" y1="0" x2="202" y2="0" style="stroke:rgb(0,0,0);stroke-width:2px" />
<line x1="0" y1="337" x2="0" y2="0" style="stroke:rgb(0,0,0);stroke-width:2px" />
<line x1="202" y1="337" x2="202" y2="0" style="stroke:rgb(0,0,0);stroke-width:2px" />
<line x1="202" y1="337" x2="0" y2="337" style="stroke:rgb(0,0,0);stroke-width:2px"/>
<rect x="202" y="0" width="287" height="337" style="fill: black"/>
<line x1="202" y1="0" x2="489" y2="0" style="stroke:rgb(0,0,0);stroke-width:2px" />
<line x1="202" y1="337" x2="202" y2="0" style="stroke:rgb(0,0,0);stroke-width:2px" />
<line x1="489" y1="337" x2="489" y2="0" style="stroke:rgb(0,0,0);stroke-width:2px" />
<line x1="489" y1="337" x2="202" y2="337" style="stroke:rgb(0,0,0);stroke-width:2px"/>
<rect x="489" y="0" width="248" height="337" style="fill: yellow"/>
<line x1="489" y1="0" x2="737" y2="0" style="stroke:rgb(0,0,0);stroke-width:2px" />
<line x1="489" y1="337" x2="489" y2="0" style="stroke:rgb(0,0,0);stroke-width:2px" />
<line x1="737" y1="337" x2="737" y2="0" style="stroke:rgb(0,0,0);stroke-width:2px" />
<line x1="737" y1="337" x2="489" y2="337" style="stroke:rgb(0,0,0);stroke-width:2px"/>
<rect x="737" y="0" width="84" height="204" style="fill: white"/>
<line x1="737" y1="0" x2="821" y2="0" style="stroke:rgb(0,0,0);stroke-width:2px" />
<line x1="737" y1="204" x2="737" y2="0" style="stroke:rgb(0,0,0);stroke-width:2px" />
<line x1="821" y1="204" x2="821" y2="0" style="stroke:rgb(0,0,0);stroke-width:2px" />
<line x1="821" y1="204" x2="737" y2="204" style="stroke:rgb(0,0,0);stroke-width:2px"/>
<rect x="821" y="0" width="61" height="204" style="fill: white"/>
<line x1="821" y1="0" x2="882" y2="0" style="stroke:rgb(0,0,0);stroke-width:2px" />
<line x1="821" y1="204" x2="821" y2="0" style="stroke:rgb(0,0,0);stroke-width:2px" />
<line x1="882" y1="204" x2="882" y2="0" style="stroke:rgb(0,0,0);stroke-width:2px" />
<line x1="882" y1="204" x2="821" y2="204" style="stroke:rgb(0,0,0);stroke-width:2px"/>
<rect x="882" y="0" width="208" height="204" style="fill: yellow"/>
<line x1="882" y1="0" x2="1090" y2="0" style="stroke:rgb(0,0,0);stroke-width:2px" />
<line x1="882" y1="204" x2="882" y2="0" style="stroke:rgb(0,0,0);stroke-width:2px" />
<line x1="1090" y1="204" x2="1090" y2="0" style="stroke:rgb(0,0,0);stroke-width:2px" />
<line x1="1090" y1="204" x2="882" y2="204" style="stroke:rgb(0,0,0);stroke-width:2px"/>
<rect x="737" y="204" width="75" height="61" style="fill: white"/>
<line x1="737" y1="204" x2="812" y2="204" style="stroke:rgb(0,0,0);stroke-width:2px" />
<line x1="737" y1="265" x2="737" y2="204" style="stroke:rgb(0,0,0);stroke-width:2px" />
<line x1="812" y1="265" x2="812" y2="204" style="stroke:rgb(0,0,0);stroke-width:2px" />
<line x1="812" y1="265" x2="737" y2="265" style="stroke:rgb(0,0,0);stroke-width:2px"/>
<rect x="812" y="204" width="70" height="61" style="fill: white"/>
<line x1="812" y1="204" x2="882" y2="204" style="stroke:rgb(0,0,0);stroke-width:2px" />
<line x1="812" y1="265" x2="812" y2="204" style="stroke:rgb(0,0,0);stroke-width:2px" />
<line x1="882" y1="265" x2="882" y2="204" style="stroke:rgb(0,0,0);stroke-width:2px" />
<line x1="882" y1="265" x2="812" y2="265" style="stroke:rgb(0,0,0);stroke-width:2px"/>
<rect x="737" y="265" width="145" height="72" style="fill: white"/>
<line x1="737" y1="265" x2="882" y2="265" style="stroke:rgb(0,0,0);stroke-width:2px" />
<line x1="737" y1="337" x2="737" y2="265" style="stroke:rgb(0,0,0);stroke-width:2px" />
<line x1="882" y1="337" x2="882" y2="265" style="stroke:rgb(0,0,0);stroke-width:2px" />
<line x1="882" y1="337" x2="737" y2="337" style="stroke:rgb(0,0,0);stroke-width:2px"/>
<rect x="882" y="204" width="208" height="82" style="fill: white"/>
<line x1="882" y1="204" x2="1090" y2="204" style="stroke:rgb(0,0,0);stroke-width:2px" />
<line x1="882" y1="286" x2="882" y2="204" style="stroke:rgb(0,0,0);stroke-width:2px" />
<line x1="1090" y1="286" x2="1090" y2="204" style="stroke:rgb(0,0,0);stroke-width:2px" />
<line x1="1090" y1="286" x2="882" y2="286" style="stroke:rgb(0,0,0);stroke-width:2px"/>
<rect x="882" y="286" width="110" height="51" style="fill: red"/>
<line x1="882" y1="286" x2="992" y2="286" style="stroke:rgb(0,0,0);stroke-width:2px" />
<line x1="882" y1="337" x2="882" y2="286" style="stroke:rgb(0,0,0);stroke-width:2px" />
<line x1="992" y1="337" x2="992" y2="286" style="stroke:rgb(0,0,0);stroke-width:2px" />
<line x1="992" y1="337" x2="882" y2="337" style="stroke:rgb(0,0,0);stroke-width:2px"/>
<rect x="992" y="286" width="98" height="51" style="fill: white"/>
<line x1="992" y1="286" x2="1090" y2="286" style="stroke:rgb(0,0,0);stroke-width:2px" />
<line x1="992" y1="337" x2="992" y2="286" style="stroke:rgb(0,0,0);stroke-width:2px" />
<line x1="1090" y1="337" x2="1090" y2="286" style="stroke:rgb(0,0,0);stroke-width:2px" />
<line x1="1090" y1="337" x2="992" y2="337" style="stroke:rgb(0,0,0);stroke-width:2px"/>
<rect x="0" y="337" width="297" height="69" style="fill: yellow"/>
<line x1="0" y1="337" x2="297" y2="337" style="stroke:rgb(0,0,0);stroke-width:2px" />
<line x1="0" y1="406" x2="0" y2="337" style="stroke:rgb(0,0,0);stroke-width:2px" />
<line x1="297" y1="406" x2="297" y2="337" style="stroke:rgb(0,0,0);stroke-width:2px" />
<line x1="297" y1="406" x2="0" y2="406" style="stroke:rgb(0,0,0);stroke-width:2px"/>
<rect x="0" y="406" width="161" height="95" style="fill: blue"/>
<line x1="0" y1="406" x2="161" y2="406" style="stroke:rgb(0,0,0);stroke-width:2px" />
<line x1="0" y1="501" x2="0" y2="406" style="stroke:rgb(0,0,0);stroke-width:2px" />
<line x1="161" y1="501" x2="161" y2="406" style="stroke:rgb(0,0,0);stroke-width:2px" />
<line x1="161" y1="501" x2="0" y2="501" style="stroke:rgb(0,0,0);stroke-width:2px"/>
<rect x="161" y="406" width="136" height="95" style="fill: white"/>
<line x1="161" y1="406" x2="297" y2="406" style="stroke:rgb(0,0,0);stroke-width:2px" />
<line x1="161" y1="501" x2="161" y2="406" style="stroke:rgb(0,0,0);stroke-width:2px" />
<line x1="297" y1="501" x2="297" y2="406" style="stroke:rgb(0,0,0);stroke-width:2px" />
<line x1="297" y1="501" x2="161" y2="501" style="stroke:rgb(0,0,0);stroke-width:2px"/>
<rect x="297" y="337" width="115" height="109" style="fill: white"/>
<line x1="297" y1="337" x2="412" y2="337" style="stroke:rgb(0,0,0);stroke-width:2px" />
<line x1="297" y1="446" x2="297" y2="337" style="stroke:rgb(0,0,0);stroke-width:2px" />
<line x1="412" y1="446" x2="412" y2="337" style="stroke:rgb(0,0,0);stroke-width:2px" />
<line x1="412" y1="446" x2="297" y2="446" style="stroke:rgb(0,0,0);stroke-width:2px"/>
<rect x="412" y="337" width="77" height="109" style="fill: red"/>
<line x1="412" y1="337" x2="489" y2="337" style="stroke:rgb(0,0,0);stroke-width:2px" />
<line x1="412" y1="446" x2="412" y2="337" style="stroke:rgb(0,0,0);stroke-width:2px" />
<line x1="489" y1="446" x2="489" y2="337" style="stroke:rgb(0,0,0);stroke-width:2px" />
<line x1="489" y1="446" x2="412" y2="446" style="stroke:rgb(0,0,0);stroke-width:2px"/>
<rect x="297" y="446" width="44" height="55" style="fill: white"/>
<line x1="297" y1="446" x2="341" y2="446" style="stroke:rgb(0,0,0);stroke-width:2px" />
<line x1="297" y1="501" x2="297" y2="446" style="stroke:rgb(0,0,0);stroke-width:2px" />
<line x1="341" y1="501" x2="341" y2="446" style="stroke:rgb(0,0,0);stroke-width:2px" />
<line x1="341" y1="501" x2="297" y2="501" style="stroke:rgb(0,0,0);stroke-width:2px"/>
<rect x="341" y="446" width="71" height="55" style="fill: white"/>
<line x1="341" y1="446" x2="412" y2="446" style="stroke:rgb(0,0,0);stroke-width:2px" />
<line x1="341" y1="501" x2="341" y2="446" style="stroke:rgb(0,0,0);stroke-width:2px" />
<line x1="412" y1="501" x2="412" y2="446" style="stroke:rgb(0,0,0);stroke-width:2px" />
<line x1="412" y1="501" x2="341" y2="501" style="stroke:rgb(0,0,0);stroke-width:2px"/>
<rect x="412" y="446" width="77" height="55" style="fill: yellow"/>
<line x1="412" y1="446" x2="489" y2="446" style="stroke:rgb(0,0,0);stroke-width:2px" />
<line x1="412" y1="501" x2="412" y2="446" style="stroke:rgb(0,0,0);stroke-width:2px" />
<line x1="489" y1="501" x2="489" y2="446" style="stroke:rgb(0,0,0);stroke-width:2px" />
<line x1="489" y1="501" x2="412" y2="501" style="stroke:rgb(0,0,0);stroke-width:2px"/>
<rect x="0" y="501" width="124" height="102" style="fill: white"/>
<line x1="0" y1="501" x2="124" y2="501" style="stroke:rgb(0,0,0);stroke-width:2px" />
<line x1="0" y1="603" x2="0" y2="501" style="stroke:rgb(0,0,0);stroke-width:2px" />
<line x1="124" y1="603" x2="124" y2="501" style="stroke:rgb(0,0,0);stroke-width:2px" />
<line x1="124" y1="603" x2="0" y2="603" style="stroke:rgb(0,0,0);stroke-width:2px"/>
<rect x="124" y="501" width="131" height="102" style="fill: white"/>
<line x1="124" y1="501" x2="255" y2="501" style="stroke:rgb(0,0,0);stroke-width:2px" />
<line x1="124" y1="603" x2="124" y2="501" style="stroke:rgb(0,0,0);stroke-width:2px" />
<line x1="255" y1="603" x2="255" y2="501" style="stroke:rgb(0,0,0);stroke-width:2px" />
<line x1="255" y1="603" x2="124" y2="603" style="stroke:rgb(0,0,0);stroke-width:2px"/>
<rect x="0" y="603" width="50" height="74" style="fill: yellow"/>
<line x1="0" y1="603" x2="50" y2="603" style="stroke:rgb(0,0,0);stroke-width:2px" />
<line x1="0" y1="677" x2="0" y2="603" style="stroke:rgb(0,0,0);stroke-width:2px" />
<line x1="50" y1="677" x2="50" y2="603" style="stroke:rgb(0,0,0);stroke-width:2px" />
<line x1="50" y1="677" x2="0" y2="677" style="stroke:rgb(0,0,0);stroke-width:2px"/>
<rect x="50" y="603" width="77" height="74" style="fill: blue"/>
<line x1="50" y1="603" x2="127" y2="603" style="stroke:rgb(0,0,0);stroke-width:2px" />
<line x1="50" y1="677" x2="50" y2="603" style="stroke:rgb(0,0,0);stroke-width:2px" />
<line x1="127" y1="677" x2="127" y2="603" style="stroke:rgb(0,0,0);stroke-width:2px" />
<line x1="127" y1="677" x2="50" y2="677" style="stroke:rgb(0,0,0);stroke-width:2px"/>
<rect x="127" y="603" width="56" height="74" style="fill: white"/>
<line x1="127" y1="603" x2="183" y2="603" style="stroke:rgb(0,0,0);stroke-width:2px" />
<line x1="127" y1="677" x2="127" y2="603" style="stroke:rgb(0,0,0);stroke-width:2px" />
<line x1="183" y1="677" x2="183" y2="603" style="stroke:rgb(0,0,0);stroke-width:2px" />
<line x1="183" y1="677" x2="127" y2="677" style="stroke:rgb(0,0,0);stroke-width:2px"/>
<rect x="183" y="603" width="72" height="74" style="fill: white"/>
<line x1="183" y1="603" x2="255" y2="603" style="stroke:rgb(0,0,0);stroke-width:2px" />
<line x1="183" y1="677" x2="183" y2="603" style="stroke:rgb(0,0,0);stroke-width:2px" />
<line x1="255" y1="677" x2="255" y2="603" style="stroke:rgb(0,0,0);stroke-width:2px" />
<line x1="255" y1="677" x2="183" y2="677" style="stroke:rgb(0,0,0);stroke-width:2px"/>
<rect x="0" y="677" width="127" height="43" style="fill: yellow"/>
<line x1="0" y1="677" x2="127" y2="677" style="stroke:rgb(0,0,0);stroke-width:2px" />
<line x1="0" y1="720" x2="0" y2="677" style="stroke:rgb(0,0,0);stroke-width:2px" />
<line x1="127" y1="720" x2="127" y2="677" style="stroke:rgb(0,0,0);stroke-width:2px" />
<line x1="127" y1="720" x2="0" y2="720" style="stroke:rgb(0,0,0);stroke-width:2px"/>
<rect x="127" y="677" width="71" height="43" style="fill: white"/>
<line x1="127" y1="677" x2="198" y2="677" style="stroke:rgb(0,0,0);stroke-width:2px" />
<line x1="127" y1="720" x2="127" y2="677" style="stroke:rgb(0,0,0);stroke-width:2px" />
<line x1="198" y1="720" x2="198" y2="677" style="stroke:rgb(0,0,0);stroke-width:2px" />
<line x1="198" y1="720" x2="127" y2="720" style="stroke:rgb(0,0,0);stroke-width:2px"/>
<rect x="198" y="677" width="57" height="43" style="fill: blue"/>
<line x1="198" y1="677" x2="255" y2="677" style="stroke:rgb(0,0,0);stroke-width:2px" />
<line x1="198" y1="720" x2="198" y2="677" style="stroke:rgb(0,0,0);stroke-width:2px" />
<line x1="255" y1="720" x2="255" y2="677" style="stroke:rgb(0,0,0);stroke-width:2px" />
<line x1="255" y1="720" x2="198" y2="720" style="stroke:rgb(0,0,0);stroke-width:2px"/>
<rect x="255" y="501" width="123" height="219" style="fill: black"/>
<line x1="255" y1="501" x2="378" y2="501" style="stroke:rgb(0,0,0);stroke-width:2px" />
<line x1="255" y1="720" x2="255" y2="501" style="stroke:rgb(0,0,0);stroke-width:2px" />
<line x1="378" y1="720" x2="378" y2="501" style="stroke:rgb(0,0,0);stroke-width:2px" />
<line x1="378" y1="720" x2="255" y2="720" style="stroke:rgb(0,0,0);stroke-width:2px"/>
<rect x="378" y="501" width="55" height="76" style="fill: yellow"/>
<line x1="378" y1="501" x2="433" y2="501" style="stroke:rgb(0,0,0);stroke-width:2px" />
<line x1="378" y1="577" x2="378" y2="501" style="stroke:rgb(0,0,0);stroke-width:2px" />
<line x1="433" y1="577" x2="433" y2="501" style="stroke:rgb(0,0,0);stroke-width:2px" />
<line x1="433" y1="577" x2="378" y2="577" style="stroke:rgb(0,0,0);stroke-width:2px"/>
<rect x="433" y="501" width="56" height="76" style="fill: blue"/>
<line x1="433" y1="501" x2="489" y2="501" style="stroke:rgb(0,0,0);stroke-width:2px" />
<line x1="433" y1="577" x2="433" y2="501" style="stroke:rgb(0,0,0);stroke-width:2px" />
<line x1="489" y1="577" x2="489" y2="501" style="stroke:rgb(0,0,0);stroke-width:2px" />
<line x1="489" y1="577" x2="433" y2="577" style="stroke:rgb(0,0,0);stroke-width:2px"/>
<rect x="378" y="577" width="71" height="43" style="fill: white"/>
<line x1="378" y1="577" x2="449" y2="577" style="stroke:rgb(0,0,0);stroke-width:2px" />
<line x1="378" y1="620" x2="378" y2="577" style="stroke:rgb(0,0,0);stroke-width:2px" />
<line x1="449" y1="620" x2="449" y2="577" style="stroke:rgb(0,0,0);stroke-width:2px" />
<line x1="449" y1="620" x2="378" y2="620" style="stroke:rgb(0,0,0);stroke-width:2px"/>
<rect x="449" y="577" width="40" height="43" style="fill: black"/>
<line x1="449" y1="577" x2="489" y2="577" style="stroke:rgb(0,0,0);stroke-width:2px" />
<line x1="449" y1="620" x2="449" y2="577" style="stroke:rgb(0,0,0);stroke-width:2px" />
<line x1="489" y1="620" x2="489" y2="577" style="stroke:rgb(0,0,0);stroke-width:2px" />
<line x1="489" y1="620" x2="449" y2="620" style="stroke:rgb(0,0,0);stroke-width:2px"/>
<rect x="378" y="620" width="58" height="54" style="fill: white"/>
<line x1="378" y1="620" x2="436" y2="620" style="stroke:rgb(0,0,0);stroke-width:2px" />
<line x1="378" y1="674" x2="378" y2="620" style="stroke:rgb(0,0,0);stroke-width:2px" />
<line x1="436" y1="674" x2="436" y2="620" style="stroke:rgb(0,0,0);stroke-width:2px" />
<line x1="436" y1="674" x2="378" y2="674" style="stroke:rgb(0,0,0);stroke-width:2px"/>
<rect x="378" y="674" width="58" height="46" style="fill: white"/>
<line x1="378" y1="674" x2="436" y2="674" style="stroke:rgb(0,0,0);stroke-width:2px" />
<line x1="378" y1="720" x2="378" y2="674" style="stroke:rgb(0,0,0);stroke-width:2px" />
<line x1="436" y1="720" x2="436" y2="674" style="stroke:rgb(0,0,0);stroke-width:2px" />
<line x1="436" y1="720" x2="378" y2="720" style="stroke:rgb(0,0,0);stroke-width:2px"/>
<rect x="436" y="620" width="53" height="100" style="fill: red"/>
<line x1="436" y1="620" x2="489" y2="620" style="stroke:rgb(0,0,0);stroke-width:2px" />
<line x1="436" y1="720" x2="436" y2="620" style="stroke:rgb(0,0,0);stroke-width:2px" />
<line x1="489" y1="720" x2="489" y2="620" style="stroke:rgb(0,0,0);stroke-width:2px" />
<line x1="489" y1="720" x2="436" y2="720" style="stroke:rgb(0,0,0);stroke-width:2px"/>
<rect x="489" y="337" width="57" height="83" style="fill: white"/>
<line x1="489" y1="337" x2="546" y2="337" style="stroke:rgb(0,0,0);stroke-width:2px" />
<line x1="489" y1="420" x2="489" y2="337" style="stroke:rgb(0,0,0);stroke-width:2px" />
<line x1="546" y1="420" x2="546" y2="337" style="stroke:rgb(0,0,0);stroke-width:2px" />
<line x1="546" y1="420" x2="489" y2="420" style="stroke:rgb(0,0,0);stroke-width:2px"/>
<rect x="489" y="420" width="57" height="79" style="fill: blue"/>
<line x1="489" y1="420" x2="546" y2="420" style="stroke:rgb(0,0,0);stroke-width:2px" />
<line x1="489" y1="499" x2="489" y2="420" style="stroke:rgb(0,0,0);stroke-width:2px" />
<line x1="546" y1="499" x2="546" y2="420" style="stroke:rgb(0,0,0);stroke-width:2px" />
<line x1="546" y1="499" x2="489" y2="499" style="stroke:rgb(0,0,0);stroke-width:2px"/>
<rect x="489" y="499" width="57" height="87" style="fill: yellow"/>
<line x1="489" y1="499" x2="546" y2="499" style="stroke:rgb(0,0,0);stroke-width:2px" />
<line x1="489" y1="586" x2="489" y2="499" style="stroke:rgb(0,0,0);stroke-width:2px" />
<line x1="546" y1="586" x2="546" y2="499" style="stroke:rgb(0,0,0);stroke-width:2px" />
<line x1="546" y1="586" x2="489" y2="586" style="stroke:rgb(0,0,0);stroke-width:2px"/>
<rect x="546" y="337" width="48" height="100" style="fill: yellow"/>
<line x1="546" y1="337" x2="594" y2="337" style="stroke:rgb(0,0,0);stroke-width:2px" />
<line x1="546" y1="437" x2="546" y2="337" style="stroke:rgb(0,0,0);stroke-width:2px" />
<line x1="594" y1="437" x2="594" y2="337" style="stroke:rgb(0,0,0);stroke-width:2px" />
<line x1="594" y1="437" x2="546" y2="437" style="stroke:rgb(0,0,0);stroke-width:2px"/>
<rect x="546" y="437" width="48" height="48" style="fill: red"/>
<line x1="546" y1="437" x2="594" y2="437" style="stroke:rgb(0,0,0);stroke-width:2px" />
<line x1="546" y1="485" x2="546" y2="437" style="stroke:rgb(0,0,0);stroke-width:2px" />
<line x1="594" y1="485" x2="594" y2="437" style="stroke:rgb(0,0,0);stroke-width:2px" />
<line x1="594" y1="485" x2="546" y2="485" style="stroke:rgb(0,0,0);stroke-width:2px"/>
<rect x="546" y="485" width="48" height="56" style="fill: red"/>
<line x1="546" y1="485" x2="594" y2="485" style="stroke:rgb(0,0,0);stroke-width:2px" />
<line x1="546" y1="541" x2="546" y2="485" style="stroke:rgb(0,0,0);stroke-width:2px" />
<line x1="594" y1="541" x2="594" y2="485" style="stroke:rgb(0,0,0);stroke-width:2px" />
<line x1="594" y1="541" x2="546" y2="541" style="stroke:rgb(0,0,0);stroke-width:2px"/>
<rect x="546" y="541" width="48" height="45" style="fill: white"/>
<line x1="546" y1="541" x2="594" y2="541" style="stroke:rgb(0,0,0);stroke-width:2px" />
<line x1="546" y1="586" x2="546" y2="541" style="stroke:rgb(0,0,0);stroke-width:2px" />
<line x1="594" y1="586" x2="594" y2="541" style="stroke:rgb(0,0,0);stroke-width:2px" />
<line x1="594" y1="586" x2="546" y2="586" style="stroke:rgb(0,0,0);stroke-width:2px"/>
<rect x="594" y="337" width="63" height="98" style="fill: white"/>
<line x1="594" y1="337" x2="657" y2="337" style="stroke:rgb(0,0,0);stroke-width:2px" />
<line x1="594" y1="435" x2="594" y2="337" style="stroke:rgb(0,0,0);stroke-width:2px" />
<line x1="657" y1="435" x2="657" y2="337" style="stroke:rgb(0,0,0);stroke-width:2px" />
<line x1="657" y1="435" x2="594" y2="435" style="stroke:rgb(0,0,0);stroke-width:2px"/>
<rect x="594" y="435" width="63" height="151" style="fill: yellow"/>
<line x1="594" y1="435" x2="657" y2="435" style="stroke:rgb(0,0,0);stroke-width:2px" />
<line x1="594" y1="586" x2="594" y2="435" style="stroke:rgb(0,0,0);stroke-width:2px" />
<line x1="657" y1="586" x2="657" y2="435" style="stroke:rgb(0,0,0);stroke-width:2px" />
<line x1="657" y1="586" x2="594" y2="586" style="stroke:rgb(0,0,0);stroke-width:2px"/>
<rect x="657" y="337" width="106" height="103" style="fill: red"/>
<line x1="657" y1="337" x2="763" y2="337" style="stroke:rgb(0,0,0);stroke-width:2px" />
<line x1="657" y1="440" x2="657" y2="337" style="stroke:rgb(0,0,0);stroke-width:2px" />
<line x1="763" y1="440" x2="763" y2="337" style="stroke:rgb(0,0,0);stroke-width:2px" />
<line x1="763" y1="440" x2="657" y2="440" style="stroke:rgb(0,0,0);stroke-width:2px"/>
<rect x="657" y="440" width="106" height="74" style="fill: red"/>
<line x1="657" y1="440" x2="763" y2="440" style="stroke:rgb(0,0,0);stroke-width:2px" />
<line x1="657" y1="514" x2="657" y2="440" style="stroke:rgb(0,0,0);stroke-width:2px" />
<line x1="763" y1="514" x2="763" y2="440" style="stroke:rgb(0,0,0);stroke-width:2px" />
<line x1="763" y1="514" x2="657" y2="514" style="stroke:rgb(0,0,0);stroke-width:2px"/>
<rect x="657" y="514" width="68" height="72" style="fill: white"/>
<line x1="657" y1="514" x2="725" y2="514" style="stroke:rgb(0,0,0);stroke-width:2px" />
<line x1="657" y1="586" x2="657" y2="514" style="stroke:rgb(0,0,0);stroke-width:2px" />
<line x1="725" y1="586" x2="725" y2="514" style="stroke:rgb(0,0,0);stroke-width:2px" />
<line x1="725" y1="586" x2="657" y2="586" style="stroke:rgb(0,0,0);stroke-width:2px"/>
<rect x="725" y="514" width="38" height="72" style="fill: red"/>
<line x1="725" y1="514" x2="763" y2="514" style="stroke:rgb(0,0,0);stroke-width:2px" />
<line x1="725" y1="586" x2="725" y2="514" style="stroke:rgb(0,0,0);stroke-width:2px" />
<line x1="763" y1="586" x2="763" y2="514" style="stroke:rgb(0,0,0);stroke-width:2px" />
<line x1="763" y1="586" x2="725" y2="586" style="stroke:rgb(0,0,0);stroke-width:2px"/>
<rect x="489" y="586" width="60" height="68" style="fill: blue"/>
<line x1="489" y1="586" x2="549" y2="586" style="stroke:rgb(0,0,0);stroke-width:2px" />
<line x1="489" y1="654" x2="489" y2="586" style="stroke:rgb(0,0,0);stroke-width:2px" />
<line x1="549" y1="654" x2="549" y2="586" style="stroke:rgb(0,0,0);stroke-width:2px" />
<line x1="549" y1="654" x2="489" y2="654" style="stroke:rgb(0,0,0);stroke-width:2px"/>
<rect x="549" y="586" width="45" height="68" style="fill: blue"/>
<line x1="549" y1="586" x2="594" y2="586" style="stroke:rgb(0,0,0);stroke-width:2px" />
<line x1="549" y1="654" x2="549" y2="586" style="stroke:rgb(0,0,0);stroke-width:2px" />
<line x1="594" y1="654" x2="594" y2="586" style="stroke:rgb(0,0,0);stroke-width:2px" />
<line x1="594" y1="654" x2="549" y2="654" style="stroke:rgb(0,0,0);stroke-width:2px"/>
<rect x="594" y="586" width="63" height="68" style="fill: yellow"/>
<line x1="594" y1="586" x2="657" y2="586" style="stroke:rgb(0,0,0);stroke-width:2px" />
<line x1="594" y1="654" x2="594" y2="586" style="stroke:rgb(0,0,0);stroke-width:2px" />
<line x1="657" y1="654" x2="657" y2="586" style="stroke:rgb(0,0,0);stroke-width:2px" />
<line x1="657" y1="654" x2="594" y2="654" style="stroke:rgb(0,0,0);stroke-width:2px"/>
<rect x="489" y="654" width="60" height="66" style="fill: white"/>
<line x1="489" y1="654" x2="549" y2="654" style="stroke:rgb(0,0,0);stroke-width:2px" />
<line x1="489" y1="720" x2="489" y2="654" style="stroke:rgb(0,0,0);stroke-width:2px" />
<line x1="549" y1="720" x2="549" y2="654" style="stroke:rgb(0,0,0);stroke-width:2px" />
<line x1="549" y1="720" x2="489" y2="720" style="stroke:rgb(0,0,0);stroke-width:2px"/>
<rect x="549" y="654" width="108" height="66" style="fill: yellow"/>
<line x1="549" y1="654" x2="657" y2="654" style="stroke:rgb(0,0,0);stroke-width:2px" />
<line x1="549" y1="720" x2="549" y2="654" style="stroke:rgb(0,0,0);stroke-width:2px" />
<line x1="657" y1="720" x2="657" y2="654" style="stroke:rgb(0,0,0);stroke-width:2px" />
<line x1="657" y1="720" x2="549" y2="720" style="stroke:rgb(0,0,0);stroke-width:2px"/>
<rect x="657" y="586" width="50" height="66" style="fill: blue"/>
<line x1="657" y1="586" x2="707" y2="586" style="stroke:rgb(0,0,0);stroke-width:2px" />
<line x1="657" y1="652" x2="657" y2="586" style="stroke:rgb(0,0,0);stroke-width:2px" />
<line x1="707" y1="652" x2="707" y2="586" style="stroke:rgb(0,0,0);stroke-width:2px" />
<line x1="707" y1="652" x2="657" y2="652" style="stroke:rgb(0,0,0);stroke-width:2px"/>
<rect x="707" y="586" width="56" height="66" style="fill: white"/>
<line x1="707" y1="586" x2="763" y2="586" style="stroke:rgb(0,0,0);stroke-width:2px" />
<line x1="707" y1="652" x2="707" y2="586" style="stroke:rgb(0,0,0);stroke-width:2px" />
<line x1="763" y1="652" x2="763" y2="586" style="stroke:rgb(0,0,0);stroke-width:2px" />
<line x1="763" y1="652" x2="707" y2="652" style="stroke:rgb(0,0,0);stroke-width:2px"/>
<rect x="657" y="652" width="50" height="68" style="fill: black"/>
<line x1="657" y1="652" x2="707" y2="652" style="stroke:rgb(0,0,0);stroke-width:2px" />
<line x1="657" y1="720" x2="657" y2="652" style="stroke:rgb(0,0,0);stroke-width:2px" />
<line x1="707" y1="720" x2="707" y2="652" style="stroke:rgb(0,0,0);stroke-width:2px" />
<line x1="707" y1="720" x2="657" y2="720" style="stroke:rgb(0,0,0);stroke-width:2px"/>
<rect x="707" y="652" width="56" height="68" style="fill: white"/>
<line x1="707" y1="652" x2="763" y2="652" style="stroke:rgb(0,0,0);stroke-width:2px" />
<line x1="707" y1="720" x2="707" y2="652" style="stroke:rgb(0,0,0);stroke-width:2px" />
<line x1="763" y1="720" x2="763" y2="652" style="stroke:rgb(0,0,0);stroke-width:2px" />
<line x1="763" y1="720" x2="707" y2="720" style="stroke:rgb(0,0,0);stroke-width:2px"/>
<rect x="763" y="337" width="50" height="121" style="fill: blue"/>
<line x1="763" y1="337" x2="813" y2="337" style="stroke:rgb(0,0,0);stroke-width:2px" />
<line x1="763" y1="458" x2="763" y2="337" style="stroke:rgb(0,0,0);stroke-width:2px" />
<line x1="813" y1="458" x2="813" y2="337" style="stroke:rgb(0,0,0);stroke-width:2px" />
<line x1="813" y1="458" x2="763" y2="458" style="stroke:rgb(0,0,0);stroke-width:2px"/>
<rect x="763" y="458" width="50" height="66" style="fill: red"/>
<line x1="763" y1="458" x2="813" y2="458" style="stroke:rgb(0,0,0);stroke-width:2px" />
<line x1="763" y1="524" x2="763" y2="458" style="stroke:rgb(0,0,0);stroke-width:2px" />
<line x1="813" y1="524" x2="813" y2="458" style="stroke:rgb(0,0,0);stroke-width:2px" />
<line x1="813" y1="524" x2="763" y2="524" style="stroke:rgb(0,0,0);stroke-width:2px"/>
<rect x="813" y="337" width="84" height="54" style="fill: yellow"/>
<line x1="813" y1="337" x2="897" y2="337" style="stroke:rgb(0,0,0);stroke-width:2px" />
<line x1="813" y1="391" x2="813" y2="337" style="stroke:rgb(0,0,0);stroke-width:2px" />
<line x1="897" y1="391" x2="897" y2="337" style="stroke:rgb(0,0,0);stroke-width:2px" />
<line x1="897" y1="391" x2="813" y2="391" style="stroke:rgb(0,0,0);stroke-width:2px"/>
<rect x="813" y="391" width="84" height="68" style="fill: white"/>
<line x1="813" y1="391" x2="897" y2="391" style="stroke:rgb(0,0,0);stroke-width:2px" />
<line x1="813" y1="459" x2="813" y2="391" style="stroke:rgb(0,0,0);stroke-width:2px" />
<line x1="897" y1="459" x2="897" y2="391" style="stroke:rgb(0,0,0);stroke-width:2px" />
<line x1="897" y1="459" x2="813" y2="459" style="stroke:rgb(0,0,0);stroke-width:2px"/>
<rect x="813" y="459" width="84" height="65" style="fill: white"/>
<line x1="813" y1="459" x2="897" y2="459" style="stroke:rgb(0,0,0);stroke-width:2px" />
<line x1="813" y1="524" x2="813" y2="459" style="stroke:rgb(0,0,0);stroke-width:2px" />
<line x1="897" y1="524" x2="897" y2="459" style="stroke:rgb(0,0,0);stroke-width:2px" />
<line x1="897" y1="524" x2="813" y2="524" style="stroke:rgb(0,0,0);stroke-width:2px"/>
<rect x="763" y="524" width="50" height="196" style="fill: white"/>
<line x1="763" y1="524" x2="813" y2="524" style="stroke:rgb(0,0,0);stroke-width:2px" />
<line x1="763" y1="720" x2="763" y2="524" style="stroke:rgb(0,0,0);stroke-width:2px" />
<line x1="813" y1="720" x2="813" y2="524" style="stroke:rgb(0,0,0);stroke-width:2px" />
<line x1="813" y1="720" x2="763" y2="720" style="stroke:rgb(0,0,0);stroke-width:2px"/>
<rect x="813" y="524" width="84" height="196" style="fill: yellow"/>
<line x1="813" y1="524" x2="897" y2="524" style="stroke:rgb(0,0,0);stroke-width:2px" />
<line x1="813" y1="720" x2="813" y2="524" style="stroke:rgb(0,0,0);stroke-width:2px" />
<line x1="897" y1="720" x2="897" y2="524" style="stroke:rgb(0,0,0);stroke-width:2px" />
<line x1="897" y1="720" x2="813" y2="720" style="stroke:rgb(0,0,0);stroke-width:2px"/>
<rect x="897" y="337" width="193" height="383" style="fill: black"/>
<line x1="897" y1="337" x2="1090" y2="337" style="stroke:rgb(0,0,0);stroke-width:2px" />
<line x1="897" y1="720" x2="897" y2="337" style="stroke:rgb(0,0,0);stroke-width:2px" />
<line x1="1090" y1="720" x2="1090" y2="337" style="stroke:rgb(0,0,0);stroke-width:2px" />
<line x1="1090" y1="720" x2="897" y2="720" style="stroke:rgb(0,0,0);stroke-width:2px"/>
</svg>