<?xml version="1.0" encoding="utf-8"?>
<svg xmlns="http://www.w3.org/2000/svg"
 xmlns:xlink="http://www.w3.org/1999/xlink" width="1360" height="768" >
<defs>
    <style type="text/css"><![CDATA[
        line {
        stroke: #000;
        stroke-width: 5px;
        }
    ]]></style></defs>
<pattern id="0" x="0" y="0" width="30" height="47" patternUnits="userSpaceOnUse" viewBox="56 -254 112 190">
<g id="hexagon" fill="#f0e68c">
<path d="M168-127.1c0.5,0,1,0.1,1.3,0.3l53.4,30.5c0.7,0.4,1.3,1.4,1.3,2.2v61c0,0.8-0.6,1.8-1.3,2.2L169.3-0.3 c-0.7,0.4-1.9,0.4-2.6,0l-53.4-30.5c-0.7-0.4-1.3-1.4-1.3-2.2v-61c0-0.8,0.6-1.8,1.3-2.2l53.4-30.5C167-127,167.5-127.1,168-127.1 L168-127.1z" stroke="#ffff00"  stroke-width="25" fill="white"></path>
<path d="M112-222.5c0.5,0,1,0.1,1.3,0.3l53.4,30.5c0.7,0.4,1.3,1.4,1.3,2.2v61c0,0.8-0.6,1.8-1.3,2.2l-53.4,30.5 c-0.7,0.4-1.9,0.4-2.6,0l-53.4-30.5c-0.7-0.4-1.3-1.4-1.3-2.2v-61c0-0.8,0.6-1.8,1.3-2.2l53.4-30.5 C111-222.4,111.5-222.5,112-222.5L112-222.5z" stroke="#ffff00"  stroke-width="25" fill="white"></path>
<path d="M168-317.8c0.5,0,1,0.1,1.3,0.3l53.4,30.5c0.7,0.4,1.3,1.4,1.3,2.2v61c0,0.8-0.6,1.8-1.3,2.2L169.3-191 c-0.7,0.4-1.9,0.4-2.6,0l-53.4-30.5c-0.7-0.4-1.3-1.4-1.3-2.2v-61c0-0.8,0.6-1.8,1.3-2.2l53.4-30.5 C167-317.7,167.5-317.8,168-317.8L168-317.8z" stroke="#ffff00"  stroke-width="25" fill="white"></path>
</g>
</pattern>
<pattern id="1" x="0" y="0" width="25" height="25" patternUnits="userSpaceOnUse">
<rect class="checker" x="0" width="12.5" height="12.5" y="0" fill="#ffff00"></rect>
<rect class="checker" x="12.5" width="12.5" height="12.5" y="12.5" fill="#f0e68c"></rect>
</pattern>
<pattern id="2" x="0" y="0" width="30" height="47" patternUnits="userSpaceOnUse" viewBox="56 -254 112 190">
<g id="hexagon" fill="#f0e68c">
<path d="M168-127.1c0.5,0,1,0.1,1.3,0.3l53.4,30.5c0.7,0.4,1.3,1.4,1.3,2.2v61c0,0.8-0.6,1.8-1.3,2.2L169.3-0.3 c-0.7,0.4-1.9,0.4-2.6,0l-53.4-30.5c-0.7-0.4-1.3-1.4-1.3-2.2v-61c0-0.8,0.6-1.8,1.3-2.2l53.4-30.5C167-127,167.5-127.1,168-127.1 L168-127.1z" stroke="#ffff00"  stroke-width="25" fill="white"></path>
<path d="M112-222.5c0.5,0,1,0.1,1.3,0.3l53.4,30.5c0.7,0.4,1.3,1.4,1.3,2.2v61c0,0.8-0.6,1.8-1.3,2.2l-53.4,30.5 c-0.7,0.4-1.9,0.4-2.6,0l-53.4-30.5c-0.7-0.4-1.3-1.4-1.3-2.2v-61c0-0.8,0.6-1.8,1.3-2.2l53.4-30.5 C111-222.4,111.5-222.5,112-222.5L112-222.5z" stroke="#ffff00"  stroke-width="25" fill="white"></path>
<path d="M168-317.8c0.5,0,1,0.1,1.3,0.3l53.4,30.5c0.7,0.4,1.3,1.4,1.3,2.2v61c0,0.8-0.6,1.8-1.3,2.2L169.3-191 c-0.7,0.4-1.9,0.4-2.6,0l-53.4-30.5c-0.7-0.4-1.3-1.4-1.3-2.2v-61c0-0.8,0.6-1.8,1.3-2.2l53.4-30.5 C167-317.7,167.5-317.8,168-317.8L168-317.8z" stroke="#ffff00"  stroke-width="25" fill="white"></path>
</g>
</pattern>
<pattern id="3" viewBox="0,0,10,10" width="15%" height="15%">
<polygon points="0,0 2,5 0,10 5,8 10,10 8,5 10,0 5,2" fill="#800080"/>
</pattern>
<pattern id="4" x="0" y="0" width="25" height="25" patternUnits="userSpaceOnUse">
<rect class="checker" x="0" width="12.5" height="12.5" y="0" fill="#ffff00"></rect>
<rect class="checker" x="12.5" width="12.5" height="12.5" y="12.5" fill="#f0e68c"></rect>
</pattern>
<pattern id="5" x="0" y="0" patternUnits="userSpaceOnUse" width="25" height="45" viewBox="0 0 10 18">
<g id="chevron">
<path class="left" d="M0 0l5 3v5l-5 -3z" fill="#00ff7f"></path>
<path class="right" d="M10 0l-5 3v5l5 -3" fill="#a0522d"></path>
</g>
<use x="0" y="9" xlink:href="#chevron"></use>
</pattern>
<pattern id="6" x="0" y="0" width="30" height="47" patternUnits="userSpaceOnUse" viewBox="56 -254 112 190">
<g id="hexagon" fill="#ffff00">
<path d="M168-127.1c0.5,0,1,0.1,1.3,0.3l53.4,30.5c0.7,0.4,1.3,1.4,1.3,2.2v61c0,0.8-0.6,1.8-1.3,2.2L169.3-0.3 c-0.7,0.4-1.9,0.4-2.6,0l-53.4-30.5c-0.7-0.4-1.3-1.4-1.3-2.2v-61c0-0.8,0.6-1.8,1.3-2.2l53.4-30.5C167-127,167.5-127.1,168-127.1 L168-127.1z" stroke="#00ff7f"  stroke-width="25" fill="white"></path>
<path d="M112-222.5c0.5,0,1,0.1,1.3,0.3l53.4,30.5c0.7,0.4,1.3,1.4,1.3,2.2v61c0,0.8-0.6,1.8-1.3,2.2l-53.4,30.5 c-0.7,0.4-1.9,0.4-2.6,0l-53.4-30.5c-0.7-0.4-1.3-1.4-1.3-2.2v-61c0-0.8,0.6-1.8,1.3-2.2l53.4-30.5 C111-222.4,111.5-222.5,112-222.5L112-222.5z" stroke="#00ff7f"  stroke-width="25" fill="white"></path>
<path d="M168-317.8c0.5,0,1,0.1,1.3,0.3l53.4,30.5c0.7,0.4,1.3,1.4,1.3,2.2v61c0,0.8-0.6,1.8-1.3,2.2L169.3-191 c-0.7,0.4-1.9,0.4-2.6,0l-53.4-30.5c-0.7-0.4-1.3-1.4-1.3-2.2v-61c0-0.8,0.6-1.8,1.3-2.2l53.4-30.5 C167-317.7,167.5-317.8,168-317.8L168-317.8z" stroke="#00ff7f"  stroke-width="25" fill="white"></path>
</g>
</pattern>
<pattern id="7" x="0" y="63" patternUnits="userSpaceOnUse" width="31" height="50" viewBox="0 0 10 16">
<g id="cube">
<path class="left-shade" d="M0 0l5 3v5l-5 -3z" fill="#ffff00" stroke="none"></path>
<path class="right-shade" d="M10 0l-5 3v5l5 -3" fill="#ffff00" stroke="none"></path>
</g>
<use x="5" y="8" xlink:href="#cube"></use>
<use x="-5" y="8" xlink:href="#cube"></use>
</pattern>
<pattern id="8" x="0" y="63" patternUnits="userSpaceOnUse" width="31" height="50" viewBox="0 0 10 16">
<g id="cube">
<path class="left-shade" d="M0 0l5 3v5l-5 -3z" fill="#ffff00" stroke="none"></path>
<path class="right-shade" d="M10 0l-5 3v5l5 -3" fill="#ffff00" stroke="none"></path>
</g>
<use x="5" y="8" xlink:href="#cube"></use>
<use x="-5" y="8" xlink:href="#cube"></use>
</pattern>
<pattern id="9" x="0" y="0" width="15" height="15" patternUnits="userSpaceOnUse">
<circle fill="#800080" cx="5" cy="5" r="5"></circle>
</pattern>
<pattern id="10" viewBox="0,0,10,10" width="15%" height="15%">
<polygon points="0,0 2,5 0,10 5,8 10,10 8,5 10,0 5,2" fill="#00ff7f"/>
</pattern>
<pattern id="11" x="0" y="0" width="15" height="15" patternUnits="userSpaceOnUse">
<circle fill="#a0522d" cx="5" cy="5" r="5"></circle>
</pattern>
<pattern id="12" x="0" y="0" width="30" height="47" patternUnits="userSpaceOnUse" viewBox="56 -254 112 190">
<g id="hexagon" fill="#800080">
<path d="M168-127.1c0.5,0,1,0.1,1.3,0.3l53.4,30.5c0.7,0.4,1.3,1.4,1.3,2.2v61c0,0.8-0.6,1.8-1.3,2.2L169.3-0.3 c-0.7,0.4-1.9,0.4-2.6,0l-53.4-30.5c-0.7-0.4-1.3-1.4-1.3-2.2v-61c0-0.8,0.6-1.8,1.3-2.2l53.4-30.5C167-127,167.5-127.1,168-127.1 L168-127.1z" stroke="#ffff00"  stroke-width="25" fill="white"></path>
<path d="M112-222.5c0.5,0,1,0.1,1.3,0.3l53.4,30.5c0.7,0.4,1.3,1.4,1.3,2.2v61c0,0.8-0.6,1.8-1.3,2.2l-53.4,30.5 c-0.7,0.4-1.9,0.4-2.6,0l-53.4-30.5c-0.7-0.4-1.3-1.4-1.3-2.2v-61c0-0.8,0.6-1.8,1.3-2.2l53.4-30.5 C111-222.4,111.5-222.5,112-222.5L112-222.5z" stroke="#ffff00"  stroke-width="25" fill="white"></path>
<path d="M168-317.8c0.5,0,1,0.1,1.3,0.3l53.4,30.5c0.7,0.4,1.3,1.4,1.3,2.2v61c0,0.8-0.6,1.8-1.3,2.2L169.3-191 c-0.7,0.4-1.9,0.4-2.6,0l-53.4-30.5c-0.7-0.4-1.3-1.4-1.3-2.2v-61c0-0.8,0.6-1.8,1.3-2.2l53.4-30.5 C167-317.7,167.5-317.8,168-317.8L168-317.8z" stroke="#ffff00"  stroke-width="25" fill="white"></path>
</g>
</pattern>
<pattern id="13" x="0" y="63" patternUnits="userSpaceOnUse" width="31" height="50" viewBox="0 0 10 16">
<g id="cube">
<path class="left-shade" d="M0 0l5 3v5l-5 -3z" fill="#ffff00" stroke="none"></path>
<path class="right-shade" d="M10 0l-5 3v5l5 -3" fill="#ffff00" stroke="none"></path>
</g>
<use x="5" y="8" xlink:href="#cube"></use>
<use x="-5" y="8" xlink:href="#cube"></use>
</pattern>
<pattern id="14" viewBox="0,0,10,10" width="15%" height="15%">
<polygon points="0,0 2,5 0,10 5,8 10,10 8,5 10,0 5,2" fill="#800080"/>
</pattern>
<pattern id="15" x="0" y="0" patternUnits="userSpaceOnUse" width="25" height="45" viewBox="0 0 10 18">
<g id="chevron">
<path class="left" d="M0 0l5 3v5l-5 -3z" fill="#f0e68c"></path>
<path class="right" d="M10 0l-5 3v5l5 -3" fill="#a0522d"></path>
</g>
<use x="0" y="9" xlink:href="#chevron"></use>
</pattern>
<pattern id="16" x="0" y="63" patternUnits="userSpaceOnUse" width="31" height="50" viewBox="0 0 10 16">
<g id="cube">
<path class="left-shade" d="M0 0l5 3v5l-5 -3z" fill="#f0e68c" stroke="none"></path>
<path class="right-shade" d="M10 0l-5 3v5l5 -3" fill="#f0e68c" stroke="none"></path>
</g>
<use x="5" y="8" xlink:href="#cube"></use>
<use x="-5" y="8" xlink:href="#cube"></use>
</pattern>
<pattern id="17" x="0" y="0" patternUnits="userSpaceOnUse" width="25" height="45" viewBox="0 0 10 18">
<g id="chevron">
<path class="left" d="M0 0l5 3v5l-5 -3z" fill="#00ff7f"></path>
<path class="right" d="M10 0l-5 3v5l5 -3" fill="#f0e68c"></path>
</g>
<use x="0" y="9" xlink:href="#chevron"></use>
</pattern>
<pattern id="18" x="0" y="0" width="30" height="47" patternUnits="userSpaceOnUse" viewBox="56 -254 112 190">
<g id="hexagon" fill="#a0522d">
<path d="M168-127.1c0.5,0,1,0.1,1.3,0.3l53.4,30.5c0.7,0.4,1.3,1.4,1.3,2.2v61c0,0.8-0.6,1.8-1.3,2.2L169.3-0.3 c-0.7,0.4-1.9,0.4-2.6,0l-53.4-30.5c-0.7-0.4-1.3-1.4-1.3-2.2v-61c0-0.8,0.6-1.8,1.3-2.2l53.4-30.5C167-127,167.5-127.1,168-127.1 L168-127.1z" stroke="#800080"  stroke-width="25" fill="white"></path>
<path d="M112-222.5c0.5,0,1,0.1,1.3,0.3l53.4,30.5c0.7,0.4,1.3,1.4,1.3,2.2v61c0,0.8-0.6,1.8-1.3,2.2l-53.4,30.5 c-0.7,0.4-1.9,0.4-2.6,0l-53.4-30.5c-0.7-0.4-1.3-1.4-1.3-2.2v-61c0-0.8,0.6-1.8,1.3-2.2l53.4-30.5 C111-222.4,111.5-222.5,112-222.5L112-222.5z" stroke="#800080"  stroke-width="25" fill="white"></path>
<path d="M168-317.8c0.5,0,1,0.1,1.3,0.3l53.4,30.5c0.7,0.4,1.3,1.4,1.3,2.2v61c0,0.8-0.6,1.8-1.3,2.2L169.3-191 c-0.7,0.4-1.9,0.4-2.6,0l-53.4-30.5c-0.7-0.4-1.3-1.4-1.3-2.2v-61c0-0.8,0.6-1.8,1.3-2.2l53.4-30.5 C167-317.7,167.5-317.8,168-317.8L168-317.8z" stroke="#800080"  stroke-width="25" fill="white"></path>
</g>
</pattern>
<pattern id="19" x="0" y="0" width="25" height="25" patternUnits="userSpaceOnUse">
<rect class="checker" x="0" width="12.5" height="12.5" y="0" fill="#800080"></rect>
<rect class="checker" x="12.5" width="12.5" height="12.5" y="12.5" fill="#f0e68c"></rect>
</pattern>
<pattern id="20" x="0" y="0" width="15" height="15" patternUnits="userSpaceOnUse">
<circle fill="#800080" cx="5" cy="5" r="5"></circle>
</pattern>
<pattern id="21" x="0" y="0" width="15" height="15" patternUnits="userSpaceOnUse">
<circle fill="#a0522d" cx="5" cy="5" r="5"></circle>
</pattern>
<rect x="0" y="0" width="422" height="305" style="fill: #800080"/>
<line x1="0" y1="0" x2="422" y2="0" style="stroke:rgb(0,0,0);stroke-width:2px" />
<line x1="0" y1="305" x2="0" y2="0" style="stroke:rgb(0,0,0);stroke-width:2px" />
<line x1="422" y1="305" x2="422" y2="0" style="stroke:rgb(0,0,0);stroke-width:2px" />
<line x1="422" y1="305" x2="0" y2="305" style="stroke:rgb(0,0,0);stroke-width:2px"/>
<rect x="422" y="0" width="96" height="56" style="fill: #00ff7f"/>
<line x1="422" y1="0" x2="518" y2="0" style="stroke:rgb(0,0,0);stroke-width:2px" />
<line x1="422" y1="56" x2="422" y2="0" style="stroke:rgb(0,0,0);stroke-width:2px" />
<line x1="518" y1="56" x2="518" y2="0" style="stroke:rgb(0,0,0);stroke-width:2px" />
<line x1="518" y1="56" x2="422" y2="56" style="stroke:rgb(0,0,0);stroke-width:2px"/>
<rect x="422" y="56" width="96" height="47" style="fill: url(#0)"/>
<line x1="422" y1="56" x2="518" y2="56" style="stroke:rgb(0,0,0);stroke-width:2px" />
<line x1="422" y1="103" x2="422" y2="56" style="stroke:rgb(0,0,0);stroke-width:2px" />
<line x1="518" y1="103" x2="518" y2="56" style="stroke:rgb(0,0,0);stroke-width:2px" />
<line x1="518" y1="103" x2="422" y2="103" style="stroke:rgb(0,0,0);stroke-width:2px"/>
<rect x="422" y="103" width="96" height="44" style="fill: url(#1)"/>
<line x1="422" y1="103" x2="518" y2="103" style="stroke:rgb(0,0,0);stroke-width:2px" />
<line x1="422" y1="147" x2="422" y2="103" style="stroke:rgb(0,0,0);stroke-width:2px" />
<line x1="518" y1="147" x2="518" y2="103" style="stroke:rgb(0,0,0);stroke-width:2px" />
<line x1="518" y1="147" x2="422" y2="147" style="stroke:rgb(0,0,0);stroke-width:2px"/>
<rect x="518" y="0" width="74" height="147" style="fill: url(#2)"/>
<line x1="518" y1="0" x2="592" y2="0" style="stroke:rgb(0,0,0);stroke-width:2px" />
<line x1="518" y1="147" x2="518" y2="0" style="stroke:rgb(0,0,0);stroke-width:2px" />
<line x1="592" y1="147" x2="592" y2="0" style="stroke:rgb(0,0,0);stroke-width:2px" />
<line x1="592" y1="147" x2="518" y2="147" style="stroke:rgb(0,0,0);stroke-width:2px"/>
<rect x="592" y="0" width="98" height="53" style="fill: url(#3)"/>
<line x1="592" y1="0" x2="690" y2="0" style="stroke:rgb(0,0,0);stroke-width:2px" />
<line x1="592" y1="53" x2="592" y2="0" style="stroke:rgb(0,0,0);stroke-width:2px" />
<line x1="690" y1="53" x2="690" y2="0" style="stroke:rgb(0,0,0);stroke-width:2px" />
<line x1="690" y1="53" x2="592" y2="53" style="stroke:rgb(0,0,0);stroke-width:2px"/>
<rect x="592" y="53" width="98" height="94" style="fill: url(#4)"/>
<line x1="592" y1="53" x2="690" y2="53" style="stroke:rgb(0,0,0);stroke-width:2px" />
<line x1="592" y1="147" x2="592" y2="53" style="stroke:rgb(0,0,0);stroke-width:2px" />
<line x1="690" y1="147" x2="690" y2="53" style="stroke:rgb(0,0,0);stroke-width:2px" />
<line x1="690" y1="147" x2="592" y2="147" style="stroke:rgb(0,0,0);stroke-width:2px"/>
<rect x="690" y="0" width="92" height="73" style="fill: #ffff00"/>
<line x1="690" y1="0" x2="782" y2="0" style="stroke:rgb(0,0,0);stroke-width:2px" />
<line x1="690" y1="73" x2="690" y2="0" style="stroke:rgb(0,0,0);stroke-width:2px" />
<line x1="782" y1="73" x2="782" y2="0" style="stroke:rgb(0,0,0);stroke-width:2px" />
<line x1="782" y1="73" x2="690" y2="73" style="stroke:rgb(0,0,0);stroke-width:2px"/>
<rect x="690" y="73" width="92" height="74" style="fill: url(#5)"/>
<line x1="690" y1="73" x2="782" y2="73" style="stroke:rgb(0,0,0);stroke-width:2px" />
<line x1="690" y1="147" x2="690" y2="73" style="stroke:rgb(0,0,0);stroke-width:2px" />
<line x1="782" y1="147" x2="782" y2="73" style="stroke:rgb(0,0,0);stroke-width:2px" />
<line x1="782" y1="147" x2="690" y2="147" style="stroke:rgb(0,0,0);stroke-width:2px"/>
<rect x="782" y="0" width="62" height="80" style="fill: #ffff00"/>
<line x1="782" y1="0" x2="844" y2="0" style="stroke:rgb(0,0,0);stroke-width:2px" />
<line x1="782" y1="80" x2="782" y2="0" style="stroke:rgb(0,0,0);stroke-width:2px" />
<line x1="844" y1="80" x2="844" y2="0" style="stroke:rgb(0,0,0);stroke-width:2px" />
<line x1="844" y1="80" x2="782" y2="80" style="stroke:rgb(0,0,0);stroke-width:2px"/>
<rect x="782" y="80" width="62" height="67" style="fill: url(#6)"/>
<line x1="782" y1="80" x2="844" y2="80" style="stroke:rgb(0,0,0);stroke-width:2px" />
<line x1="782" y1="147" x2="782" y2="80" style="stroke:rgb(0,0,0);stroke-width:2px" />
<line x1="844" y1="147" x2="844" y2="80" style="stroke:rgb(0,0,0);stroke-width:2px" />
<line x1="844" y1="147" x2="782" y2="147" style="stroke:rgb(0,0,0);stroke-width:2px"/>
<rect x="422" y="147" width="90" height="76" style="fill: #00ff7f"/>
<line x1="422" y1="147" x2="512" y2="147" style="stroke:rgb(0,0,0);stroke-width:2px" />
<line x1="422" y1="223" x2="422" y2="147" style="stroke:rgb(0,0,0);stroke-width:2px" />
<line x1="512" y1="223" x2="512" y2="147" style="stroke:rgb(0,0,0);stroke-width:2px" />
<line x1="512" y1="223" x2="422" y2="223" style="stroke:rgb(0,0,0);stroke-width:2px"/>
<rect x="512" y="147" width="49" height="76" style="fill: #ffff00"/>
<line x1="512" y1="147" x2="561" y2="147" style="stroke:rgb(0,0,0);stroke-width:2px" />
<line x1="512" y1="223" x2="512" y2="147" style="stroke:rgb(0,0,0);stroke-width:2px" />
<line x1="561" y1="223" x2="561" y2="147" style="stroke:rgb(0,0,0);stroke-width:2px" />
<line x1="561" y1="223" x2="512" y2="223" style="stroke:rgb(0,0,0);stroke-width:2px"/>
<rect x="422" y="223" width="90" height="82" style="fill: #ffff00"/>
<line x1="422" y1="223" x2="512" y2="223" style="stroke:rgb(0,0,0);stroke-width:2px" />
<line x1="422" y1="305" x2="422" y2="223" style="stroke:rgb(0,0,0);stroke-width:2px" />
<line x1="512" y1="305" x2="512" y2="223" style="stroke:rgb(0,0,0);stroke-width:2px" />
<line x1="512" y1="305" x2="422" y2="305" style="stroke:rgb(0,0,0);stroke-width:2px"/>
<rect x="512" y="223" width="49" height="82" style="fill: white"/>
<line x1="512" y1="223" x2="561" y2="223" style="stroke:rgb(0,0,0);stroke-width:2px" />
<line x1="512" y1="305" x2="512" y2="223" style="stroke:rgb(0,0,0);stroke-width:2px" />
<line x1="561" y1="305" x2="561" y2="223" style="stroke:rgb(0,0,0);stroke-width:2px" />
<line x1="561" y1="305" x2="512" y2="305" style="stroke:rgb(0,0,0);stroke-width:2px"/>
<rect x="561" y="147" width="129" height="158" style="fill: #00ff7f"/>
<line x1="561" y1="147" x2="690" y2="147" style="stroke:rgb(0,0,0);stroke-width:2px" />
<line x1="561" y1="305" x2="561" y2="147" style="stroke:rgb(0,0,0);stroke-width:2px" />
<line x1="690" y1="305" x2="690" y2="147" style="stroke:rgb(0,0,0);stroke-width:2px" />
<line x1="690" y1="305" x2="561" y2="305" style="stroke:rgb(0,0,0);stroke-width:2px"/>
<rect x="690" y="147" width="154" height="158" style="fill: #800080"/>
<line x1="690" y1="147" x2="844" y2="147" style="stroke:rgb(0,0,0);stroke-width:2px" />
<line x1="690" y1="305" x2="690" y2="147" style="stroke:rgb(0,0,0);stroke-width:2px" />
<line x1="844" y1="305" x2="844" y2="147" style="stroke:rgb(0,0,0);stroke-width:2px" />
<line x1="844" y1="305" x2="690" y2="305" style="stroke:rgb(0,0,0);stroke-width:2px"/>
<rect x="844" y="0" width="299" height="48" style="fill: white"/>
<line x1="844" y1="0" x2="1143" y2="0" style="stroke:rgb(0,0,0);stroke-width:2px" />
<line x1="844" y1="48" x2="844" y2="0" style="stroke:rgb(0,0,0);stroke-width:2px" />
<line x1="1143" y1="48" x2="1143" y2="0" style="stroke:rgb(0,0,0);stroke-width:2px" />
<line x1="1143" y1="48" x2="844" y2="48" style="stroke:rgb(0,0,0);stroke-width:2px"/>
<rect x="844" y="48" width="57" height="36" style="fill: white"/>
<line x1="844" y1="48" x2="901" y2="48" style="stroke:rgb(0,0,0);stroke-width:2px" />
<line x1="844" y1="84" x2="844" y2="48" style="stroke:rgb(0,0,0);stroke-width:2px" />
<line x1="901" y1="84" x2="901" y2="48" style="stroke:rgb(0,0,0);stroke-width:2px" />
<line x1="901" y1="84" x2="844" y2="84" style="stroke:rgb(0,0,0);stroke-width:2px"/>
<rect x="901" y="48" width="95" height="36" style="fill: #a0522d"/>
<line x1="901" y1="48" x2="996" y2="48" style="stroke:rgb(0,0,0);stroke-width:2px" />
<line x1="901" y1="84" x2="901" y2="48" style="stroke:rgb(0,0,0);stroke-width:2px" />
<line x1="996" y1="84" x2="996" y2="48" style="stroke:rgb(0,0,0);stroke-width:2px" />
<line x1="996" y1="84" x2="901" y2="84" style="stroke:rgb(0,0,0);stroke-width:2px"/>
<rect x="996" y="48" width="147" height="36" style="fill: white"/>
<line x1="996" y1="48" x2="1143" y2="48" style="stroke:rgb(0,0,0);stroke-width:2px" />
<line x1="996" y1="84" x2="996" y2="48" style="stroke:rgb(0,0,0);stroke-width:2px" />
<line x1="1143" y1="84" x2="1143" y2="48" style="stroke:rgb(0,0,0);stroke-width:2px" />
<line x1="1143" y1="84" x2="996" y2="84" style="stroke:rgb(0,0,0);stroke-width:2px"/>
<rect x="844" y="84" width="107" height="57" style="fill: #f0e68c"/>
<line x1="844" y1="84" x2="951" y2="84" style="stroke:rgb(0,0,0);stroke-width:2px" />
<line x1="844" y1="141" x2="844" y2="84" style="stroke:rgb(0,0,0);stroke-width:2px" />
<line x1="951" y1="141" x2="951" y2="84" style="stroke:rgb(0,0,0);stroke-width:2px" />
<line x1="951" y1="141" x2="844" y2="141" style="stroke:rgb(0,0,0);stroke-width:2px"/>
<rect x="951" y="84" width="68" height="57" style="fill: #00ff7f"/>
<line x1="951" y1="84" x2="1019" y2="84" style="stroke:rgb(0,0,0);stroke-width:2px" />
<line x1="951" y1="141" x2="951" y2="84" style="stroke:rgb(0,0,0);stroke-width:2px" />
<line x1="1019" y1="141" x2="1019" y2="84" style="stroke:rgb(0,0,0);stroke-width:2px" />
<line x1="1019" y1="141" x2="951" y2="141" style="stroke:rgb(0,0,0);stroke-width:2px"/>
<rect x="1019" y="84" width="124" height="57" style="fill: #00ff7f"/>
<line x1="1019" y1="84" x2="1143" y2="84" style="stroke:rgb(0,0,0);stroke-width:2px" />
<line x1="1019" y1="141" x2="1019" y2="84" style="stroke:rgb(0,0,0);stroke-width:2px" />
<line x1="1143" y1="141" x2="1143" y2="84" style="stroke:rgb(0,0,0);stroke-width:2px" />
<line x1="1143" y1="141" x2="1019" y2="141" style="stroke:rgb(0,0,0);stroke-width:2px"/>
<rect x="1143" y="0" width="83" height="141" style="fill: #00ff7f"/>
<line x1="1143" y1="0" x2="1226" y2="0" style="stroke:rgb(0,0,0);stroke-width:2px" />
<line x1="1143" y1="141" x2="1143" y2="0" style="stroke:rgb(0,0,0);stroke-width:2px" />
<line x1="1226" y1="141" x2="1226" y2="0" style="stroke:rgb(0,0,0);stroke-width:2px" />
<line x1="1226" y1="141" x2="1143" y2="141" style="stroke:rgb(0,0,0);stroke-width:2px"/>
<rect x="1226" y="0" width="134" height="78" style="fill: #f0e68c"/>
<line x1="1226" y1="0" x2="1360" y2="0" style="stroke:rgb(0,0,0);stroke-width:2px" />
<line x1="1226" y1="78" x2="1226" y2="0" style="stroke:rgb(0,0,0);stroke-width:2px" />
<line x1="1360" y1="78" x2="1360" y2="0" style="stroke:rgb(0,0,0);stroke-width:2px" />
<line x1="1360" y1="78" x2="1226" y2="78" style="stroke:rgb(0,0,0);stroke-width:2px"/>
<rect x="1226" y="78" width="134" height="63" style="fill: #f0e68c"/>
<line x1="1226" y1="78" x2="1360" y2="78" style="stroke:rgb(0,0,0);stroke-width:2px" />
<line x1="1226" y1="141" x2="1226" y2="78" style="stroke:rgb(0,0,0);stroke-width:2px" />
<line x1="1360" y1="141" x2="1360" y2="78" style="stroke:rgb(0,0,0);stroke-width:2px" />
<line x1="1360" y1="141" x2="1226" y2="141" style="stroke:rgb(0,0,0);stroke-width:2px"/>
<rect x="844" y="141" width="299" height="164" style="fill: #f0e68c"/>
<line x1="844" y1="141" x2="1143" y2="141" style="stroke:rgb(0,0,0);stroke-width:2px" />
<line x1="844" y1="305" x2="844" y2="141" style="stroke:rgb(0,0,0);stroke-width:2px" />
<line x1="1143" y1="305" x2="1143" y2="141" style="stroke:rgb(0,0,0);stroke-width:2px" />
<line x1="1143" y1="305" x2="844" y2="305" style="stroke:rgb(0,0,0);stroke-width:2px"/>
<rect x="1143" y="141" width="92" height="110" style="fill: #00ff7f"/>
<line x1="1143" y1="141" x2="1235" y2="141" style="stroke:rgb(0,0,0);stroke-width:2px" />
<line x1="1143" y1="251" x2="1143" y2="141" style="stroke:rgb(0,0,0);stroke-width:2px" />
<line x1="1235" y1="251" x2="1235" y2="141" style="stroke:rgb(0,0,0);stroke-width:2px" />
<line x1="1235" y1="251" x2="1143" y2="251" style="stroke:rgb(0,0,0);stroke-width:2px"/>
<rect x="1143" y="251" width="43" height="54" style="fill: #ffff00"/>
<line x1="1143" y1="251" x2="1186" y2="251" style="stroke:rgb(0,0,0);stroke-width:2px" />
<line x1="1143" y1="305" x2="1143" y2="251" style="stroke:rgb(0,0,0);stroke-width:2px" />
<line x1="1186" y1="305" x2="1186" y2="251" style="stroke:rgb(0,0,0);stroke-width:2px" />
<line x1="1186" y1="305" x2="1143" y2="305" style="stroke:rgb(0,0,0);stroke-width:2px"/>
<rect x="1186" y="251" width="49" height="54" style="fill: #800080"/>
<line x1="1186" y1="251" x2="1235" y2="251" style="stroke:rgb(0,0,0);stroke-width:2px" />
<line x1="1186" y1="305" x2="1186" y2="251" style="stroke:rgb(0,0,0);stroke-width:2px" />
<line x1="1235" y1="305" x2="1235" y2="251" style="stroke:rgb(0,0,0);stroke-width:2px" />
<line x1="1235" y1="305" x2="1186" y2="305" style="stroke:rgb(0,0,0);stroke-width:2px"/>
<rect x="1235" y="141" width="58" height="73" style="fill: #00ff7f"/>
<line x1="1235" y1="141" x2="1293" y2="141" style="stroke:rgb(0,0,0);stroke-width:2px" />
<line x1="1235" y1="214" x2="1235" y2="141" style="stroke:rgb(0,0,0);stroke-width:2px" />
<line x1="1293" y1="214" x2="1293" y2="141" style="stroke:rgb(0,0,0);stroke-width:2px" />
<line x1="1293" y1="214" x2="1235" y2="214" style="stroke:rgb(0,0,0);stroke-width:2px"/>
<rect x="1235" y="214" width="58" height="91" style="fill: black"/>
<line x1="1235" y1="214" x2="1293" y2="214" style="stroke:rgb(0,0,0);stroke-width:2px" />
<line x1="1235" y1="305" x2="1235" y2="214" style="stroke:rgb(0,0,0);stroke-width:2px" />
<line x1="1293" y1="305" x2="1293" y2="214" style="stroke:rgb(0,0,0);stroke-width:2px" />
<line x1="1293" y1="305" x2="1235" y2="305" style="stroke:rgb(0,0,0);stroke-width:2px"/>
<rect x="1293" y="141" width="67" height="164" style="fill: white"/>
<line x1="1293" y1="141" x2="1360" y2="141" style="stroke:rgb(0,0,0);stroke-width:2px" />
<line x1="1293" y1="305" x2="1293" y2="141" style="stroke:rgb(0,0,0);stroke-width:2px" />
<line x1="1360" y1="305" x2="1360" y2="141" style="stroke:rgb(0,0,0);stroke-width:2px" />
<line x1="1360" y1="305" x2="1293" y2="305" style="stroke:rgb(0,0,0);stroke-width:2px"/>
<rect x="0" y="305" width="114" height="105" style="fill: #800080"/>
<line x1="0" y1="305" x2="114" y2="305" style="stroke:rgb(0,0,0);stroke-width:2px" />
<line x1="0" y1="410" x2="0" y2="305" style="stroke:rgb(0,0,0);stroke-width:2px" />
<line x1="114" y1="410" x2="114" y2="305" style="stroke:rgb(0,0,0);stroke-width:2px" />
<line x1="114" y1="410" x2="0" y2="410" style="stroke:rgb(0,0,0);stroke-width:2px"/>
<rect x="0" y="410" width="46" height="53" style="fill: #a0522d"/>
<line x1="0" y1="410" x2="46" y2="410" style="stroke:rgb(0,0,0);stroke-width:2px" />
<line x1="0" y1="463" x2="0" y2="410" style="stroke:rgb(0,0,0);stroke-width:2px" />
<line x1="46" y1="463" x2="46" y2="410" style="stroke:rgb(0,0,0);stroke-width:2px" />
<line x1="46" y1="463" x2="0" y2="463" style="stroke:rgb(0,0,0);stroke-width:2px"/>
<rect x="46" y="410" width="68" height="53" style="fill: #f0e68c"/>
<line x1="46" y1="410" x2="114" y2="410" style="stroke:rgb(0,0,0);stroke-width:2px" />
<line x1="46" y1="463" x2="46" y2="410" style="stroke:rgb(0,0,0);stroke-width:2px" />
<line x1="114" y1="463" x2="114" y2="410" style="stroke:rgb(0,0,0);stroke-width:2px" />
<line x1="114" y1="463" x2="46" y2="463" style="stroke:rgb(0,0,0);stroke-width:2px"/>
<rect x="114" y="305" width="171" height="158" style="fill: black"/>
<line x1="114" y1="305" x2="285" y2="305" style="stroke:rgb(0,0,0);stroke-width:2px" />
<line x1="114" y1="463" x2="114" y2="305" style="stroke:rgb(0,0,0);stroke-width:2px" />
<line x1="285" y1="463" x2="285" y2="305" style="stroke:rgb(0,0,0);stroke-width:2px" />
<line x1="285" y1="463" x2="114" y2="463" style="stroke:rgb(0,0,0);stroke-width:2px"/>
<rect x="285" y="305" width="317" height="85" style="fill: #00ff7f"/>
<line x1="285" y1="305" x2="602" y2="305" style="stroke:rgb(0,0,0);stroke-width:2px" />
<line x1="285" y1="390" x2="285" y2="305" style="stroke:rgb(0,0,0);stroke-width:2px" />
<line x1="602" y1="390" x2="602" y2="305" style="stroke:rgb(0,0,0);stroke-width:2px" />
<line x1="602" y1="390" x2="285" y2="390" style="stroke:rgb(0,0,0);stroke-width:2px"/>
<rect x="602" y="305" width="242" height="85" style="fill: #a0522d"/>
<line x1="602" y1="305" x2="844" y2="305" style="stroke:rgb(0,0,0);stroke-width:2px" />
<line x1="602" y1="390" x2="602" y2="305" style="stroke:rgb(0,0,0);stroke-width:2px" />
<line x1="844" y1="390" x2="844" y2="305" style="stroke:rgb(0,0,0);stroke-width:2px" />
<line x1="844" y1="390" x2="602" y2="390" style="stroke:rgb(0,0,0);stroke-width:2px"/>
<rect x="285" y="390" width="317" height="73" style="fill: url(#7)"/>
<line x1="285" y1="390" x2="602" y2="390" style="stroke:rgb(0,0,0);stroke-width:2px" />
<line x1="285" y1="463" x2="285" y2="390" style="stroke:rgb(0,0,0);stroke-width:2px" />
<line x1="602" y1="463" x2="602" y2="390" style="stroke:rgb(0,0,0);stroke-width:2px" />
<line x1="602" y1="463" x2="285" y2="463" style="stroke:rgb(0,0,0);stroke-width:2px"/>
<rect x="602" y="390" width="92" height="73" style="fill: #f0e68c"/>
<line x1="602" y1="390" x2="694" y2="390" style="stroke:rgb(0,0,0);stroke-width:2px" />
<line x1="602" y1="463" x2="602" y2="390" style="stroke:rgb(0,0,0);stroke-width:2px" />
<line x1="694" y1="463" x2="694" y2="390" style="stroke:rgb(0,0,0);stroke-width:2px" />
<line x1="694" y1="463" x2="602" y2="463" style="stroke:rgb(0,0,0);stroke-width:2px"/>
<rect x="694" y="390" width="150" height="73" style="fill: url(#8)"/>
<line x1="694" y1="390" x2="844" y2="390" style="stroke:rgb(0,0,0);stroke-width:2px" />
<line x1="694" y1="463" x2="694" y2="390" style="stroke:rgb(0,0,0);stroke-width:2px" />
<line x1="844" y1="463" x2="844" y2="390" style="stroke:rgb(0,0,0);stroke-width:2px" />
<line x1="844" y1="463" x2="694" y2="463" style="stroke:rgb(0,0,0);stroke-width:2px"/>
<rect x="0" y="463" width="47" height="104" style="fill: #800080"/>
<line x1="0" y1="463" x2="47" y2="463" style="stroke:rgb(0,0,0);stroke-width:2px" />
<line x1="0" y1="567" x2="0" y2="463" style="stroke:rgb(0,0,0);stroke-width:2px" />
<line x1="47" y1="567" x2="47" y2="463" style="stroke:rgb(0,0,0);stroke-width:2px" />
<line x1="47" y1="567" x2="0" y2="567" style="stroke:rgb(0,0,0);stroke-width:2px"/>
<rect x="0" y="567" width="47" height="59" style="fill: #00ff7f"/>
<line x1="0" y1="567" x2="47" y2="567" style="stroke:rgb(0,0,0);stroke-width:2px" />
<line x1="0" y1="626" x2="0" y2="567" style="stroke:rgb(0,0,0);stroke-width:2px" />
<line x1="47" y1="626" x2="47" y2="567" style="stroke:rgb(0,0,0);stroke-width:2px" />
<line x1="47" y1="626" x2="0" y2="626" style="stroke:rgb(0,0,0);stroke-width:2px"/>
<rect x="0" y="626" width="47" height="89" style="fill: url(#9)"/>
<line x1="0" y1="626" x2="47" y2="626" style="stroke:rgb(0,0,0);stroke-width:2px" />
<line x1="0" y1="715" x2="0" y2="626" style="stroke:rgb(0,0,0);stroke-width:2px" />
<line x1="47" y1="715" x2="47" y2="626" style="stroke:rgb(0,0,0);stroke-width:2px" />
<line x1="47" y1="715" x2="0" y2="715" style="stroke:rgb(0,0,0);stroke-width:2px"/>
<rect x="0" y="715" width="47" height="53" style="fill: #a0522d"/>
<line x1="0" y1="715" x2="47" y2="715" style="stroke:rgb(0,0,0);stroke-width:2px" />
<line x1="0" y1="768" x2="0" y2="715" style="stroke:rgb(0,0,0);stroke-width:2px" />
<line x1="47" y1="768" x2="47" y2="715" style="stroke:rgb(0,0,0);stroke-width:2px" />
<line x1="47" y1="768" x2="0" y2="768" style="stroke:rgb(0,0,0);stroke-width:2px"/>
<rect x="47" y="463" width="79" height="127" style="fill: url(#10)"/>
<line x1="47" y1="463" x2="126" y2="463" style="stroke:rgb(0,0,0);stroke-width:2px" />
<line x1="47" y1="590" x2="47" y2="463" style="stroke:rgb(0,0,0);stroke-width:2px" />
<line x1="126" y1="590" x2="126" y2="463" style="stroke:rgb(0,0,0);stroke-width:2px" />
<line x1="126" y1="590" x2="47" y2="590" style="stroke:rgb(0,0,0);stroke-width:2px"/>
<rect x="47" y="590" width="79" height="73" style="fill: #a0522d"/>
<line x1="47" y1="590" x2="126" y2="590" style="stroke:rgb(0,0,0);stroke-width:2px" />
<line x1="47" y1="663" x2="47" y2="590" style="stroke:rgb(0,0,0);stroke-width:2px" />
<line x1="126" y1="663" x2="126" y2="590" style="stroke:rgb(0,0,0);stroke-width:2px" />
<line x1="126" y1="663" x2="47" y2="663" style="stroke:rgb(0,0,0);stroke-width:2px"/>
<rect x="47" y="663" width="79" height="59" style="fill: #800080"/>
<line x1="47" y1="663" x2="126" y2="663" style="stroke:rgb(0,0,0);stroke-width:2px" />
<line x1="47" y1="722" x2="47" y2="663" style="stroke:rgb(0,0,0);stroke-width:2px" />
<line x1="126" y1="722" x2="126" y2="663" style="stroke:rgb(0,0,0);stroke-width:2px" />
<line x1="126" y1="722" x2="47" y2="722" style="stroke:rgb(0,0,0);stroke-width:2px"/>
<rect x="47" y="722" width="79" height="46" style="fill: url(#11)"/>
<line x1="47" y1="722" x2="126" y2="722" style="stroke:rgb(0,0,0);stroke-width:2px" />
<line x1="47" y1="768" x2="47" y2="722" style="stroke:rgb(0,0,0);stroke-width:2px" />
<line x1="126" y1="768" x2="126" y2="722" style="stroke:rgb(0,0,0);stroke-width:2px" />
<line x1="126" y1="768" x2="47" y2="768" style="stroke:rgb(0,0,0);stroke-width:2px"/>
<rect x="126" y="463" width="159" height="105" style="fill: #f0e68c"/>
<line x1="126" y1="463" x2="285" y2="463" style="stroke:rgb(0,0,0);stroke-width:2px" />
<line x1="126" y1="568" x2="126" y2="463" style="stroke:rgb(0,0,0);stroke-width:2px" />
<line x1="285" y1="568" x2="285" y2="463" style="stroke:rgb(0,0,0);stroke-width:2px" />
<line x1="285" y1="568" x2="126" y2="568" style="stroke:rgb(0,0,0);stroke-width:2px"/>
<rect x="126" y="568" width="92" height="75" style="fill: url(#12)"/>
<line x1="126" y1="568" x2="218" y2="568" style="stroke:rgb(0,0,0);stroke-width:2px" />
<line x1="126" y1="643" x2="126" y2="568" style="stroke:rgb(0,0,0);stroke-width:2px" />
<line x1="218" y1="643" x2="218" y2="568" style="stroke:rgb(0,0,0);stroke-width:2px" />
<line x1="218" y1="643" x2="126" y2="643" style="stroke:rgb(0,0,0);stroke-width:2px"/>
<rect x="126" y="643" width="92" height="51" style="fill: white"/>
<line x1="126" y1="643" x2="218" y2="643" style="stroke:rgb(0,0,0);stroke-width:2px" />
<line x1="126" y1="694" x2="126" y2="643" style="stroke:rgb(0,0,0);stroke-width:2px" />
<line x1="218" y1="694" x2="218" y2="643" style="stroke:rgb(0,0,0);stroke-width:2px" />
<line x1="218" y1="694" x2="126" y2="694" style="stroke:rgb(0,0,0);stroke-width:2px"/>
<rect x="218" y="568" width="67" height="126" style="fill: #f0e68c"/>
<line x1="218" y1="568" x2="285" y2="568" style="stroke:rgb(0,0,0);stroke-width:2px" />
<line x1="218" y1="694" x2="218" y2="568" style="stroke:rgb(0,0,0);stroke-width:2px" />
<line x1="285" y1="694" x2="285" y2="568" style="stroke:rgb(0,0,0);stroke-width:2px" />
<line x1="285" y1="694" x2="218" y2="694" style="stroke:rgb(0,0,0);stroke-width:2px"/>
<rect x="126" y="694" width="92" height="74" style="fill: #f0e68c"/>
<line x1="126" y1="694" x2="218" y2="694" style="stroke:rgb(0,0,0);stroke-width:2px" />
<line x1="126" y1="768" x2="126" y2="694" style="stroke:rgb(0,0,0);stroke-width:2px" />
<line x1="218" y1="768" x2="218" y2="694" style="stroke:rgb(0,0,0);stroke-width:2px" />
<line x1="218" y1="768" x2="126" y2="768" style="stroke:rgb(0,0,0);stroke-width:2px"/>
<rect x="218" y="694" width="67" height="74" style="fill: url(#13)"/>
<line x1="218" y1="694" x2="285" y2="694" style="stroke:rgb(0,0,0);stroke-width:2px" />
<line x1="218" y1="768" x2="218" y2="694" style="stroke:rgb(0,0,0);stroke-width:2px" />
<line x1="285" y1="768" x2="285" y2="694" style="stroke:rgb(0,0,0);stroke-width:2px" />
<line x1="285" y1="768" x2="218" y2="768" style="stroke:rgb(0,0,0);stroke-width:2px"/>
<rect x="285" y="463" width="306" height="67" style="fill: white"/>
<line x1="285" y1="463" x2="591" y2="463" style="stroke:rgb(0,0,0);stroke-width:2px" />
<line x1="285" y1="530" x2="285" y2="463" style="stroke:rgb(0,0,0);stroke-width:2px" />
<line x1="591" y1="530" x2="591" y2="463" style="stroke:rgb(0,0,0);stroke-width:2px" />
<line x1="591" y1="530" x2="285" y2="530" style="stroke:rgb(0,0,0);stroke-width:2px"/>
<rect x="285" y="530" width="306" height="79" style="fill: #a0522d"/>
<line x1="285" y1="530" x2="591" y2="530" style="stroke:rgb(0,0,0);stroke-width:2px" />
<line x1="285" y1="609" x2="285" y2="530" style="stroke:rgb(0,0,0);stroke-width:2px" />
<line x1="591" y1="609" x2="591" y2="530" style="stroke:rgb(0,0,0);stroke-width:2px" />
<line x1="591" y1="609" x2="285" y2="609" style="stroke:rgb(0,0,0);stroke-width:2px"/>
<rect x="591" y="463" width="101" height="68" style="fill: #00ff7f"/>
<line x1="591" y1="463" x2="692" y2="463" style="stroke:rgb(0,0,0);stroke-width:2px" />
<line x1="591" y1="531" x2="591" y2="463" style="stroke:rgb(0,0,0);stroke-width:2px" />
<line x1="692" y1="531" x2="692" y2="463" style="stroke:rgb(0,0,0);stroke-width:2px" />
<line x1="692" y1="531" x2="591" y2="531" style="stroke:rgb(0,0,0);stroke-width:2px"/>
<rect x="692" y="463" width="52" height="68" style="fill: url(#14)"/>
<line x1="692" y1="463" x2="744" y2="463" style="stroke:rgb(0,0,0);stroke-width:2px" />
<line x1="692" y1="531" x2="692" y2="463" style="stroke:rgb(0,0,0);stroke-width:2px" />
<line x1="744" y1="531" x2="744" y2="463" style="stroke:rgb(0,0,0);stroke-width:2px" />
<line x1="744" y1="531" x2="692" y2="531" style="stroke:rgb(0,0,0);stroke-width:2px"/>
<rect x="744" y="463" width="100" height="68" style="fill: #00ff7f"/>
<line x1="744" y1="463" x2="844" y2="463" style="stroke:rgb(0,0,0);stroke-width:2px" />
<line x1="744" y1="531" x2="744" y2="463" style="stroke:rgb(0,0,0);stroke-width:2px" />
<line x1="844" y1="531" x2="844" y2="463" style="stroke:rgb(0,0,0);stroke-width:2px" />
<line x1="844" y1="531" x2="744" y2="531" style="stroke:rgb(0,0,0);stroke-width:2px"/>
<rect x="591" y="531" width="253" height="78" style="fill: url(#15)"/>
<line x1="591" y1="531" x2="844" y2="531" style="stroke:rgb(0,0,0);stroke-width:2px" />
<line x1="591" y1="609" x2="591" y2="531" style="stroke:rgb(0,0,0);stroke-width:2px" />
<line x1="844" y1="609" x2="844" y2="531" style="stroke:rgb(0,0,0);stroke-width:2px" />
<line x1="844" y1="609" x2="591" y2="609" style="stroke:rgb(0,0,0);stroke-width:2px"/>
<rect x="285" y="609" width="306" height="159" style="fill: #f0e68c"/>
<line x1="285" y1="609" x2="591" y2="609" style="stroke:rgb(0,0,0);stroke-width:2px" />
<line x1="285" y1="768" x2="285" y2="609" style="stroke:rgb(0,0,0);stroke-width:2px" />
<line x1="591" y1="768" x2="591" y2="609" style="stroke:rgb(0,0,0);stroke-width:2px" />
<line x1="591" y1="768" x2="285" y2="768" style="stroke:rgb(0,0,0);stroke-width:2px"/>
<rect x="591" y="609" width="45" height="159" style="fill: #a0522d"/>
<line x1="591" y1="609" x2="636" y2="609" style="stroke:rgb(0,0,0);stroke-width:2px" />
<line x1="591" y1="768" x2="591" y2="609" style="stroke:rgb(0,0,0);stroke-width:2px" />
<line x1="636" y1="768" x2="636" y2="609" style="stroke:rgb(0,0,0);stroke-width:2px" />
<line x1="636" y1="768" x2="591" y2="768" style="stroke:rgb(0,0,0);stroke-width:2px"/>
<rect x="636" y="609" width="47" height="78" style="fill: #f0e68c"/>
<line x1="636" y1="609" x2="683" y2="609" style="stroke:rgb(0,0,0);stroke-width:2px" />
<line x1="636" y1="687" x2="636" y2="609" style="stroke:rgb(0,0,0);stroke-width:2px" />
<line x1="683" y1="687" x2="683" y2="609" style="stroke:rgb(0,0,0);stroke-width:2px" />
<line x1="683" y1="687" x2="636" y2="687" style="stroke:rgb(0,0,0);stroke-width:2px"/>
<rect x="636" y="687" width="47" height="81" style="fill: url(#16)"/>
<line x1="636" y1="687" x2="683" y2="687" style="stroke:rgb(0,0,0);stroke-width:2px" />
<line x1="636" y1="768" x2="636" y2="687" style="stroke:rgb(0,0,0);stroke-width:2px" />
<line x1="683" y1="768" x2="683" y2="687" style="stroke:rgb(0,0,0);stroke-width:2px" />
<line x1="683" y1="768" x2="636" y2="768" style="stroke:rgb(0,0,0);stroke-width:2px"/>
<rect x="683" y="609" width="94" height="60" style="fill: #800080"/>
<line x1="683" y1="609" x2="777" y2="609" style="stroke:rgb(0,0,0);stroke-width:2px" />
<line x1="683" y1="669" x2="683" y2="609" style="stroke:rgb(0,0,0);stroke-width:2px" />
<line x1="777" y1="669" x2="777" y2="609" style="stroke:rgb(0,0,0);stroke-width:2px" />
<line x1="777" y1="669" x2="683" y2="669" style="stroke:rgb(0,0,0);stroke-width:2px"/>
<rect x="777" y="609" width="67" height="60" style="fill: #ffff00"/>
<line x1="777" y1="609" x2="844" y2="609" style="stroke:rgb(0,0,0);stroke-width:2px" />
<line x1="777" y1="669" x2="777" y2="609" style="stroke:rgb(0,0,0);stroke-width:2px" />
<line x1="844" y1="669" x2="844" y2="609" style="stroke:rgb(0,0,0);stroke-width:2px" />
<line x1="844" y1="669" x2="777" y2="669" style="stroke:rgb(0,0,0);stroke-width:2px"/>
<rect x="683" y="669" width="104" height="99" style="fill: url(#17)"/>
<line x1="683" y1="669" x2="787" y2="669" style="stroke:rgb(0,0,0);stroke-width:2px" />
<line x1="683" y1="768" x2="683" y2="669" style="stroke:rgb(0,0,0);stroke-width:2px" />
<line x1="787" y1="768" x2="787" y2="669" style="stroke:rgb(0,0,0);stroke-width:2px" />
<line x1="787" y1="768" x2="683" y2="768" style="stroke:rgb(0,0,0);stroke-width:2px"/>
<rect x="787" y="669" width="57" height="99" style="fill: #a0522d"/>
<line x1="787" y1="669" x2="844" y2="669" style="stroke:rgb(0,0,0);stroke-width:2px" />
<line x1="787" y1="768" x2="787" y2="669" style="stroke:rgb(0,0,0);stroke-width:2px" />
<line x1="844" y1="768" x2="844" y2="669" style="stroke:rgb(0,0,0);stroke-width:2px" />
<line x1="844" y1="768" x2="787" y2="768" style="stroke:rgb(0,0,0);stroke-width:2px"/>
<rect x="844" y="305" width="516" height="245" style="fill: #ffff00"/>
<line x1="844" y1="305" x2="1360" y2="305" style="stroke:rgb(0,0,0);stroke-width:2px" />
<line x1="844" y1="550" x2="844" y2="305" style="stroke:rgb(0,0,0);stroke-width:2px" />
<line x1="1360" y1="550" x2="1360" y2="305" style="stroke:rgb(0,0,0);stroke-width:2px" />
<line x1="1360" y1="550" x2="844" y2="550" style="stroke:rgb(0,0,0);stroke-width:2px"/>
<rect x="844" y="550" width="66" height="78" style="fill: #f0e68c"/>
<line x1="844" y1="550" x2="910" y2="550" style="stroke:rgb(0,0,0);stroke-width:2px" />
<line x1="844" y1="628" x2="844" y2="550" style="stroke:rgb(0,0,0);stroke-width:2px" />
<line x1="910" y1="628" x2="910" y2="550" style="stroke:rgb(0,0,0);stroke-width:2px" />
<line x1="910" y1="628" x2="844" y2="628" style="stroke:rgb(0,0,0);stroke-width:2px"/>
<rect x="844" y="628" width="66" height="61" style="fill: #a0522d"/>
<line x1="844" y1="628" x2="910" y2="628" style="stroke:rgb(0,0,0);stroke-width:2px" />
<line x1="844" y1="689" x2="844" y2="628" style="stroke:rgb(0,0,0);stroke-width:2px" />
<line x1="910" y1="689" x2="910" y2="628" style="stroke:rgb(0,0,0);stroke-width:2px" />
<line x1="910" y1="689" x2="844" y2="689" style="stroke:rgb(0,0,0);stroke-width:2px"/>
<rect x="910" y="550" width="129" height="87" style="fill: #00ff7f"/>
<line x1="910" y1="550" x2="1039" y2="550" style="stroke:rgb(0,0,0);stroke-width:2px" />
<line x1="910" y1="637" x2="910" y2="550" style="stroke:rgb(0,0,0);stroke-width:2px" />
<line x1="1039" y1="637" x2="1039" y2="550" style="stroke:rgb(0,0,0);stroke-width:2px" />
<line x1="1039" y1="637" x2="910" y2="637" style="stroke:rgb(0,0,0);stroke-width:2px"/>
<rect x="910" y="637" width="79" height="52" style="fill: #a0522d"/>
<line x1="910" y1="637" x2="989" y2="637" style="stroke:rgb(0,0,0);stroke-width:2px" />
<line x1="910" y1="689" x2="910" y2="637" style="stroke:rgb(0,0,0);stroke-width:2px" />
<line x1="989" y1="689" x2="989" y2="637" style="stroke:rgb(0,0,0);stroke-width:2px" />
<line x1="989" y1="689" x2="910" y2="689" style="stroke:rgb(0,0,0);stroke-width:2px"/>
<rect x="989" y="637" width="50" height="52" style="fill: black"/>
<line x1="989" y1="637" x2="1039" y2="637" style="stroke:rgb(0,0,0);stroke-width:2px" />
<line x1="989" y1="689" x2="989" y2="637" style="stroke:rgb(0,0,0);stroke-width:2px" />
<line x1="1039" y1="689" x2="1039" y2="637" style="stroke:rgb(0,0,0);stroke-width:2px" />
<line x1="1039" y1="689" x2="989" y2="689" style="stroke:rgb(0,0,0);stroke-width:2px"/>
<rect x="1039" y="550" width="65" height="139" style="fill: #a0522d"/>
<line x1="1039" y1="550" x2="1104" y2="550" style="stroke:rgb(0,0,0);stroke-width:2px" />
<line x1="1039" y1="689" x2="1039" y2="550" style="stroke:rgb(0,0,0);stroke-width:2px" />
<line x1="1104" y1="689" x2="1104" y2="550" style="stroke:rgb(0,0,0);stroke-width:2px" />
<line x1="1104" y1="689" x2="1039" y2="689" style="stroke:rgb(0,0,0);stroke-width:2px"/>
<rect x="1104" y="550" width="43" height="53" style="fill: #a0522d"/>
<line x1="1104" y1="550" x2="1147" y2="550" style="stroke:rgb(0,0,0);stroke-width:2px" />
<line x1="1104" y1="603" x2="1104" y2="550" style="stroke:rgb(0,0,0);stroke-width:2px" />
<line x1="1147" y1="603" x2="1147" y2="550" style="stroke:rgb(0,0,0);stroke-width:2px" />
<line x1="1147" y1="603" x2="1104" y2="603" style="stroke:rgb(0,0,0);stroke-width:2px"/>
<rect x="1104" y="603" width="43" height="86" style="fill: #800080"/>
<line x1="1104" y1="603" x2="1147" y2="603" style="stroke:rgb(0,0,0);stroke-width:2px" />
<line x1="1104" y1="689" x2="1104" y2="603" style="stroke:rgb(0,0,0);stroke-width:2px" />
<line x1="1147" y1="689" x2="1147" y2="603" style="stroke:rgb(0,0,0);stroke-width:2px" />
<line x1="1147" y1="689" x2="1104" y2="689" style="stroke:rgb(0,0,0);stroke-width:2px"/>
<rect x="1147" y="550" width="213" height="85" style="fill: url(#18)"/>
<line x1="1147" y1="550" x2="1360" y2="550" style="stroke:rgb(0,0,0);stroke-width:2px" />
<line x1="1147" y1="635" x2="1147" y2="550" style="stroke:rgb(0,0,0);stroke-width:2px" />
<line x1="1360" y1="635" x2="1360" y2="550" style="stroke:rgb(0,0,0);stroke-width:2px" />
<line x1="1360" y1="635" x2="1147" y2="635" style="stroke:rgb(0,0,0);stroke-width:2px"/>
<rect x="1147" y="635" width="86" height="54" style="fill: #00ff7f"/>
<line x1="1147" y1="635" x2="1233" y2="635" style="stroke:rgb(0,0,0);stroke-width:2px" />
<line x1="1147" y1="689" x2="1147" y2="635" style="stroke:rgb(0,0,0);stroke-width:2px" />
<line x1="1233" y1="689" x2="1233" y2="635" style="stroke:rgb(0,0,0);stroke-width:2px" />
<line x1="1233" y1="689" x2="1147" y2="689" style="stroke:rgb(0,0,0);stroke-width:2px"/>
<rect x="1233" y="635" width="127" height="54" style="fill: #a0522d"/>
<line x1="1233" y1="635" x2="1360" y2="635" style="stroke:rgb(0,0,0);stroke-width:2px" />
<line x1="1233" y1="689" x2="1233" y2="635" style="stroke:rgb(0,0,0);stroke-width:2px" />
<line x1="1360" y1="689" x2="1360" y2="635" style="stroke:rgb(0,0,0);stroke-width:2px" />
<line x1="1360" y1="689" x2="1233" y2="689" style="stroke:rgb(0,0,0);stroke-width:2px"/>
<rect x="844" y="689" width="92" height="79" style="fill: url(#19)"/>
<line x1="844" y1="689" x2="936" y2="689" style="stroke:rgb(0,0,0);stroke-width:2px" />
<line x1="844" y1="768" x2="844" y2="689" style="stroke:rgb(0,0,0);stroke-width:2px" />
<line x1="936" y1="768" x2="936" y2="689" style="stroke:rgb(0,0,0);stroke-width:2px" />
<line x1="936" y1="768" x2="844" y2="768" style="stroke:rgb(0,0,0);stroke-width:2px"/>
<rect x="936" y="689" width="103" height="79" style="fill: url(#20)"/>
<line x1="936" y1="689" x2="1039" y2="689" style="stroke:rgb(0,0,0);stroke-width:2px" />
<line x1="936" y1="768" x2="936" y2="689" style="stroke:rgb(0,0,0);stroke-width:2px" />
<line x1="1039" y1="768" x2="1039" y2="689" style="stroke:rgb(0,0,0);stroke-width:2px" />
<line x1="1039" y1="768" x2="936" y2="768" style="stroke:rgb(0,0,0);stroke-width:2px"/>
<rect x="1039" y="689" width="86" height="79" style="fill: url(#21)"/>
<line x1="1039" y1="689" x2="1125" y2="689" style="stroke:rgb(0,0,0);stroke-width:2px" />
<line x1="1039" y1="768" x2="1039" y2="689" style="stroke:rgb(0,0,0);stroke-width:2px" />
<line x1="1125" y1="768" x2="1125" y2="689" style="stroke:rgb(0,0,0);stroke-width:2px" />
<line x1="1125" y1="768" x2="1039" y2="768" style="stroke:rgb(0,0,0);stroke-width:2px"/>
<rect x="1125" y="689" width="41" height="79" style="fill: #800080"/>
<line x1="1125" y1="689" x2="1166" y2="689" style="stroke:rgb(0,0,0);stroke-width:2px" />
<line x1="1125" y1="768" x2="1125" y2="689" style="stroke:rgb(0,0,0);stroke-width:2px" />
<line x1="1166" y1="768" x2="1166" y2="689" style="stroke:rgb(0,0,0);stroke-width:2px" />
<line x1="1166" y1="768" x2="1125" y2="768" style="stroke:rgb(0,0,0);stroke-width:2px"/>
<rect x="1166" y="689" width="68" height="79" style="fill: #800080"/>
<line x1="1166" y1="689" x2="1234" y2="689" style="stroke:rgb(0,0,0);stroke-width:2px" />
<line x1="1166" y1="768" x2="1166" y2="689" style="stroke:rgb(0,0,0);stroke-width:2px" />
<line x1="1234" y1="768" x2="1234" y2="689" style="stroke:rgb(0,0,0);stroke-width:2px" />
<line x1="1234" y1="768" x2="1166" y2="768" style="stroke:rgb(0,0,0);stroke-width:2px"/>
<rect x="1234" y="689" width="49" height="79" style="fill: white"/>
<line x1="1234" y1="689" x2="1283" y2="689" style="stroke:rgb(0,0,0);stroke-width:2px" />
<line x1="1234" y1="768" x2="1234" y2="689" style="stroke:rgb(0,0,0);stroke-width:2px" />
<line x1="1283" y1="768" x2="1283" y2="689" style="stroke:rgb(0,0,0);stroke-width:2px" />
<line x1="1283" y1="768" x2="1234" y2="768" style="stroke:rgb(0,0,0);stroke-width:2px"/>
<rect x="1283" y="689" width="77" height="79" style="fill: #a0522d"/>
<line x1="1283" y1="689" x2="1360" y2="689" style="stroke:rgb(0,0,0);stroke-width:2px" />
<line x1="1283" y1="768" x2="1283" y2="689" style="stroke:rgb(0,0,0);stroke-width:2px" />
<line x1="1360" y1="768" x2="1360" y2="689" style="stroke:rgb(0,0,0);stroke-width:2px" />
<line x1="1360" y1="768" x2="1283" y2="768" style="stroke:rgb(0,0,0);stroke-width:2px"/>
</svg>