<?xml version="1.0" encoding="utf-8"?>
<svg xmlns="http://www.w3.org/2000/svg"
 xmlns:xlink="http://www.w3.org/1999/xlink" width="1024" height="768" >
<defs>
    <style type="text/css"><![CDATA[
        line {
        stroke: #000;
        stroke-width: 5px;
        }
    ]]></style></defs>
<rect x="0" y="0" width="66" height="183" style="fill: red"/>
<line x1="0" y1="0" x2="66" y2="0"/>
<line x1="0" y1="183" x2="0" y2="0"/>
<line x1="66" y1="183" x2="66" y2="0"/>
<line x1="66" y1="183" x2="0" y2="183"/>
<rect x="66" y="0" width="100" height="81" style="fill: white"/>
<line x1="66" y1="0" x2="166" y2="0"/>
<line x1="66" y1="81" x2="66" y2="0"/>
<line x1="166" y1="81" x2="166" y2="0"/>
<line x1="166" y1="81" x2="66" y2="81"/>
<rect x="66" y="81" width="100" height="102" style="fill: white"/>
<line x1="66" y1="81" x2="166" y2="81"/>
<line x1="66" y1="183" x2="66" y2="81"/>
<line x1="166" y1="183" x2="166" y2="81"/>
<line x1="166" y1="183" x2="66" y2="183"/>
<rect x="0" y="183" width="166" height="126" style="fill: skyblue"/>
<line x1="0" y1="183" x2="166" y2="183"/>
<line x1="0" y1="309" x2="0" y2="183"/>
<line x1="166" y1="309" x2="166" y2="183"/>
<line x1="166" y1="309" x2="0" y2="309"/>
<rect x="166" y="0" width="192" height="309" style="fill: skyblue"/>
<line x1="166" y1="0" x2="358" y2="0"/>
<line x1="166" y1="309" x2="166" y2="0"/>
<line x1="358" y1="309" x2="358" y2="0"/>
<line x1="358" y1="309" x2="166" y2="309"/>
<rect x="358" y="0" width="135" height="173" style="fill: skyblue"/>
<line x1="358" y1="0" x2="493" y2="0"/>
<line x1="358" y1="173" x2="358" y2="0"/>
<line x1="493" y1="173" x2="493" y2="0"/>
<line x1="493" y1="173" x2="358" y2="173"/>
<rect x="493" y="0" width="195" height="173" style="fill: yellow"/>
<line x1="493" y1="0" x2="688" y2="0"/>
<line x1="493" y1="173" x2="493" y2="0"/>
<line x1="688" y1="173" x2="688" y2="0"/>
<line x1="688" y1="173" x2="493" y2="173"/>
<rect x="358" y="173" width="135" height="63" style="fill: white"/>
<line x1="358" y1="173" x2="493" y2="173"/>
<line x1="358" y1="236" x2="358" y2="173"/>
<line x1="493" y1="236" x2="493" y2="173"/>
<line x1="493" y1="236" x2="358" y2="236"/>
<rect x="358" y="236" width="90" height="73" style="fill: skyblue"/>
<line x1="358" y1="236" x2="448" y2="236"/>
<line x1="358" y1="309" x2="358" y2="236"/>
<line x1="448" y1="309" x2="448" y2="236"/>
<line x1="448" y1="309" x2="358" y2="309"/>
<rect x="448" y="236" width="45" height="73" style="fill: red"/>
<line x1="448" y1="236" x2="493" y2="236"/>
<line x1="448" y1="309" x2="448" y2="236"/>
<line x1="493" y1="309" x2="493" y2="236"/>
<line x1="493" y1="309" x2="448" y2="309"/>
<rect x="493" y="173" width="72" height="56" style="fill: white"/>
<line x1="493" y1="173" x2="565" y2="173"/>
<line x1="493" y1="229" x2="493" y2="173"/>
<line x1="565" y1="229" x2="565" y2="173"/>
<line x1="565" y1="229" x2="493" y2="229"/>
<rect x="565" y="173" width="36" height="56" style="fill: white"/>
<line x1="565" y1="173" x2="601" y2="173"/>
<line x1="565" y1="229" x2="565" y2="173"/>
<line x1="601" y1="229" x2="601" y2="173"/>
<line x1="601" y1="229" x2="565" y2="229"/>
<rect x="601" y="173" width="87" height="56" style="fill: skyblue"/>
<line x1="601" y1="173" x2="688" y2="173"/>
<line x1="601" y1="229" x2="601" y2="173"/>
<line x1="688" y1="229" x2="688" y2="173"/>
<line x1="688" y1="229" x2="601" y2="229"/>
<rect x="493" y="229" width="108" height="80" style="fill: red"/>
<line x1="493" y1="229" x2="601" y2="229"/>
<line x1="493" y1="309" x2="493" y2="229"/>
<line x1="601" y1="309" x2="601" y2="229"/>
<line x1="601" y1="309" x2="493" y2="309"/>
<rect x="601" y="229" width="87" height="80" style="fill: white"/>
<line x1="601" y1="229" x2="688" y2="229"/>
<line x1="601" y1="309" x2="601" y2="229"/>
<line x1="688" y1="309" x2="688" y2="229"/>
<line x1="688" y1="309" x2="601" y2="309"/>
<rect x="688" y="0" width="66" height="58" style="fill: yellow"/>
<line x1="688" y1="0" x2="754" y2="0"/>
<line x1="688" y1="58" x2="688" y2="0"/>
<line x1="754" y1="58" x2="754" y2="0"/>
<line x1="754" y1="58" x2="688" y2="58"/>
<rect x="754" y="0" width="45" height="58" style="fill: red"/>
<line x1="754" y1="0" x2="799" y2="0"/>
<line x1="754" y1="58" x2="754" y2="0"/>
<line x1="799" y1="58" x2="799" y2="0"/>
<line x1="799" y1="58" x2="754" y2="58"/>
<rect x="688" y="58" width="66" height="44" style="fill: white"/>
<line x1="688" y1="58" x2="754" y2="58"/>
<line x1="688" y1="102" x2="688" y2="58"/>
<line x1="754" y1="102" x2="754" y2="58"/>
<line x1="754" y1="102" x2="688" y2="102"/>
<rect x="754" y="58" width="45" height="44" style="fill: skyblue"/>
<line x1="754" y1="58" x2="799" y2="58"/>
<line x1="754" y1="102" x2="754" y2="58"/>
<line x1="799" y1="102" x2="799" y2="58"/>
<line x1="799" y1="102" x2="754" y2="102"/>
<rect x="688" y="102" width="111" height="83" style="fill: white"/>
<line x1="688" y1="102" x2="799" y2="102"/>
<line x1="688" y1="185" x2="688" y2="102"/>
<line x1="799" y1="185" x2="799" y2="102"/>
<line x1="799" y1="185" x2="688" y2="185"/>
<rect x="799" y="0" width="64" height="62" style="fill: white"/>
<line x1="799" y1="0" x2="863" y2="0"/>
<line x1="799" y1="62" x2="799" y2="0"/>
<line x1="863" y1="62" x2="863" y2="0"/>
<line x1="863" y1="62" x2="799" y2="62"/>
<rect x="799" y="62" width="64" height="73" style="fill: black"/>
<line x1="799" y1="62" x2="863" y2="62"/>
<line x1="799" y1="135" x2="799" y2="62"/>
<line x1="863" y1="135" x2="863" y2="62"/>
<line x1="863" y1="135" x2="799" y2="135"/>
<rect x="799" y="135" width="64" height="50" style="fill: white"/>
<line x1="799" y1="135" x2="863" y2="135"/>
<line x1="799" y1="185" x2="799" y2="135"/>
<line x1="863" y1="185" x2="863" y2="135"/>
<line x1="863" y1="185" x2="799" y2="185"/>
<rect x="863" y="0" width="66" height="78" style="fill: red"/>
<line x1="863" y1="0" x2="929" y2="0"/>
<line x1="863" y1="78" x2="863" y2="0"/>
<line x1="929" y1="78" x2="929" y2="0"/>
<line x1="929" y1="78" x2="863" y2="78"/>
<rect x="929" y="0" width="95" height="78" style="fill: white"/>
<line x1="929" y1="0" x2="1024" y2="0"/>
<line x1="929" y1="78" x2="929" y2="0"/>
<line x1="1024" y1="78" x2="1024" y2="0"/>
<line x1="1024" y1="78" x2="929" y2="78"/>
<rect x="863" y="78" width="55" height="46" style="fill: white"/>
<line x1="863" y1="78" x2="918" y2="78"/>
<line x1="863" y1="124" x2="863" y2="78"/>
<line x1="918" y1="124" x2="918" y2="78"/>
<line x1="918" y1="124" x2="863" y2="124"/>
<rect x="918" y="78" width="106" height="46" style="fill: skyblue"/>
<line x1="918" y1="78" x2="1024" y2="78"/>
<line x1="918" y1="124" x2="918" y2="78"/>
<line x1="1024" y1="124" x2="1024" y2="78"/>
<line x1="1024" y1="124" x2="918" y2="124"/>
<rect x="863" y="124" width="55" height="61" style="fill: white"/>
<line x1="863" y1="124" x2="918" y2="124"/>
<line x1="863" y1="185" x2="863" y2="124"/>
<line x1="918" y1="185" x2="918" y2="124"/>
<line x1="918" y1="185" x2="863" y2="185"/>
<rect x="918" y="124" width="106" height="61" style="fill: white"/>
<line x1="918" y1="124" x2="1024" y2="124"/>
<line x1="918" y1="185" x2="918" y2="124"/>
<line x1="1024" y1="185" x2="1024" y2="124"/>
<line x1="1024" y1="185" x2="918" y2="185"/>
<rect x="688" y="185" width="175" height="83" style="fill: yellow"/>
<line x1="688" y1="185" x2="863" y2="185"/>
<line x1="688" y1="268" x2="688" y2="185"/>
<line x1="863" y1="268" x2="863" y2="185"/>
<line x1="863" y1="268" x2="688" y2="268"/>
<rect x="688" y="268" width="175" height="41" style="fill: yellow"/>
<line x1="688" y1="268" x2="863" y2="268"/>
<line x1="688" y1="309" x2="688" y2="268"/>
<line x1="863" y1="309" x2="863" y2="268"/>
<line x1="863" y1="309" x2="688" y2="309"/>
<rect x="863" y="185" width="161" height="124" style="fill: red"/>
<line x1="863" y1="185" x2="1024" y2="185"/>
<line x1="863" y1="309" x2="863" y2="185"/>
<line x1="1024" y1="309" x2="1024" y2="185"/>
<line x1="1024" y1="309" x2="863" y2="309"/>
<rect x="0" y="309" width="364" height="270" style="fill: red"/>
<line x1="0" y1="309" x2="364" y2="309"/>
<line x1="0" y1="579" x2="0" y2="309"/>
<line x1="364" y1="579" x2="364" y2="309"/>
<line x1="364" y1="579" x2="0" y2="579"/>
<rect x="364" y="309" width="112" height="67" style="fill: white"/>
<line x1="364" y1="309" x2="476" y2="309"/>
<line x1="364" y1="376" x2="364" y2="309"/>
<line x1="476" y1="376" x2="476" y2="309"/>
<line x1="476" y1="376" x2="364" y2="376"/>
<rect x="476" y="309" width="119" height="67" style="fill: black"/>
<line x1="476" y1="309" x2="595" y2="309"/>
<line x1="476" y1="376" x2="476" y2="309"/>
<line x1="595" y1="376" x2="595" y2="309"/>
<line x1="595" y1="376" x2="476" y2="376"/>
<rect x="595" y="309" width="93" height="67" style="fill: black"/>
<line x1="595" y1="309" x2="688" y2="309"/>
<line x1="595" y1="376" x2="595" y2="309"/>
<line x1="688" y1="376" x2="688" y2="309"/>
<line x1="688" y1="376" x2="595" y2="376"/>
<rect x="364" y="376" width="118" height="39" style="fill: white"/>
<line x1="364" y1="376" x2="482" y2="376"/>
<line x1="364" y1="415" x2="364" y2="376"/>
<line x1="482" y1="415" x2="482" y2="376"/>
<line x1="482" y1="415" x2="364" y2="415"/>
<rect x="482" y="376" width="119" height="39" style="fill: white"/>
<line x1="482" y1="376" x2="601" y2="376"/>
<line x1="482" y1="415" x2="482" y2="376"/>
<line x1="601" y1="415" x2="601" y2="376"/>
<line x1="601" y1="415" x2="482" y2="415"/>
<rect x="601" y="376" width="87" height="39" style="fill: white"/>
<line x1="601" y1="376" x2="688" y2="376"/>
<line x1="601" y1="415" x2="601" y2="376"/>
<line x1="688" y1="415" x2="688" y2="376"/>
<line x1="688" y1="415" x2="601" y2="415"/>
<rect x="364" y="415" width="118" height="59" style="fill: white"/>
<line x1="364" y1="415" x2="482" y2="415"/>
<line x1="364" y1="474" x2="364" y2="415"/>
<line x1="482" y1="474" x2="482" y2="415"/>
<line x1="482" y1="474" x2="364" y2="474"/>
<rect x="482" y="415" width="206" height="59" style="fill: yellow"/>
<line x1="482" y1="415" x2="688" y2="415"/>
<line x1="482" y1="474" x2="482" y2="415"/>
<line x1="688" y1="474" x2="688" y2="415"/>
<line x1="688" y1="474" x2="482" y2="474"/>
<rect x="364" y="474" width="324" height="105" style="fill: skyblue"/>
<line x1="364" y1="474" x2="688" y2="474"/>
<line x1="364" y1="579" x2="364" y2="474"/>
<line x1="688" y1="579" x2="688" y2="474"/>
<line x1="688" y1="579" x2="364" y2="579"/>
<rect x="0" y="579" width="99" height="123" style="fill: red"/>
<line x1="0" y1="579" x2="99" y2="579"/>
<line x1="0" y1="702" x2="0" y2="579"/>
<line x1="99" y1="702" x2="99" y2="579"/>
<line x1="99" y1="702" x2="0" y2="702"/>
<rect x="99" y="579" width="60" height="123" style="fill: yellow"/>
<line x1="99" y1="579" x2="159" y2="579"/>
<line x1="99" y1="702" x2="99" y2="579"/>
<line x1="159" y1="702" x2="159" y2="579"/>
<line x1="159" y1="702" x2="99" y2="702"/>
<rect x="159" y="579" width="90" height="123" style="fill: yellow"/>
<line x1="159" y1="579" x2="249" y2="579"/>
<line x1="159" y1="702" x2="159" y2="579"/>
<line x1="249" y1="702" x2="249" y2="579"/>
<line x1="249" y1="702" x2="159" y2="702"/>
<rect x="249" y="579" width="51" height="123" style="fill: red"/>
<line x1="249" y1="579" x2="300" y2="579"/>
<line x1="249" y1="702" x2="249" y2="579"/>
<line x1="300" y1="702" x2="300" y2="579"/>
<line x1="300" y1="702" x2="249" y2="702"/>
<rect x="300" y="579" width="64" height="123" style="fill: red"/>
<line x1="300" y1="579" x2="364" y2="579"/>
<line x1="300" y1="702" x2="300" y2="579"/>
<line x1="364" y1="702" x2="364" y2="579"/>
<line x1="364" y1="702" x2="300" y2="702"/>
<rect x="0" y="702" width="159" height="66" style="fill: yellow"/>
<line x1="0" y1="702" x2="159" y2="702"/>
<line x1="0" y1="768" x2="0" y2="702"/>
<line x1="159" y1="768" x2="159" y2="702"/>
<line x1="159" y1="768" x2="0" y2="768"/>
<rect x="159" y="702" width="205" height="66" style="fill: skyblue"/>
<line x1="159" y1="702" x2="364" y2="702"/>
<line x1="159" y1="768" x2="159" y2="702"/>
<line x1="364" y1="768" x2="364" y2="702"/>
<line x1="364" y1="768" x2="159" y2="768"/>
<rect x="364" y="579" width="198" height="189" style="fill: red"/>
<line x1="364" y1="579" x2="562" y2="579"/>
<line x1="364" y1="768" x2="364" y2="579"/>
<line x1="562" y1="768" x2="562" y2="579"/>
<line x1="562" y1="768" x2="364" y2="768"/>
<rect x="562" y="579" width="76" height="43" style="fill: black"/>
<line x1="562" y1="579" x2="638" y2="579"/>
<line x1="562" y1="622" x2="562" y2="579"/>
<line x1="638" y1="622" x2="638" y2="579"/>
<line x1="638" y1="622" x2="562" y2="622"/>
<rect x="562" y="622" width="76" height="64" style="fill: red"/>
<line x1="562" y1="622" x2="638" y2="622"/>
<line x1="562" y1="686" x2="562" y2="622"/>
<line x1="638" y1="686" x2="638" y2="622"/>
<line x1="638" y1="686" x2="562" y2="686"/>
<rect x="638" y="579" width="50" height="107" style="fill: white"/>
<line x1="638" y1="579" x2="688" y2="579"/>
<line x1="638" y1="686" x2="638" y2="579"/>
<line x1="688" y1="686" x2="688" y2="579"/>
<line x1="688" y1="686" x2="638" y2="686"/>
<rect x="562" y="686" width="126" height="82" style="fill: red"/>
<line x1="562" y1="686" x2="688" y2="686"/>
<line x1="562" y1="768" x2="562" y2="686"/>
<line x1="688" y1="768" x2="688" y2="686"/>
<line x1="688" y1="768" x2="562" y2="768"/>
<rect x="688" y="309" width="336" height="178" style="fill: black"/>
<line x1="688" y1="309" x2="1024" y2="309"/>
<line x1="688" y1="487" x2="688" y2="309"/>
<line x1="1024" y1="487" x2="1024" y2="309"/>
<line x1="1024" y1="487" x2="688" y2="487"/>
<rect x="688" y="487" width="74" height="80" style="fill: white"/>
<line x1="688" y1="487" x2="762" y2="487"/>
<line x1="688" y1="567" x2="688" y2="487"/>
<line x1="762" y1="567" x2="762" y2="487"/>
<line x1="762" y1="567" x2="688" y2="567"/>
<rect x="762" y="487" width="53" height="80" style="fill: white"/>
<line x1="762" y1="487" x2="815" y2="487"/>
<line x1="762" y1="567" x2="762" y2="487"/>
<line x1="815" y1="567" x2="815" y2="487"/>
<line x1="815" y1="567" x2="762" y2="567"/>
<rect x="815" y="487" width="83" height="80" style="fill: white"/>
<line x1="815" y1="487" x2="898" y2="487"/>
<line x1="815" y1="567" x2="815" y2="487"/>
<line x1="898" y1="567" x2="898" y2="487"/>
<line x1="898" y1="567" x2="815" y2="567"/>
<rect x="898" y="487" width="55" height="80" style="fill: yellow"/>
<line x1="898" y1="487" x2="953" y2="487"/>
<line x1="898" y1="567" x2="898" y2="487"/>
<line x1="953" y1="567" x2="953" y2="487"/>
<line x1="953" y1="567" x2="898" y2="567"/>
<rect x="953" y="487" width="71" height="80" style="fill: yellow"/>
<line x1="953" y1="487" x2="1024" y2="487"/>
<line x1="953" y1="567" x2="953" y2="487"/>
<line x1="1024" y1="567" x2="1024" y2="487"/>
<line x1="1024" y1="567" x2="953" y2="567"/>
<rect x="688" y="567" width="127" height="39" style="fill: black"/>
<line x1="688" y1="567" x2="815" y2="567"/>
<line x1="688" y1="606" x2="688" y2="567"/>
<line x1="815" y1="606" x2="815" y2="567"/>
<line x1="815" y1="606" x2="688" y2="606"/>
<rect x="815" y="567" width="209" height="39" style="fill: white"/>
<line x1="815" y1="567" x2="1024" y2="567"/>
<line x1="815" y1="606" x2="815" y2="567"/>
<line x1="1024" y1="606" x2="1024" y2="567"/>
<line x1="1024" y1="606" x2="815" y2="606"/>
<rect x="688" y="606" width="336" height="162" style="fill: skyblue"/>
<line x1="688" y1="606" x2="1024" y2="606"/>
<line x1="688" y1="768" x2="688" y2="606"/>
<line x1="1024" y1="768" x2="1024" y2="606"/>
<line x1="1024" y1="768" x2="688" y2="768"/>
</svg>