<?xml version="1.0" encoding="utf-8"?>
<svg xmlns="http://www.w3.org/2000/svg"
 xmlns:xlink="http://www.w3.org/1999/xlink" width="1360" height="768" >
<defs>
    <style type="text/css"><![CDATA[
        line {
        stroke: #000;
        stroke-width: 5px;
        }
    ]]></style></defs>
<rect x="0" y="0" width="543" height="184" style="fill: #000080"/>
<line x1="0" y1="0" x2="543" y2="0" style="stroke:rgb(0,0,0);stroke-width:2px" />
<line x1="0" y1="184" x2="0" y2="0" style="stroke:rgb(0,0,0);stroke-width:2px" />
<line x1="543" y1="184" x2="543" y2="0" style="stroke:rgb(0,0,0);stroke-width:2px" />
<line x1="543" y1="184" x2="0" y2="184" style="stroke:rgb(0,0,0);stroke-width:2px"/>
<rect x="0" y="184" width="543" height="192" style="fill: #000080"/>
<line x1="0" y1="184" x2="543" y2="184" style="stroke:rgb(0,0,0);stroke-width:2px" />
<line x1="0" y1="376" x2="0" y2="184" style="stroke:rgb(0,0,0);stroke-width:2px" />
<line x1="543" y1="376" x2="543" y2="184" style="stroke:rgb(0,0,0);stroke-width:2px" />
<line x1="543" y1="376" x2="0" y2="376" style="stroke:rgb(0,0,0);stroke-width:2px"/>
<rect x="543" y="0" width="76" height="119" style="fill: #7FFFD4"/>
<line x1="543" y1="0" x2="619" y2="0" style="stroke:rgb(0,0,0);stroke-width:2px" />
<line x1="543" y1="119" x2="543" y2="0" style="stroke:rgb(0,0,0);stroke-width:2px" />
<line x1="619" y1="119" x2="619" y2="0" style="stroke:rgb(0,0,0);stroke-width:2px" />
<line x1="619" y1="119" x2="543" y2="119" style="stroke:rgb(0,0,0);stroke-width:2px"/>
<rect x="543" y="119" width="76" height="99" style="fill: #7FFFD4"/>
<line x1="543" y1="119" x2="619" y2="119" style="stroke:rgb(0,0,0);stroke-width:2px" />
<line x1="543" y1="218" x2="543" y2="119" style="stroke:rgb(0,0,0);stroke-width:2px" />
<line x1="619" y1="218" x2="619" y2="119" style="stroke:rgb(0,0,0);stroke-width:2px" />
<line x1="619" y1="218" x2="543" y2="218" style="stroke:rgb(0,0,0);stroke-width:2px"/>
<rect x="619" y="0" width="84" height="218" style="fill: #ff7f50"/>
<line x1="619" y1="0" x2="703" y2="0" style="stroke:rgb(0,0,0);stroke-width:2px" />
<line x1="619" y1="218" x2="619" y2="0" style="stroke:rgb(0,0,0);stroke-width:2px" />
<line x1="703" y1="218" x2="703" y2="0" style="stroke:rgb(0,0,0);stroke-width:2px" />
<line x1="703" y1="218" x2="619" y2="218" style="stroke:rgb(0,0,0);stroke-width:2px"/>
<rect x="543" y="218" width="76" height="79" style="fill: white"/>
<line x1="543" y1="218" x2="619" y2="218" style="stroke:rgb(0,0,0);stroke-width:2px" />
<line x1="543" y1="297" x2="543" y2="218" style="stroke:rgb(0,0,0);stroke-width:2px" />
<line x1="619" y1="297" x2="619" y2="218" style="stroke:rgb(0,0,0);stroke-width:2px" />
<line x1="619" y1="297" x2="543" y2="297" style="stroke:rgb(0,0,0);stroke-width:2px"/>
<rect x="543" y="297" width="76" height="79" style="fill: #ff7f50"/>
<line x1="543" y1="297" x2="619" y2="297" style="stroke:rgb(0,0,0);stroke-width:2px" />
<line x1="543" y1="376" x2="543" y2="297" style="stroke:rgb(0,0,0);stroke-width:2px" />
<line x1="619" y1="376" x2="619" y2="297" style="stroke:rgb(0,0,0);stroke-width:2px" />
<line x1="619" y1="376" x2="543" y2="376" style="stroke:rgb(0,0,0);stroke-width:2px"/>
<rect x="619" y="218" width="84" height="86" style="fill: #000080"/>
<line x1="619" y1="218" x2="703" y2="218" style="stroke:rgb(0,0,0);stroke-width:2px" />
<line x1="619" y1="304" x2="619" y2="218" style="stroke:rgb(0,0,0);stroke-width:2px" />
<line x1="703" y1="304" x2="703" y2="218" style="stroke:rgb(0,0,0);stroke-width:2px" />
<line x1="703" y1="304" x2="619" y2="304" style="stroke:rgb(0,0,0);stroke-width:2px"/>
<rect x="619" y="304" width="84" height="72" style="fill: #ff7f50"/>
<line x1="619" y1="304" x2="703" y2="304" style="stroke:rgb(0,0,0);stroke-width:2px" />
<line x1="619" y1="376" x2="619" y2="304" style="stroke:rgb(0,0,0);stroke-width:2px" />
<line x1="703" y1="376" x2="703" y2="304" style="stroke:rgb(0,0,0);stroke-width:2px" />
<line x1="703" y1="376" x2="619" y2="376" style="stroke:rgb(0,0,0);stroke-width:2px"/>
<rect x="703" y="0" width="98" height="43" style="fill: white"/>
<line x1="703" y1="0" x2="801" y2="0" style="stroke:rgb(0,0,0);stroke-width:2px" />
<line x1="703" y1="43" x2="703" y2="0" style="stroke:rgb(0,0,0);stroke-width:2px" />
<line x1="801" y1="43" x2="801" y2="0" style="stroke:rgb(0,0,0);stroke-width:2px" />
<line x1="801" y1="43" x2="703" y2="43" style="stroke:rgb(0,0,0);stroke-width:2px"/>
<rect x="703" y="43" width="60" height="85" style="fill: white"/>
<line x1="703" y1="43" x2="763" y2="43" style="stroke:rgb(0,0,0);stroke-width:2px" />
<line x1="703" y1="128" x2="703" y2="43" style="stroke:rgb(0,0,0);stroke-width:2px" />
<line x1="763" y1="128" x2="763" y2="43" style="stroke:rgb(0,0,0);stroke-width:2px" />
<line x1="763" y1="128" x2="703" y2="128" style="stroke:rgb(0,0,0);stroke-width:2px"/>
<rect x="763" y="43" width="38" height="85" style="fill: #fff5ee"/>
<line x1="763" y1="43" x2="801" y2="43" style="stroke:rgb(0,0,0);stroke-width:2px" />
<line x1="763" y1="128" x2="763" y2="43" style="stroke:rgb(0,0,0);stroke-width:2px" />
<line x1="801" y1="128" x2="801" y2="43" style="stroke:rgb(0,0,0);stroke-width:2px" />
<line x1="801" y1="128" x2="763" y2="128" style="stroke:rgb(0,0,0);stroke-width:2px"/>
<rect x="801" y="0" width="94" height="128" style="fill: #fff5ee"/>
<line x1="801" y1="0" x2="895" y2="0" style="stroke:rgb(0,0,0);stroke-width:2px" />
<line x1="801" y1="128" x2="801" y2="0" style="stroke:rgb(0,0,0);stroke-width:2px" />
<line x1="895" y1="128" x2="895" y2="0" style="stroke:rgb(0,0,0);stroke-width:2px" />
<line x1="895" y1="128" x2="801" y2="128" style="stroke:rgb(0,0,0);stroke-width:2px"/>
<rect x="703" y="128" width="127" height="140" style="fill: #7FFFD4"/>
<line x1="703" y1="128" x2="830" y2="128" style="stroke:rgb(0,0,0);stroke-width:2px" />
<line x1="703" y1="268" x2="703" y2="128" style="stroke:rgb(0,0,0);stroke-width:2px" />
<line x1="830" y1="268" x2="830" y2="128" style="stroke:rgb(0,0,0);stroke-width:2px" />
<line x1="830" y1="268" x2="703" y2="268" style="stroke:rgb(0,0,0);stroke-width:2px"/>
<rect x="703" y="268" width="127" height="108" style="fill: black"/>
<line x1="703" y1="268" x2="830" y2="268" style="stroke:rgb(0,0,0);stroke-width:2px" />
<line x1="703" y1="376" x2="703" y2="268" style="stroke:rgb(0,0,0);stroke-width:2px" />
<line x1="830" y1="376" x2="830" y2="268" style="stroke:rgb(0,0,0);stroke-width:2px" />
<line x1="830" y1="376" x2="703" y2="376" style="stroke:rgb(0,0,0);stroke-width:2px"/>
<rect x="830" y="128" width="65" height="94" style="fill: #0000ff"/>
<line x1="830" y1="128" x2="895" y2="128" style="stroke:rgb(0,0,0);stroke-width:2px" />
<line x1="830" y1="222" x2="830" y2="128" style="stroke:rgb(0,0,0);stroke-width:2px" />
<line x1="895" y1="222" x2="895" y2="128" style="stroke:rgb(0,0,0);stroke-width:2px" />
<line x1="895" y1="222" x2="830" y2="222" style="stroke:rgb(0,0,0);stroke-width:2px"/>
<rect x="830" y="222" width="65" height="154" style="fill: white"/>
<line x1="830" y1="222" x2="895" y2="222" style="stroke:rgb(0,0,0);stroke-width:2px" />
<line x1="830" y1="376" x2="830" y2="222" style="stroke:rgb(0,0,0);stroke-width:2px" />
<line x1="895" y1="376" x2="895" y2="222" style="stroke:rgb(0,0,0);stroke-width:2px" />
<line x1="895" y1="376" x2="830" y2="376" style="stroke:rgb(0,0,0);stroke-width:2px"/>
<rect x="895" y="0" width="206" height="93" style="fill: black"/>
<line x1="895" y1="0" x2="1101" y2="0" style="stroke:rgb(0,0,0);stroke-width:2px" />
<line x1="895" y1="93" x2="895" y2="0" style="stroke:rgb(0,0,0);stroke-width:2px" />
<line x1="1101" y1="93" x2="1101" y2="0" style="stroke:rgb(0,0,0);stroke-width:2px" />
<line x1="1101" y1="93" x2="895" y2="93" style="stroke:rgb(0,0,0);stroke-width:2px"/>
<rect x="1101" y="0" width="259" height="93" style="fill: #ff7f50"/>
<line x1="1101" y1="0" x2="1360" y2="0" style="stroke:rgb(0,0,0);stroke-width:2px" />
<line x1="1101" y1="93" x2="1101" y2="0" style="stroke:rgb(0,0,0);stroke-width:2px" />
<line x1="1360" y1="93" x2="1360" y2="0" style="stroke:rgb(0,0,0);stroke-width:2px" />
<line x1="1360" y1="93" x2="1101" y2="93" style="stroke:rgb(0,0,0);stroke-width:2px"/>
<rect x="895" y="93" width="465" height="85" style="fill: white"/>
<line x1="895" y1="93" x2="1360" y2="93" style="stroke:rgb(0,0,0);stroke-width:2px" />
<line x1="895" y1="178" x2="895" y2="93" style="stroke:rgb(0,0,0);stroke-width:2px" />
<line x1="1360" y1="178" x2="1360" y2="93" style="stroke:rgb(0,0,0);stroke-width:2px" />
<line x1="1360" y1="178" x2="895" y2="178" style="stroke:rgb(0,0,0);stroke-width:2px"/>
<rect x="895" y="178" width="226" height="63" style="fill: #000080"/>
<line x1="895" y1="178" x2="1121" y2="178" style="stroke:rgb(0,0,0);stroke-width:2px" />
<line x1="895" y1="241" x2="895" y2="178" style="stroke:rgb(0,0,0);stroke-width:2px" />
<line x1="1121" y1="241" x2="1121" y2="178" style="stroke:rgb(0,0,0);stroke-width:2px" />
<line x1="1121" y1="241" x2="895" y2="241" style="stroke:rgb(0,0,0);stroke-width:2px"/>
<rect x="895" y="241" width="226" height="65" style="fill: #ff7f50"/>
<line x1="895" y1="241" x2="1121" y2="241" style="stroke:rgb(0,0,0);stroke-width:2px" />
<line x1="895" y1="306" x2="895" y2="241" style="stroke:rgb(0,0,0);stroke-width:2px" />
<line x1="1121" y1="306" x2="1121" y2="241" style="stroke:rgb(0,0,0);stroke-width:2px" />
<line x1="1121" y1="306" x2="895" y2="306" style="stroke:rgb(0,0,0);stroke-width:2px"/>
<rect x="1121" y="178" width="95" height="84" style="fill: white"/>
<line x1="1121" y1="178" x2="1216" y2="178" style="stroke:rgb(0,0,0);stroke-width:2px" />
<line x1="1121" y1="262" x2="1121" y2="178" style="stroke:rgb(0,0,0);stroke-width:2px" />
<line x1="1216" y1="262" x2="1216" y2="178" style="stroke:rgb(0,0,0);stroke-width:2px" />
<line x1="1216" y1="262" x2="1121" y2="262" style="stroke:rgb(0,0,0);stroke-width:2px"/>
<rect x="1216" y="178" width="144" height="84" style="fill: #ff7f50"/>
<line x1="1216" y1="178" x2="1360" y2="178" style="stroke:rgb(0,0,0);stroke-width:2px" />
<line x1="1216" y1="262" x2="1216" y2="178" style="stroke:rgb(0,0,0);stroke-width:2px" />
<line x1="1360" y1="262" x2="1360" y2="178" style="stroke:rgb(0,0,0);stroke-width:2px" />
<line x1="1360" y1="262" x2="1216" y2="262" style="stroke:rgb(0,0,0);stroke-width:2px"/>
<rect x="1121" y="262" width="95" height="44" style="fill: #ff7f50"/>
<line x1="1121" y1="262" x2="1216" y2="262" style="stroke:rgb(0,0,0);stroke-width:2px" />
<line x1="1121" y1="306" x2="1121" y2="262" style="stroke:rgb(0,0,0);stroke-width:2px" />
<line x1="1216" y1="306" x2="1216" y2="262" style="stroke:rgb(0,0,0);stroke-width:2px" />
<line x1="1216" y1="306" x2="1121" y2="306" style="stroke:rgb(0,0,0);stroke-width:2px"/>
<rect x="1216" y="262" width="98" height="44" style="fill: #000080"/>
<line x1="1216" y1="262" x2="1314" y2="262" style="stroke:rgb(0,0,0);stroke-width:2px" />
<line x1="1216" y1="306" x2="1216" y2="262" style="stroke:rgb(0,0,0);stroke-width:2px" />
<line x1="1314" y1="306" x2="1314" y2="262" style="stroke:rgb(0,0,0);stroke-width:2px" />
<line x1="1314" y1="306" x2="1216" y2="306" style="stroke:rgb(0,0,0);stroke-width:2px"/>
<rect x="1314" y="262" width="46" height="44" style="fill: black"/>
<line x1="1314" y1="262" x2="1360" y2="262" style="stroke:rgb(0,0,0);stroke-width:2px" />
<line x1="1314" y1="306" x2="1314" y2="262" style="stroke:rgb(0,0,0);stroke-width:2px" />
<line x1="1360" y1="306" x2="1360" y2="262" style="stroke:rgb(0,0,0);stroke-width:2px" />
<line x1="1360" y1="306" x2="1314" y2="306" style="stroke:rgb(0,0,0);stroke-width:2px"/>
<rect x="895" y="306" width="81" height="70" style="fill: #fff5ee"/>
<line x1="895" y1="306" x2="976" y2="306" style="stroke:rgb(0,0,0);stroke-width:2px" />
<line x1="895" y1="376" x2="895" y2="306" style="stroke:rgb(0,0,0);stroke-width:2px" />
<line x1="976" y1="376" x2="976" y2="306" style="stroke:rgb(0,0,0);stroke-width:2px" />
<line x1="976" y1="376" x2="895" y2="376" style="stroke:rgb(0,0,0);stroke-width:2px"/>
<rect x="976" y="306" width="145" height="70" style="fill: #fff5ee"/>
<line x1="976" y1="306" x2="1121" y2="306" style="stroke:rgb(0,0,0);stroke-width:2px" />
<line x1="976" y1="376" x2="976" y2="306" style="stroke:rgb(0,0,0);stroke-width:2px" />
<line x1="1121" y1="376" x2="1121" y2="306" style="stroke:rgb(0,0,0);stroke-width:2px" />
<line x1="1121" y1="376" x2="976" y2="376" style="stroke:rgb(0,0,0);stroke-width:2px"/>
<rect x="1121" y="306" width="239" height="70" style="fill: #0000ff"/>
<line x1="1121" y1="306" x2="1360" y2="306" style="stroke:rgb(0,0,0);stroke-width:2px" />
<line x1="1121" y1="376" x2="1121" y2="306" style="stroke:rgb(0,0,0);stroke-width:2px" />
<line x1="1360" y1="376" x2="1360" y2="306" style="stroke:rgb(0,0,0);stroke-width:2px" />
<line x1="1360" y1="376" x2="1121" y2="376" style="stroke:rgb(0,0,0);stroke-width:2px"/>
<rect x="0" y="376" width="279" height="78" style="fill: #0000ff"/>
<line x1="0" y1="376" x2="279" y2="376" style="stroke:rgb(0,0,0);stroke-width:2px" />
<line x1="0" y1="454" x2="0" y2="376" style="stroke:rgb(0,0,0);stroke-width:2px" />
<line x1="279" y1="454" x2="279" y2="376" style="stroke:rgb(0,0,0);stroke-width:2px" />
<line x1="279" y1="454" x2="0" y2="454" style="stroke:rgb(0,0,0);stroke-width:2px"/>
<rect x="279" y="376" width="100" height="78" style="fill: white"/>
<line x1="279" y1="376" x2="379" y2="376" style="stroke:rgb(0,0,0);stroke-width:2px" />
<line x1="279" y1="454" x2="279" y2="376" style="stroke:rgb(0,0,0);stroke-width:2px" />
<line x1="379" y1="454" x2="379" y2="376" style="stroke:rgb(0,0,0);stroke-width:2px" />
<line x1="379" y1="454" x2="279" y2="454" style="stroke:rgb(0,0,0);stroke-width:2px"/>
<rect x="379" y="376" width="190" height="78" style="fill: #ff7f50"/>
<line x1="379" y1="376" x2="569" y2="376" style="stroke:rgb(0,0,0);stroke-width:2px" />
<line x1="379" y1="454" x2="379" y2="376" style="stroke:rgb(0,0,0);stroke-width:2px" />
<line x1="569" y1="454" x2="569" y2="376" style="stroke:rgb(0,0,0);stroke-width:2px" />
<line x1="569" y1="454" x2="379" y2="454" style="stroke:rgb(0,0,0);stroke-width:2px"/>
<rect x="0" y="454" width="279" height="63" style="fill: white"/>
<line x1="0" y1="454" x2="279" y2="454" style="stroke:rgb(0,0,0);stroke-width:2px" />
<line x1="0" y1="517" x2="0" y2="454" style="stroke:rgb(0,0,0);stroke-width:2px" />
<line x1="279" y1="517" x2="279" y2="454" style="stroke:rgb(0,0,0);stroke-width:2px" />
<line x1="279" y1="517" x2="0" y2="517" style="stroke:rgb(0,0,0);stroke-width:2px"/>
<rect x="279" y="454" width="290" height="63" style="fill: #7FFFD4"/>
<line x1="279" y1="454" x2="569" y2="454" style="stroke:rgb(0,0,0);stroke-width:2px" />
<line x1="279" y1="517" x2="279" y2="454" style="stroke:rgb(0,0,0);stroke-width:2px" />
<line x1="569" y1="517" x2="569" y2="454" style="stroke:rgb(0,0,0);stroke-width:2px" />
<line x1="569" y1="517" x2="279" y2="517" style="stroke:rgb(0,0,0);stroke-width:2px"/>
<rect x="569" y="376" width="94" height="83" style="fill: #fff5ee"/>
<line x1="569" y1="376" x2="663" y2="376" style="stroke:rgb(0,0,0);stroke-width:2px" />
<line x1="569" y1="459" x2="569" y2="376" style="stroke:rgb(0,0,0);stroke-width:2px" />
<line x1="663" y1="459" x2="663" y2="376" style="stroke:rgb(0,0,0);stroke-width:2px" />
<line x1="663" y1="459" x2="569" y2="459" style="stroke:rgb(0,0,0);stroke-width:2px"/>
<rect x="663" y="376" width="94" height="83" style="fill: #0000ff"/>
<line x1="663" y1="376" x2="757" y2="376" style="stroke:rgb(0,0,0);stroke-width:2px" />
<line x1="663" y1="459" x2="663" y2="376" style="stroke:rgb(0,0,0);stroke-width:2px" />
<line x1="757" y1="459" x2="757" y2="376" style="stroke:rgb(0,0,0);stroke-width:2px" />
<line x1="757" y1="459" x2="663" y2="459" style="stroke:rgb(0,0,0);stroke-width:2px"/>
<rect x="569" y="459" width="94" height="58" style="fill: #fff5ee"/>
<line x1="569" y1="459" x2="663" y2="459" style="stroke:rgb(0,0,0);stroke-width:2px" />
<line x1="569" y1="517" x2="569" y2="459" style="stroke:rgb(0,0,0);stroke-width:2px" />
<line x1="663" y1="517" x2="663" y2="459" style="stroke:rgb(0,0,0);stroke-width:2px" />
<line x1="663" y1="517" x2="569" y2="517" style="stroke:rgb(0,0,0);stroke-width:2px"/>
<rect x="663" y="459" width="94" height="58" style="fill: #fff5ee"/>
<line x1="663" y1="459" x2="757" y2="459" style="stroke:rgb(0,0,0);stroke-width:2px" />
<line x1="663" y1="517" x2="663" y2="459" style="stroke:rgb(0,0,0);stroke-width:2px" />
<line x1="757" y1="517" x2="757" y2="459" style="stroke:rgb(0,0,0);stroke-width:2px" />
<line x1="757" y1="517" x2="663" y2="517" style="stroke:rgb(0,0,0);stroke-width:2px"/>
<rect x="757" y="376" width="138" height="94" style="fill: white"/>
<line x1="757" y1="376" x2="895" y2="376" style="stroke:rgb(0,0,0);stroke-width:2px" />
<line x1="757" y1="470" x2="757" y2="376" style="stroke:rgb(0,0,0);stroke-width:2px" />
<line x1="895" y1="470" x2="895" y2="376" style="stroke:rgb(0,0,0);stroke-width:2px" />
<line x1="895" y1="470" x2="757" y2="470" style="stroke:rgb(0,0,0);stroke-width:2px"/>
<rect x="757" y="470" width="138" height="47" style="fill: #0000ff"/>
<line x1="757" y1="470" x2="895" y2="470" style="stroke:rgb(0,0,0);stroke-width:2px" />
<line x1="757" y1="517" x2="757" y2="470" style="stroke:rgb(0,0,0);stroke-width:2px" />
<line x1="895" y1="517" x2="895" y2="470" style="stroke:rgb(0,0,0);stroke-width:2px" />
<line x1="895" y1="517" x2="757" y2="517" style="stroke:rgb(0,0,0);stroke-width:2px"/>
<rect x="0" y="517" width="92" height="251" style="fill: #7FFFD4"/>
<line x1="0" y1="517" x2="92" y2="517" style="stroke:rgb(0,0,0);stroke-width:2px" />
<line x1="0" y1="768" x2="0" y2="517" style="stroke:rgb(0,0,0);stroke-width:2px" />
<line x1="92" y1="768" x2="92" y2="517" style="stroke:rgb(0,0,0);stroke-width:2px" />
<line x1="92" y1="768" x2="0" y2="768" style="stroke:rgb(0,0,0);stroke-width:2px"/>
<rect x="92" y="517" width="95" height="63" style="fill: #7FFFD4"/>
<line x1="92" y1="517" x2="187" y2="517" style="stroke:rgb(0,0,0);stroke-width:2px" />
<line x1="92" y1="580" x2="92" y2="517" style="stroke:rgb(0,0,0);stroke-width:2px" />
<line x1="187" y1="580" x2="187" y2="517" style="stroke:rgb(0,0,0);stroke-width:2px" />
<line x1="187" y1="580" x2="92" y2="580" style="stroke:rgb(0,0,0);stroke-width:2px"/>
<rect x="92" y="580" width="95" height="80" style="fill: white"/>
<line x1="92" y1="580" x2="187" y2="580" style="stroke:rgb(0,0,0);stroke-width:2px" />
<line x1="92" y1="660" x2="92" y2="580" style="stroke:rgb(0,0,0);stroke-width:2px" />
<line x1="187" y1="660" x2="187" y2="580" style="stroke:rgb(0,0,0);stroke-width:2px" />
<line x1="187" y1="660" x2="92" y2="660" style="stroke:rgb(0,0,0);stroke-width:2px"/>
<rect x="187" y="517" width="56" height="143" style="fill: #ff7f50"/>
<line x1="187" y1="517" x2="243" y2="517" style="stroke:rgb(0,0,0);stroke-width:2px" />
<line x1="187" y1="660" x2="187" y2="517" style="stroke:rgb(0,0,0);stroke-width:2px" />
<line x1="243" y1="660" x2="243" y2="517" style="stroke:rgb(0,0,0);stroke-width:2px" />
<line x1="243" y1="660" x2="187" y2="660" style="stroke:rgb(0,0,0);stroke-width:2px"/>
<rect x="92" y="660" width="95" height="64" style="fill: #7FFFD4"/>
<line x1="92" y1="660" x2="187" y2="660" style="stroke:rgb(0,0,0);stroke-width:2px" />
<line x1="92" y1="724" x2="92" y2="660" style="stroke:rgb(0,0,0);stroke-width:2px" />
<line x1="187" y1="724" x2="187" y2="660" style="stroke:rgb(0,0,0);stroke-width:2px" />
<line x1="187" y1="724" x2="92" y2="724" style="stroke:rgb(0,0,0);stroke-width:2px"/>
<rect x="92" y="724" width="95" height="44" style="fill: #7FFFD4"/>
<line x1="92" y1="724" x2="187" y2="724" style="stroke:rgb(0,0,0);stroke-width:2px" />
<line x1="92" y1="768" x2="92" y2="724" style="stroke:rgb(0,0,0);stroke-width:2px" />
<line x1="187" y1="768" x2="187" y2="724" style="stroke:rgb(0,0,0);stroke-width:2px" />
<line x1="187" y1="768" x2="92" y2="768" style="stroke:rgb(0,0,0);stroke-width:2px"/>
<rect x="187" y="660" width="56" height="42" style="fill: white"/>
<line x1="187" y1="660" x2="243" y2="660" style="stroke:rgb(0,0,0);stroke-width:2px" />
<line x1="187" y1="702" x2="187" y2="660" style="stroke:rgb(0,0,0);stroke-width:2px" />
<line x1="243" y1="702" x2="243" y2="660" style="stroke:rgb(0,0,0);stroke-width:2px" />
<line x1="243" y1="702" x2="187" y2="702" style="stroke:rgb(0,0,0);stroke-width:2px"/>
<rect x="187" y="702" width="56" height="66" style="fill: #0000ff"/>
<line x1="187" y1="702" x2="243" y2="702" style="stroke:rgb(0,0,0);stroke-width:2px" />
<line x1="187" y1="768" x2="187" y2="702" style="stroke:rgb(0,0,0);stroke-width:2px" />
<line x1="243" y1="768" x2="243" y2="702" style="stroke:rgb(0,0,0);stroke-width:2px" />
<line x1="243" y1="768" x2="187" y2="768" style="stroke:rgb(0,0,0);stroke-width:2px"/>
<rect x="243" y="517" width="326" height="251" style="fill: white"/>
<line x1="243" y1="517" x2="569" y2="517" style="stroke:rgb(0,0,0);stroke-width:2px" />
<line x1="243" y1="768" x2="243" y2="517" style="stroke:rgb(0,0,0);stroke-width:2px" />
<line x1="569" y1="768" x2="569" y2="517" style="stroke:rgb(0,0,0);stroke-width:2px" />
<line x1="569" y1="768" x2="243" y2="768" style="stroke:rgb(0,0,0);stroke-width:2px"/>
<rect x="569" y="517" width="63" height="66" style="fill: white"/>
<line x1="569" y1="517" x2="632" y2="517" style="stroke:rgb(0,0,0);stroke-width:2px" />
<line x1="569" y1="583" x2="569" y2="517" style="stroke:rgb(0,0,0);stroke-width:2px" />
<line x1="632" y1="583" x2="632" y2="517" style="stroke:rgb(0,0,0);stroke-width:2px" />
<line x1="632" y1="583" x2="569" y2="583" style="stroke:rgb(0,0,0);stroke-width:2px"/>
<rect x="569" y="583" width="63" height="53" style="fill: #000080"/>
<line x1="569" y1="583" x2="632" y2="583" style="stroke:rgb(0,0,0);stroke-width:2px" />
<line x1="569" y1="636" x2="569" y2="583" style="stroke:rgb(0,0,0);stroke-width:2px" />
<line x1="632" y1="636" x2="632" y2="583" style="stroke:rgb(0,0,0);stroke-width:2px" />
<line x1="632" y1="636" x2="569" y2="636" style="stroke:rgb(0,0,0);stroke-width:2px"/>
<rect x="632" y="517" width="79" height="79" style="fill: white"/>
<line x1="632" y1="517" x2="711" y2="517" style="stroke:rgb(0,0,0);stroke-width:2px" />
<line x1="632" y1="596" x2="632" y2="517" style="stroke:rgb(0,0,0);stroke-width:2px" />
<line x1="711" y1="596" x2="711" y2="517" style="stroke:rgb(0,0,0);stroke-width:2px" />
<line x1="711" y1="596" x2="632" y2="596" style="stroke:rgb(0,0,0);stroke-width:2px"/>
<rect x="632" y="596" width="79" height="40" style="fill: #000080"/>
<line x1="632" y1="596" x2="711" y2="596" style="stroke:rgb(0,0,0);stroke-width:2px" />
<line x1="632" y1="636" x2="632" y2="596" style="stroke:rgb(0,0,0);stroke-width:2px" />
<line x1="711" y1="636" x2="711" y2="596" style="stroke:rgb(0,0,0);stroke-width:2px" />
<line x1="711" y1="636" x2="632" y2="636" style="stroke:rgb(0,0,0);stroke-width:2px"/>
<rect x="569" y="636" width="63" height="75" style="fill: #000080"/>
<line x1="569" y1="636" x2="632" y2="636" style="stroke:rgb(0,0,0);stroke-width:2px" />
<line x1="569" y1="711" x2="569" y2="636" style="stroke:rgb(0,0,0);stroke-width:2px" />
<line x1="632" y1="711" x2="632" y2="636" style="stroke:rgb(0,0,0);stroke-width:2px" />
<line x1="632" y1="711" x2="569" y2="711" style="stroke:rgb(0,0,0);stroke-width:2px"/>
<rect x="569" y="711" width="63" height="57" style="fill: #7FFFD4"/>
<line x1="569" y1="711" x2="632" y2="711" style="stroke:rgb(0,0,0);stroke-width:2px" />
<line x1="569" y1="768" x2="569" y2="711" style="stroke:rgb(0,0,0);stroke-width:2px" />
<line x1="632" y1="768" x2="632" y2="711" style="stroke:rgb(0,0,0);stroke-width:2px" />
<line x1="632" y1="768" x2="569" y2="768" style="stroke:rgb(0,0,0);stroke-width:2px"/>
<rect x="632" y="636" width="79" height="132" style="fill: #ff7f50"/>
<line x1="632" y1="636" x2="711" y2="636" style="stroke:rgb(0,0,0);stroke-width:2px" />
<line x1="632" y1="768" x2="632" y2="636" style="stroke:rgb(0,0,0);stroke-width:2px" />
<line x1="711" y1="768" x2="711" y2="636" style="stroke:rgb(0,0,0);stroke-width:2px" />
<line x1="711" y1="768" x2="632" y2="768" style="stroke:rgb(0,0,0);stroke-width:2px"/>
<rect x="711" y="517" width="80" height="56" style="fill: #fff5ee"/>
<line x1="711" y1="517" x2="791" y2="517" style="stroke:rgb(0,0,0);stroke-width:2px" />
<line x1="711" y1="573" x2="711" y2="517" style="stroke:rgb(0,0,0);stroke-width:2px" />
<line x1="791" y1="573" x2="791" y2="517" style="stroke:rgb(0,0,0);stroke-width:2px" />
<line x1="791" y1="573" x2="711" y2="573" style="stroke:rgb(0,0,0);stroke-width:2px"/>
<rect x="791" y="517" width="104" height="56" style="fill: black"/>
<line x1="791" y1="517" x2="895" y2="517" style="stroke:rgb(0,0,0);stroke-width:2px" />
<line x1="791" y1="573" x2="791" y2="517" style="stroke:rgb(0,0,0);stroke-width:2px" />
<line x1="895" y1="573" x2="895" y2="517" style="stroke:rgb(0,0,0);stroke-width:2px" />
<line x1="895" y1="573" x2="791" y2="573" style="stroke:rgb(0,0,0);stroke-width:2px"/>
<rect x="711" y="573" width="118" height="57" style="fill: #000080"/>
<line x1="711" y1="573" x2="829" y2="573" style="stroke:rgb(0,0,0);stroke-width:2px" />
<line x1="711" y1="630" x2="711" y2="573" style="stroke:rgb(0,0,0);stroke-width:2px" />
<line x1="829" y1="630" x2="829" y2="573" style="stroke:rgb(0,0,0);stroke-width:2px" />
<line x1="829" y1="630" x2="711" y2="630" style="stroke:rgb(0,0,0);stroke-width:2px"/>
<rect x="829" y="573" width="66" height="57" style="fill: white"/>
<line x1="829" y1="573" x2="895" y2="573" style="stroke:rgb(0,0,0);stroke-width:2px" />
<line x1="829" y1="630" x2="829" y2="573" style="stroke:rgb(0,0,0);stroke-width:2px" />
<line x1="895" y1="630" x2="895" y2="573" style="stroke:rgb(0,0,0);stroke-width:2px" />
<line x1="895" y1="630" x2="829" y2="630" style="stroke:rgb(0,0,0);stroke-width:2px"/>
<rect x="711" y="630" width="67" height="53" style="fill: white"/>
<line x1="711" y1="630" x2="778" y2="630" style="stroke:rgb(0,0,0);stroke-width:2px" />
<line x1="711" y1="683" x2="711" y2="630" style="stroke:rgb(0,0,0);stroke-width:2px" />
<line x1="778" y1="683" x2="778" y2="630" style="stroke:rgb(0,0,0);stroke-width:2px" />
<line x1="778" y1="683" x2="711" y2="683" style="stroke:rgb(0,0,0);stroke-width:2px"/>
<rect x="778" y="630" width="117" height="53" style="fill: #7FFFD4"/>
<line x1="778" y1="630" x2="895" y2="630" style="stroke:rgb(0,0,0);stroke-width:2px" />
<line x1="778" y1="683" x2="778" y2="630" style="stroke:rgb(0,0,0);stroke-width:2px" />
<line x1="895" y1="683" x2="895" y2="630" style="stroke:rgb(0,0,0);stroke-width:2px" />
<line x1="895" y1="683" x2="778" y2="683" style="stroke:rgb(0,0,0);stroke-width:2px"/>
<rect x="711" y="683" width="184" height="85" style="fill: #fff5ee"/>
<line x1="711" y1="683" x2="895" y2="683" style="stroke:rgb(0,0,0);stroke-width:2px" />
<line x1="711" y1="768" x2="711" y2="683" style="stroke:rgb(0,0,0);stroke-width:2px" />
<line x1="895" y1="768" x2="895" y2="683" style="stroke:rgb(0,0,0);stroke-width:2px" />
<line x1="895" y1="768" x2="711" y2="768" style="stroke:rgb(0,0,0);stroke-width:2px"/>
<rect x="895" y="376" width="54" height="77" style="fill: #000080"/>
<line x1="895" y1="376" x2="949" y2="376" style="stroke:rgb(0,0,0);stroke-width:2px" />
<line x1="895" y1="453" x2="895" y2="376" style="stroke:rgb(0,0,0);stroke-width:2px" />
<line x1="949" y1="453" x2="949" y2="376" style="stroke:rgb(0,0,0);stroke-width:2px" />
<line x1="949" y1="453" x2="895" y2="453" style="stroke:rgb(0,0,0);stroke-width:2px"/>
<rect x="949" y="376" width="72" height="77" style="fill: #7FFFD4"/>
<line x1="949" y1="376" x2="1021" y2="376" style="stroke:rgb(0,0,0);stroke-width:2px" />
<line x1="949" y1="453" x2="949" y2="376" style="stroke:rgb(0,0,0);stroke-width:2px" />
<line x1="1021" y1="453" x2="1021" y2="376" style="stroke:rgb(0,0,0);stroke-width:2px" />
<line x1="1021" y1="453" x2="949" y2="453" style="stroke:rgb(0,0,0);stroke-width:2px"/>
<rect x="895" y="453" width="58" height="99" style="fill: #000080"/>
<line x1="895" y1="453" x2="953" y2="453" style="stroke:rgb(0,0,0);stroke-width:2px" />
<line x1="895" y1="552" x2="895" y2="453" style="stroke:rgb(0,0,0);stroke-width:2px" />
<line x1="953" y1="552" x2="953" y2="453" style="stroke:rgb(0,0,0);stroke-width:2px" />
<line x1="953" y1="552" x2="895" y2="552" style="stroke:rgb(0,0,0);stroke-width:2px"/>
<rect x="953" y="453" width="68" height="99" style="fill: #000080"/>
<line x1="953" y1="453" x2="1021" y2="453" style="stroke:rgb(0,0,0);stroke-width:2px" />
<line x1="953" y1="552" x2="953" y2="453" style="stroke:rgb(0,0,0);stroke-width:2px" />
<line x1="1021" y1="552" x2="1021" y2="453" style="stroke:rgb(0,0,0);stroke-width:2px" />
<line x1="1021" y1="552" x2="953" y2="552" style="stroke:rgb(0,0,0);stroke-width:2px"/>
<rect x="895" y="552" width="58" height="51" style="fill: #fff5ee"/>
<line x1="895" y1="552" x2="953" y2="552" style="stroke:rgb(0,0,0);stroke-width:2px" />
<line x1="895" y1="603" x2="895" y2="552" style="stroke:rgb(0,0,0);stroke-width:2px" />
<line x1="953" y1="603" x2="953" y2="552" style="stroke:rgb(0,0,0);stroke-width:2px" />
<line x1="953" y1="603" x2="895" y2="603" style="stroke:rgb(0,0,0);stroke-width:2px"/>
<rect x="953" y="552" width="68" height="51" style="fill: #0000ff"/>
<line x1="953" y1="552" x2="1021" y2="552" style="stroke:rgb(0,0,0);stroke-width:2px" />
<line x1="953" y1="603" x2="953" y2="552" style="stroke:rgb(0,0,0);stroke-width:2px" />
<line x1="1021" y1="603" x2="1021" y2="552" style="stroke:rgb(0,0,0);stroke-width:2px" />
<line x1="1021" y1="603" x2="953" y2="603" style="stroke:rgb(0,0,0);stroke-width:2px"/>
<rect x="1021" y="376" width="74" height="227" style="fill: #0000ff"/>
<line x1="1021" y1="376" x2="1095" y2="376" style="stroke:rgb(0,0,0);stroke-width:2px" />
<line x1="1021" y1="603" x2="1021" y2="376" style="stroke:rgb(0,0,0);stroke-width:2px" />
<line x1="1095" y1="603" x2="1095" y2="376" style="stroke:rgb(0,0,0);stroke-width:2px" />
<line x1="1095" y1="603" x2="1021" y2="603" style="stroke:rgb(0,0,0);stroke-width:2px"/>
<rect x="1095" y="376" width="150" height="115" style="fill: #ff7f50"/>
<line x1="1095" y1="376" x2="1245" y2="376" style="stroke:rgb(0,0,0);stroke-width:2px" />
<line x1="1095" y1="491" x2="1095" y2="376" style="stroke:rgb(0,0,0);stroke-width:2px" />
<line x1="1245" y1="491" x2="1245" y2="376" style="stroke:rgb(0,0,0);stroke-width:2px" />
<line x1="1245" y1="491" x2="1095" y2="491" style="stroke:rgb(0,0,0);stroke-width:2px"/>
<rect x="1245" y="376" width="47" height="115" style="fill: #ff7f50"/>
<line x1="1245" y1="376" x2="1292" y2="376" style="stroke:rgb(0,0,0);stroke-width:2px" />
<line x1="1245" y1="491" x2="1245" y2="376" style="stroke:rgb(0,0,0);stroke-width:2px" />
<line x1="1292" y1="491" x2="1292" y2="376" style="stroke:rgb(0,0,0);stroke-width:2px" />
<line x1="1292" y1="491" x2="1245" y2="491" style="stroke:rgb(0,0,0);stroke-width:2px"/>
<rect x="1292" y="376" width="68" height="115" style="fill: #fff5ee"/>
<line x1="1292" y1="376" x2="1360" y2="376" style="stroke:rgb(0,0,0);stroke-width:2px" />
<line x1="1292" y1="491" x2="1292" y2="376" style="stroke:rgb(0,0,0);stroke-width:2px" />
<line x1="1360" y1="491" x2="1360" y2="376" style="stroke:rgb(0,0,0);stroke-width:2px" />
<line x1="1360" y1="491" x2="1292" y2="491" style="stroke:rgb(0,0,0);stroke-width:2px"/>
<rect x="1095" y="491" width="150" height="49" style="fill: #7FFFD4"/>
<line x1="1095" y1="491" x2="1245" y2="491" style="stroke:rgb(0,0,0);stroke-width:2px" />
<line x1="1095" y1="540" x2="1095" y2="491" style="stroke:rgb(0,0,0);stroke-width:2px" />
<line x1="1245" y1="540" x2="1245" y2="491" style="stroke:rgb(0,0,0);stroke-width:2px" />
<line x1="1245" y1="540" x2="1095" y2="540" style="stroke:rgb(0,0,0);stroke-width:2px"/>
<rect x="1095" y="540" width="150" height="63" style="fill: #fff5ee"/>
<line x1="1095" y1="540" x2="1245" y2="540" style="stroke:rgb(0,0,0);stroke-width:2px" />
<line x1="1095" y1="603" x2="1095" y2="540" style="stroke:rgb(0,0,0);stroke-width:2px" />
<line x1="1245" y1="603" x2="1245" y2="540" style="stroke:rgb(0,0,0);stroke-width:2px" />
<line x1="1245" y1="603" x2="1095" y2="603" style="stroke:rgb(0,0,0);stroke-width:2px"/>
<rect x="1245" y="491" width="115" height="66" style="fill: #ff7f50"/>
<line x1="1245" y1="491" x2="1360" y2="491" style="stroke:rgb(0,0,0);stroke-width:2px" />
<line x1="1245" y1="557" x2="1245" y2="491" style="stroke:rgb(0,0,0);stroke-width:2px" />
<line x1="1360" y1="557" x2="1360" y2="491" style="stroke:rgb(0,0,0);stroke-width:2px" />
<line x1="1360" y1="557" x2="1245" y2="557" style="stroke:rgb(0,0,0);stroke-width:2px"/>
<rect x="1245" y="557" width="115" height="46" style="fill: #0000ff"/>
<line x1="1245" y1="557" x2="1360" y2="557" style="stroke:rgb(0,0,0);stroke-width:2px" />
<line x1="1245" y1="603" x2="1245" y2="557" style="stroke:rgb(0,0,0);stroke-width:2px" />
<line x1="1360" y1="603" x2="1360" y2="557" style="stroke:rgb(0,0,0);stroke-width:2px" />
<line x1="1360" y1="603" x2="1245" y2="603" style="stroke:rgb(0,0,0);stroke-width:2px"/>
<rect x="895" y="603" width="267" height="98" style="fill: black"/>
<line x1="895" y1="603" x2="1162" y2="603" style="stroke:rgb(0,0,0);stroke-width:2px" />
<line x1="895" y1="701" x2="895" y2="603" style="stroke:rgb(0,0,0);stroke-width:2px" />
<line x1="1162" y1="701" x2="1162" y2="603" style="stroke:rgb(0,0,0);stroke-width:2px" />
<line x1="1162" y1="701" x2="895" y2="701" style="stroke:rgb(0,0,0);stroke-width:2px"/>
<rect x="1162" y="603" width="74" height="60" style="fill: #ff7f50"/>
<line x1="1162" y1="603" x2="1236" y2="603" style="stroke:rgb(0,0,0);stroke-width:2px" />
<line x1="1162" y1="663" x2="1162" y2="603" style="stroke:rgb(0,0,0);stroke-width:2px" />
<line x1="1236" y1="663" x2="1236" y2="603" style="stroke:rgb(0,0,0);stroke-width:2px" />
<line x1="1236" y1="663" x2="1162" y2="663" style="stroke:rgb(0,0,0);stroke-width:2px"/>
<rect x="1162" y="663" width="74" height="38" style="fill: #ff7f50"/>
<line x1="1162" y1="663" x2="1236" y2="663" style="stroke:rgb(0,0,0);stroke-width:2px" />
<line x1="1162" y1="701" x2="1162" y2="663" style="stroke:rgb(0,0,0);stroke-width:2px" />
<line x1="1236" y1="701" x2="1236" y2="663" style="stroke:rgb(0,0,0);stroke-width:2px" />
<line x1="1236" y1="701" x2="1162" y2="701" style="stroke:rgb(0,0,0);stroke-width:2px"/>
<rect x="1236" y="603" width="124" height="98" style="fill: #0000ff"/>
<line x1="1236" y1="603" x2="1360" y2="603" style="stroke:rgb(0,0,0);stroke-width:2px" />
<line x1="1236" y1="701" x2="1236" y2="603" style="stroke:rgb(0,0,0);stroke-width:2px" />
<line x1="1360" y1="701" x2="1360" y2="603" style="stroke:rgb(0,0,0);stroke-width:2px" />
<line x1="1360" y1="701" x2="1236" y2="701" style="stroke:rgb(0,0,0);stroke-width:2px"/>
<rect x="895" y="701" width="267" height="67" style="fill: #000080"/>
<line x1="895" y1="701" x2="1162" y2="701" style="stroke:rgb(0,0,0);stroke-width:2px" />
<line x1="895" y1="768" x2="895" y2="701" style="stroke:rgb(0,0,0);stroke-width:2px" />
<line x1="1162" y1="768" x2="1162" y2="701" style="stroke:rgb(0,0,0);stroke-width:2px" />
<line x1="1162" y1="768" x2="895" y2="768" style="stroke:rgb(0,0,0);stroke-width:2px"/>
<rect x="1162" y="701" width="83" height="67" style="fill: white"/>
<line x1="1162" y1="701" x2="1245" y2="701" style="stroke:rgb(0,0,0);stroke-width:2px" />
<line x1="1162" y1="768" x2="1162" y2="701" style="stroke:rgb(0,0,0);stroke-width:2px" />
<line x1="1245" y1="768" x2="1245" y2="701" style="stroke:rgb(0,0,0);stroke-width:2px" />
<line x1="1245" y1="768" x2="1162" y2="768" style="stroke:rgb(0,0,0);stroke-width:2px"/>
<rect x="1245" y="701" width="74" height="67" style="fill: white"/>
<line x1="1245" y1="701" x2="1319" y2="701" style="stroke:rgb(0,0,0);stroke-width:2px" />
<line x1="1245" y1="768" x2="1245" y2="701" style="stroke:rgb(0,0,0);stroke-width:2px" />
<line x1="1319" y1="768" x2="1319" y2="701" style="stroke:rgb(0,0,0);stroke-width:2px" />
<line x1="1319" y1="768" x2="1245" y2="768" style="stroke:rgb(0,0,0);stroke-width:2px"/>
<rect x="1319" y="701" width="41" height="67" style="fill: white"/>
<line x1="1319" y1="701" x2="1360" y2="701" style="stroke:rgb(0,0,0);stroke-width:2px" />
<line x1="1319" y1="768" x2="1319" y2="701" style="stroke:rgb(0,0,0);stroke-width:2px" />
<line x1="1360" y1="768" x2="1360" y2="701" style="stroke:rgb(0,0,0);stroke-width:2px" />
<line x1="1360" y1="768" x2="1319" y2="768" style="stroke:rgb(0,0,0);stroke-width:2px"/>
</svg>