<?xml version="1.0" encoding="utf-8"?>
<svg xmlns="http://www.w3.org/2000/svg"
 xmlns:xlink="http://www.w3.org/1999/xlink" width="1024" height="768" >
<defs>
    <style type="text/css"><![CDATA[
        line {
        stroke: #000;
        stroke-width: 5px;
        }
    ]]></style></defs>
<rect x="0" y="0" width="65" height="110" style="fill: red"/>
<line x1="0" y1="0" x2="65" y2="0"/>
<line x1="0" y1="110" x2="0" y2="0"/>
<line x1="65" y1="110" x2="65" y2="0"/>
<line x1="65" y1="110" x2="0" y2="110"/>
<rect x="65" y="0" width="67" height="110" style="fill: blue"/>
<line x1="65" y1="0" x2="132" y2="0"/>
<line x1="65" y1="110" x2="65" y2="0"/>
<line x1="132" y1="110" x2="132" y2="0"/>
<line x1="132" y1="110" x2="65" y2="110"/>
<rect x="132" y="0" width="231" height="64" style="fill: yellow"/>
<line x1="132" y1="0" x2="363" y2="0"/>
<line x1="132" y1="64" x2="132" y2="0"/>
<line x1="363" y1="64" x2="363" y2="0"/>
<line x1="363" y1="64" x2="132" y2="64"/>
<rect x="132" y="64" width="231" height="46" style="fill: red"/>
<line x1="132" y1="64" x2="363" y2="64"/>
<line x1="132" y1="110" x2="132" y2="64"/>
<line x1="363" y1="110" x2="363" y2="64"/>
<line x1="363" y1="110" x2="132" y2="110"/>
<rect x="0" y="110" width="132" height="75" style="fill: blue"/>
<line x1="0" y1="110" x2="132" y2="110"/>
<line x1="0" y1="185" x2="0" y2="110"/>
<line x1="132" y1="185" x2="132" y2="110"/>
<line x1="132" y1="185" x2="0" y2="185"/>
<rect x="132" y="110" width="69" height="75" style="fill: yellow"/>
<line x1="132" y1="110" x2="201" y2="110"/>
<line x1="132" y1="185" x2="132" y2="110"/>
<line x1="201" y1="185" x2="201" y2="110"/>
<line x1="201" y1="185" x2="132" y2="185"/>
<rect x="201" y="110" width="48" height="75" style="fill: red"/>
<line x1="201" y1="110" x2="249" y2="110"/>
<line x1="201" y1="185" x2="201" y2="110"/>
<line x1="249" y1="185" x2="249" y2="110"/>
<line x1="249" y1="185" x2="201" y2="185"/>
<rect x="249" y="110" width="59" height="75" style="fill: blue"/>
<line x1="249" y1="110" x2="308" y2="110"/>
<line x1="249" y1="185" x2="249" y2="110"/>
<line x1="308" y1="185" x2="308" y2="110"/>
<line x1="308" y1="185" x2="249" y2="185"/>
<rect x="308" y="110" width="55" height="75" style="fill: yellow"/>
<line x1="308" y1="110" x2="363" y2="110"/>
<line x1="308" y1="185" x2="308" y2="110"/>
<line x1="363" y1="185" x2="363" y2="110"/>
<line x1="363" y1="185" x2="308" y2="185"/>
<rect x="363" y="0" width="197" height="185" style="fill: red"/>
<line x1="363" y1="0" x2="560" y2="0"/>
<line x1="363" y1="185" x2="363" y2="0"/>
<line x1="560" y1="185" x2="560" y2="0"/>
<line x1="560" y1="185" x2="363" y2="185"/>
<rect x="0" y="185" width="225" height="109" style="fill: blue"/>
<line x1="0" y1="185" x2="225" y2="185"/>
<line x1="0" y1="294" x2="0" y2="185"/>
<line x1="225" y1="294" x2="225" y2="185"/>
<line x1="225" y1="294" x2="0" y2="294"/>
<rect x="0" y="294" width="225" height="77" style="fill: yellow"/>
<line x1="0" y1="294" x2="225" y2="294"/>
<line x1="0" y1="371" x2="0" y2="294"/>
<line x1="225" y1="371" x2="225" y2="294"/>
<line x1="225" y1="371" x2="0" y2="371"/>
<rect x="0" y="371" width="225" height="51" style="fill: red"/>
<line x1="0" y1="371" x2="225" y2="371"/>
<line x1="0" y1="422" x2="0" y2="371"/>
<line x1="225" y1="422" x2="225" y2="371"/>
<line x1="225" y1="422" x2="0" y2="422"/>
<rect x="225" y="185" width="138" height="237" style="fill: blue"/>
<line x1="225" y1="185" x2="363" y2="185"/>
<line x1="225" y1="422" x2="225" y2="185"/>
<line x1="363" y1="422" x2="363" y2="185"/>
<line x1="363" y1="422" x2="225" y2="422"/>
<rect x="363" y="185" width="197" height="237" style="fill: yellow"/>
<line x1="363" y1="185" x2="560" y2="185"/>
<line x1="363" y1="422" x2="363" y2="185"/>
<line x1="560" y1="422" x2="560" y2="185"/>
<line x1="560" y1="422" x2="363" y2="422"/>
<rect x="560" y="0" width="285" height="220" style="fill: red"/>
<line x1="560" y1="0" x2="845" y2="0"/>
<line x1="560" y1="220" x2="560" y2="0"/>
<line x1="845" y1="220" x2="845" y2="0"/>
<line x1="845" y1="220" x2="560" y2="220"/>
<rect x="845" y="0" width="245" height="220" style="fill: blue"/>
<line x1="845" y1="0" x2="1090" y2="0"/>
<line x1="845" y1="220" x2="845" y2="0"/>
<line x1="1090" y1="220" x2="1090" y2="0"/>
<line x1="1090" y1="220" x2="845" y2="220"/>
<rect x="560" y="220" width="285" height="132" style="fill: yellow"/>
<line x1="560" y1="220" x2="845" y2="220"/>
<line x1="560" y1="352" x2="560" y2="220"/>
<line x1="845" y1="352" x2="845" y2="220"/>
<line x1="845" y1="352" x2="560" y2="352"/>
<rect x="560" y="352" width="285" height="70" style="fill: red"/>
<line x1="560" y1="352" x2="845" y2="352"/>
<line x1="560" y1="422" x2="560" y2="352"/>
<line x1="845" y1="422" x2="845" y2="352"/>
<line x1="845" y1="422" x2="560" y2="422"/>
<rect x="845" y="220" width="83" height="88" style="fill: blue"/>
<line x1="845" y1="220" x2="928" y2="220"/>
<line x1="845" y1="308" x2="845" y2="220"/>
<line x1="928" y1="308" x2="928" y2="220"/>
<line x1="928" y1="308" x2="845" y2="308"/>
<rect x="928" y="220" width="74" height="88" style="fill: yellow"/>
<line x1="928" y1="220" x2="1002" y2="220"/>
<line x1="928" y1="308" x2="928" y2="220"/>
<line x1="1002" y1="308" x2="1002" y2="220"/>
<line x1="1002" y1="308" x2="928" y2="308"/>
<rect x="845" y="308" width="157" height="46" style="fill: red"/>
<line x1="845" y1="308" x2="1002" y2="308"/>
<line x1="845" y1="354" x2="845" y2="308"/>
<line x1="1002" y1="354" x2="1002" y2="308"/>
<line x1="1002" y1="354" x2="845" y2="354"/>
<rect x="1002" y="220" width="88" height="53" style="fill: blue"/>
<line x1="1002" y1="220" x2="1090" y2="220"/>
<line x1="1002" y1="273" x2="1002" y2="220"/>
<line x1="1090" y1="273" x2="1090" y2="220"/>
<line x1="1090" y1="273" x2="1002" y2="273"/>
<rect x="1002" y="273" width="88" height="81" style="fill: yellow"/>
<line x1="1002" y1="273" x2="1090" y2="273"/>
<line x1="1002" y1="354" x2="1002" y2="273"/>
<line x1="1090" y1="354" x2="1090" y2="273"/>
<line x1="1090" y1="354" x2="1002" y2="354"/>
<rect x="845" y="354" width="92" height="68" style="fill: red"/>
<line x1="845" y1="354" x2="937" y2="354"/>
<line x1="845" y1="422" x2="845" y2="354"/>
<line x1="937" y1="422" x2="937" y2="354"/>
<line x1="937" y1="422" x2="845" y2="422"/>
<rect x="937" y="354" width="65" height="68" style="fill: blue"/>
<line x1="937" y1="354" x2="1002" y2="354"/>
<line x1="937" y1="422" x2="937" y2="354"/>
<line x1="1002" y1="422" x2="1002" y2="354"/>
<line x1="1002" y1="422" x2="937" y2="422"/>
<rect x="1002" y="354" width="88" height="68" style="fill: yellow"/>
<line x1="1002" y1="354" x2="1090" y2="354"/>
<line x1="1002" y1="422" x2="1002" y2="354"/>
<line x1="1090" y1="422" x2="1090" y2="354"/>
<line x1="1090" y1="422" x2="1002" y2="422"/>
<rect x="0" y="422" width="83" height="57" style="fill: red"/>
<line x1="0" y1="422" x2="83" y2="422"/>
<line x1="0" y1="479" x2="0" y2="422"/>
<line x1="83" y1="479" x2="83" y2="422"/>
<line x1="83" y1="479" x2="0" y2="479"/>
<rect x="0" y="479" width="83" height="84" style="fill: blue"/>
<line x1="0" y1="479" x2="83" y2="479"/>
<line x1="0" y1="563" x2="0" y2="479"/>
<line x1="83" y1="563" x2="83" y2="479"/>
<line x1="83" y1="563" x2="0" y2="563"/>
<rect x="83" y="422" width="122" height="92" style="fill: yellow"/>
<line x1="83" y1="422" x2="205" y2="422"/>
<line x1="83" y1="514" x2="83" y2="422"/>
<line x1="205" y1="514" x2="205" y2="422"/>
<line x1="205" y1="514" x2="83" y2="514"/>
<rect x="83" y="514" width="122" height="49" style="fill: red"/>
<line x1="83" y1="514" x2="205" y2="514"/>
<line x1="83" y1="563" x2="83" y2="514"/>
<line x1="205" y1="563" x2="205" y2="514"/>
<line x1="205" y1="563" x2="83" y2="563"/>
<rect x="0" y="563" width="83" height="157" style="fill: blue"/>
<line x1="0" y1="563" x2="83" y2="563"/>
<line x1="0" y1="720" x2="0" y2="563"/>
<line x1="83" y1="720" x2="83" y2="563"/>
<line x1="83" y1="720" x2="0" y2="720"/>
<rect x="83" y="563" width="63" height="54" style="fill: yellow"/>
<line x1="83" y1="563" x2="146" y2="563"/>
<line x1="83" y1="617" x2="83" y2="563"/>
<line x1="146" y1="617" x2="146" y2="563"/>
<line x1="146" y1="617" x2="83" y2="617"/>
<rect x="146" y="563" width="59" height="54" style="fill: red"/>
<line x1="146" y1="563" x2="205" y2="563"/>
<line x1="146" y1="617" x2="146" y2="563"/>
<line x1="205" y1="617" x2="205" y2="563"/>
<line x1="205" y1="617" x2="146" y2="617"/>
<rect x="83" y="617" width="67" height="53" style="fill: blue"/>
<line x1="83" y1="617" x2="150" y2="617"/>
<line x1="83" y1="670" x2="83" y2="617"/>
<line x1="150" y1="670" x2="150" y2="617"/>
<line x1="150" y1="670" x2="83" y2="670"/>
<rect x="150" y="617" width="55" height="53" style="fill: yellow"/>
<line x1="150" y1="617" x2="205" y2="617"/>
<line x1="150" y1="670" x2="150" y2="617"/>
<line x1="205" y1="670" x2="205" y2="617"/>
<line x1="205" y1="670" x2="150" y2="670"/>
<rect x="83" y="670" width="67" height="50" style="fill: red"/>
<line x1="83" y1="670" x2="150" y2="670"/>
<line x1="83" y1="720" x2="83" y2="670"/>
<line x1="150" y1="720" x2="150" y2="670"/>
<line x1="150" y1="720" x2="83" y2="720"/>
<rect x="150" y="670" width="55" height="50" style="fill: blue"/>
<line x1="150" y1="670" x2="205" y2="670"/>
<line x1="150" y1="720" x2="150" y2="670"/>
<line x1="205" y1="720" x2="205" y2="670"/>
<line x1="205" y1="720" x2="150" y2="720"/>
<rect x="205" y="422" width="110" height="298" style="fill: yellow"/>
<line x1="205" y1="422" x2="315" y2="422"/>
<line x1="205" y1="720" x2="205" y2="422"/>
<line x1="315" y1="720" x2="315" y2="422"/>
<line x1="315" y1="720" x2="205" y2="720"/>
<rect x="315" y="422" width="62" height="75" style="fill: red"/>
<line x1="315" y1="422" x2="377" y2="422"/>
<line x1="315" y1="497" x2="315" y2="422"/>
<line x1="377" y1="497" x2="377" y2="422"/>
<line x1="377" y1="497" x2="315" y2="497"/>
<rect x="377" y="422" width="31" height="75" style="fill: blue"/>
<line x1="377" y1="422" x2="408" y2="422"/>
<line x1="377" y1="497" x2="377" y2="422"/>
<line x1="408" y1="497" x2="408" y2="422"/>
<line x1="408" y1="497" x2="377" y2="497"/>
<rect x="315" y="497" width="62" height="38" style="fill: yellow"/>
<line x1="315" y1="497" x2="377" y2="497"/>
<line x1="315" y1="535" x2="315" y2="497"/>
<line x1="377" y1="535" x2="377" y2="497"/>
<line x1="377" y1="535" x2="315" y2="535"/>
<rect x="315" y="535" width="62" height="64" style="fill: red"/>
<line x1="315" y1="535" x2="377" y2="535"/>
<line x1="315" y1="599" x2="315" y2="535"/>
<line x1="377" y1="599" x2="377" y2="535"/>
<line x1="377" y1="599" x2="315" y2="599"/>
<rect x="377" y="497" width="31" height="102" style="fill: blue"/>
<line x1="377" y1="497" x2="408" y2="497"/>
<line x1="377" y1="599" x2="377" y2="497"/>
<line x1="408" y1="599" x2="408" y2="497"/>
<line x1="408" y1="599" x2="377" y2="599"/>
<rect x="408" y="422" width="86" height="87" style="fill: yellow"/>
<line x1="408" y1="422" x2="494" y2="422"/>
<line x1="408" y1="509" x2="408" y2="422"/>
<line x1="494" y1="509" x2="494" y2="422"/>
<line x1="494" y1="509" x2="408" y2="509"/>
<rect x="494" y="422" width="66" height="87" style="fill: red"/>
<line x1="494" y1="422" x2="560" y2="422"/>
<line x1="494" y1="509" x2="494" y2="422"/>
<line x1="560" y1="509" x2="560" y2="422"/>
<line x1="560" y1="509" x2="494" y2="509"/>
<rect x="408" y="509" width="152" height="90" style="fill: blue"/>
<line x1="408" y1="509" x2="560" y2="509"/>
<line x1="408" y1="599" x2="408" y2="509"/>
<line x1="560" y1="599" x2="560" y2="509"/>
<line x1="560" y1="599" x2="408" y2="599"/>
<rect x="315" y="599" width="50" height="121" style="fill: yellow"/>
<line x1="315" y1="599" x2="365" y2="599"/>
<line x1="315" y1="720" x2="315" y2="599"/>
<line x1="365" y1="720" x2="365" y2="599"/>
<line x1="365" y1="720" x2="315" y2="720"/>
<rect x="365" y="599" width="43" height="43" style="fill: red"/>
<line x1="365" y1="599" x2="408" y2="599"/>
<line x1="365" y1="642" x2="365" y2="599"/>
<line x1="408" y1="642" x2="408" y2="599"/>
<line x1="408" y1="642" x2="365" y2="642"/>
<rect x="365" y="642" width="43" height="78" style="fill: blue"/>
<line x1="365" y1="642" x2="408" y2="642"/>
<line x1="365" y1="720" x2="365" y2="642"/>
<line x1="408" y1="720" x2="408" y2="642"/>
<line x1="408" y1="720" x2="365" y2="720"/>
<rect x="408" y="599" width="152" height="121" style="fill: yellow"/>
<line x1="408" y1="599" x2="560" y2="599"/>
<line x1="408" y1="720" x2="408" y2="599"/>
<line x1="560" y1="720" x2="560" y2="599"/>
<line x1="560" y1="720" x2="408" y2="720"/>
<rect x="560" y="422" width="84" height="69" style="fill: red"/>
<line x1="560" y1="422" x2="644" y2="422"/>
<line x1="560" y1="491" x2="560" y2="422"/>
<line x1="644" y1="491" x2="644" y2="422"/>
<line x1="644" y1="491" x2="560" y2="491"/>
<rect x="644" y="422" width="44" height="69" style="fill: blue"/>
<line x1="644" y1="422" x2="688" y2="422"/>
<line x1="644" y1="491" x2="644" y2="422"/>
<line x1="688" y1="491" x2="688" y2="422"/>
<line x1="688" y1="491" x2="644" y2="491"/>
<rect x="560" y="491" width="49" height="68" style="fill: yellow"/>
<line x1="560" y1="491" x2="609" y2="491"/>
<line x1="560" y1="559" x2="560" y2="491"/>
<line x1="609" y1="559" x2="609" y2="491"/>
<line x1="609" y1="559" x2="560" y2="559"/>
<rect x="609" y="491" width="79" height="68" style="fill: red"/>
<line x1="609" y1="491" x2="688" y2="491"/>
<line x1="609" y1="559" x2="609" y2="491"/>
<line x1="688" y1="559" x2="688" y2="491"/>
<line x1="688" y1="559" x2="609" y2="559"/>
<rect x="688" y="422" width="76" height="85" style="fill: blue"/>
<line x1="688" y1="422" x2="764" y2="422"/>
<line x1="688" y1="507" x2="688" y2="422"/>
<line x1="764" y1="507" x2="764" y2="422"/>
<line x1="764" y1="507" x2="688" y2="507"/>
<rect x="688" y="507" width="76" height="52" style="fill: yellow"/>
<line x1="688" y1="507" x2="764" y2="507"/>
<line x1="688" y1="559" x2="688" y2="507"/>
<line x1="764" y1="559" x2="764" y2="507"/>
<line x1="764" y1="559" x2="688" y2="559"/>
<rect x="560" y="559" width="128" height="56" style="fill: red"/>
<line x1="560" y1="559" x2="688" y2="559"/>
<line x1="560" y1="615" x2="560" y2="559"/>
<line x1="688" y1="615" x2="688" y2="559"/>
<line x1="688" y1="615" x2="560" y2="615"/>
<rect x="560" y="615" width="128" height="105" style="fill: blue"/>
<line x1="560" y1="615" x2="688" y2="615"/>
<line x1="560" y1="720" x2="560" y2="615"/>
<line x1="688" y1="720" x2="688" y2="615"/>
<line x1="688" y1="720" x2="560" y2="720"/>
<rect x="688" y="559" width="76" height="161" style="fill: yellow"/>
<line x1="688" y1="559" x2="764" y2="559"/>
<line x1="688" y1="720" x2="688" y2="559"/>
<line x1="764" y1="720" x2="764" y2="559"/>
<line x1="764" y1="720" x2="688" y2="720"/>
<rect x="764" y="422" width="326" height="298" style="fill: red"/>
<line x1="764" y1="422" x2="1090" y2="422"/>
<line x1="764" y1="720" x2="764" y2="422"/>
<line x1="1090" y1="720" x2="1090" y2="422"/>
<line x1="1090" y1="720" x2="764" y2="720"/>
</svg>