<?xml version="1.0" encoding="utf-8"?>
<svg xmlns="http://www.w3.org/2000/svg"
 xmlns:xlink="http://www.w3.org/1999/xlink" width="1024" height="768" >
<defs>
    <style type="text/css"><![CDATA[
        line {
        stroke: #000;
        stroke-width: 5px;
        }
    ]]></style></defs>
<rect x="0" y="0" width="456" height="257" style="fill: #fff5ee"/>
<line x1="0" y1="0" x2="456" y2="0" style="stroke:rgb(0,0,0);stroke-width:2px" />
<line x1="0" y1="257" x2="0" y2="0" style="stroke:rgb(0,0,0);stroke-width:2px" />
<line x1="456" y1="257" x2="456" y2="0" style="stroke:rgb(0,0,0);stroke-width:2px" />
<line x1="456" y1="257" x2="0" y2="257" style="stroke:rgb(0,0,0);stroke-width:2px"/>
<rect x="456" y="0" width="208" height="58" style="fill: #f0fff0"/>
<line x1="456" y1="0" x2="664" y2="0" style="stroke:rgb(0,0,0);stroke-width:2px" />
<line x1="456" y1="58" x2="456" y2="0" style="stroke:rgb(0,0,0);stroke-width:2px" />
<line x1="664" y1="58" x2="664" y2="0" style="stroke:rgb(0,0,0);stroke-width:2px" />
<line x1="664" y1="58" x2="456" y2="58" style="stroke:rgb(0,0,0);stroke-width:2px"/>
<rect x="456" y="58" width="119" height="92" style="fill: #87ceeb"/>
<line x1="456" y1="58" x2="575" y2="58" style="stroke:rgb(0,0,0);stroke-width:2px" />
<line x1="456" y1="150" x2="456" y2="58" style="stroke:rgb(0,0,0);stroke-width:2px" />
<line x1="575" y1="150" x2="575" y2="58" style="stroke:rgb(0,0,0);stroke-width:2px" />
<line x1="575" y1="150" x2="456" y2="150" style="stroke:rgb(0,0,0);stroke-width:2px"/>
<rect x="575" y="58" width="46" height="92" style="fill: white"/>
<line x1="575" y1="58" x2="621" y2="58" style="stroke:rgb(0,0,0);stroke-width:2px" />
<line x1="575" y1="150" x2="575" y2="58" style="stroke:rgb(0,0,0);stroke-width:2px" />
<line x1="621" y1="150" x2="621" y2="58" style="stroke:rgb(0,0,0);stroke-width:2px" />
<line x1="621" y1="150" x2="575" y2="150" style="stroke:rgb(0,0,0);stroke-width:2px"/>
<rect x="621" y="58" width="43" height="92" style="fill: #87ceeb"/>
<line x1="621" y1="58" x2="664" y2="58" style="stroke:rgb(0,0,0);stroke-width:2px" />
<line x1="621" y1="150" x2="621" y2="58" style="stroke:rgb(0,0,0);stroke-width:2px" />
<line x1="664" y1="150" x2="664" y2="58" style="stroke:rgb(0,0,0);stroke-width:2px" />
<line x1="664" y1="150" x2="621" y2="150" style="stroke:rgb(0,0,0);stroke-width:2px"/>
<rect x="456" y="150" width="99" height="107" style="fill: #87ceeb"/>
<line x1="456" y1="150" x2="555" y2="150" style="stroke:rgb(0,0,0);stroke-width:2px" />
<line x1="456" y1="257" x2="456" y2="150" style="stroke:rgb(0,0,0);stroke-width:2px" />
<line x1="555" y1="257" x2="555" y2="150" style="stroke:rgb(0,0,0);stroke-width:2px" />
<line x1="555" y1="257" x2="456" y2="257" style="stroke:rgb(0,0,0);stroke-width:2px"/>
<rect x="555" y="150" width="109" height="73" style="fill: #0000ff"/>
<line x1="555" y1="150" x2="664" y2="150" style="stroke:rgb(0,0,0);stroke-width:2px" />
<line x1="555" y1="223" x2="555" y2="150" style="stroke:rgb(0,0,0);stroke-width:2px" />
<line x1="664" y1="223" x2="664" y2="150" style="stroke:rgb(0,0,0);stroke-width:2px" />
<line x1="664" y1="223" x2="555" y2="223" style="stroke:rgb(0,0,0);stroke-width:2px"/>
<rect x="555" y="223" width="109" height="34" style="fill: #ff7f50"/>
<line x1="555" y1="223" x2="664" y2="223" style="stroke:rgb(0,0,0);stroke-width:2px" />
<line x1="555" y1="257" x2="555" y2="223" style="stroke:rgb(0,0,0);stroke-width:2px" />
<line x1="664" y1="257" x2="664" y2="223" style="stroke:rgb(0,0,0);stroke-width:2px" />
<line x1="664" y1="257" x2="555" y2="257" style="stroke:rgb(0,0,0);stroke-width:2px"/>
<rect x="664" y="0" width="94" height="101" style="fill: #ff00ff"/>
<line x1="664" y1="0" x2="758" y2="0" style="stroke:rgb(0,0,0);stroke-width:2px" />
<line x1="664" y1="101" x2="664" y2="0" style="stroke:rgb(0,0,0);stroke-width:2px" />
<line x1="758" y1="101" x2="758" y2="0" style="stroke:rgb(0,0,0);stroke-width:2px" />
<line x1="758" y1="101" x2="664" y2="101" style="stroke:rgb(0,0,0);stroke-width:2px"/>
<rect x="664" y="101" width="94" height="70" style="fill: white"/>
<line x1="664" y1="101" x2="758" y2="101" style="stroke:rgb(0,0,0);stroke-width:2px" />
<line x1="664" y1="171" x2="664" y2="101" style="stroke:rgb(0,0,0);stroke-width:2px" />
<line x1="758" y1="171" x2="758" y2="101" style="stroke:rgb(0,0,0);stroke-width:2px" />
<line x1="758" y1="171" x2="664" y2="171" style="stroke:rgb(0,0,0);stroke-width:2px"/>
<rect x="664" y="171" width="94" height="34" style="fill: #ff0000"/>
<line x1="664" y1="171" x2="758" y2="171" style="stroke:rgb(0,0,0);stroke-width:2px" />
<line x1="664" y1="205" x2="664" y2="171" style="stroke:rgb(0,0,0);stroke-width:2px" />
<line x1="758" y1="205" x2="758" y2="171" style="stroke:rgb(0,0,0);stroke-width:2px" />
<line x1="758" y1="205" x2="664" y2="205" style="stroke:rgb(0,0,0);stroke-width:2px"/>
<rect x="664" y="205" width="94" height="52" style="fill: #ff7f50"/>
<line x1="664" y1="205" x2="758" y2="205" style="stroke:rgb(0,0,0);stroke-width:2px" />
<line x1="664" y1="257" x2="664" y2="205" style="stroke:rgb(0,0,0);stroke-width:2px" />
<line x1="758" y1="257" x2="758" y2="205" style="stroke:rgb(0,0,0);stroke-width:2px" />
<line x1="758" y1="257" x2="664" y2="257" style="stroke:rgb(0,0,0);stroke-width:2px"/>
<rect x="758" y="0" width="81" height="58" style="fill: #87ceeb"/>
<line x1="758" y1="0" x2="839" y2="0" style="stroke:rgb(0,0,0);stroke-width:2px" />
<line x1="758" y1="58" x2="758" y2="0" style="stroke:rgb(0,0,0);stroke-width:2px" />
<line x1="839" y1="58" x2="839" y2="0" style="stroke:rgb(0,0,0);stroke-width:2px" />
<line x1="839" y1="58" x2="758" y2="58" style="stroke:rgb(0,0,0);stroke-width:2px"/>
<rect x="758" y="58" width="81" height="62" style="fill: white"/>
<line x1="758" y1="58" x2="839" y2="58" style="stroke:rgb(0,0,0);stroke-width:2px" />
<line x1="758" y1="120" x2="758" y2="58" style="stroke:rgb(0,0,0);stroke-width:2px" />
<line x1="839" y1="120" x2="839" y2="58" style="stroke:rgb(0,0,0);stroke-width:2px" />
<line x1="839" y1="120" x2="758" y2="120" style="stroke:rgb(0,0,0);stroke-width:2px"/>
<rect x="758" y="120" width="81" height="137" style="fill: white"/>
<line x1="758" y1="120" x2="839" y2="120" style="stroke:rgb(0,0,0);stroke-width:2px" />
<line x1="758" y1="257" x2="758" y2="120" style="stroke:rgb(0,0,0);stroke-width:2px" />
<line x1="839" y1="257" x2="839" y2="120" style="stroke:rgb(0,0,0);stroke-width:2px" />
<line x1="839" y1="257" x2="758" y2="257" style="stroke:rgb(0,0,0);stroke-width:2px"/>
<rect x="839" y="0" width="125" height="94" style="fill: #4b0082"/>
<line x1="839" y1="0" x2="964" y2="0" style="stroke:rgb(0,0,0);stroke-width:2px" />
<line x1="839" y1="94" x2="839" y2="0" style="stroke:rgb(0,0,0);stroke-width:2px" />
<line x1="964" y1="94" x2="964" y2="0" style="stroke:rgb(0,0,0);stroke-width:2px" />
<line x1="964" y1="94" x2="839" y2="94" style="stroke:rgb(0,0,0);stroke-width:2px"/>
<rect x="839" y="94" width="83" height="86" style="fill: #4b0082"/>
<line x1="839" y1="94" x2="922" y2="94" style="stroke:rgb(0,0,0);stroke-width:2px" />
<line x1="839" y1="180" x2="839" y2="94" style="stroke:rgb(0,0,0);stroke-width:2px" />
<line x1="922" y1="180" x2="922" y2="94" style="stroke:rgb(0,0,0);stroke-width:2px" />
<line x1="922" y1="180" x2="839" y2="180" style="stroke:rgb(0,0,0);stroke-width:2px"/>
<rect x="922" y="94" width="42" height="86" style="fill: #fff5ee"/>
<line x1="922" y1="94" x2="964" y2="94" style="stroke:rgb(0,0,0);stroke-width:2px" />
<line x1="922" y1="180" x2="922" y2="94" style="stroke:rgb(0,0,0);stroke-width:2px" />
<line x1="964" y1="180" x2="964" y2="94" style="stroke:rgb(0,0,0);stroke-width:2px" />
<line x1="964" y1="180" x2="922" y2="180" style="stroke:rgb(0,0,0);stroke-width:2px"/>
<rect x="839" y="180" width="83" height="77" style="fill: #2E8B57"/>
<line x1="839" y1="180" x2="922" y2="180" style="stroke:rgb(0,0,0);stroke-width:2px" />
<line x1="839" y1="257" x2="839" y2="180" style="stroke:rgb(0,0,0);stroke-width:2px" />
<line x1="922" y1="257" x2="922" y2="180" style="stroke:rgb(0,0,0);stroke-width:2px" />
<line x1="922" y1="257" x2="839" y2="257" style="stroke:rgb(0,0,0);stroke-width:2px"/>
<rect x="922" y="180" width="42" height="77" style="fill: #ff0000"/>
<line x1="922" y1="180" x2="964" y2="180" style="stroke:rgb(0,0,0);stroke-width:2px" />
<line x1="922" y1="257" x2="922" y2="180" style="stroke:rgb(0,0,0);stroke-width:2px" />
<line x1="964" y1="257" x2="964" y2="180" style="stroke:rgb(0,0,0);stroke-width:2px" />
<line x1="964" y1="257" x2="922" y2="257" style="stroke:rgb(0,0,0);stroke-width:2px"/>
<rect x="964" y="0" width="60" height="98" style="fill: #87ceeb"/>
<line x1="964" y1="0" x2="1024" y2="0" style="stroke:rgb(0,0,0);stroke-width:2px" />
<line x1="964" y1="98" x2="964" y2="0" style="stroke:rgb(0,0,0);stroke-width:2px" />
<line x1="1024" y1="98" x2="1024" y2="0" style="stroke:rgb(0,0,0);stroke-width:2px" />
<line x1="1024" y1="98" x2="964" y2="98" style="stroke:rgb(0,0,0);stroke-width:2px"/>
<rect x="964" y="98" width="60" height="58" style="fill: white"/>
<line x1="964" y1="98" x2="1024" y2="98" style="stroke:rgb(0,0,0);stroke-width:2px" />
<line x1="964" y1="156" x2="964" y2="98" style="stroke:rgb(0,0,0);stroke-width:2px" />
<line x1="1024" y1="156" x2="1024" y2="98" style="stroke:rgb(0,0,0);stroke-width:2px" />
<line x1="1024" y1="156" x2="964" y2="156" style="stroke:rgb(0,0,0);stroke-width:2px"/>
<rect x="964" y="156" width="60" height="63" style="fill: #ff69b4"/>
<line x1="964" y1="156" x2="1024" y2="156" style="stroke:rgb(0,0,0);stroke-width:2px" />
<line x1="964" y1="219" x2="964" y2="156" style="stroke:rgb(0,0,0);stroke-width:2px" />
<line x1="1024" y1="219" x2="1024" y2="156" style="stroke:rgb(0,0,0);stroke-width:2px" />
<line x1="1024" y1="219" x2="964" y2="219" style="stroke:rgb(0,0,0);stroke-width:2px"/>
<rect x="964" y="219" width="60" height="38" style="fill: #ff0000"/>
<line x1="964" y1="219" x2="1024" y2="219" style="stroke:rgb(0,0,0);stroke-width:2px" />
<line x1="964" y1="257" x2="964" y2="219" style="stroke:rgb(0,0,0);stroke-width:2px" />
<line x1="1024" y1="257" x2="1024" y2="219" style="stroke:rgb(0,0,0);stroke-width:2px" />
<line x1="1024" y1="257" x2="964" y2="257" style="stroke:rgb(0,0,0);stroke-width:2px"/>
<rect x="0" y="257" width="456" height="216" style="fill: #ff7f50"/>
<line x1="0" y1="257" x2="456" y2="257" style="stroke:rgb(0,0,0);stroke-width:2px" />
<line x1="0" y1="473" x2="0" y2="257" style="stroke:rgb(0,0,0);stroke-width:2px" />
<line x1="456" y1="473" x2="456" y2="257" style="stroke:rgb(0,0,0);stroke-width:2px" />
<line x1="456" y1="473" x2="0" y2="473" style="stroke:rgb(0,0,0);stroke-width:2px"/>
<rect x="0" y="473" width="456" height="287" style="fill: #40e0d0"/>
<line x1="0" y1="473" x2="456" y2="473" style="stroke:rgb(0,0,0);stroke-width:2px" />
<line x1="0" y1="760" x2="0" y2="473" style="stroke:rgb(0,0,0);stroke-width:2px" />
<line x1="456" y1="760" x2="456" y2="473" style="stroke:rgb(0,0,0);stroke-width:2px" />
<line x1="456" y1="760" x2="0" y2="760" style="stroke:rgb(0,0,0);stroke-width:2px"/>
<rect x="456" y="257" width="82" height="52" style="fill: #40e0d0"/>
<line x1="456" y1="257" x2="538" y2="257" style="stroke:rgb(0,0,0);stroke-width:2px" />
<line x1="456" y1="309" x2="456" y2="257" style="stroke:rgb(0,0,0);stroke-width:2px" />
<line x1="538" y1="309" x2="538" y2="257" style="stroke:rgb(0,0,0);stroke-width:2px" />
<line x1="538" y1="309" x2="456" y2="309" style="stroke:rgb(0,0,0);stroke-width:2px"/>
<rect x="456" y="309" width="82" height="50" style="fill: #000080"/>
<line x1="456" y1="309" x2="538" y2="309" style="stroke:rgb(0,0,0);stroke-width:2px" />
<line x1="456" y1="359" x2="456" y2="309" style="stroke:rgb(0,0,0);stroke-width:2px" />
<line x1="538" y1="359" x2="538" y2="309" style="stroke:rgb(0,0,0);stroke-width:2px" />
<line x1="538" y1="359" x2="456" y2="359" style="stroke:rgb(0,0,0);stroke-width:2px"/>
<rect x="538" y="257" width="50" height="102" style="fill: #ff0000"/>
<line x1="538" y1="257" x2="588" y2="257" style="stroke:rgb(0,0,0);stroke-width:2px" />
<line x1="538" y1="359" x2="538" y2="257" style="stroke:rgb(0,0,0);stroke-width:2px" />
<line x1="588" y1="359" x2="588" y2="257" style="stroke:rgb(0,0,0);stroke-width:2px" />
<line x1="588" y1="359" x2="538" y2="359" style="stroke:rgb(0,0,0);stroke-width:2px"/>
<rect x="588" y="257" width="50" height="102" style="fill: #00ffff"/>
<line x1="588" y1="257" x2="638" y2="257" style="stroke:rgb(0,0,0);stroke-width:2px" />
<line x1="588" y1="359" x2="588" y2="257" style="stroke:rgb(0,0,0);stroke-width:2px" />
<line x1="638" y1="359" x2="638" y2="257" style="stroke:rgb(0,0,0);stroke-width:2px" />
<line x1="638" y1="359" x2="588" y2="359" style="stroke:rgb(0,0,0);stroke-width:2px"/>
<rect x="456" y="359" width="82" height="88" style="fill: white"/>
<line x1="456" y1="359" x2="538" y2="359" style="stroke:rgb(0,0,0);stroke-width:2px" />
<line x1="456" y1="447" x2="456" y2="359" style="stroke:rgb(0,0,0);stroke-width:2px" />
<line x1="538" y1="447" x2="538" y2="359" style="stroke:rgb(0,0,0);stroke-width:2px" />
<line x1="538" y1="447" x2="456" y2="447" style="stroke:rgb(0,0,0);stroke-width:2px"/>
<rect x="538" y="359" width="100" height="88" style="fill: white"/>
<line x1="538" y1="359" x2="638" y2="359" style="stroke:rgb(0,0,0);stroke-width:2px" />
<line x1="538" y1="447" x2="538" y2="359" style="stroke:rgb(0,0,0);stroke-width:2px" />
<line x1="638" y1="447" x2="638" y2="359" style="stroke:rgb(0,0,0);stroke-width:2px" />
<line x1="638" y1="447" x2="538" y2="447" style="stroke:rgb(0,0,0);stroke-width:2px"/>
<rect x="638" y="257" width="156" height="129" style="fill: #40e0d0"/>
<line x1="638" y1="257" x2="794" y2="257" style="stroke:rgb(0,0,0);stroke-width:2px" />
<line x1="638" y1="386" x2="638" y2="257" style="stroke:rgb(0,0,0);stroke-width:2px" />
<line x1="794" y1="386" x2="794" y2="257" style="stroke:rgb(0,0,0);stroke-width:2px" />
<line x1="794" y1="386" x2="638" y2="386" style="stroke:rgb(0,0,0);stroke-width:2px"/>
<rect x="638" y="386" width="156" height="61" style="fill: white"/>
<line x1="638" y1="386" x2="794" y2="386" style="stroke:rgb(0,0,0);stroke-width:2px" />
<line x1="638" y1="447" x2="638" y2="386" style="stroke:rgb(0,0,0);stroke-width:2px" />
<line x1="794" y1="447" x2="794" y2="386" style="stroke:rgb(0,0,0);stroke-width:2px" />
<line x1="794" y1="447" x2="638" y2="447" style="stroke:rgb(0,0,0);stroke-width:2px"/>
<rect x="456" y="447" width="182" height="134" style="fill: #000080"/>
<line x1="456" y1="447" x2="638" y2="447" style="stroke:rgb(0,0,0);stroke-width:2px" />
<line x1="456" y1="581" x2="456" y2="447" style="stroke:rgb(0,0,0);stroke-width:2px" />
<line x1="638" y1="581" x2="638" y2="447" style="stroke:rgb(0,0,0);stroke-width:2px" />
<line x1="638" y1="581" x2="456" y2="581" style="stroke:rgb(0,0,0);stroke-width:2px"/>
<rect x="638" y="447" width="104" height="67" style="fill: #000080"/>
<line x1="638" y1="447" x2="742" y2="447" style="stroke:rgb(0,0,0);stroke-width:2px" />
<line x1="638" y1="514" x2="638" y2="447" style="stroke:rgb(0,0,0);stroke-width:2px" />
<line x1="742" y1="514" x2="742" y2="447" style="stroke:rgb(0,0,0);stroke-width:2px" />
<line x1="742" y1="514" x2="638" y2="514" style="stroke:rgb(0,0,0);stroke-width:2px"/>
<rect x="638" y="514" width="104" height="67" style="fill: #000080"/>
<line x1="638" y1="514" x2="742" y2="514" style="stroke:rgb(0,0,0);stroke-width:2px" />
<line x1="638" y1="581" x2="638" y2="514" style="stroke:rgb(0,0,0);stroke-width:2px" />
<line x1="742" y1="581" x2="742" y2="514" style="stroke:rgb(0,0,0);stroke-width:2px" />
<line x1="742" y1="581" x2="638" y2="581" style="stroke:rgb(0,0,0);stroke-width:2px"/>
<rect x="742" y="447" width="52" height="52" style="fill: #0000ff"/>
<line x1="742" y1="447" x2="794" y2="447" style="stroke:rgb(0,0,0);stroke-width:2px" />
<line x1="742" y1="499" x2="742" y2="447" style="stroke:rgb(0,0,0);stroke-width:2px" />
<line x1="794" y1="499" x2="794" y2="447" style="stroke:rgb(0,0,0);stroke-width:2px" />
<line x1="794" y1="499" x2="742" y2="499" style="stroke:rgb(0,0,0);stroke-width:2px"/>
<rect x="742" y="499" width="52" height="82" style="fill: #0000ff"/>
<line x1="742" y1="499" x2="794" y2="499" style="stroke:rgb(0,0,0);stroke-width:2px" />
<line x1="742" y1="581" x2="742" y2="499" style="stroke:rgb(0,0,0);stroke-width:2px" />
<line x1="794" y1="581" x2="794" y2="499" style="stroke:rgb(0,0,0);stroke-width:2px" />
<line x1="794" y1="581" x2="742" y2="581" style="stroke:rgb(0,0,0);stroke-width:2px"/>
<rect x="794" y="257" width="153" height="131" style="fill: #000080"/>
<line x1="794" y1="257" x2="947" y2="257" style="stroke:rgb(0,0,0);stroke-width:2px" />
<line x1="794" y1="388" x2="794" y2="257" style="stroke:rgb(0,0,0);stroke-width:2px" />
<line x1="947" y1="388" x2="947" y2="257" style="stroke:rgb(0,0,0);stroke-width:2px" />
<line x1="947" y1="388" x2="794" y2="388" style="stroke:rgb(0,0,0);stroke-width:2px"/>
<rect x="794" y="388" width="153" height="89" style="fill: white"/>
<line x1="794" y1="388" x2="947" y2="388" style="stroke:rgb(0,0,0);stroke-width:2px" />
<line x1="794" y1="477" x2="794" y2="388" style="stroke:rgb(0,0,0);stroke-width:2px" />
<line x1="947" y1="477" x2="947" y2="388" style="stroke:rgb(0,0,0);stroke-width:2px" />
<line x1="947" y1="477" x2="794" y2="477" style="stroke:rgb(0,0,0);stroke-width:2px"/>
<rect x="947" y="257" width="77" height="220" style="fill: #40e0d0"/>
<line x1="947" y1="257" x2="1024" y2="257" style="stroke:rgb(0,0,0);stroke-width:2px" />
<line x1="947" y1="477" x2="947" y2="257" style="stroke:rgb(0,0,0);stroke-width:2px" />
<line x1="1024" y1="477" x2="1024" y2="257" style="stroke:rgb(0,0,0);stroke-width:2px" />
<line x1="1024" y1="477" x2="947" y2="477" style="stroke:rgb(0,0,0);stroke-width:2px"/>
<rect x="794" y="477" width="88" height="58" style="fill: white"/>
<line x1="794" y1="477" x2="882" y2="477" style="stroke:rgb(0,0,0);stroke-width:2px" />
<line x1="794" y1="535" x2="794" y2="477" style="stroke:rgb(0,0,0);stroke-width:2px" />
<line x1="882" y1="535" x2="882" y2="477" style="stroke:rgb(0,0,0);stroke-width:2px" />
<line x1="882" y1="535" x2="794" y2="535" style="stroke:rgb(0,0,0);stroke-width:2px"/>
<rect x="882" y="477" width="65" height="58" style="fill: #7FFFD4"/>
<line x1="882" y1="477" x2="947" y2="477" style="stroke:rgb(0,0,0);stroke-width:2px" />
<line x1="882" y1="535" x2="882" y2="477" style="stroke:rgb(0,0,0);stroke-width:2px" />
<line x1="947" y1="535" x2="947" y2="477" style="stroke:rgb(0,0,0);stroke-width:2px" />
<line x1="947" y1="535" x2="882" y2="535" style="stroke:rgb(0,0,0);stroke-width:2px"/>
<rect x="794" y="535" width="88" height="46" style="fill: #40e0d0"/>
<line x1="794" y1="535" x2="882" y2="535" style="stroke:rgb(0,0,0);stroke-width:2px" />
<line x1="794" y1="581" x2="794" y2="535" style="stroke:rgb(0,0,0);stroke-width:2px" />
<line x1="882" y1="581" x2="882" y2="535" style="stroke:rgb(0,0,0);stroke-width:2px" />
<line x1="882" y1="581" x2="794" y2="581" style="stroke:rgb(0,0,0);stroke-width:2px"/>
<rect x="882" y="535" width="65" height="46" style="fill: white"/>
<line x1="882" y1="535" x2="947" y2="535" style="stroke:rgb(0,0,0);stroke-width:2px" />
<line x1="882" y1="581" x2="882" y2="535" style="stroke:rgb(0,0,0);stroke-width:2px" />
<line x1="947" y1="581" x2="947" y2="535" style="stroke:rgb(0,0,0);stroke-width:2px" />
<line x1="947" y1="581" x2="882" y2="581" style="stroke:rgb(0,0,0);stroke-width:2px"/>
<rect x="947" y="477" width="77" height="104" style="fill: white"/>
<line x1="947" y1="477" x2="1024" y2="477" style="stroke:rgb(0,0,0);stroke-width:2px" />
<line x1="947" y1="581" x2="947" y2="477" style="stroke:rgb(0,0,0);stroke-width:2px" />
<line x1="1024" y1="581" x2="1024" y2="477" style="stroke:rgb(0,0,0);stroke-width:2px" />
<line x1="1024" y1="581" x2="947" y2="581" style="stroke:rgb(0,0,0);stroke-width:2px"/>
<rect x="456" y="581" width="121" height="57" style="fill: #ff7f50"/>
<line x1="456" y1="581" x2="577" y2="581" style="stroke:rgb(0,0,0);stroke-width:2px" />
<line x1="456" y1="638" x2="456" y2="581" style="stroke:rgb(0,0,0);stroke-width:2px" />
<line x1="577" y1="638" x2="577" y2="581" style="stroke:rgb(0,0,0);stroke-width:2px" />
<line x1="577" y1="638" x2="456" y2="638" style="stroke:rgb(0,0,0);stroke-width:2px"/>
<rect x="577" y="581" width="72" height="57" style="fill: #40e0d0"/>
<line x1="577" y1="581" x2="649" y2="581" style="stroke:rgb(0,0,0);stroke-width:2px" />
<line x1="577" y1="638" x2="577" y2="581" style="stroke:rgb(0,0,0);stroke-width:2px" />
<line x1="649" y1="638" x2="649" y2="581" style="stroke:rgb(0,0,0);stroke-width:2px" />
<line x1="649" y1="638" x2="577" y2="638" style="stroke:rgb(0,0,0);stroke-width:2px"/>
<rect x="649" y="581" width="145" height="57" style="fill: #40e0d0"/>
<line x1="649" y1="581" x2="794" y2="581" style="stroke:rgb(0,0,0);stroke-width:2px" />
<line x1="649" y1="638" x2="649" y2="581" style="stroke:rgb(0,0,0);stroke-width:2px" />
<line x1="794" y1="638" x2="794" y2="581" style="stroke:rgb(0,0,0);stroke-width:2px" />
<line x1="794" y1="638" x2="649" y2="638" style="stroke:rgb(0,0,0);stroke-width:2px"/>
<rect x="456" y="638" width="193" height="63" style="fill: #ff69b4"/>
<line x1="456" y1="638" x2="649" y2="638" style="stroke:rgb(0,0,0);stroke-width:2px" />
<line x1="456" y1="701" x2="456" y2="638" style="stroke:rgb(0,0,0);stroke-width:2px" />
<line x1="649" y1="701" x2="649" y2="638" style="stroke:rgb(0,0,0);stroke-width:2px" />
<line x1="649" y1="701" x2="456" y2="701" style="stroke:rgb(0,0,0);stroke-width:2px"/>
<rect x="649" y="638" width="145" height="63" style="fill: white"/>
<line x1="649" y1="638" x2="794" y2="638" style="stroke:rgb(0,0,0);stroke-width:2px" />
<line x1="649" y1="701" x2="649" y2="638" style="stroke:rgb(0,0,0);stroke-width:2px" />
<line x1="794" y1="701" x2="794" y2="638" style="stroke:rgb(0,0,0);stroke-width:2px" />
<line x1="794" y1="701" x2="649" y2="701" style="stroke:rgb(0,0,0);stroke-width:2px"/>
<rect x="456" y="701" width="199" height="59" style="fill: #7FFFD4"/>
<line x1="456" y1="701" x2="655" y2="701" style="stroke:rgb(0,0,0);stroke-width:2px" />
<line x1="456" y1="760" x2="456" y2="701" style="stroke:rgb(0,0,0);stroke-width:2px" />
<line x1="655" y1="760" x2="655" y2="701" style="stroke:rgb(0,0,0);stroke-width:2px" />
<line x1="655" y1="760" x2="456" y2="760" style="stroke:rgb(0,0,0);stroke-width:2px"/>
<rect x="655" y="701" width="139" height="59" style="fill: #ff00ff"/>
<line x1="655" y1="701" x2="794" y2="701" style="stroke:rgb(0,0,0);stroke-width:2px" />
<line x1="655" y1="760" x2="655" y2="701" style="stroke:rgb(0,0,0);stroke-width:2px" />
<line x1="794" y1="760" x2="794" y2="701" style="stroke:rgb(0,0,0);stroke-width:2px" />
<line x1="794" y1="760" x2="655" y2="760" style="stroke:rgb(0,0,0);stroke-width:2px"/>
<rect x="794" y="581" width="74" height="111" style="fill: #fff5ee"/>
<line x1="794" y1="581" x2="868" y2="581" style="stroke:rgb(0,0,0);stroke-width:2px" />
<line x1="794" y1="692" x2="794" y2="581" style="stroke:rgb(0,0,0);stroke-width:2px" />
<line x1="868" y1="692" x2="868" y2="581" style="stroke:rgb(0,0,0);stroke-width:2px" />
<line x1="868" y1="692" x2="794" y2="692" style="stroke:rgb(0,0,0);stroke-width:2px"/>
<rect x="868" y="581" width="45" height="74" style="fill: white"/>
<line x1="868" y1="581" x2="913" y2="581" style="stroke:rgb(0,0,0);stroke-width:2px" />
<line x1="868" y1="655" x2="868" y2="581" style="stroke:rgb(0,0,0);stroke-width:2px" />
<line x1="913" y1="655" x2="913" y2="581" style="stroke:rgb(0,0,0);stroke-width:2px" />
<line x1="913" y1="655" x2="868" y2="655" style="stroke:rgb(0,0,0);stroke-width:2px"/>
<rect x="868" y="655" width="45" height="37" style="fill: #0000ff"/>
<line x1="868" y1="655" x2="913" y2="655" style="stroke:rgb(0,0,0);stroke-width:2px" />
<line x1="868" y1="692" x2="868" y2="655" style="stroke:rgb(0,0,0);stroke-width:2px" />
<line x1="913" y1="692" x2="913" y2="655" style="stroke:rgb(0,0,0);stroke-width:2px" />
<line x1="913" y1="692" x2="868" y2="692" style="stroke:rgb(0,0,0);stroke-width:2px"/>
<rect x="794" y="692" width="74" height="68" style="fill: #f0fff0"/>
<line x1="794" y1="692" x2="868" y2="692" style="stroke:rgb(0,0,0);stroke-width:2px" />
<line x1="794" y1="760" x2="794" y2="692" style="stroke:rgb(0,0,0);stroke-width:2px" />
<line x1="868" y1="760" x2="868" y2="692" style="stroke:rgb(0,0,0);stroke-width:2px" />
<line x1="868" y1="760" x2="794" y2="760" style="stroke:rgb(0,0,0);stroke-width:2px"/>
<rect x="868" y="692" width="45" height="68" style="fill: #00ff00"/>
<line x1="868" y1="692" x2="913" y2="692" style="stroke:rgb(0,0,0);stroke-width:2px" />
<line x1="868" y1="760" x2="868" y2="692" style="stroke:rgb(0,0,0);stroke-width:2px" />
<line x1="913" y1="760" x2="913" y2="692" style="stroke:rgb(0,0,0);stroke-width:2px" />
<line x1="913" y1="760" x2="868" y2="760" style="stroke:rgb(0,0,0);stroke-width:2px"/>
<rect x="913" y="581" width="111" height="179" style="fill: white"/>
<line x1="913" y1="581" x2="1024" y2="581" style="stroke:rgb(0,0,0);stroke-width:2px" />
<line x1="913" y1="760" x2="913" y2="581" style="stroke:rgb(0,0,0);stroke-width:2px" />
<line x1="1024" y1="760" x2="1024" y2="581" style="stroke:rgb(0,0,0);stroke-width:2px" />
<line x1="1024" y1="760" x2="913" y2="760" style="stroke:rgb(0,0,0);stroke-width:2px"/>
</svg>