<?xml version="1.0" encoding="utf-8"?>
<svg xmlns="http://www.w3.org/2000/svg"
 xmlns:xlink="http://www.w3.org/1999/xlink" width="1024" height="768" >
<defs>
    <style type="text/css"><![CDATA[
        line {
        stroke: #000;
        stroke-width: 5px;
        }
    ]]></style></defs>
<rect x="0" y="0" width="461" height="368" style="fill: white"/>
<line x1="0" y1="0" x2="461" y2="0"/>
<line x1="0" y1="368" x2="0" y2="0"/>
<line x1="461" y1="368" x2="461" y2="0"/>
<line x1="461" y1="368" x2="0" y2="368"/>
<rect x="461" y="0" width="355" height="248" style="fill: white"/>
<line x1="461" y1="0" x2="816" y2="0"/>
<line x1="461" y1="248" x2="461" y2="0"/>
<line x1="816" y1="248" x2="816" y2="0"/>
<line x1="816" y1="248" x2="461" y2="248"/>
<rect x="461" y="248" width="228" height="62" style="fill: white"/>
<line x1="461" y1="248" x2="689" y2="248"/>
<line x1="461" y1="310" x2="461" y2="248"/>
<line x1="689" y1="310" x2="689" y2="248"/>
<line x1="689" y1="310" x2="461" y2="310"/>
<rect x="689" y="248" width="127" height="62" style="fill: white"/>
<line x1="689" y1="248" x2="816" y2="248"/>
<line x1="689" y1="310" x2="689" y2="248"/>
<line x1="816" y1="310" x2="816" y2="248"/>
<line x1="816" y1="310" x2="689" y2="310"/>
<rect x="461" y="310" width="86" height="58" style="fill: skyblue"/>
<line x1="461" y1="310" x2="547" y2="310"/>
<line x1="461" y1="368" x2="461" y2="310"/>
<line x1="547" y1="368" x2="547" y2="310"/>
<line x1="547" y1="368" x2="461" y2="368"/>
<rect x="547" y="310" width="140" height="58" style="fill: white"/>
<line x1="547" y1="310" x2="687" y2="310"/>
<line x1="547" y1="368" x2="547" y2="310"/>
<line x1="687" y1="368" x2="687" y2="310"/>
<line x1="687" y1="368" x2="547" y2="368"/>
<rect x="687" y="310" width="48" height="58" style="fill: white"/>
<line x1="687" y1="310" x2="735" y2="310"/>
<line x1="687" y1="368" x2="687" y2="310"/>
<line x1="735" y1="368" x2="735" y2="310"/>
<line x1="735" y1="368" x2="687" y2="368"/>
<rect x="735" y="310" width="81" height="58" style="fill: white"/>
<line x1="735" y1="310" x2="816" y2="310"/>
<line x1="735" y1="368" x2="735" y2="310"/>
<line x1="816" y1="368" x2="816" y2="310"/>
<line x1="816" y1="368" x2="735" y2="368"/>
<rect x="816" y="0" width="208" height="368" style="fill: black"/>
<line x1="816" y1="0" x2="1024" y2="0"/>
<line x1="816" y1="368" x2="816" y2="0"/>
<line x1="1024" y1="368" x2="1024" y2="0"/>
<line x1="1024" y1="368" x2="816" y2="368"/>
<rect x="0" y="368" width="461" height="239" style="fill: white"/>
<line x1="0" y1="368" x2="461" y2="368"/>
<line x1="0" y1="607" x2="0" y2="368"/>
<line x1="461" y1="607" x2="461" y2="368"/>
<line x1="461" y1="607" x2="0" y2="607"/>
<rect x="0" y="607" width="461" height="161" style="fill: white"/>
<line x1="0" y1="607" x2="461" y2="607"/>
<line x1="0" y1="768" x2="0" y2="607"/>
<line x1="461" y1="768" x2="461" y2="607"/>
<line x1="461" y1="768" x2="0" y2="768"/>
<rect x="461" y="368" width="63" height="54" style="fill: yellow"/>
<line x1="461" y1="368" x2="524" y2="368"/>
<line x1="461" y1="422" x2="461" y2="368"/>
<line x1="524" y1="422" x2="524" y2="368"/>
<line x1="524" y1="422" x2="461" y2="422"/>
<rect x="524" y="368" width="59" height="54" style="fill: white"/>
<line x1="524" y1="368" x2="583" y2="368"/>
<line x1="524" y1="422" x2="524" y2="368"/>
<line x1="583" y1="422" x2="583" y2="368"/>
<line x1="583" y1="422" x2="524" y2="422"/>
<rect x="461" y="422" width="63" height="35" style="fill: white"/>
<line x1="461" y1="422" x2="524" y2="422"/>
<line x1="461" y1="457" x2="461" y2="422"/>
<line x1="524" y1="457" x2="524" y2="422"/>
<line x1="524" y1="457" x2="461" y2="457"/>
<rect x="524" y="422" width="59" height="35" style="fill: yellow"/>
<line x1="524" y1="422" x2="583" y2="422"/>
<line x1="524" y1="457" x2="524" y2="422"/>
<line x1="583" y1="457" x2="583" y2="422"/>
<line x1="583" y1="457" x2="524" y2="457"/>
<rect x="583" y="368" width="96" height="57" style="fill: skyblue"/>
<line x1="583" y1="368" x2="679" y2="368"/>
<line x1="583" y1="425" x2="583" y2="368"/>
<line x1="679" y1="425" x2="679" y2="368"/>
<line x1="679" y1="425" x2="583" y2="425"/>
<rect x="583" y="425" width="96" height="32" style="fill: white"/>
<line x1="583" y1="425" x2="679" y2="425"/>
<line x1="583" y1="457" x2="583" y2="425"/>
<line x1="679" y1="457" x2="679" y2="425"/>
<line x1="679" y1="457" x2="583" y2="457"/>
<rect x="461" y="457" width="122" height="89" style="fill: black"/>
<line x1="461" y1="457" x2="583" y2="457"/>
<line x1="461" y1="546" x2="461" y2="457"/>
<line x1="583" y1="546" x2="583" y2="457"/>
<line x1="583" y1="546" x2="461" y2="546"/>
<rect x="583" y="457" width="96" height="89" style="fill: white"/>
<line x1="583" y1="457" x2="679" y2="457"/>
<line x1="583" y1="546" x2="583" y2="457"/>
<line x1="679" y1="546" x2="679" y2="457"/>
<line x1="679" y1="546" x2="583" y2="546"/>
<rect x="679" y="368" width="73" height="90" style="fill: white"/>
<line x1="679" y1="368" x2="752" y2="368"/>
<line x1="679" y1="458" x2="679" y2="368"/>
<line x1="752" y1="458" x2="752" y2="368"/>
<line x1="752" y1="458" x2="679" y2="458"/>
<rect x="752" y="368" width="70" height="90" style="fill: white"/>
<line x1="752" y1="368" x2="822" y2="368"/>
<line x1="752" y1="458" x2="752" y2="368"/>
<line x1="822" y1="458" x2="822" y2="368"/>
<line x1="822" y1="458" x2="752" y2="458"/>
<rect x="822" y="368" width="76" height="90" style="fill: white"/>
<line x1="822" y1="368" x2="898" y2="368"/>
<line x1="822" y1="458" x2="822" y2="368"/>
<line x1="898" y1="458" x2="898" y2="368"/>
<line x1="898" y1="458" x2="822" y2="458"/>
<rect x="898" y="368" width="76" height="43" style="fill: red"/>
<line x1="898" y1="368" x2="974" y2="368"/>
<line x1="898" y1="411" x2="898" y2="368"/>
<line x1="974" y1="411" x2="974" y2="368"/>
<line x1="974" y1="411" x2="898" y2="411"/>
<rect x="974" y="368" width="50" height="43" style="fill: white"/>
<line x1="974" y1="368" x2="1024" y2="368"/>
<line x1="974" y1="411" x2="974" y2="368"/>
<line x1="1024" y1="411" x2="1024" y2="368"/>
<line x1="1024" y1="411" x2="974" y2="411"/>
<rect x="898" y="411" width="76" height="47" style="fill: red"/>
<line x1="898" y1="411" x2="974" y2="411"/>
<line x1="898" y1="458" x2="898" y2="411"/>
<line x1="974" y1="458" x2="974" y2="411"/>
<line x1="974" y1="458" x2="898" y2="458"/>
<rect x="974" y="411" width="50" height="47" style="fill: white"/>
<line x1="974" y1="411" x2="1024" y2="411"/>
<line x1="974" y1="458" x2="974" y2="411"/>
<line x1="1024" y1="458" x2="1024" y2="411"/>
<line x1="1024" y1="458" x2="974" y2="458"/>
<rect x="679" y="458" width="73" height="88" style="fill: skyblue"/>
<line x1="679" y1="458" x2="752" y2="458"/>
<line x1="679" y1="546" x2="679" y2="458"/>
<line x1="752" y1="546" x2="752" y2="458"/>
<line x1="752" y1="546" x2="679" y2="546"/>
<rect x="752" y="458" width="146" height="88" style="fill: skyblue"/>
<line x1="752" y1="458" x2="898" y2="458"/>
<line x1="752" y1="546" x2="752" y2="458"/>
<line x1="898" y1="546" x2="898" y2="458"/>
<line x1="898" y1="546" x2="752" y2="546"/>
<rect x="898" y="458" width="126" height="88" style="fill: white"/>
<line x1="898" y1="458" x2="1024" y2="458"/>
<line x1="898" y1="546" x2="898" y2="458"/>
<line x1="1024" y1="546" x2="1024" y2="458"/>
<line x1="1024" y1="546" x2="898" y2="546"/>
<rect x="461" y="546" width="218" height="222" style="fill: black"/>
<line x1="461" y1="546" x2="679" y2="546"/>
<line x1="461" y1="768" x2="461" y2="546"/>
<line x1="679" y1="768" x2="679" y2="546"/>
<line x1="679" y1="768" x2="461" y2="768"/>
<rect x="679" y="546" width="345" height="222" style="fill: white"/>
<line x1="679" y1="546" x2="1024" y2="546"/>
<line x1="679" y1="768" x2="679" y2="546"/>
<line x1="1024" y1="768" x2="1024" y2="546"/>
<line x1="1024" y1="768" x2="679" y2="768"/>
</svg>