<?xml version="1.0" encoding="utf-8"?>
<svg xmlns="http://www.w3.org/2000/svg"
 xmlns:xlink="http://www.w3.org/1999/xlink" width="1024" height="768" >
<defs>
    <style type="text/css"><![CDATA[
        line {
        stroke: #000;
        stroke-width: 5px;
        }
    ]]></style></defs>
<rect x="0" y="0" width="70" height="207" style="fill: white"/>
<line x1="0" y1="0" x2="70" y2="0"/>
<line x1="0" y1="207" x2="0" y2="0"/>
<line x1="70" y1="207" x2="70" y2="0"/>
<line x1="70" y1="207" x2="0" y2="207"/>
<rect x="70" y="0" width="67" height="106" style="fill: white"/>
<line x1="70" y1="0" x2="137" y2="0"/>
<line x1="70" y1="106" x2="70" y2="0"/>
<line x1="137" y1="106" x2="137" y2="0"/>
<line x1="137" y1="106" x2="70" y2="106"/>
<rect x="137" y="0" width="61" height="106" style="fill: white"/>
<line x1="137" y1="0" x2="198" y2="0"/>
<line x1="137" y1="106" x2="137" y2="0"/>
<line x1="198" y1="106" x2="198" y2="0"/>
<line x1="198" y1="106" x2="137" y2="106"/>
<rect x="70" y="106" width="128" height="65" style="fill: skyblue"/>
<line x1="70" y1="106" x2="198" y2="106"/>
<line x1="70" y1="171" x2="70" y2="106"/>
<line x1="198" y1="171" x2="198" y2="106"/>
<line x1="198" y1="171" x2="70" y2="171"/>
<rect x="70" y="171" width="58" height="36" style="fill: white"/>
<line x1="70" y1="171" x2="128" y2="171"/>
<line x1="70" y1="207" x2="70" y2="171"/>
<line x1="128" y1="207" x2="128" y2="171"/>
<line x1="128" y1="207" x2="70" y2="207"/>
<rect x="128" y="171" width="70" height="36" style="fill: red"/>
<line x1="128" y1="171" x2="198" y2="171"/>
<line x1="128" y1="207" x2="128" y2="171"/>
<line x1="198" y1="207" x2="198" y2="171"/>
<line x1="198" y1="207" x2="128" y2="207"/>
<rect x="198" y="0" width="285" height="83" style="fill: black"/>
<line x1="198" y1="0" x2="483" y2="0"/>
<line x1="198" y1="83" x2="198" y2="0"/>
<line x1="483" y1="83" x2="483" y2="0"/>
<line x1="483" y1="83" x2="198" y2="83"/>
<rect x="198" y="83" width="192" height="124" style="fill: yellow"/>
<line x1="198" y1="83" x2="390" y2="83"/>
<line x1="198" y1="207" x2="198" y2="83"/>
<line x1="390" y1="207" x2="390" y2="83"/>
<line x1="390" y1="207" x2="198" y2="207"/>
<rect x="390" y="83" width="93" height="68" style="fill: white"/>
<line x1="390" y1="83" x2="483" y2="83"/>
<line x1="390" y1="151" x2="390" y2="83"/>
<line x1="483" y1="151" x2="483" y2="83"/>
<line x1="483" y1="151" x2="390" y2="151"/>
<rect x="390" y="151" width="93" height="56" style="fill: skyblue"/>
<line x1="390" y1="151" x2="483" y2="151"/>
<line x1="390" y1="207" x2="390" y2="151"/>
<line x1="483" y1="207" x2="483" y2="151"/>
<line x1="483" y1="207" x2="390" y2="207"/>
<rect x="0" y="207" width="232" height="53" style="fill: skyblue"/>
<line x1="0" y1="207" x2="232" y2="207"/>
<line x1="0" y1="260" x2="0" y2="207"/>
<line x1="232" y1="260" x2="232" y2="207"/>
<line x1="232" y1="260" x2="0" y2="260"/>
<rect x="232" y="207" width="170" height="53" style="fill: red"/>
<line x1="232" y1="207" x2="402" y2="207"/>
<line x1="232" y1="260" x2="232" y2="207"/>
<line x1="402" y1="260" x2="402" y2="207"/>
<line x1="402" y1="260" x2="232" y2="260"/>
<rect x="402" y="207" width="81" height="53" style="fill: red"/>
<line x1="402" y1="207" x2="483" y2="207"/>
<line x1="402" y1="260" x2="402" y2="207"/>
<line x1="483" y1="260" x2="483" y2="207"/>
<line x1="483" y1="260" x2="402" y2="260"/>
<rect x="0" y="260" width="237" height="76" style="fill: white"/>
<line x1="0" y1="260" x2="237" y2="260"/>
<line x1="0" y1="336" x2="0" y2="260"/>
<line x1="237" y1="336" x2="237" y2="260"/>
<line x1="237" y1="336" x2="0" y2="336"/>
<rect x="237" y="260" width="160" height="76" style="fill: red"/>
<line x1="237" y1="260" x2="397" y2="260"/>
<line x1="237" y1="336" x2="237" y2="260"/>
<line x1="397" y1="336" x2="397" y2="260"/>
<line x1="397" y1="336" x2="237" y2="336"/>
<rect x="397" y="260" width="86" height="76" style="fill: white"/>
<line x1="397" y1="260" x2="483" y2="260"/>
<line x1="397" y1="336" x2="397" y2="260"/>
<line x1="483" y1="336" x2="483" y2="260"/>
<line x1="483" y1="336" x2="397" y2="336"/>
<rect x="0" y="336" width="129" height="85" style="fill: white"/>
<line x1="0" y1="336" x2="129" y2="336"/>
<line x1="0" y1="421" x2="0" y2="336"/>
<line x1="129" y1="421" x2="129" y2="336"/>
<line x1="129" y1="421" x2="0" y2="421"/>
<rect x="129" y="336" width="79" height="85" style="fill: red"/>
<line x1="129" y1="336" x2="208" y2="336"/>
<line x1="129" y1="421" x2="129" y2="336"/>
<line x1="208" y1="421" x2="208" y2="336"/>
<line x1="208" y1="421" x2="129" y2="421"/>
<rect x="208" y="336" width="86" height="85" style="fill: black"/>
<line x1="208" y1="336" x2="294" y2="336"/>
<line x1="208" y1="421" x2="208" y2="336"/>
<line x1="294" y1="421" x2="294" y2="336"/>
<line x1="294" y1="421" x2="208" y2="421"/>
<rect x="294" y="336" width="189" height="85" style="fill: white"/>
<line x1="294" y1="336" x2="483" y2="336"/>
<line x1="294" y1="421" x2="294" y2="336"/>
<line x1="483" y1="421" x2="483" y2="336"/>
<line x1="483" y1="421" x2="294" y2="421"/>
<rect x="483" y="0" width="184" height="243" style="fill: white"/>
<line x1="483" y1="0" x2="667" y2="0"/>
<line x1="483" y1="243" x2="483" y2="0"/>
<line x1="667" y1="243" x2="667" y2="0"/>
<line x1="667" y1="243" x2="483" y2="243"/>
<rect x="667" y="0" width="75" height="77" style="fill: red"/>
<line x1="667" y1="0" x2="742" y2="0"/>
<line x1="667" y1="77" x2="667" y2="0"/>
<line x1="742" y1="77" x2="742" y2="0"/>
<line x1="742" y1="77" x2="667" y2="77"/>
<rect x="667" y="77" width="75" height="66" style="fill: white"/>
<line x1="667" y1="77" x2="742" y2="77"/>
<line x1="667" y1="143" x2="667" y2="77"/>
<line x1="742" y1="143" x2="742" y2="77"/>
<line x1="742" y1="143" x2="667" y2="143"/>
<rect x="667" y="143" width="75" height="100" style="fill: yellow"/>
<line x1="667" y1="143" x2="742" y2="143"/>
<line x1="667" y1="243" x2="667" y2="143"/>
<line x1="742" y1="243" x2="742" y2="143"/>
<line x1="742" y1="243" x2="667" y2="243"/>
<rect x="742" y="0" width="73" height="39" style="fill: white"/>
<line x1="742" y1="0" x2="815" y2="0"/>
<line x1="742" y1="39" x2="742" y2="0"/>
<line x1="815" y1="39" x2="815" y2="0"/>
<line x1="815" y1="39" x2="742" y2="39"/>
<rect x="742" y="39" width="73" height="57" style="fill: skyblue"/>
<line x1="742" y1="39" x2="815" y2="39"/>
<line x1="742" y1="96" x2="742" y2="39"/>
<line x1="815" y1="96" x2="815" y2="39"/>
<line x1="815" y1="96" x2="742" y2="96"/>
<rect x="742" y="96" width="73" height="60" style="fill: skyblue"/>
<line x1="742" y1="96" x2="815" y2="96"/>
<line x1="742" y1="156" x2="742" y2="96"/>
<line x1="815" y1="156" x2="815" y2="96"/>
<line x1="815" y1="156" x2="742" y2="156"/>
<rect x="742" y="156" width="73" height="87" style="fill: white"/>
<line x1="742" y1="156" x2="815" y2="156"/>
<line x1="742" y1="243" x2="742" y2="156"/>
<line x1="815" y1="243" x2="815" y2="156"/>
<line x1="815" y1="243" x2="742" y2="243"/>
<rect x="815" y="0" width="73" height="243" style="fill: white"/>
<line x1="815" y1="0" x2="888" y2="0"/>
<line x1="815" y1="243" x2="815" y2="0"/>
<line x1="888" y1="243" x2="888" y2="0"/>
<line x1="888" y1="243" x2="815" y2="243"/>
<rect x="888" y="0" width="52" height="80" style="fill: white"/>
<line x1="888" y1="0" x2="940" y2="0"/>
<line x1="888" y1="80" x2="888" y2="0"/>
<line x1="940" y1="80" x2="940" y2="0"/>
<line x1="940" y1="80" x2="888" y2="80"/>
<rect x="940" y="0" width="39" height="80" style="fill: white"/>
<line x1="940" y1="0" x2="979" y2="0"/>
<line x1="940" y1="80" x2="940" y2="0"/>
<line x1="979" y1="80" x2="979" y2="0"/>
<line x1="979" y1="80" x2="940" y2="80"/>
<rect x="888" y="80" width="91" height="35" style="fill: white"/>
<line x1="888" y1="80" x2="979" y2="80"/>
<line x1="888" y1="115" x2="888" y2="80"/>
<line x1="979" y1="115" x2="979" y2="80"/>
<line x1="979" y1="115" x2="888" y2="115"/>
<rect x="888" y="115" width="91" height="57" style="fill: black"/>
<line x1="888" y1="115" x2="979" y2="115"/>
<line x1="888" y1="172" x2="888" y2="115"/>
<line x1="979" y1="172" x2="979" y2="115"/>
<line x1="979" y1="172" x2="888" y2="172"/>
<rect x="888" y="172" width="91" height="71" style="fill: black"/>
<line x1="888" y1="172" x2="979" y2="172"/>
<line x1="888" y1="243" x2="888" y2="172"/>
<line x1="979" y1="243" x2="979" y2="172"/>
<line x1="979" y1="243" x2="888" y2="243"/>
<rect x="979" y="0" width="45" height="164" style="fill: white"/>
<line x1="979" y1="0" x2="1024" y2="0"/>
<line x1="979" y1="164" x2="979" y2="0"/>
<line x1="1024" y1="164" x2="1024" y2="0"/>
<line x1="1024" y1="164" x2="979" y2="164"/>
<rect x="979" y="164" width="45" height="79" style="fill: yellow"/>
<line x1="979" y1="164" x2="1024" y2="164"/>
<line x1="979" y1="243" x2="979" y2="164"/>
<line x1="1024" y1="243" x2="1024" y2="164"/>
<line x1="1024" y1="243" x2="979" y2="243"/>
<rect x="483" y="243" width="79" height="178" style="fill: red"/>
<line x1="483" y1="243" x2="562" y2="243"/>
<line x1="483" y1="421" x2="483" y2="243"/>
<line x1="562" y1="421" x2="562" y2="243"/>
<line x1="562" y1="421" x2="483" y2="421"/>
<rect x="562" y="243" width="44" height="89" style="fill: white"/>
<line x1="562" y1="243" x2="606" y2="243"/>
<line x1="562" y1="332" x2="562" y2="243"/>
<line x1="606" y1="332" x2="606" y2="243"/>
<line x1="606" y1="332" x2="562" y2="332"/>
<rect x="562" y="332" width="44" height="59" style="fill: black"/>
<line x1="562" y1="332" x2="606" y2="332"/>
<line x1="562" y1="391" x2="562" y2="332"/>
<line x1="606" y1="391" x2="606" y2="332"/>
<line x1="606" y1="391" x2="562" y2="391"/>
<rect x="562" y="391" width="44" height="30" style="fill: white"/>
<line x1="562" y1="391" x2="606" y2="391"/>
<line x1="562" y1="421" x2="562" y2="391"/>
<line x1="606" y1="421" x2="606" y2="391"/>
<line x1="606" y1="421" x2="562" y2="421"/>
<rect x="606" y="243" width="61" height="178" style="fill: white"/>
<line x1="606" y1="243" x2="667" y2="243"/>
<line x1="606" y1="421" x2="606" y2="243"/>
<line x1="667" y1="421" x2="667" y2="243"/>
<line x1="667" y1="421" x2="606" y2="421"/>
<rect x="667" y="243" width="62" height="94" style="fill: black"/>
<line x1="667" y1="243" x2="729" y2="243"/>
<line x1="667" y1="337" x2="667" y2="243"/>
<line x1="729" y1="337" x2="729" y2="243"/>
<line x1="729" y1="337" x2="667" y2="337"/>
<rect x="729" y="243" width="76" height="94" style="fill: white"/>
<line x1="729" y1="243" x2="805" y2="243"/>
<line x1="729" y1="337" x2="729" y2="243"/>
<line x1="805" y1="337" x2="805" y2="243"/>
<line x1="805" y1="337" x2="729" y2="337"/>
<rect x="805" y="243" width="219" height="94" style="fill: skyblue"/>
<line x1="805" y1="243" x2="1024" y2="243"/>
<line x1="805" y1="337" x2="805" y2="243"/>
<line x1="1024" y1="337" x2="1024" y2="243"/>
<line x1="1024" y1="337" x2="805" y2="337"/>
<rect x="667" y="337" width="62" height="84" style="fill: skyblue"/>
<line x1="667" y1="337" x2="729" y2="337"/>
<line x1="667" y1="421" x2="667" y2="337"/>
<line x1="729" y1="421" x2="729" y2="337"/>
<line x1="729" y1="421" x2="667" y2="421"/>
<rect x="729" y="337" width="76" height="84" style="fill: white"/>
<line x1="729" y1="337" x2="805" y2="337"/>
<line x1="729" y1="421" x2="729" y2="337"/>
<line x1="805" y1="421" x2="805" y2="337"/>
<line x1="805" y1="421" x2="729" y2="421"/>
<rect x="805" y="337" width="219" height="84" style="fill: skyblue"/>
<line x1="805" y1="337" x2="1024" y2="337"/>
<line x1="805" y1="421" x2="805" y2="337"/>
<line x1="1024" y1="421" x2="1024" y2="337"/>
<line x1="1024" y1="421" x2="805" y2="421"/>
<rect x="0" y="421" width="483" height="347" style="fill: white"/>
<line x1="0" y1="421" x2="483" y2="421"/>
<line x1="0" y1="768" x2="0" y2="421"/>
<line x1="483" y1="768" x2="483" y2="421"/>
<line x1="483" y1="768" x2="0" y2="768"/>
<rect x="483" y="421" width="82" height="91" style="fill: yellow"/>
<line x1="483" y1="421" x2="565" y2="421"/>
<line x1="483" y1="512" x2="483" y2="421"/>
<line x1="565" y1="512" x2="565" y2="421"/>
<line x1="565" y1="512" x2="483" y2="512"/>
<rect x="483" y="512" width="82" height="66" style="fill: skyblue"/>
<line x1="483" y1="512" x2="565" y2="512"/>
<line x1="483" y1="578" x2="483" y2="512"/>
<line x1="565" y1="578" x2="565" y2="512"/>
<line x1="565" y1="578" x2="483" y2="578"/>
<rect x="483" y="578" width="82" height="49" style="fill: white"/>
<line x1="483" y1="578" x2="565" y2="578"/>
<line x1="483" y1="627" x2="483" y2="578"/>
<line x1="565" y1="627" x2="565" y2="578"/>
<line x1="565" y1="627" x2="483" y2="627"/>
<rect x="565" y="421" width="47" height="84" style="fill: white"/>
<line x1="565" y1="421" x2="612" y2="421"/>
<line x1="565" y1="505" x2="565" y2="421"/>
<line x1="612" y1="505" x2="612" y2="421"/>
<line x1="612" y1="505" x2="565" y2="505"/>
<rect x="565" y="505" width="47" height="53" style="fill: yellow"/>
<line x1="565" y1="505" x2="612" y2="505"/>
<line x1="565" y1="558" x2="565" y2="505"/>
<line x1="612" y1="558" x2="612" y2="505"/>
<line x1="612" y1="558" x2="565" y2="558"/>
<rect x="565" y="558" width="47" height="69" style="fill: yellow"/>
<line x1="565" y1="558" x2="612" y2="558"/>
<line x1="565" y1="627" x2="565" y2="558"/>
<line x1="612" y1="627" x2="612" y2="558"/>
<line x1="612" y1="627" x2="565" y2="627"/>
<rect x="483" y="627" width="82" height="85" style="fill: skyblue"/>
<line x1="483" y1="627" x2="565" y2="627"/>
<line x1="483" y1="712" x2="483" y2="627"/>
<line x1="565" y1="712" x2="565" y2="627"/>
<line x1="565" y1="712" x2="483" y2="712"/>
<rect x="483" y="712" width="82" height="56" style="fill: white"/>
<line x1="483" y1="712" x2="565" y2="712"/>
<line x1="483" y1="768" x2="483" y2="712"/>
<line x1="565" y1="768" x2="565" y2="712"/>
<line x1="565" y1="768" x2="483" y2="768"/>
<rect x="565" y="627" width="47" height="141" style="fill: white"/>
<line x1="565" y1="627" x2="612" y2="627"/>
<line x1="565" y1="768" x2="565" y2="627"/>
<line x1="612" y1="768" x2="612" y2="627"/>
<line x1="612" y1="768" x2="565" y2="768"/>
<rect x="612" y="421" width="45" height="171" style="fill: skyblue"/>
<line x1="612" y1="421" x2="657" y2="421"/>
<line x1="612" y1="592" x2="612" y2="421"/>
<line x1="657" y1="592" x2="657" y2="421"/>
<line x1="657" y1="592" x2="612" y2="592"/>
<rect x="657" y="421" width="70" height="60" style="fill: red"/>
<line x1="657" y1="421" x2="727" y2="421"/>
<line x1="657" y1="481" x2="657" y2="421"/>
<line x1="727" y1="481" x2="727" y2="421"/>
<line x1="727" y1="481" x2="657" y2="481"/>
<rect x="657" y="481" width="70" height="65" style="fill: red"/>
<line x1="657" y1="481" x2="727" y2="481"/>
<line x1="657" y1="546" x2="657" y2="481"/>
<line x1="727" y1="546" x2="727" y2="481"/>
<line x1="727" y1="546" x2="657" y2="546"/>
<rect x="657" y="546" width="70" height="46" style="fill: white"/>
<line x1="657" y1="546" x2="727" y2="546"/>
<line x1="657" y1="592" x2="657" y2="546"/>
<line x1="727" y1="592" x2="727" y2="546"/>
<line x1="727" y1="592" x2="657" y2="592"/>
<rect x="612" y="592" width="45" height="176" style="fill: red"/>
<line x1="612" y1="592" x2="657" y2="592"/>
<line x1="612" y1="768" x2="612" y2="592"/>
<line x1="657" y1="768" x2="657" y2="592"/>
<line x1="657" y1="768" x2="612" y2="768"/>
<rect x="657" y="592" width="70" height="59" style="fill: red"/>
<line x1="657" y1="592" x2="727" y2="592"/>
<line x1="657" y1="651" x2="657" y2="592"/>
<line x1="727" y1="651" x2="727" y2="592"/>
<line x1="727" y1="651" x2="657" y2="651"/>
<rect x="657" y="651" width="70" height="43" style="fill: white"/>
<line x1="657" y1="651" x2="727" y2="651"/>
<line x1="657" y1="694" x2="657" y2="651"/>
<line x1="727" y1="694" x2="727" y2="651"/>
<line x1="727" y1="694" x2="657" y2="694"/>
<rect x="657" y="694" width="70" height="74" style="fill: white"/>
<line x1="657" y1="694" x2="727" y2="694"/>
<line x1="657" y1="768" x2="657" y2="694"/>
<line x1="727" y1="768" x2="727" y2="694"/>
<line x1="727" y1="768" x2="657" y2="768"/>
<rect x="727" y="421" width="68" height="347" style="fill: red"/>
<line x1="727" y1="421" x2="795" y2="421"/>
<line x1="727" y1="768" x2="727" y2="421"/>
<line x1="795" y1="768" x2="795" y2="421"/>
<line x1="795" y1="768" x2="727" y2="768"/>
<rect x="795" y="421" width="114" height="70" style="fill: yellow"/>
<line x1="795" y1="421" x2="909" y2="421"/>
<line x1="795" y1="491" x2="795" y2="421"/>
<line x1="909" y1="491" x2="909" y2="421"/>
<line x1="909" y1="491" x2="795" y2="491"/>
<rect x="909" y="421" width="68" height="70" style="fill: red"/>
<line x1="909" y1="421" x2="977" y2="421"/>
<line x1="909" y1="491" x2="909" y2="421"/>
<line x1="977" y1="491" x2="977" y2="421"/>
<line x1="977" y1="491" x2="909" y2="491"/>
<rect x="977" y="421" width="47" height="70" style="fill: skyblue"/>
<line x1="977" y1="421" x2="1024" y2="421"/>
<line x1="977" y1="491" x2="977" y2="421"/>
<line x1="1024" y1="491" x2="1024" y2="421"/>
<line x1="1024" y1="491" x2="977" y2="491"/>
<rect x="795" y="491" width="114" height="56" style="fill: yellow"/>
<line x1="795" y1="491" x2="909" y2="491"/>
<line x1="795" y1="547" x2="795" y2="491"/>
<line x1="909" y1="547" x2="909" y2="491"/>
<line x1="909" y1="547" x2="795" y2="547"/>
<rect x="795" y="547" width="114" height="70" style="fill: red"/>
<line x1="795" y1="547" x2="909" y2="547"/>
<line x1="795" y1="617" x2="795" y2="547"/>
<line x1="909" y1="617" x2="909" y2="547"/>
<line x1="909" y1="617" x2="795" y2="617"/>
<rect x="909" y="491" width="115" height="56" style="fill: white"/>
<line x1="909" y1="491" x2="1024" y2="491"/>
<line x1="909" y1="547" x2="909" y2="491"/>
<line x1="1024" y1="547" x2="1024" y2="491"/>
<line x1="1024" y1="547" x2="909" y2="547"/>
<rect x="909" y="547" width="115" height="70" style="fill: black"/>
<line x1="909" y1="547" x2="1024" y2="547"/>
<line x1="909" y1="617" x2="909" y2="547"/>
<line x1="1024" y1="617" x2="1024" y2="547"/>
<line x1="1024" y1="617" x2="909" y2="617"/>
<rect x="795" y="617" width="126" height="74" style="fill: red"/>
<line x1="795" y1="617" x2="921" y2="617"/>
<line x1="795" y1="691" x2="795" y2="617"/>
<line x1="921" y1="691" x2="921" y2="617"/>
<line x1="921" y1="691" x2="795" y2="691"/>
<rect x="921" y="617" width="103" height="74" style="fill: white"/>
<line x1="921" y1="617" x2="1024" y2="617"/>
<line x1="921" y1="691" x2="921" y2="617"/>
<line x1="1024" y1="691" x2="1024" y2="617"/>
<line x1="1024" y1="691" x2="921" y2="691"/>
<rect x="795" y="691" width="229" height="77" style="fill: white"/>
<line x1="795" y1="691" x2="1024" y2="691"/>
<line x1="795" y1="768" x2="795" y2="691"/>
<line x1="1024" y1="768" x2="1024" y2="691"/>
<line x1="1024" y1="768" x2="795" y2="768"/>
</svg>