<?xml version="1.0" encoding="utf-8"?>
<svg xmlns="http://www.w3.org/2000/svg"
 xmlns:xlink="http://www.w3.org/1999/xlink" width="1024" height="768" >
<defs>
    <style type="text/css"><![CDATA[
        line {
        stroke: #000;
        stroke-width: 5px;
        }
    ]]></style></defs>
<rect x="0" y="0" width="54" height="57" style="fill: white"/>
<line x1="0" y1="0" x2="54" y2="0"/>
<line x1="0" y1="57" x2="0" y2="0"/>
<line x1="54" y1="57" x2="54" y2="0"/>
<line x1="54" y1="57" x2="0" y2="57"/>
<rect x="54" y="0" width="83" height="57" style="fill: white"/>
<line x1="54" y1="0" x2="137" y2="0"/>
<line x1="54" y1="57" x2="54" y2="0"/>
<line x1="137" y1="57" x2="137" y2="0"/>
<line x1="137" y1="57" x2="54" y2="57"/>
<rect x="137" y="0" width="85" height="57" style="fill: white"/>
<line x1="137" y1="0" x2="222" y2="0"/>
<line x1="137" y1="57" x2="137" y2="0"/>
<line x1="222" y1="57" x2="222" y2="0"/>
<line x1="222" y1="57" x2="137" y2="57"/>
<rect x="222" y="0" width="72" height="57" style="fill: white"/>
<line x1="222" y1="0" x2="294" y2="0"/>
<line x1="222" y1="57" x2="222" y2="0"/>
<line x1="294" y1="57" x2="294" y2="0"/>
<line x1="294" y1="57" x2="222" y2="57"/>
<rect x="294" y="0" width="66" height="57" style="fill: black"/>
<line x1="294" y1="0" x2="360" y2="0"/>
<line x1="294" y1="57" x2="294" y2="0"/>
<line x1="360" y1="57" x2="360" y2="0"/>
<line x1="360" y1="57" x2="294" y2="57"/>
<rect x="360" y="0" width="121" height="57" style="fill: white"/>
<line x1="360" y1="0" x2="481" y2="0"/>
<line x1="360" y1="57" x2="360" y2="0"/>
<line x1="481" y1="57" x2="481" y2="0"/>
<line x1="481" y1="57" x2="360" y2="57"/>
<rect x="0" y="57" width="62" height="44" style="fill: red"/>
<line x1="0" y1="57" x2="62" y2="57"/>
<line x1="0" y1="101" x2="0" y2="57"/>
<line x1="62" y1="101" x2="62" y2="57"/>
<line x1="62" y1="101" x2="0" y2="101"/>
<rect x="62" y="57" width="57" height="44" style="fill: white"/>
<line x1="62" y1="57" x2="119" y2="57"/>
<line x1="62" y1="101" x2="62" y2="57"/>
<line x1="119" y1="101" x2="119" y2="57"/>
<line x1="119" y1="101" x2="62" y2="101"/>
<rect x="119" y="57" width="103" height="44" style="fill: white"/>
<line x1="119" y1="57" x2="222" y2="57"/>
<line x1="119" y1="101" x2="119" y2="57"/>
<line x1="222" y1="101" x2="222" y2="57"/>
<line x1="222" y1="101" x2="119" y2="101"/>
<rect x="0" y="101" width="79" height="69" style="fill: white"/>
<line x1="0" y1="101" x2="79" y2="101"/>
<line x1="0" y1="170" x2="0" y2="101"/>
<line x1="79" y1="170" x2="79" y2="101"/>
<line x1="79" y1="170" x2="0" y2="170"/>
<rect x="79" y="101" width="40" height="69" style="fill: yellow"/>
<line x1="79" y1="101" x2="119" y2="101"/>
<line x1="79" y1="170" x2="79" y2="101"/>
<line x1="119" y1="170" x2="119" y2="101"/>
<line x1="119" y1="170" x2="79" y2="170"/>
<rect x="119" y="101" width="103" height="69" style="fill: skyblue"/>
<line x1="119" y1="101" x2="222" y2="101"/>
<line x1="119" y1="170" x2="119" y2="101"/>
<line x1="222" y1="170" x2="222" y2="101"/>
<line x1="222" y1="170" x2="119" y2="170"/>
<rect x="222" y="57" width="140" height="60" style="fill: yellow"/>
<line x1="222" y1="57" x2="362" y2="57"/>
<line x1="222" y1="117" x2="222" y2="57"/>
<line x1="362" y1="117" x2="362" y2="57"/>
<line x1="362" y1="117" x2="222" y2="117"/>
<rect x="362" y="57" width="119" height="60" style="fill: white"/>
<line x1="362" y1="57" x2="481" y2="57"/>
<line x1="362" y1="117" x2="362" y2="57"/>
<line x1="481" y1="117" x2="481" y2="57"/>
<line x1="481" y1="117" x2="362" y2="117"/>
<rect x="222" y="117" width="140" height="53" style="fill: yellow"/>
<line x1="222" y1="117" x2="362" y2="117"/>
<line x1="222" y1="170" x2="222" y2="117"/>
<line x1="362" y1="170" x2="362" y2="117"/>
<line x1="362" y1="170" x2="222" y2="170"/>
<rect x="362" y="117" width="62" height="53" style="fill: white"/>
<line x1="362" y1="117" x2="424" y2="117"/>
<line x1="362" y1="170" x2="362" y2="117"/>
<line x1="424" y1="170" x2="424" y2="117"/>
<line x1="424" y1="170" x2="362" y2="170"/>
<rect x="424" y="117" width="57" height="53" style="fill: skyblue"/>
<line x1="424" y1="117" x2="481" y2="117"/>
<line x1="424" y1="170" x2="424" y2="117"/>
<line x1="481" y1="170" x2="481" y2="117"/>
<line x1="481" y1="170" x2="424" y2="170"/>
<rect x="0" y="170" width="151" height="65" style="fill: black"/>
<line x1="0" y1="170" x2="151" y2="170"/>
<line x1="0" y1="235" x2="0" y2="170"/>
<line x1="151" y1="235" x2="151" y2="170"/>
<line x1="151" y1="235" x2="0" y2="235"/>
<rect x="151" y="170" width="78" height="65" style="fill: black"/>
<line x1="151" y1="170" x2="229" y2="170"/>
<line x1="151" y1="235" x2="151" y2="170"/>
<line x1="229" y1="235" x2="229" y2="170"/>
<line x1="229" y1="235" x2="151" y2="235"/>
<rect x="229" y="170" width="58" height="65" style="fill: white"/>
<line x1="229" y1="170" x2="287" y2="170"/>
<line x1="229" y1="235" x2="229" y2="170"/>
<line x1="287" y1="235" x2="287" y2="170"/>
<line x1="287" y1="235" x2="229" y2="235"/>
<rect x="0" y="235" width="151" height="96" style="fill: white"/>
<line x1="0" y1="235" x2="151" y2="235"/>
<line x1="0" y1="331" x2="0" y2="235"/>
<line x1="151" y1="331" x2="151" y2="235"/>
<line x1="151" y1="331" x2="0" y2="331"/>
<rect x="151" y="235" width="65" height="42" style="fill: black"/>
<line x1="151" y1="235" x2="216" y2="235"/>
<line x1="151" y1="277" x2="151" y2="235"/>
<line x1="216" y1="277" x2="216" y2="235"/>
<line x1="216" y1="277" x2="151" y2="277"/>
<rect x="151" y="277" width="65" height="54" style="fill: white"/>
<line x1="151" y1="277" x2="216" y2="277"/>
<line x1="151" y1="331" x2="151" y2="277"/>
<line x1="216" y1="331" x2="216" y2="277"/>
<line x1="216" y1="331" x2="151" y2="331"/>
<rect x="216" y="235" width="71" height="96" style="fill: black"/>
<line x1="216" y1="235" x2="287" y2="235"/>
<line x1="216" y1="331" x2="216" y2="235"/>
<line x1="287" y1="331" x2="287" y2="235"/>
<line x1="287" y1="331" x2="216" y2="331"/>
<rect x="0" y="331" width="150" height="87" style="fill: yellow"/>
<line x1="0" y1="331" x2="150" y2="331"/>
<line x1="0" y1="418" x2="0" y2="331"/>
<line x1="150" y1="418" x2="150" y2="331"/>
<line x1="150" y1="418" x2="0" y2="418"/>
<rect x="150" y="331" width="59" height="87" style="fill: white"/>
<line x1="150" y1="331" x2="209" y2="331"/>
<line x1="150" y1="418" x2="150" y2="331"/>
<line x1="209" y1="418" x2="209" y2="331"/>
<line x1="209" y1="418" x2="150" y2="418"/>
<rect x="209" y="331" width="78" height="87" style="fill: black"/>
<line x1="209" y1="331" x2="287" y2="331"/>
<line x1="209" y1="418" x2="209" y2="331"/>
<line x1="287" y1="418" x2="287" y2="331"/>
<line x1="287" y1="418" x2="209" y2="418"/>
<rect x="287" y="170" width="65" height="56" style="fill: white"/>
<line x1="287" y1="170" x2="352" y2="170"/>
<line x1="287" y1="226" x2="287" y2="170"/>
<line x1="352" y1="226" x2="352" y2="170"/>
<line x1="352" y1="226" x2="287" y2="226"/>
<rect x="287" y="226" width="65" height="74" style="fill: black"/>
<line x1="287" y1="226" x2="352" y2="226"/>
<line x1="287" y1="300" x2="287" y2="226"/>
<line x1="352" y1="300" x2="352" y2="226"/>
<line x1="352" y1="300" x2="287" y2="300"/>
<rect x="352" y="170" width="44" height="130" style="fill: yellow"/>
<line x1="352" y1="170" x2="396" y2="170"/>
<line x1="352" y1="300" x2="352" y2="170"/>
<line x1="396" y1="300" x2="396" y2="170"/>
<line x1="396" y1="300" x2="352" y2="300"/>
<rect x="396" y="170" width="85" height="62" style="fill: yellow"/>
<line x1="396" y1="170" x2="481" y2="170"/>
<line x1="396" y1="232" x2="396" y2="170"/>
<line x1="481" y1="232" x2="481" y2="170"/>
<line x1="481" y1="232" x2="396" y2="232"/>
<rect x="396" y="232" width="85" height="68" style="fill: white"/>
<line x1="396" y1="232" x2="481" y2="232"/>
<line x1="396" y1="300" x2="396" y2="232"/>
<line x1="481" y1="300" x2="481" y2="232"/>
<line x1="481" y1="300" x2="396" y2="300"/>
<rect x="287" y="300" width="65" height="118" style="fill: white"/>
<line x1="287" y1="300" x2="352" y2="300"/>
<line x1="287" y1="418" x2="287" y2="300"/>
<line x1="352" y1="418" x2="352" y2="300"/>
<line x1="352" y1="418" x2="287" y2="418"/>
<rect x="352" y="300" width="129" height="69" style="fill: white"/>
<line x1="352" y1="300" x2="481" y2="300"/>
<line x1="352" y1="369" x2="352" y2="300"/>
<line x1="481" y1="369" x2="481" y2="300"/>
<line x1="481" y1="369" x2="352" y2="369"/>
<rect x="352" y="369" width="85" height="49" style="fill: skyblue"/>
<line x1="352" y1="369" x2="437" y2="369"/>
<line x1="352" y1="418" x2="352" y2="369"/>
<line x1="437" y1="418" x2="437" y2="369"/>
<line x1="437" y1="418" x2="352" y2="418"/>
<rect x="437" y="369" width="44" height="49" style="fill: white"/>
<line x1="437" y1="369" x2="481" y2="369"/>
<line x1="437" y1="418" x2="437" y2="369"/>
<line x1="481" y1="418" x2="481" y2="369"/>
<line x1="481" y1="418" x2="437" y2="418"/>
<rect x="481" y="0" width="276" height="181" style="fill: skyblue"/>
<line x1="481" y1="0" x2="757" y2="0"/>
<line x1="481" y1="181" x2="481" y2="0"/>
<line x1="757" y1="181" x2="757" y2="0"/>
<line x1="757" y1="181" x2="481" y2="181"/>
<rect x="757" y="0" width="60" height="116" style="fill: white"/>
<line x1="757" y1="0" x2="817" y2="0"/>
<line x1="757" y1="116" x2="757" y2="0"/>
<line x1="817" y1="116" x2="817" y2="0"/>
<line x1="817" y1="116" x2="757" y2="116"/>
<rect x="817" y="0" width="108" height="44" style="fill: white"/>
<line x1="817" y1="0" x2="925" y2="0"/>
<line x1="817" y1="44" x2="817" y2="0"/>
<line x1="925" y1="44" x2="925" y2="0"/>
<line x1="925" y1="44" x2="817" y2="44"/>
<rect x="817" y="44" width="108" height="72" style="fill: red"/>
<line x1="817" y1="44" x2="925" y2="44"/>
<line x1="817" y1="116" x2="817" y2="44"/>
<line x1="925" y1="116" x2="925" y2="44"/>
<line x1="925" y1="116" x2="817" y2="116"/>
<rect x="925" y="0" width="38" height="60" style="fill: red"/>
<line x1="925" y1="0" x2="963" y2="0"/>
<line x1="925" y1="60" x2="925" y2="0"/>
<line x1="963" y1="60" x2="963" y2="0"/>
<line x1="963" y1="60" x2="925" y2="60"/>
<rect x="963" y="0" width="61" height="60" style="fill: black"/>
<line x1="963" y1="0" x2="1024" y2="0"/>
<line x1="963" y1="60" x2="963" y2="0"/>
<line x1="1024" y1="60" x2="1024" y2="0"/>
<line x1="1024" y1="60" x2="963" y2="60"/>
<rect x="925" y="60" width="38" height="56" style="fill: skyblue"/>
<line x1="925" y1="60" x2="963" y2="60"/>
<line x1="925" y1="116" x2="925" y2="60"/>
<line x1="963" y1="116" x2="963" y2="60"/>
<line x1="963" y1="116" x2="925" y2="116"/>
<rect x="963" y="60" width="61" height="56" style="fill: white"/>
<line x1="963" y1="60" x2="1024" y2="60"/>
<line x1="963" y1="116" x2="963" y2="60"/>
<line x1="1024" y1="116" x2="1024" y2="60"/>
<line x1="1024" y1="116" x2="963" y2="116"/>
<rect x="757" y="116" width="168" height="65" style="fill: skyblue"/>
<line x1="757" y1="116" x2="925" y2="116"/>
<line x1="757" y1="181" x2="757" y2="116"/>
<line x1="925" y1="181" x2="925" y2="116"/>
<line x1="925" y1="181" x2="757" y2="181"/>
<rect x="925" y="116" width="39" height="65" style="fill: red"/>
<line x1="925" y1="116" x2="964" y2="116"/>
<line x1="925" y1="181" x2="925" y2="116"/>
<line x1="964" y1="181" x2="964" y2="116"/>
<line x1="964" y1="181" x2="925" y2="181"/>
<rect x="964" y="116" width="60" height="65" style="fill: white"/>
<line x1="964" y1="116" x2="1024" y2="116"/>
<line x1="964" y1="181" x2="964" y2="116"/>
<line x1="1024" y1="181" x2="1024" y2="116"/>
<line x1="1024" y1="181" x2="964" y2="181"/>
<rect x="481" y="181" width="276" height="237" style="fill: skyblue"/>
<line x1="481" y1="181" x2="757" y2="181"/>
<line x1="481" y1="418" x2="481" y2="181"/>
<line x1="757" y1="418" x2="757" y2="181"/>
<line x1="757" y1="418" x2="481" y2="418"/>
<rect x="757" y="181" width="160" height="237" style="fill: black"/>
<line x1="757" y1="181" x2="917" y2="181"/>
<line x1="757" y1="418" x2="757" y2="181"/>
<line x1="917" y1="418" x2="917" y2="181"/>
<line x1="917" y1="418" x2="757" y2="418"/>
<rect x="917" y="181" width="48" height="75" style="fill: white"/>
<line x1="917" y1="181" x2="965" y2="181"/>
<line x1="917" y1="256" x2="917" y2="181"/>
<line x1="965" y1="256" x2="965" y2="181"/>
<line x1="965" y1="256" x2="917" y2="256"/>
<rect x="917" y="256" width="48" height="66" style="fill: white"/>
<line x1="917" y1="256" x2="965" y2="256"/>
<line x1="917" y1="322" x2="917" y2="256"/>
<line x1="965" y1="322" x2="965" y2="256"/>
<line x1="965" y1="322" x2="917" y2="322"/>
<rect x="965" y="181" width="59" height="141" style="fill: yellow"/>
<line x1="965" y1="181" x2="1024" y2="181"/>
<line x1="965" y1="322" x2="965" y2="181"/>
<line x1="1024" y1="322" x2="1024" y2="181"/>
<line x1="1024" y1="322" x2="965" y2="322"/>
<rect x="917" y="322" width="107" height="40" style="fill: yellow"/>
<line x1="917" y1="322" x2="1024" y2="322"/>
<line x1="917" y1="362" x2="917" y2="322"/>
<line x1="1024" y1="362" x2="1024" y2="322"/>
<line x1="1024" y1="362" x2="917" y2="362"/>
<rect x="917" y="362" width="62" height="56" style="fill: white"/>
<line x1="917" y1="362" x2="979" y2="362"/>
<line x1="917" y1="418" x2="917" y2="362"/>
<line x1="979" y1="418" x2="979" y2="362"/>
<line x1="979" y1="418" x2="917" y2="418"/>
<rect x="979" y="362" width="45" height="56" style="fill: white"/>
<line x1="979" y1="362" x2="1024" y2="362"/>
<line x1="979" y1="418" x2="979" y2="362"/>
<line x1="1024" y1="418" x2="1024" y2="362"/>
<line x1="1024" y1="418" x2="979" y2="418"/>
<rect x="0" y="418" width="50" height="82" style="fill: white"/>
<line x1="0" y1="418" x2="50" y2="418"/>
<line x1="0" y1="500" x2="0" y2="418"/>
<line x1="50" y1="500" x2="50" y2="418"/>
<line x1="50" y1="500" x2="0" y2="500"/>
<rect x="50" y="418" width="74" height="82" style="fill: white"/>
<line x1="50" y1="418" x2="124" y2="418"/>
<line x1="50" y1="500" x2="50" y2="418"/>
<line x1="124" y1="500" x2="124" y2="418"/>
<line x1="124" y1="500" x2="50" y2="500"/>
<rect x="124" y="418" width="100" height="82" style="fill: red"/>
<line x1="124" y1="418" x2="224" y2="418"/>
<line x1="124" y1="500" x2="124" y2="418"/>
<line x1="224" y1="500" x2="224" y2="418"/>
<line x1="224" y1="500" x2="124" y2="500"/>
<rect x="0" y="500" width="125" height="45" style="fill: white"/>
<line x1="0" y1="500" x2="125" y2="500"/>
<line x1="0" y1="545" x2="0" y2="500"/>
<line x1="125" y1="545" x2="125" y2="500"/>
<line x1="125" y1="545" x2="0" y2="545"/>
<rect x="125" y="500" width="99" height="45" style="fill: skyblue"/>
<line x1="125" y1="500" x2="224" y2="500"/>
<line x1="125" y1="545" x2="125" y2="500"/>
<line x1="224" y1="545" x2="224" y2="500"/>
<line x1="224" y1="545" x2="125" y2="545"/>
<rect x="0" y="545" width="105" height="57" style="fill: red"/>
<line x1="0" y1="545" x2="105" y2="545"/>
<line x1="0" y1="602" x2="0" y2="545"/>
<line x1="105" y1="602" x2="105" y2="545"/>
<line x1="105" y1="602" x2="0" y2="602"/>
<rect x="105" y="545" width="43" height="57" style="fill: yellow"/>
<line x1="105" y1="545" x2="148" y2="545"/>
<line x1="105" y1="602" x2="105" y2="545"/>
<line x1="148" y1="602" x2="148" y2="545"/>
<line x1="148" y1="602" x2="105" y2="602"/>
<rect x="148" y="545" width="76" height="57" style="fill: red"/>
<line x1="148" y1="545" x2="224" y2="545"/>
<line x1="148" y1="602" x2="148" y2="545"/>
<line x1="224" y1="602" x2="224" y2="545"/>
<line x1="224" y1="602" x2="148" y2="602"/>
<rect x="224" y="418" width="58" height="89" style="fill: black"/>
<line x1="224" y1="418" x2="282" y2="418"/>
<line x1="224" y1="507" x2="224" y2="418"/>
<line x1="282" y1="507" x2="282" y2="418"/>
<line x1="282" y1="507" x2="224" y2="507"/>
<rect x="282" y="418" width="52" height="89" style="fill: skyblue"/>
<line x1="282" y1="418" x2="334" y2="418"/>
<line x1="282" y1="507" x2="282" y2="418"/>
<line x1="334" y1="507" x2="334" y2="418"/>
<line x1="334" y1="507" x2="282" y2="507"/>
<rect x="334" y="418" width="63" height="89" style="fill: skyblue"/>
<line x1="334" y1="418" x2="397" y2="418"/>
<line x1="334" y1="507" x2="334" y2="418"/>
<line x1="397" y1="507" x2="397" y2="418"/>
<line x1="397" y1="507" x2="334" y2="507"/>
<rect x="397" y="418" width="84" height="89" style="fill: white"/>
<line x1="397" y1="418" x2="481" y2="418"/>
<line x1="397" y1="507" x2="397" y2="418"/>
<line x1="481" y1="507" x2="481" y2="418"/>
<line x1="481" y1="507" x2="397" y2="507"/>
<rect x="224" y="507" width="173" height="95" style="fill: white"/>
<line x1="224" y1="507" x2="397" y2="507"/>
<line x1="224" y1="602" x2="224" y2="507"/>
<line x1="397" y1="602" x2="397" y2="507"/>
<line x1="397" y1="602" x2="224" y2="602"/>
<rect x="397" y="507" width="84" height="95" style="fill: skyblue"/>
<line x1="397" y1="507" x2="481" y2="507"/>
<line x1="397" y1="602" x2="397" y2="507"/>
<line x1="481" y1="602" x2="481" y2="507"/>
<line x1="481" y1="602" x2="397" y2="602"/>
<rect x="0" y="602" width="129" height="166" style="fill: black"/>
<line x1="0" y1="602" x2="129" y2="602"/>
<line x1="0" y1="768" x2="0" y2="602"/>
<line x1="129" y1="768" x2="129" y2="602"/>
<line x1="129" y1="768" x2="0" y2="768"/>
<rect x="129" y="602" width="95" height="166" style="fill: white"/>
<line x1="129" y1="602" x2="224" y2="602"/>
<line x1="129" y1="768" x2="129" y2="602"/>
<line x1="224" y1="768" x2="224" y2="602"/>
<line x1="224" y1="768" x2="129" y2="768"/>
<rect x="224" y="602" width="257" height="166" style="fill: white"/>
<line x1="224" y1="602" x2="481" y2="602"/>
<line x1="224" y1="768" x2="224" y2="602"/>
<line x1="481" y1="768" x2="481" y2="602"/>
<line x1="481" y1="768" x2="224" y2="768"/>
<rect x="481" y="418" width="308" height="199" style="fill: white"/>
<line x1="481" y1="418" x2="789" y2="418"/>
<line x1="481" y1="617" x2="481" y2="418"/>
<line x1="789" y1="617" x2="789" y2="418"/>
<line x1="789" y1="617" x2="481" y2="617"/>
<rect x="481" y="617" width="70" height="72" style="fill: black"/>
<line x1="481" y1="617" x2="551" y2="617"/>
<line x1="481" y1="689" x2="481" y2="617"/>
<line x1="551" y1="689" x2="551" y2="617"/>
<line x1="551" y1="689" x2="481" y2="689"/>
<rect x="551" y="617" width="43" height="72" style="fill: red"/>
<line x1="551" y1="617" x2="594" y2="617"/>
<line x1="551" y1="689" x2="551" y2="617"/>
<line x1="594" y1="689" x2="594" y2="617"/>
<line x1="594" y1="689" x2="551" y2="689"/>
<rect x="594" y="617" width="79" height="72" style="fill: black"/>
<line x1="594" y1="617" x2="673" y2="617"/>
<line x1="594" y1="689" x2="594" y2="617"/>
<line x1="673" y1="689" x2="673" y2="617"/>
<line x1="673" y1="689" x2="594" y2="689"/>
<rect x="673" y="617" width="116" height="72" style="fill: white"/>
<line x1="673" y1="617" x2="789" y2="617"/>
<line x1="673" y1="689" x2="673" y2="617"/>
<line x1="789" y1="689" x2="789" y2="617"/>
<line x1="789" y1="689" x2="673" y2="689"/>
<rect x="481" y="689" width="308" height="79" style="fill: white"/>
<line x1="481" y1="689" x2="789" y2="689"/>
<line x1="481" y1="768" x2="481" y2="689"/>
<line x1="789" y1="768" x2="789" y2="689"/>
<line x1="789" y1="768" x2="481" y2="768"/>
<rect x="789" y="418" width="112" height="158" style="fill: white"/>
<line x1="789" y1="418" x2="901" y2="418"/>
<line x1="789" y1="576" x2="789" y2="418"/>
<line x1="901" y1="576" x2="901" y2="418"/>
<line x1="901" y1="576" x2="789" y2="576"/>
<rect x="901" y="418" width="123" height="84" style="fill: white"/>
<line x1="901" y1="418" x2="1024" y2="418"/>
<line x1="901" y1="502" x2="901" y2="418"/>
<line x1="1024" y1="502" x2="1024" y2="418"/>
<line x1="1024" y1="502" x2="901" y2="502"/>
<rect x="901" y="502" width="123" height="74" style="fill: white"/>
<line x1="901" y1="502" x2="1024" y2="502"/>
<line x1="901" y1="576" x2="901" y2="502"/>
<line x1="1024" y1="576" x2="1024" y2="502"/>
<line x1="1024" y1="576" x2="901" y2="576"/>
<rect x="789" y="576" width="112" height="192" style="fill: white"/>
<line x1="789" y1="576" x2="901" y2="576"/>
<line x1="789" y1="768" x2="789" y2="576"/>
<line x1="901" y1="768" x2="901" y2="576"/>
<line x1="901" y1="768" x2="789" y2="768"/>
<rect x="901" y="576" width="123" height="49" style="fill: white"/>
<line x1="901" y1="576" x2="1024" y2="576"/>
<line x1="901" y1="625" x2="901" y2="576"/>
<line x1="1024" y1="625" x2="1024" y2="576"/>
<line x1="1024" y1="625" x2="901" y2="625"/>
<rect x="901" y="625" width="70" height="64" style="fill: white"/>
<line x1="901" y1="625" x2="971" y2="625"/>
<line x1="901" y1="689" x2="901" y2="625"/>
<line x1="971" y1="689" x2="971" y2="625"/>
<line x1="971" y1="689" x2="901" y2="689"/>
<rect x="971" y="625" width="53" height="64" style="fill: white"/>
<line x1="971" y1="625" x2="1024" y2="625"/>
<line x1="971" y1="689" x2="971" y2="625"/>
<line x1="1024" y1="689" x2="1024" y2="625"/>
<line x1="1024" y1="689" x2="971" y2="689"/>
<rect x="901" y="689" width="123" height="79" style="fill: white"/>
<line x1="901" y1="689" x2="1024" y2="689"/>
<line x1="901" y1="768" x2="901" y2="689"/>
<line x1="1024" y1="768" x2="1024" y2="689"/>
<line x1="1024" y1="768" x2="901" y2="768"/>
</svg>