<?xml version="1.0" encoding="utf-8"?>
<svg xmlns="http://www.w3.org/2000/svg"
 xmlns:xlink="http://www.w3.org/1999/xlink" width="1024" height="768" >
<defs>
    <style type="text/css"><![CDATA[
        line {
        stroke: #000;
        stroke-width: 5px;
        }
    ]]></style></defs>
<rect x="0" y="0" width="475" height="381" style="fill: white"/>
<line x1="0" y1="0" x2="475" y2="0"/>
<line x1="0" y1="381" x2="0" y2="0"/>
<line x1="475" y1="381" x2="475" y2="0"/>
<line x1="475" y1="381" x2="0" y2="381"/>
<rect x="475" y="0" width="136" height="381" style="fill: yellow"/>
<line x1="475" y1="0" x2="611" y2="0"/>
<line x1="475" y1="381" x2="475" y2="0"/>
<line x1="611" y1="381" x2="611" y2="0"/>
<line x1="611" y1="381" x2="475" y2="381"/>
<rect x="611" y="0" width="100" height="109" style="fill: white"/>
<line x1="611" y1="0" x2="711" y2="0"/>
<line x1="611" y1="109" x2="611" y2="0"/>
<line x1="711" y1="109" x2="711" y2="0"/>
<line x1="711" y1="109" x2="611" y2="109"/>
<rect x="611" y="109" width="53" height="92" style="fill: white"/>
<line x1="611" y1="109" x2="664" y2="109"/>
<line x1="611" y1="201" x2="611" y2="109"/>
<line x1="664" y1="201" x2="664" y2="109"/>
<line x1="664" y1="201" x2="611" y2="201"/>
<rect x="664" y="109" width="47" height="57" style="fill: white"/>
<line x1="664" y1="109" x2="711" y2="109"/>
<line x1="664" y1="166" x2="664" y2="109"/>
<line x1="711" y1="166" x2="711" y2="109"/>
<line x1="711" y1="166" x2="664" y2="166"/>
<rect x="664" y="166" width="47" height="35" style="fill: white"/>
<line x1="664" y1="166" x2="711" y2="166"/>
<line x1="664" y1="201" x2="664" y2="166"/>
<line x1="711" y1="201" x2="711" y2="166"/>
<line x1="711" y1="201" x2="664" y2="201"/>
<rect x="611" y="201" width="100" height="55" style="fill: yellow"/>
<line x1="611" y1="201" x2="711" y2="201"/>
<line x1="611" y1="256" x2="611" y2="201"/>
<line x1="711" y1="256" x2="711" y2="201"/>
<line x1="711" y1="256" x2="611" y2="256"/>
<rect x="711" y="0" width="67" height="87" style="fill: black"/>
<line x1="711" y1="0" x2="778" y2="0"/>
<line x1="711" y1="87" x2="711" y2="0"/>
<line x1="778" y1="87" x2="778" y2="0"/>
<line x1="778" y1="87" x2="711" y2="87"/>
<rect x="711" y="87" width="67" height="169" style="fill: white"/>
<line x1="711" y1="87" x2="778" y2="87"/>
<line x1="711" y1="256" x2="711" y2="87"/>
<line x1="778" y1="256" x2="778" y2="87"/>
<line x1="778" y1="256" x2="711" y2="256"/>
<rect x="611" y="256" width="65" height="52" style="fill: white"/>
<line x1="611" y1="256" x2="676" y2="256"/>
<line x1="611" y1="308" x2="611" y2="256"/>
<line x1="676" y1="308" x2="676" y2="256"/>
<line x1="676" y1="308" x2="611" y2="308"/>
<rect x="676" y="256" width="46" height="52" style="fill: black"/>
<line x1="676" y1="256" x2="722" y2="256"/>
<line x1="676" y1="308" x2="676" y2="256"/>
<line x1="722" y1="308" x2="722" y2="256"/>
<line x1="722" y1="308" x2="676" y2="308"/>
<rect x="722" y="256" width="56" height="52" style="fill: white"/>
<line x1="722" y1="256" x2="778" y2="256"/>
<line x1="722" y1="308" x2="722" y2="256"/>
<line x1="778" y1="308" x2="778" y2="256"/>
<line x1="778" y1="308" x2="722" y2="308"/>
<rect x="611" y="308" width="167" height="73" style="fill: yellow"/>
<line x1="611" y1="308" x2="778" y2="308"/>
<line x1="611" y1="381" x2="611" y2="308"/>
<line x1="778" y1="381" x2="778" y2="308"/>
<line x1="778" y1="381" x2="611" y2="381"/>
<rect x="778" y="0" width="153" height="110" style="fill: white"/>
<line x1="778" y1="0" x2="931" y2="0"/>
<line x1="778" y1="110" x2="778" y2="0"/>
<line x1="931" y1="110" x2="931" y2="0"/>
<line x1="931" y1="110" x2="778" y2="110"/>
<rect x="778" y="110" width="153" height="60" style="fill: white"/>
<line x1="778" y1="110" x2="931" y2="110"/>
<line x1="778" y1="170" x2="778" y2="110"/>
<line x1="931" y1="170" x2="931" y2="110"/>
<line x1="931" y1="170" x2="778" y2="170"/>
<rect x="931" y="0" width="93" height="106" style="fill: white"/>
<line x1="931" y1="0" x2="1024" y2="0"/>
<line x1="931" y1="106" x2="931" y2="0"/>
<line x1="1024" y1="106" x2="1024" y2="0"/>
<line x1="1024" y1="106" x2="931" y2="106"/>
<rect x="931" y="106" width="93" height="64" style="fill: skyblue"/>
<line x1="931" y1="106" x2="1024" y2="106"/>
<line x1="931" y1="170" x2="931" y2="106"/>
<line x1="1024" y1="170" x2="1024" y2="106"/>
<line x1="1024" y1="170" x2="931" y2="170"/>
<rect x="778" y="170" width="153" height="211" style="fill: white"/>
<line x1="778" y1="170" x2="931" y2="170"/>
<line x1="778" y1="381" x2="778" y2="170"/>
<line x1="931" y1="381" x2="931" y2="170"/>
<line x1="931" y1="381" x2="778" y2="381"/>
<rect x="931" y="170" width="93" height="141" style="fill: white"/>
<line x1="931" y1="170" x2="1024" y2="170"/>
<line x1="931" y1="311" x2="931" y2="170"/>
<line x1="1024" y1="311" x2="1024" y2="170"/>
<line x1="1024" y1="311" x2="931" y2="311"/>
<rect x="931" y="311" width="93" height="70" style="fill: skyblue"/>
<line x1="931" y1="311" x2="1024" y2="311"/>
<line x1="931" y1="381" x2="931" y2="311"/>
<line x1="1024" y1="381" x2="1024" y2="311"/>
<line x1="1024" y1="381" x2="931" y2="381"/>
<rect x="0" y="381" width="160" height="88" style="fill: white"/>
<line x1="0" y1="381" x2="160" y2="381"/>
<line x1="0" y1="469" x2="0" y2="381"/>
<line x1="160" y1="469" x2="160" y2="381"/>
<line x1="160" y1="469" x2="0" y2="469"/>
<rect x="160" y="381" width="148" height="88" style="fill: red"/>
<line x1="160" y1="381" x2="308" y2="381"/>
<line x1="160" y1="469" x2="160" y2="381"/>
<line x1="308" y1="469" x2="308" y2="381"/>
<line x1="308" y1="469" x2="160" y2="469"/>
<rect x="0" y="469" width="85" height="57" style="fill: white"/>
<line x1="0" y1="469" x2="85" y2="469"/>
<line x1="0" y1="526" x2="0" y2="469"/>
<line x1="85" y1="526" x2="85" y2="469"/>
<line x1="85" y1="526" x2="0" y2="526"/>
<rect x="85" y="469" width="72" height="57" style="fill: yellow"/>
<line x1="85" y1="469" x2="157" y2="469"/>
<line x1="85" y1="526" x2="85" y2="469"/>
<line x1="157" y1="526" x2="157" y2="469"/>
<line x1="157" y1="526" x2="85" y2="526"/>
<rect x="157" y="469" width="84" height="57" style="fill: black"/>
<line x1="157" y1="469" x2="241" y2="469"/>
<line x1="157" y1="526" x2="157" y2="469"/>
<line x1="241" y1="526" x2="241" y2="469"/>
<line x1="241" y1="526" x2="157" y2="526"/>
<rect x="241" y="469" width="67" height="57" style="fill: white"/>
<line x1="241" y1="469" x2="308" y2="469"/>
<line x1="241" y1="526" x2="241" y2="469"/>
<line x1="308" y1="526" x2="308" y2="469"/>
<line x1="308" y1="526" x2="241" y2="526"/>
<rect x="308" y="381" width="167" height="145" style="fill: white"/>
<line x1="308" y1="381" x2="475" y2="381"/>
<line x1="308" y1="526" x2="308" y2="381"/>
<line x1="475" y1="526" x2="475" y2="381"/>
<line x1="475" y1="526" x2="308" y2="526"/>
<rect x="0" y="526" width="165" height="88" style="fill: yellow"/>
<line x1="0" y1="526" x2="165" y2="526"/>
<line x1="0" y1="614" x2="0" y2="526"/>
<line x1="165" y1="614" x2="165" y2="526"/>
<line x1="165" y1="614" x2="0" y2="614"/>
<rect x="165" y="526" width="147" height="88" style="fill: black"/>
<line x1="165" y1="526" x2="312" y2="526"/>
<line x1="165" y1="614" x2="165" y2="526"/>
<line x1="312" y1="614" x2="312" y2="526"/>
<line x1="312" y1="614" x2="165" y2="614"/>
<rect x="312" y="526" width="102" height="88" style="fill: white"/>
<line x1="312" y1="526" x2="414" y2="526"/>
<line x1="312" y1="614" x2="312" y2="526"/>
<line x1="414" y1="614" x2="414" y2="526"/>
<line x1="414" y1="614" x2="312" y2="614"/>
<rect x="414" y="526" width="61" height="88" style="fill: white"/>
<line x1="414" y1="526" x2="475" y2="526"/>
<line x1="414" y1="614" x2="414" y2="526"/>
<line x1="475" y1="614" x2="475" y2="526"/>
<line x1="475" y1="614" x2="414" y2="614"/>
<rect x="0" y="614" width="165" height="55" style="fill: white"/>
<line x1="0" y1="614" x2="165" y2="614"/>
<line x1="0" y1="669" x2="0" y2="614"/>
<line x1="165" y1="669" x2="165" y2="614"/>
<line x1="165" y1="669" x2="0" y2="669"/>
<rect x="0" y="669" width="87" height="99" style="fill: red"/>
<line x1="0" y1="669" x2="87" y2="669"/>
<line x1="0" y1="768" x2="0" y2="669"/>
<line x1="87" y1="768" x2="87" y2="669"/>
<line x1="87" y1="768" x2="0" y2="768"/>
<rect x="87" y="669" width="78" height="64" style="fill: white"/>
<line x1="87" y1="669" x2="165" y2="669"/>
<line x1="87" y1="733" x2="87" y2="669"/>
<line x1="165" y1="733" x2="165" y2="669"/>
<line x1="165" y1="733" x2="87" y2="733"/>
<rect x="87" y="733" width="78" height="35" style="fill: black"/>
<line x1="87" y1="733" x2="165" y2="733"/>
<line x1="87" y1="768" x2="87" y2="733"/>
<line x1="165" y1="768" x2="165" y2="733"/>
<line x1="165" y1="768" x2="87" y2="768"/>
<rect x="165" y="614" width="119" height="58" style="fill: skyblue"/>
<line x1="165" y1="614" x2="284" y2="614"/>
<line x1="165" y1="672" x2="165" y2="614"/>
<line x1="284" y1="672" x2="284" y2="614"/>
<line x1="284" y1="672" x2="165" y2="672"/>
<rect x="284" y="614" width="56" height="58" style="fill: red"/>
<line x1="284" y1="614" x2="340" y2="614"/>
<line x1="284" y1="672" x2="284" y2="614"/>
<line x1="340" y1="672" x2="340" y2="614"/>
<line x1="340" y1="672" x2="284" y2="672"/>
<rect x="340" y="614" width="135" height="58" style="fill: white"/>
<line x1="340" y1="614" x2="475" y2="614"/>
<line x1="340" y1="672" x2="340" y2="614"/>
<line x1="475" y1="672" x2="475" y2="614"/>
<line x1="475" y1="672" x2="340" y2="672"/>
<rect x="165" y="672" width="120" height="96" style="fill: yellow"/>
<line x1="165" y1="672" x2="285" y2="672"/>
<line x1="165" y1="768" x2="165" y2="672"/>
<line x1="285" y1="768" x2="285" y2="672"/>
<line x1="285" y1="768" x2="165" y2="768"/>
<rect x="285" y="672" width="190" height="96" style="fill: white"/>
<line x1="285" y1="672" x2="475" y2="672"/>
<line x1="285" y1="768" x2="285" y2="672"/>
<line x1="475" y1="768" x2="475" y2="672"/>
<line x1="475" y1="768" x2="285" y2="768"/>
<rect x="475" y="381" width="234" height="184" style="fill: white"/>
<line x1="475" y1="381" x2="709" y2="381"/>
<line x1="475" y1="565" x2="475" y2="381"/>
<line x1="709" y1="565" x2="709" y2="381"/>
<line x1="709" y1="565" x2="475" y2="565"/>
<rect x="709" y="381" width="135" height="106" style="fill: white"/>
<line x1="709" y1="381" x2="844" y2="381"/>
<line x1="709" y1="487" x2="709" y2="381"/>
<line x1="844" y1="487" x2="844" y2="381"/>
<line x1="844" y1="487" x2="709" y2="487"/>
<rect x="844" y="381" width="180" height="35" style="fill: yellow"/>
<line x1="844" y1="381" x2="1024" y2="381"/>
<line x1="844" y1="416" x2="844" y2="381"/>
<line x1="1024" y1="416" x2="1024" y2="381"/>
<line x1="1024" y1="416" x2="844" y2="416"/>
<rect x="844" y="416" width="180" height="71" style="fill: white"/>
<line x1="844" y1="416" x2="1024" y2="416"/>
<line x1="844" y1="487" x2="844" y2="416"/>
<line x1="1024" y1="487" x2="1024" y2="416"/>
<line x1="1024" y1="487" x2="844" y2="487"/>
<rect x="709" y="487" width="54" height="78" style="fill: yellow"/>
<line x1="709" y1="487" x2="763" y2="487"/>
<line x1="709" y1="565" x2="709" y2="487"/>
<line x1="763" y1="565" x2="763" y2="487"/>
<line x1="763" y1="565" x2="709" y2="565"/>
<rect x="763" y="487" width="81" height="78" style="fill: white"/>
<line x1="763" y1="487" x2="844" y2="487"/>
<line x1="763" y1="565" x2="763" y2="487"/>
<line x1="844" y1="565" x2="844" y2="487"/>
<line x1="844" y1="565" x2="763" y2="565"/>
<rect x="844" y="487" width="69" height="78" style="fill: white"/>
<line x1="844" y1="487" x2="913" y2="487"/>
<line x1="844" y1="565" x2="844" y2="487"/>
<line x1="913" y1="565" x2="913" y2="487"/>
<line x1="913" y1="565" x2="844" y2="565"/>
<rect x="913" y="487" width="111" height="78" style="fill: white"/>
<line x1="913" y1="487" x2="1024" y2="487"/>
<line x1="913" y1="565" x2="913" y2="487"/>
<line x1="1024" y1="565" x2="1024" y2="487"/>
<line x1="1024" y1="565" x2="913" y2="565"/>
<rect x="475" y="565" width="88" height="81" style="fill: red"/>
<line x1="475" y1="565" x2="563" y2="565"/>
<line x1="475" y1="646" x2="475" y2="565"/>
<line x1="563" y1="646" x2="563" y2="565"/>
<line x1="563" y1="646" x2="475" y2="646"/>
<rect x="563" y="565" width="88" height="81" style="fill: white"/>
<line x1="563" y1="565" x2="651" y2="565"/>
<line x1="563" y1="646" x2="563" y2="565"/>
<line x1="651" y1="646" x2="651" y2="565"/>
<line x1="651" y1="646" x2="563" y2="646"/>
<rect x="651" y="565" width="58" height="81" style="fill: red"/>
<line x1="651" y1="565" x2="709" y2="565"/>
<line x1="651" y1="646" x2="651" y2="565"/>
<line x1="709" y1="646" x2="709" y2="565"/>
<line x1="709" y1="646" x2="651" y2="646"/>
<rect x="475" y="646" width="92" height="122" style="fill: white"/>
<line x1="475" y1="646" x2="567" y2="646"/>
<line x1="475" y1="768" x2="475" y2="646"/>
<line x1="567" y1="768" x2="567" y2="646"/>
<line x1="567" y1="768" x2="475" y2="768"/>
<rect x="567" y="646" width="142" height="45" style="fill: black"/>
<line x1="567" y1="646" x2="709" y2="646"/>
<line x1="567" y1="691" x2="567" y2="646"/>
<line x1="709" y1="691" x2="709" y2="646"/>
<line x1="709" y1="691" x2="567" y2="691"/>
<rect x="567" y="691" width="96" height="77" style="fill: white"/>
<line x1="567" y1="691" x2="663" y2="691"/>
<line x1="567" y1="768" x2="567" y2="691"/>
<line x1="663" y1="768" x2="663" y2="691"/>
<line x1="663" y1="768" x2="567" y2="768"/>
<rect x="663" y="691" width="46" height="77" style="fill: skyblue"/>
<line x1="663" y1="691" x2="709" y2="691"/>
<line x1="663" y1="768" x2="663" y2="691"/>
<line x1="709" y1="768" x2="709" y2="691"/>
<line x1="709" y1="768" x2="663" y2="768"/>
<rect x="709" y="565" width="182" height="71" style="fill: yellow"/>
<line x1="709" y1="565" x2="891" y2="565"/>
<line x1="709" y1="636" x2="709" y2="565"/>
<line x1="891" y1="636" x2="891" y2="565"/>
<line x1="891" y1="636" x2="709" y2="636"/>
<rect x="891" y="565" width="133" height="71" style="fill: white"/>
<line x1="891" y1="565" x2="1024" y2="565"/>
<line x1="891" y1="636" x2="891" y2="565"/>
<line x1="1024" y1="636" x2="1024" y2="565"/>
<line x1="1024" y1="636" x2="891" y2="636"/>
<rect x="709" y="636" width="182" height="132" style="fill: white"/>
<line x1="709" y1="636" x2="891" y2="636"/>
<line x1="709" y1="768" x2="709" y2="636"/>
<line x1="891" y1="768" x2="891" y2="636"/>
<line x1="891" y1="768" x2="709" y2="768"/>
<rect x="891" y="636" width="133" height="63" style="fill: white"/>
<line x1="891" y1="636" x2="1024" y2="636"/>
<line x1="891" y1="699" x2="891" y2="636"/>
<line x1="1024" y1="699" x2="1024" y2="636"/>
<line x1="1024" y1="699" x2="891" y2="699"/>
<rect x="891" y="699" width="68" height="69" style="fill: white"/>
<line x1="891" y1="699" x2="959" y2="699"/>
<line x1="891" y1="768" x2="891" y2="699"/>
<line x1="959" y1="768" x2="959" y2="699"/>
<line x1="959" y1="768" x2="891" y2="768"/>
<rect x="959" y="699" width="65" height="69" style="fill: white"/>
<line x1="959" y1="699" x2="1024" y2="699"/>
<line x1="959" y1="768" x2="959" y2="699"/>
<line x1="1024" y1="768" x2="1024" y2="699"/>
<line x1="1024" y1="768" x2="959" y2="768"/>
</svg>