<?xml version="1.0" encoding="utf-8"?>
<svg xmlns="http://www.w3.org/2000/svg"
 xmlns:xlink="http://www.w3.org/1999/xlink" width="1024" height="768" >
<defs>
    <style type="text/css"><![CDATA[
        line {
        stroke: #000;
        stroke-width: 5px;
        }
    ]]></style></defs>
<rect x="0" y="0" width="395" height="91" style="fill: white"/>
<line x1="0" y1="0" x2="395" y2="0"/>
<line x1="0" y1="91" x2="0" y2="0"/>
<line x1="395" y1="91" x2="395" y2="0"/>
<line x1="395" y1="91" x2="0" y2="91"/>
<rect x="0" y="91" width="395" height="92" style="fill: black"/>
<line x1="0" y1="91" x2="395" y2="91"/>
<line x1="0" y1="183" x2="0" y2="91"/>
<line x1="395" y1="183" x2="395" y2="91"/>
<line x1="395" y1="183" x2="0" y2="183"/>
<rect x="0" y="183" width="87" height="107" style="fill: white"/>
<line x1="0" y1="183" x2="87" y2="183"/>
<line x1="0" y1="290" x2="0" y2="183"/>
<line x1="87" y1="290" x2="87" y2="183"/>
<line x1="87" y1="290" x2="0" y2="290"/>
<rect x="87" y="183" width="106" height="107" style="fill: black"/>
<line x1="87" y1="183" x2="193" y2="183"/>
<line x1="87" y1="290" x2="87" y2="183"/>
<line x1="193" y1="290" x2="193" y2="183"/>
<line x1="193" y1="290" x2="87" y2="290"/>
<rect x="0" y="290" width="87" height="55" style="fill: black"/>
<line x1="0" y1="290" x2="87" y2="290"/>
<line x1="0" y1="345" x2="0" y2="290"/>
<line x1="87" y1="345" x2="87" y2="290"/>
<line x1="87" y1="345" x2="0" y2="345"/>
<rect x="0" y="345" width="87" height="63" style="fill: yellow"/>
<line x1="0" y1="345" x2="87" y2="345"/>
<line x1="0" y1="408" x2="0" y2="345"/>
<line x1="87" y1="408" x2="87" y2="345"/>
<line x1="87" y1="408" x2="0" y2="408"/>
<rect x="87" y="290" width="106" height="60" style="fill: black"/>
<line x1="87" y1="290" x2="193" y2="290"/>
<line x1="87" y1="350" x2="87" y2="290"/>
<line x1="193" y1="350" x2="193" y2="290"/>
<line x1="193" y1="350" x2="87" y2="350"/>
<rect x="87" y="350" width="106" height="58" style="fill: red"/>
<line x1="87" y1="350" x2="193" y2="350"/>
<line x1="87" y1="408" x2="87" y2="350"/>
<line x1="193" y1="408" x2="193" y2="350"/>
<line x1="193" y1="408" x2="87" y2="408"/>
<rect x="193" y="183" width="100" height="225" style="fill: black"/>
<line x1="193" y1="183" x2="293" y2="183"/>
<line x1="193" y1="408" x2="193" y2="183"/>
<line x1="293" y1="408" x2="293" y2="183"/>
<line x1="293" y1="408" x2="193" y2="408"/>
<rect x="293" y="183" width="102" height="225" style="fill: white"/>
<line x1="293" y1="183" x2="395" y2="183"/>
<line x1="293" y1="408" x2="293" y2="183"/>
<line x1="395" y1="408" x2="395" y2="183"/>
<line x1="395" y1="408" x2="293" y2="408"/>
<rect x="395" y="0" width="228" height="115" style="fill: white"/>
<line x1="395" y1="0" x2="623" y2="0"/>
<line x1="395" y1="115" x2="395" y2="0"/>
<line x1="623" y1="115" x2="623" y2="0"/>
<line x1="623" y1="115" x2="395" y2="115"/>
<rect x="395" y="115" width="97" height="79" style="fill: yellow"/>
<line x1="395" y1="115" x2="492" y2="115"/>
<line x1="395" y1="194" x2="395" y2="115"/>
<line x1="492" y1="194" x2="492" y2="115"/>
<line x1="492" y1="194" x2="395" y2="194"/>
<rect x="492" y="115" width="87" height="79" style="fill: yellow"/>
<line x1="492" y1="115" x2="579" y2="115"/>
<line x1="492" y1="194" x2="492" y2="115"/>
<line x1="579" y1="194" x2="579" y2="115"/>
<line x1="579" y1="194" x2="492" y2="194"/>
<rect x="579" y="115" width="44" height="79" style="fill: white"/>
<line x1="579" y1="115" x2="623" y2="115"/>
<line x1="579" y1="194" x2="579" y2="115"/>
<line x1="623" y1="194" x2="623" y2="115"/>
<line x1="623" y1="194" x2="579" y2="194"/>
<rect x="623" y="0" width="401" height="194" style="fill: white"/>
<line x1="623" y1="0" x2="1024" y2="0"/>
<line x1="623" y1="194" x2="623" y2="0"/>
<line x1="1024" y1="194" x2="1024" y2="0"/>
<line x1="1024" y1="194" x2="623" y2="194"/>
<rect x="395" y="194" width="151" height="79" style="fill: red"/>
<line x1="395" y1="194" x2="546" y2="194"/>
<line x1="395" y1="273" x2="395" y2="194"/>
<line x1="546" y1="273" x2="546" y2="194"/>
<line x1="546" y1="273" x2="395" y2="273"/>
<rect x="546" y="194" width="77" height="79" style="fill: white"/>
<line x1="546" y1="194" x2="623" y2="194"/>
<line x1="546" y1="273" x2="546" y2="194"/>
<line x1="623" y1="273" x2="623" y2="194"/>
<line x1="623" y1="273" x2="546" y2="273"/>
<rect x="395" y="273" width="151" height="135" style="fill: white"/>
<line x1="395" y1="273" x2="546" y2="273"/>
<line x1="395" y1="408" x2="395" y2="273"/>
<line x1="546" y1="408" x2="546" y2="273"/>
<line x1="546" y1="408" x2="395" y2="408"/>
<rect x="546" y="273" width="77" height="45" style="fill: yellow"/>
<line x1="546" y1="273" x2="623" y2="273"/>
<line x1="546" y1="318" x2="546" y2="273"/>
<line x1="623" y1="318" x2="623" y2="273"/>
<line x1="623" y1="318" x2="546" y2="318"/>
<rect x="546" y="318" width="77" height="90" style="fill: yellow"/>
<line x1="546" y1="318" x2="623" y2="318"/>
<line x1="546" y1="408" x2="546" y2="318"/>
<line x1="623" y1="408" x2="623" y2="318"/>
<line x1="623" y1="408" x2="546" y2="408"/>
<rect x="623" y="194" width="401" height="214" style="fill: white"/>
<line x1="623" y1="194" x2="1024" y2="194"/>
<line x1="623" y1="408" x2="623" y2="194"/>
<line x1="1024" y1="408" x2="1024" y2="194"/>
<line x1="1024" y1="408" x2="623" y2="408"/>
<rect x="0" y="408" width="97" height="119" style="fill: white"/>
<line x1="0" y1="408" x2="97" y2="408"/>
<line x1="0" y1="527" x2="0" y2="408"/>
<line x1="97" y1="527" x2="97" y2="408"/>
<line x1="97" y1="527" x2="0" y2="527"/>
<rect x="97" y="408" width="58" height="119" style="fill: red"/>
<line x1="97" y1="408" x2="155" y2="408"/>
<line x1="97" y1="527" x2="97" y2="408"/>
<line x1="155" y1="527" x2="155" y2="408"/>
<line x1="155" y1="527" x2="97" y2="527"/>
<rect x="0" y="527" width="97" height="83" style="fill: white"/>
<line x1="0" y1="527" x2="97" y2="527"/>
<line x1="0" y1="610" x2="0" y2="527"/>
<line x1="97" y1="610" x2="97" y2="527"/>
<line x1="97" y1="610" x2="0" y2="610"/>
<rect x="97" y="527" width="58" height="83" style="fill: white"/>
<line x1="97" y1="527" x2="155" y2="527"/>
<line x1="97" y1="610" x2="97" y2="527"/>
<line x1="155" y1="610" x2="155" y2="527"/>
<line x1="155" y1="610" x2="97" y2="610"/>
<rect x="155" y="408" width="100" height="202" style="fill: yellow"/>
<line x1="155" y1="408" x2="255" y2="408"/>
<line x1="155" y1="610" x2="155" y2="408"/>
<line x1="255" y1="610" x2="255" y2="408"/>
<line x1="255" y1="610" x2="155" y2="610"/>
<rect x="255" y="408" width="140" height="202" style="fill: red"/>
<line x1="255" y1="408" x2="395" y2="408"/>
<line x1="255" y1="610" x2="255" y2="408"/>
<line x1="395" y1="610" x2="395" y2="408"/>
<line x1="395" y1="610" x2="255" y2="610"/>
<rect x="0" y="610" width="105" height="83" style="fill: black"/>
<line x1="0" y1="610" x2="105" y2="610"/>
<line x1="0" y1="693" x2="0" y2="610"/>
<line x1="105" y1="693" x2="105" y2="610"/>
<line x1="105" y1="693" x2="0" y2="693"/>
<rect x="105" y="610" width="50" height="83" style="fill: skyblue"/>
<line x1="105" y1="610" x2="155" y2="610"/>
<line x1="105" y1="693" x2="105" y2="610"/>
<line x1="155" y1="693" x2="155" y2="610"/>
<line x1="155" y1="693" x2="105" y2="693"/>
<rect x="0" y="693" width="43" height="75" style="fill: white"/>
<line x1="0" y1="693" x2="43" y2="693"/>
<line x1="0" y1="768" x2="0" y2="693"/>
<line x1="43" y1="768" x2="43" y2="693"/>
<line x1="43" y1="768" x2="0" y2="768"/>
<rect x="43" y="693" width="62" height="75" style="fill: black"/>
<line x1="43" y1="693" x2="105" y2="693"/>
<line x1="43" y1="768" x2="43" y2="693"/>
<line x1="105" y1="768" x2="105" y2="693"/>
<line x1="105" y1="768" x2="43" y2="768"/>
<rect x="105" y="693" width="50" height="75" style="fill: black"/>
<line x1="105" y1="693" x2="155" y2="693"/>
<line x1="105" y1="768" x2="105" y2="693"/>
<line x1="155" y1="768" x2="155" y2="693"/>
<line x1="155" y1="768" x2="105" y2="768"/>
<rect x="155" y="610" width="49" height="83" style="fill: white"/>
<line x1="155" y1="610" x2="204" y2="610"/>
<line x1="155" y1="693" x2="155" y2="610"/>
<line x1="204" y1="693" x2="204" y2="610"/>
<line x1="204" y1="693" x2="155" y2="693"/>
<rect x="204" y="610" width="45" height="83" style="fill: red"/>
<line x1="204" y1="610" x2="249" y2="610"/>
<line x1="204" y1="693" x2="204" y2="610"/>
<line x1="249" y1="693" x2="249" y2="610"/>
<line x1="249" y1="693" x2="204" y2="693"/>
<rect x="155" y="693" width="94" height="75" style="fill: yellow"/>
<line x1="155" y1="693" x2="249" y2="693"/>
<line x1="155" y1="768" x2="155" y2="693"/>
<line x1="249" y1="768" x2="249" y2="693"/>
<line x1="249" y1="768" x2="155" y2="768"/>
<rect x="249" y="610" width="146" height="158" style="fill: white"/>
<line x1="249" y1="610" x2="395" y2="610"/>
<line x1="249" y1="768" x2="249" y2="610"/>
<line x1="395" y1="768" x2="395" y2="610"/>
<line x1="395" y1="768" x2="249" y2="768"/>
<rect x="395" y="408" width="141" height="237" style="fill: yellow"/>
<line x1="395" y1="408" x2="536" y2="408"/>
<line x1="395" y1="645" x2="395" y2="408"/>
<line x1="536" y1="645" x2="536" y2="408"/>
<line x1="536" y1="645" x2="395" y2="645"/>
<rect x="395" y="645" width="141" height="123" style="fill: white"/>
<line x1="395" y1="645" x2="536" y2="645"/>
<line x1="395" y1="768" x2="395" y2="645"/>
<line x1="536" y1="768" x2="536" y2="645"/>
<line x1="536" y1="768" x2="395" y2="768"/>
<rect x="536" y="408" width="78" height="61" style="fill: white"/>
<line x1="536" y1="408" x2="614" y2="408"/>
<line x1="536" y1="469" x2="536" y2="408"/>
<line x1="614" y1="469" x2="614" y2="408"/>
<line x1="614" y1="469" x2="536" y2="469"/>
<rect x="614" y="408" width="43" height="61" style="fill: black"/>
<line x1="614" y1="408" x2="657" y2="408"/>
<line x1="614" y1="469" x2="614" y2="408"/>
<line x1="657" y1="469" x2="657" y2="408"/>
<line x1="657" y1="469" x2="614" y2="469"/>
<rect x="536" y="469" width="78" height="118" style="fill: white"/>
<line x1="536" y1="469" x2="614" y2="469"/>
<line x1="536" y1="587" x2="536" y2="469"/>
<line x1="614" y1="587" x2="614" y2="469"/>
<line x1="614" y1="587" x2="536" y2="587"/>
<rect x="614" y="469" width="43" height="71" style="fill: white"/>
<line x1="614" y1="469" x2="657" y2="469"/>
<line x1="614" y1="540" x2="614" y2="469"/>
<line x1="657" y1="540" x2="657" y2="469"/>
<line x1="657" y1="540" x2="614" y2="540"/>
<rect x="614" y="540" width="43" height="47" style="fill: white"/>
<line x1="614" y1="540" x2="657" y2="540"/>
<line x1="614" y1="587" x2="614" y2="540"/>
<line x1="657" y1="587" x2="657" y2="540"/>
<line x1="657" y1="587" x2="614" y2="587"/>
<rect x="536" y="587" width="44" height="73" style="fill: white"/>
<line x1="536" y1="587" x2="580" y2="587"/>
<line x1="536" y1="660" x2="536" y2="587"/>
<line x1="580" y1="660" x2="580" y2="587"/>
<line x1="580" y1="660" x2="536" y2="660"/>
<rect x="536" y="660" width="44" height="40" style="fill: white"/>
<line x1="536" y1="660" x2="580" y2="660"/>
<line x1="536" y1="700" x2="536" y2="660"/>
<line x1="580" y1="700" x2="580" y2="660"/>
<line x1="580" y1="700" x2="536" y2="700"/>
<rect x="536" y="700" width="44" height="68" style="fill: white"/>
<line x1="536" y1="700" x2="580" y2="700"/>
<line x1="536" y1="768" x2="536" y2="700"/>
<line x1="580" y1="768" x2="580" y2="700"/>
<line x1="580" y1="768" x2="536" y2="768"/>
<rect x="580" y="587" width="77" height="108" style="fill: white"/>
<line x1="580" y1="587" x2="657" y2="587"/>
<line x1="580" y1="695" x2="580" y2="587"/>
<line x1="657" y1="695" x2="657" y2="587"/>
<line x1="657" y1="695" x2="580" y2="695"/>
<rect x="580" y="695" width="77" height="73" style="fill: red"/>
<line x1="580" y1="695" x2="657" y2="695"/>
<line x1="580" y1="768" x2="580" y2="695"/>
<line x1="657" y1="768" x2="657" y2="695"/>
<line x1="657" y1="768" x2="580" y2="768"/>
<rect x="657" y="408" width="133" height="360" style="fill: red"/>
<line x1="657" y1="408" x2="790" y2="408"/>
<line x1="657" y1="768" x2="657" y2="408"/>
<line x1="790" y1="768" x2="790" y2="408"/>
<line x1="790" y1="768" x2="657" y2="768"/>
<rect x="790" y="408" width="104" height="113" style="fill: black"/>
<line x1="790" y1="408" x2="894" y2="408"/>
<line x1="790" y1="521" x2="790" y2="408"/>
<line x1="894" y1="521" x2="894" y2="408"/>
<line x1="894" y1="521" x2="790" y2="521"/>
<rect x="790" y="521" width="104" height="81" style="fill: black"/>
<line x1="790" y1="521" x2="894" y2="521"/>
<line x1="790" y1="602" x2="790" y2="521"/>
<line x1="894" y1="602" x2="894" y2="521"/>
<line x1="894" y1="602" x2="790" y2="602"/>
<rect x="894" y="408" width="130" height="103" style="fill: red"/>
<line x1="894" y1="408" x2="1024" y2="408"/>
<line x1="894" y1="511" x2="894" y2="408"/>
<line x1="1024" y1="511" x2="1024" y2="408"/>
<line x1="1024" y1="511" x2="894" y2="511"/>
<rect x="894" y="511" width="130" height="91" style="fill: white"/>
<line x1="894" y1="511" x2="1024" y2="511"/>
<line x1="894" y1="602" x2="894" y2="511"/>
<line x1="1024" y1="602" x2="1024" y2="511"/>
<line x1="1024" y1="602" x2="894" y2="602"/>
<rect x="790" y="602" width="104" height="166" style="fill: white"/>
<line x1="790" y1="602" x2="894" y2="602"/>
<line x1="790" y1="768" x2="790" y2="602"/>
<line x1="894" y1="768" x2="894" y2="602"/>
<line x1="894" y1="768" x2="790" y2="768"/>
<rect x="894" y="602" width="130" height="166" style="fill: white"/>
<line x1="894" y1="602" x2="1024" y2="602"/>
<line x1="894" y1="768" x2="894" y2="602"/>
<line x1="1024" y1="768" x2="1024" y2="602"/>
<line x1="1024" y1="768" x2="894" y2="768"/>
</svg>