<?xml version="1.0" encoding="utf-8"?>
<svg xmlns="http://www.w3.org/2000/svg"
 xmlns:xlink="http://www.w3.org/1999/xlink" width="1024" height="768" >
<defs>
    <style type="text/css"><![CDATA[
        line {
        stroke: #000;
        stroke-width: 5px;
        }
    ]]></style></defs>
<rect x="0" y="0" width="80" height="377" style="fill: white"/>
<line x1="0" y1="0" x2="80" y2="0"/>
<line x1="0" y1="377" x2="0" y2="0"/>
<line x1="80" y1="377" x2="80" y2="0"/>
<line x1="80" y1="377" x2="0" y2="377"/>
<rect x="80" y="0" width="34" height="377" style="fill: red"/>
<line x1="80" y1="0" x2="114" y2="0"/>
<line x1="80" y1="377" x2="80" y2="0"/>
<line x1="114" y1="377" x2="114" y2="0"/>
<line x1="114" y1="377" x2="80" y2="377"/>
<rect x="114" y="0" width="58" height="122" style="fill: white"/>
<line x1="114" y1="0" x2="172" y2="0"/>
<line x1="114" y1="122" x2="114" y2="0"/>
<line x1="172" y1="122" x2="172" y2="0"/>
<line x1="172" y1="122" x2="114" y2="122"/>
<rect x="114" y="122" width="58" height="68" style="fill: white"/>
<line x1="114" y1="122" x2="172" y2="122"/>
<line x1="114" y1="190" x2="114" y2="122"/>
<line x1="172" y1="190" x2="172" y2="122"/>
<line x1="172" y1="190" x2="114" y2="190"/>
<rect x="114" y="190" width="58" height="187" style="fill: yellow"/>
<line x1="114" y1="190" x2="172" y2="190"/>
<line x1="114" y1="377" x2="114" y2="190"/>
<line x1="172" y1="377" x2="172" y2="190"/>
<line x1="172" y1="377" x2="114" y2="377"/>
<rect x="172" y="0" width="65" height="45" style="fill: black"/>
<line x1="172" y1="0" x2="237" y2="0"/>
<line x1="172" y1="45" x2="172" y2="0"/>
<line x1="237" y1="45" x2="237" y2="0"/>
<line x1="237" y1="45" x2="172" y2="45"/>
<rect x="172" y="45" width="65" height="64" style="fill: blue"/>
<line x1="172" y1="45" x2="237" y2="45"/>
<line x1="172" y1="109" x2="172" y2="45"/>
<line x1="237" y1="109" x2="237" y2="45"/>
<line x1="237" y1="109" x2="172" y2="109"/>
<rect x="237" y="0" width="55" height="51" style="fill: white"/>
<line x1="237" y1="0" x2="292" y2="0"/>
<line x1="237" y1="51" x2="237" y2="0"/>
<line x1="292" y1="51" x2="292" y2="0"/>
<line x1="292" y1="51" x2="237" y2="51"/>
<rect x="237" y="51" width="55" height="58" style="fill: white"/>
<line x1="237" y1="51" x2="292" y2="51"/>
<line x1="237" y1="109" x2="237" y2="51"/>
<line x1="292" y1="109" x2="292" y2="51"/>
<line x1="292" y1="109" x2="237" y2="109"/>
<rect x="292" y="0" width="133" height="109" style="fill: red"/>
<line x1="292" y1="0" x2="425" y2="0"/>
<line x1="292" y1="109" x2="292" y2="0"/>
<line x1="425" y1="109" x2="425" y2="0"/>
<line x1="425" y1="109" x2="292" y2="109"/>
<rect x="172" y="109" width="60" height="86" style="fill: white"/>
<line x1="172" y1="109" x2="232" y2="109"/>
<line x1="172" y1="195" x2="172" y2="109"/>
<line x1="232" y1="195" x2="232" y2="109"/>
<line x1="232" y1="195" x2="172" y2="195"/>
<rect x="232" y="109" width="60" height="86" style="fill: white"/>
<line x1="232" y1="109" x2="292" y2="109"/>
<line x1="232" y1="195" x2="232" y2="109"/>
<line x1="292" y1="195" x2="292" y2="109"/>
<line x1="292" y1="195" x2="232" y2="195"/>
<rect x="172" y="195" width="120" height="56" style="fill: yellow"/>
<line x1="172" y1="195" x2="292" y2="195"/>
<line x1="172" y1="251" x2="172" y2="195"/>
<line x1="292" y1="251" x2="292" y2="195"/>
<line x1="292" y1="251" x2="172" y2="251"/>
<rect x="292" y="109" width="133" height="76" style="fill: black"/>
<line x1="292" y1="109" x2="425" y2="109"/>
<line x1="292" y1="185" x2="292" y2="109"/>
<line x1="425" y1="185" x2="425" y2="109"/>
<line x1="425" y1="185" x2="292" y2="185"/>
<rect x="292" y="185" width="133" height="66" style="fill: blue"/>
<line x1="292" y1="185" x2="425" y2="185"/>
<line x1="292" y1="251" x2="292" y2="185"/>
<line x1="425" y1="251" x2="425" y2="185"/>
<line x1="425" y1="251" x2="292" y2="251"/>
<rect x="172" y="251" width="111" height="71" style="fill: white"/>
<line x1="172" y1="251" x2="283" y2="251"/>
<line x1="172" y1="322" x2="172" y2="251"/>
<line x1="283" y1="322" x2="283" y2="251"/>
<line x1="283" y1="322" x2="172" y2="322"/>
<rect x="172" y="322" width="72" height="55" style="fill: white"/>
<line x1="172" y1="322" x2="244" y2="322"/>
<line x1="172" y1="377" x2="172" y2="322"/>
<line x1="244" y1="377" x2="244" y2="322"/>
<line x1="244" y1="377" x2="172" y2="377"/>
<rect x="244" y="322" width="39" height="55" style="fill: red"/>
<line x1="244" y1="322" x2="283" y2="322"/>
<line x1="244" y1="377" x2="244" y2="322"/>
<line x1="283" y1="377" x2="283" y2="322"/>
<line x1="283" y1="377" x2="244" y2="377"/>
<rect x="283" y="251" width="54" height="126" style="fill: white"/>
<line x1="283" y1="251" x2="337" y2="251"/>
<line x1="283" y1="377" x2="283" y2="251"/>
<line x1="337" y1="377" x2="337" y2="251"/>
<line x1="337" y1="377" x2="283" y2="377"/>
<rect x="337" y="251" width="88" height="126" style="fill: white"/>
<line x1="337" y1="251" x2="425" y2="251"/>
<line x1="337" y1="377" x2="337" y2="251"/>
<line x1="425" y1="377" x2="425" y2="251"/>
<line x1="425" y1="377" x2="337" y2="377"/>
<rect x="425" y="0" width="151" height="143" style="fill: yellow"/>
<line x1="425" y1="0" x2="576" y2="0"/>
<line x1="425" y1="143" x2="425" y2="0"/>
<line x1="576" y1="143" x2="576" y2="0"/>
<line x1="576" y1="143" x2="425" y2="143"/>
<rect x="576" y="0" width="62" height="86" style="fill: black"/>
<line x1="576" y1="0" x2="638" y2="0"/>
<line x1="576" y1="86" x2="576" y2="0"/>
<line x1="638" y1="86" x2="638" y2="0"/>
<line x1="638" y1="86" x2="576" y2="86"/>
<rect x="638" y="0" width="62" height="86" style="fill: blue"/>
<line x1="638" y1="0" x2="700" y2="0"/>
<line x1="638" y1="86" x2="638" y2="0"/>
<line x1="700" y1="86" x2="700" y2="0"/>
<line x1="700" y1="86" x2="638" y2="86"/>
<rect x="576" y="86" width="124" height="57" style="fill: white"/>
<line x1="576" y1="86" x2="700" y2="86"/>
<line x1="576" y1="143" x2="576" y2="86"/>
<line x1="700" y1="143" x2="700" y2="86"/>
<line x1="700" y1="143" x2="576" y2="143"/>
<rect x="425" y="143" width="102" height="108" style="fill: white"/>
<line x1="425" y1="143" x2="527" y2="143"/>
<line x1="425" y1="251" x2="425" y2="143"/>
<line x1="527" y1="251" x2="527" y2="143"/>
<line x1="527" y1="251" x2="425" y2="251"/>
<rect x="425" y="251" width="62" height="44" style="fill: red"/>
<line x1="425" y1="251" x2="487" y2="251"/>
<line x1="425" y1="295" x2="425" y2="251"/>
<line x1="487" y1="295" x2="487" y2="251"/>
<line x1="487" y1="295" x2="425" y2="295"/>
<rect x="425" y="295" width="62" height="82" style="fill: white"/>
<line x1="425" y1="295" x2="487" y2="295"/>
<line x1="425" y1="377" x2="425" y2="295"/>
<line x1="487" y1="377" x2="487" y2="295"/>
<line x1="487" y1="377" x2="425" y2="377"/>
<rect x="487" y="251" width="40" height="126" style="fill: white"/>
<line x1="487" y1="251" x2="527" y2="251"/>
<line x1="487" y1="377" x2="487" y2="251"/>
<line x1="527" y1="377" x2="527" y2="251"/>
<line x1="527" y1="377" x2="487" y2="377"/>
<rect x="527" y="143" width="49" height="88" style="fill: yellow"/>
<line x1="527" y1="143" x2="576" y2="143"/>
<line x1="527" y1="231" x2="527" y2="143"/>
<line x1="576" y1="231" x2="576" y2="143"/>
<line x1="576" y1="231" x2="527" y2="231"/>
<rect x="527" y="231" width="49" height="146" style="fill: black"/>
<line x1="527" y1="231" x2="576" y2="231"/>
<line x1="527" y1="377" x2="527" y2="231"/>
<line x1="576" y1="377" x2="576" y2="231"/>
<line x1="576" y1="377" x2="527" y2="377"/>
<rect x="576" y="143" width="124" height="234" style="fill: blue"/>
<line x1="576" y1="143" x2="700" y2="143"/>
<line x1="576" y1="377" x2="576" y2="143"/>
<line x1="700" y1="377" x2="700" y2="143"/>
<line x1="700" y1="377" x2="576" y2="377"/>
<rect x="700" y="0" width="177" height="377" style="fill: white"/>
<line x1="700" y1="0" x2="877" y2="0"/>
<line x1="700" y1="377" x2="700" y2="0"/>
<line x1="877" y1="377" x2="877" y2="0"/>
<line x1="877" y1="377" x2="700" y2="377"/>
<rect x="877" y="0" width="147" height="377" style="fill: white"/>
<line x1="877" y1="0" x2="1024" y2="0"/>
<line x1="877" y1="377" x2="877" y2="0"/>
<line x1="1024" y1="377" x2="1024" y2="0"/>
<line x1="1024" y1="377" x2="877" y2="377"/>
<rect x="0" y="377" width="148" height="252" style="fill: red"/>
<line x1="0" y1="377" x2="148" y2="377"/>
<line x1="0" y1="629" x2="0" y2="377"/>
<line x1="148" y1="629" x2="148" y2="377"/>
<line x1="148" y1="629" x2="0" y2="629"/>
<rect x="148" y="377" width="277" height="252" style="fill: white"/>
<line x1="148" y1="377" x2="425" y2="377"/>
<line x1="148" y1="629" x2="148" y2="377"/>
<line x1="425" y1="629" x2="425" y2="377"/>
<line x1="425" y1="629" x2="148" y2="629"/>
<rect x="0" y="629" width="149" height="86" style="fill: white"/>
<line x1="0" y1="629" x2="149" y2="629"/>
<line x1="0" y1="715" x2="0" y2="629"/>
<line x1="149" y1="715" x2="149" y2="629"/>
<line x1="149" y1="715" x2="0" y2="715"/>
<rect x="149" y="629" width="170" height="86" style="fill: yellow"/>
<line x1="149" y1="629" x2="319" y2="629"/>
<line x1="149" y1="715" x2="149" y2="629"/>
<line x1="319" y1="715" x2="319" y2="629"/>
<line x1="319" y1="715" x2="149" y2="715"/>
<rect x="319" y="629" width="106" height="86" style="fill: black"/>
<line x1="319" y1="629" x2="425" y2="629"/>
<line x1="319" y1="715" x2="319" y2="629"/>
<line x1="425" y1="715" x2="425" y2="629"/>
<line x1="425" y1="715" x2="319" y2="715"/>
<rect x="0" y="715" width="117" height="53" style="fill: blue"/>
<line x1="0" y1="715" x2="117" y2="715"/>
<line x1="0" y1="768" x2="0" y2="715"/>
<line x1="117" y1="768" x2="117" y2="715"/>
<line x1="117" y1="768" x2="0" y2="768"/>
<rect x="117" y="715" width="74" height="53" style="fill: white"/>
<line x1="117" y1="715" x2="191" y2="715"/>
<line x1="117" y1="768" x2="117" y2="715"/>
<line x1="191" y1="768" x2="191" y2="715"/>
<line x1="191" y1="768" x2="117" y2="768"/>
<rect x="191" y="715" width="234" height="53" style="fill: white"/>
<line x1="191" y1="715" x2="425" y2="715"/>
<line x1="191" y1="768" x2="191" y2="715"/>
<line x1="425" y1="768" x2="425" y2="715"/>
<line x1="425" y1="768" x2="191" y2="768"/>
<rect x="425" y="377" width="41" height="163" style="fill: red"/>
<line x1="425" y1="377" x2="466" y2="377"/>
<line x1="425" y1="540" x2="425" y2="377"/>
<line x1="466" y1="540" x2="466" y2="377"/>
<line x1="466" y1="540" x2="425" y2="540"/>
<rect x="466" y="377" width="54" height="81" style="fill: white"/>
<line x1="466" y1="377" x2="520" y2="377"/>
<line x1="466" y1="458" x2="466" y2="377"/>
<line x1="520" y1="458" x2="520" y2="377"/>
<line x1="520" y1="458" x2="466" y2="458"/>
<rect x="466" y="458" width="54" height="82" style="fill: white"/>
<line x1="466" y1="458" x2="520" y2="458"/>
<line x1="466" y1="540" x2="466" y2="458"/>
<line x1="520" y1="540" x2="520" y2="458"/>
<line x1="520" y1="540" x2="466" y2="540"/>
<rect x="520" y="377" width="95" height="106" style="fill: yellow"/>
<line x1="520" y1="377" x2="615" y2="377"/>
<line x1="520" y1="483" x2="520" y2="377"/>
<line x1="615" y1="483" x2="615" y2="377"/>
<line x1="615" y1="483" x2="520" y2="483"/>
<rect x="520" y="483" width="95" height="57" style="fill: black"/>
<line x1="520" y1="483" x2="615" y2="483"/>
<line x1="520" y1="540" x2="520" y2="483"/>
<line x1="615" y1="540" x2="615" y2="483"/>
<line x1="615" y1="540" x2="520" y2="540"/>
<rect x="615" y="377" width="92" height="40" style="fill: blue"/>
<line x1="615" y1="377" x2="707" y2="377"/>
<line x1="615" y1="417" x2="615" y2="377"/>
<line x1="707" y1="417" x2="707" y2="377"/>
<line x1="707" y1="417" x2="615" y2="417"/>
<rect x="615" y="417" width="35" height="57" style="fill: white"/>
<line x1="615" y1="417" x2="650" y2="417"/>
<line x1="615" y1="474" x2="615" y2="417"/>
<line x1="650" y1="474" x2="650" y2="417"/>
<line x1="650" y1="474" x2="615" y2="474"/>
<rect x="650" y="417" width="57" height="57" style="fill: white"/>
<line x1="650" y1="417" x2="707" y2="417"/>
<line x1="650" y1="474" x2="650" y2="417"/>
<line x1="707" y1="474" x2="707" y2="417"/>
<line x1="707" y1="474" x2="650" y2="474"/>
<rect x="615" y="474" width="92" height="66" style="fill: red"/>
<line x1="615" y1="474" x2="707" y2="474"/>
<line x1="615" y1="540" x2="615" y2="474"/>
<line x1="707" y1="540" x2="707" y2="474"/>
<line x1="707" y1="540" x2="615" y2="540"/>
<rect x="425" y="540" width="119" height="86" style="fill: white"/>
<line x1="425" y1="540" x2="544" y2="540"/>
<line x1="425" y1="626" x2="425" y2="540"/>
<line x1="544" y1="626" x2="544" y2="540"/>
<line x1="544" y1="626" x2="425" y2="626"/>
<rect x="544" y="540" width="71" height="86" style="fill: white"/>
<line x1="544" y1="540" x2="615" y2="540"/>
<line x1="544" y1="626" x2="544" y2="540"/>
<line x1="615" y1="626" x2="615" y2="540"/>
<line x1="615" y1="626" x2="544" y2="626"/>
<rect x="615" y="540" width="92" height="86" style="fill: yellow"/>
<line x1="615" y1="540" x2="707" y2="540"/>
<line x1="615" y1="626" x2="615" y2="540"/>
<line x1="707" y1="626" x2="707" y2="540"/>
<line x1="707" y1="626" x2="615" y2="626"/>
<rect x="707" y="377" width="154" height="91" style="fill: black"/>
<line x1="707" y1="377" x2="861" y2="377"/>
<line x1="707" y1="468" x2="707" y2="377"/>
<line x1="861" y1="468" x2="861" y2="377"/>
<line x1="861" y1="468" x2="707" y2="468"/>
<rect x="861" y="377" width="54" height="91" style="fill: blue"/>
<line x1="861" y1="377" x2="915" y2="377"/>
<line x1="861" y1="468" x2="861" y2="377"/>
<line x1="915" y1="468" x2="915" y2="377"/>
<line x1="915" y1="468" x2="861" y2="468"/>
<rect x="915" y="377" width="44" height="91" style="fill: white"/>
<line x1="915" y1="377" x2="959" y2="377"/>
<line x1="915" y1="468" x2="915" y2="377"/>
<line x1="959" y1="468" x2="959" y2="377"/>
<line x1="959" y1="468" x2="915" y2="468"/>
<rect x="959" y="377" width="65" height="91" style="fill: white"/>
<line x1="959" y1="377" x2="1024" y2="377"/>
<line x1="959" y1="468" x2="959" y2="377"/>
<line x1="1024" y1="468" x2="1024" y2="377"/>
<line x1="1024" y1="468" x2="959" y2="468"/>
<rect x="707" y="468" width="88" height="40" style="fill: red"/>
<line x1="707" y1="468" x2="795" y2="468"/>
<line x1="707" y1="508" x2="707" y2="468"/>
<line x1="795" y1="508" x2="795" y2="468"/>
<line x1="795" y1="508" x2="707" y2="508"/>
<rect x="795" y="468" width="100" height="40" style="fill: white"/>
<line x1="795" y1="468" x2="895" y2="468"/>
<line x1="795" y1="508" x2="795" y2="468"/>
<line x1="895" y1="508" x2="895" y2="468"/>
<line x1="895" y1="508" x2="795" y2="508"/>
<rect x="707" y="508" width="88" height="55" style="fill: white"/>
<line x1="707" y1="508" x2="795" y2="508"/>
<line x1="707" y1="563" x2="707" y2="508"/>
<line x1="795" y1="563" x2="795" y2="508"/>
<line x1="795" y1="563" x2="707" y2="563"/>
<rect x="795" y="508" width="100" height="55" style="fill: yellow"/>
<line x1="795" y1="508" x2="895" y2="508"/>
<line x1="795" y1="563" x2="795" y2="508"/>
<line x1="895" y1="563" x2="895" y2="508"/>
<line x1="895" y1="563" x2="795" y2="563"/>
<rect x="895" y="468" width="50" height="95" style="fill: black"/>
<line x1="895" y1="468" x2="945" y2="468"/>
<line x1="895" y1="563" x2="895" y2="468"/>
<line x1="945" y1="563" x2="945" y2="468"/>
<line x1="945" y1="563" x2="895" y2="563"/>
<rect x="945" y="468" width="79" height="95" style="fill: blue"/>
<line x1="945" y1="468" x2="1024" y2="468"/>
<line x1="945" y1="563" x2="945" y2="468"/>
<line x1="1024" y1="563" x2="1024" y2="468"/>
<line x1="1024" y1="563" x2="945" y2="563"/>
<rect x="707" y="563" width="188" height="63" style="fill: white"/>
<line x1="707" y1="563" x2="895" y2="563"/>
<line x1="707" y1="626" x2="707" y2="563"/>
<line x1="895" y1="626" x2="895" y2="563"/>
<line x1="895" y1="626" x2="707" y2="626"/>
<rect x="895" y="563" width="129" height="63" style="fill: white"/>
<line x1="895" y1="563" x2="1024" y2="563"/>
<line x1="895" y1="626" x2="895" y2="563"/>
<line x1="1024" y1="626" x2="1024" y2="563"/>
<line x1="1024" y1="626" x2="895" y2="626"/>
<rect x="425" y="626" width="56" height="70" style="fill: red"/>
<line x1="425" y1="626" x2="481" y2="626"/>
<line x1="425" y1="696" x2="425" y2="626"/>
<line x1="481" y1="696" x2="481" y2="626"/>
<line x1="481" y1="696" x2="425" y2="696"/>
<rect x="481" y="626" width="75" height="70" style="fill: white"/>
<line x1="481" y1="626" x2="556" y2="626"/>
<line x1="481" y1="696" x2="481" y2="626"/>
<line x1="556" y1="696" x2="556" y2="626"/>
<line x1="556" y1="696" x2="481" y2="696"/>
<rect x="556" y="626" width="55" height="70" style="fill: white"/>
<line x1="556" y1="626" x2="611" y2="626"/>
<line x1="556" y1="696" x2="556" y2="626"/>
<line x1="611" y1="696" x2="611" y2="626"/>
<line x1="611" y1="696" x2="556" y2="696"/>
<rect x="611" y="626" width="96" height="70" style="fill: yellow"/>
<line x1="611" y1="626" x2="707" y2="626"/>
<line x1="611" y1="696" x2="611" y2="626"/>
<line x1="707" y1="696" x2="707" y2="626"/>
<line x1="707" y1="696" x2="611" y2="696"/>
<rect x="425" y="696" width="132" height="72" style="fill: black"/>
<line x1="425" y1="696" x2="557" y2="696"/>
<line x1="425" y1="768" x2="425" y2="696"/>
<line x1="557" y1="768" x2="557" y2="696"/>
<line x1="557" y1="768" x2="425" y2="768"/>
<rect x="557" y="696" width="150" height="72" style="fill: blue"/>
<line x1="557" y1="696" x2="707" y2="696"/>
<line x1="557" y1="768" x2="557" y2="696"/>
<line x1="707" y1="768" x2="707" y2="696"/>
<line x1="707" y1="768" x2="557" y2="768"/>
<rect x="707" y="626" width="58" height="142" style="fill: white"/>
<line x1="707" y1="626" x2="765" y2="626"/>
<line x1="707" y1="768" x2="707" y2="626"/>
<line x1="765" y1="768" x2="765" y2="626"/>
<line x1="765" y1="768" x2="707" y2="768"/>
<rect x="765" y="626" width="68" height="142" style="fill: white"/>
<line x1="765" y1="626" x2="833" y2="626"/>
<line x1="765" y1="768" x2="765" y2="626"/>
<line x1="833" y1="768" x2="833" y2="626"/>
<line x1="833" y1="768" x2="765" y2="768"/>
<rect x="833" y="626" width="100" height="56" style="fill: red"/>
<line x1="833" y1="626" x2="933" y2="626"/>
<line x1="833" y1="682" x2="833" y2="626"/>
<line x1="933" y1="682" x2="933" y2="626"/>
<line x1="933" y1="682" x2="833" y2="682"/>
<rect x="933" y="626" width="91" height="56" style="fill: white"/>
<line x1="933" y1="626" x2="1024" y2="626"/>
<line x1="933" y1="682" x2="933" y2="626"/>
<line x1="1024" y1="682" x2="1024" y2="626"/>
<line x1="1024" y1="682" x2="933" y2="682"/>
<rect x="833" y="682" width="100" height="86" style="fill: white"/>
<line x1="833" y1="682" x2="933" y2="682"/>
<line x1="833" y1="768" x2="833" y2="682"/>
<line x1="933" y1="768" x2="933" y2="682"/>
<line x1="933" y1="768" x2="833" y2="768"/>
<rect x="933" y="682" width="91" height="86" style="fill: yellow"/>
<line x1="933" y1="682" x2="1024" y2="682"/>
<line x1="933" y1="768" x2="933" y2="682"/>
<line x1="1024" y1="768" x2="1024" y2="682"/>
<line x1="1024" y1="768" x2="933" y2="768"/>
</svg>