<?xml version="1.0" encoding="utf-8"?>
<svg xmlns="http://www.w3.org/2000/svg"
 xmlns:xlink="http://www.w3.org/1999/xlink" width="1024" height="768" >
<defs>
    <style type="text/css"><![CDATA[
        line {
        stroke: #000;
        stroke-width: 5px;
        }
    ]]></style></defs>
<rect x="0" y="0" width="367" height="140" style="fill: white"/>
<line x1="0" y1="0" x2="367" y2="0"/>
<line x1="0" y1="140" x2="0" y2="0"/>
<line x1="367" y1="140" x2="367" y2="0"/>
<line x1="367" y1="140" x2="0" y2="140"/>
<rect x="0" y="140" width="118" height="84" style="fill: yellow"/>
<line x1="0" y1="140" x2="118" y2="140"/>
<line x1="0" y1="224" x2="0" y2="140"/>
<line x1="118" y1="224" x2="118" y2="140"/>
<line x1="118" y1="224" x2="0" y2="224"/>
<rect x="118" y="140" width="102" height="84" style="fill: blue"/>
<line x1="118" y1="140" x2="220" y2="140"/>
<line x1="118" y1="224" x2="118" y2="140"/>
<line x1="220" y1="224" x2="220" y2="140"/>
<line x1="220" y1="224" x2="118" y2="224"/>
<rect x="0" y="224" width="118" height="53" style="fill: white"/>
<line x1="0" y1="224" x2="118" y2="224"/>
<line x1="0" y1="277" x2="0" y2="224"/>
<line x1="118" y1="277" x2="118" y2="224"/>
<line x1="118" y1="277" x2="0" y2="277"/>
<rect x="118" y="224" width="102" height="53" style="fill: red"/>
<line x1="118" y1="224" x2="220" y2="224"/>
<line x1="118" y1="277" x2="118" y2="224"/>
<line x1="220" y1="277" x2="220" y2="224"/>
<line x1="220" y1="277" x2="118" y2="277"/>
<rect x="220" y="140" width="147" height="137" style="fill: white"/>
<line x1="220" y1="140" x2="367" y2="140"/>
<line x1="220" y1="277" x2="220" y2="140"/>
<line x1="367" y1="277" x2="367" y2="140"/>
<line x1="367" y1="277" x2="220" y2="277"/>
<rect x="0" y="277" width="220" height="124" style="fill: yellow"/>
<line x1="0" y1="277" x2="220" y2="277"/>
<line x1="0" y1="401" x2="0" y2="277"/>
<line x1="220" y1="401" x2="220" y2="277"/>
<line x1="220" y1="401" x2="0" y2="401"/>
<rect x="220" y="277" width="147" height="124" style="fill: blue"/>
<line x1="220" y1="277" x2="367" y2="277"/>
<line x1="220" y1="401" x2="220" y2="277"/>
<line x1="367" y1="401" x2="367" y2="277"/>
<line x1="367" y1="401" x2="220" y2="401"/>
<rect x="367" y="0" width="86" height="67" style="fill: white"/>
<line x1="367" y1="0" x2="453" y2="0"/>
<line x1="367" y1="67" x2="367" y2="0"/>
<line x1="453" y1="67" x2="453" y2="0"/>
<line x1="453" y1="67" x2="367" y2="67"/>
<rect x="453" y="0" width="84" height="67" style="fill: red"/>
<line x1="453" y1="0" x2="537" y2="0"/>
<line x1="453" y1="67" x2="453" y2="0"/>
<line x1="537" y1="67" x2="537" y2="0"/>
<line x1="537" y1="67" x2="453" y2="67"/>
<rect x="537" y="0" width="92" height="67" style="fill: white"/>
<line x1="537" y1="0" x2="629" y2="0"/>
<line x1="537" y1="67" x2="537" y2="0"/>
<line x1="629" y1="67" x2="629" y2="0"/>
<line x1="629" y1="67" x2="537" y2="67"/>
<rect x="367" y="67" width="170" height="71" style="fill: yellow"/>
<line x1="367" y1="67" x2="537" y2="67"/>
<line x1="367" y1="138" x2="367" y2="67"/>
<line x1="537" y1="138" x2="537" y2="67"/>
<line x1="537" y1="138" x2="367" y2="138"/>
<rect x="537" y="67" width="92" height="71" style="fill: blue"/>
<line x1="537" y1="67" x2="629" y2="67"/>
<line x1="537" y1="138" x2="537" y2="67"/>
<line x1="629" y1="138" x2="629" y2="67"/>
<line x1="629" y1="138" x2="537" y2="138"/>
<rect x="629" y="0" width="174" height="64" style="fill: white"/>
<line x1="629" y1="0" x2="803" y2="0"/>
<line x1="629" y1="64" x2="629" y2="0"/>
<line x1="803" y1="64" x2="803" y2="0"/>
<line x1="803" y1="64" x2="629" y2="64"/>
<rect x="803" y="0" width="111" height="64" style="fill: red"/>
<line x1="803" y1="0" x2="914" y2="0"/>
<line x1="803" y1="64" x2="803" y2="0"/>
<line x1="914" y1="64" x2="914" y2="0"/>
<line x1="914" y1="64" x2="803" y2="64"/>
<rect x="914" y="0" width="110" height="64" style="fill: white"/>
<line x1="914" y1="0" x2="1024" y2="0"/>
<line x1="914" y1="64" x2="914" y2="0"/>
<line x1="1024" y1="64" x2="1024" y2="0"/>
<line x1="1024" y1="64" x2="914" y2="64"/>
<rect x="629" y="64" width="174" height="74" style="fill: yellow"/>
<line x1="629" y1="64" x2="803" y2="64"/>
<line x1="629" y1="138" x2="629" y2="64"/>
<line x1="803" y1="138" x2="803" y2="64"/>
<line x1="803" y1="138" x2="629" y2="138"/>
<rect x="803" y="64" width="221" height="74" style="fill: blue"/>
<line x1="803" y1="64" x2="1024" y2="64"/>
<line x1="803" y1="138" x2="803" y2="64"/>
<line x1="1024" y1="138" x2="1024" y2="64"/>
<line x1="1024" y1="138" x2="803" y2="138"/>
<rect x="367" y="138" width="99" height="263" style="fill: white"/>
<line x1="367" y1="138" x2="466" y2="138"/>
<line x1="367" y1="401" x2="367" y2="138"/>
<line x1="466" y1="401" x2="466" y2="138"/>
<line x1="466" y1="401" x2="367" y2="401"/>
<rect x="466" y="138" width="96" height="88" style="fill: red"/>
<line x1="466" y1="138" x2="562" y2="138"/>
<line x1="466" y1="226" x2="466" y2="138"/>
<line x1="562" y1="226" x2="562" y2="138"/>
<line x1="562" y1="226" x2="466" y2="226"/>
<rect x="466" y="226" width="96" height="63" style="fill: white"/>
<line x1="466" y1="226" x2="562" y2="226"/>
<line x1="466" y1="289" x2="466" y2="226"/>
<line x1="562" y1="289" x2="562" y2="226"/>
<line x1="562" y1="289" x2="466" y2="289"/>
<rect x="562" y="138" width="67" height="34" style="fill: yellow"/>
<line x1="562" y1="138" x2="629" y2="138"/>
<line x1="562" y1="172" x2="562" y2="138"/>
<line x1="629" y1="172" x2="629" y2="138"/>
<line x1="629" y1="172" x2="562" y2="172"/>
<rect x="562" y="172" width="67" height="65" style="fill: blue"/>
<line x1="562" y1="172" x2="629" y2="172"/>
<line x1="562" y1="237" x2="562" y2="172"/>
<line x1="629" y1="237" x2="629" y2="172"/>
<line x1="629" y1="237" x2="562" y2="237"/>
<rect x="562" y="237" width="67" height="52" style="fill: white"/>
<line x1="562" y1="237" x2="629" y2="237"/>
<line x1="562" y1="289" x2="562" y2="237"/>
<line x1="629" y1="289" x2="629" y2="237"/>
<line x1="629" y1="289" x2="562" y2="289"/>
<rect x="466" y="289" width="96" height="62" style="fill: red"/>
<line x1="466" y1="289" x2="562" y2="289"/>
<line x1="466" y1="351" x2="466" y2="289"/>
<line x1="562" y1="351" x2="562" y2="289"/>
<line x1="562" y1="351" x2="466" y2="351"/>
<rect x="466" y="351" width="96" height="50" style="fill: white"/>
<line x1="466" y1="351" x2="562" y2="351"/>
<line x1="466" y1="401" x2="466" y2="351"/>
<line x1="562" y1="401" x2="562" y2="351"/>
<line x1="562" y1="401" x2="466" y2="401"/>
<rect x="562" y="289" width="67" height="58" style="fill: yellow"/>
<line x1="562" y1="289" x2="629" y2="289"/>
<line x1="562" y1="347" x2="562" y2="289"/>
<line x1="629" y1="347" x2="629" y2="289"/>
<line x1="629" y1="347" x2="562" y2="347"/>
<rect x="562" y="347" width="67" height="54" style="fill: blue"/>
<line x1="562" y1="347" x2="629" y2="347"/>
<line x1="562" y1="401" x2="562" y2="347"/>
<line x1="629" y1="401" x2="629" y2="347"/>
<line x1="629" y1="401" x2="562" y2="401"/>
<rect x="629" y="138" width="135" height="72" style="fill: white"/>
<line x1="629" y1="138" x2="764" y2="138"/>
<line x1="629" y1="210" x2="629" y2="138"/>
<line x1="764" y1="210" x2="764" y2="138"/>
<line x1="764" y1="210" x2="629" y2="210"/>
<rect x="764" y="138" width="108" height="72" style="fill: red"/>
<line x1="764" y1="138" x2="872" y2="138"/>
<line x1="764" y1="210" x2="764" y2="138"/>
<line x1="872" y1="210" x2="872" y2="138"/>
<line x1="872" y1="210" x2="764" y2="210"/>
<rect x="629" y="210" width="50" height="54" style="fill: white"/>
<line x1="629" y1="210" x2="679" y2="210"/>
<line x1="629" y1="264" x2="629" y2="210"/>
<line x1="679" y1="264" x2="679" y2="210"/>
<line x1="679" y1="264" x2="629" y2="264"/>
<rect x="679" y="210" width="85" height="54" style="fill: yellow"/>
<line x1="679" y1="210" x2="764" y2="210"/>
<line x1="679" y1="264" x2="679" y2="210"/>
<line x1="764" y1="264" x2="764" y2="210"/>
<line x1="764" y1="264" x2="679" y2="264"/>
<rect x="764" y="210" width="58" height="54" style="fill: blue"/>
<line x1="764" y1="210" x2="822" y2="210"/>
<line x1="764" y1="264" x2="764" y2="210"/>
<line x1="822" y1="264" x2="822" y2="210"/>
<line x1="822" y1="264" x2="764" y2="264"/>
<rect x="822" y="210" width="50" height="54" style="fill: white"/>
<line x1="822" y1="210" x2="872" y2="210"/>
<line x1="822" y1="264" x2="822" y2="210"/>
<line x1="872" y1="264" x2="872" y2="210"/>
<line x1="872" y1="264" x2="822" y2="264"/>
<rect x="872" y="138" width="152" height="126" style="fill: red"/>
<line x1="872" y1="138" x2="1024" y2="138"/>
<line x1="872" y1="264" x2="872" y2="138"/>
<line x1="1024" y1="264" x2="1024" y2="138"/>
<line x1="1024" y1="264" x2="872" y2="264"/>
<rect x="629" y="264" width="243" height="137" style="fill: white"/>
<line x1="629" y1="264" x2="872" y2="264"/>
<line x1="629" y1="401" x2="629" y2="264"/>
<line x1="872" y1="401" x2="872" y2="264"/>
<line x1="872" y1="401" x2="629" y2="401"/>
<rect x="872" y="264" width="77" height="52" style="fill: yellow"/>
<line x1="872" y1="264" x2="949" y2="264"/>
<line x1="872" y1="316" x2="872" y2="264"/>
<line x1="949" y1="316" x2="949" y2="264"/>
<line x1="949" y1="316" x2="872" y2="316"/>
<rect x="872" y="316" width="77" height="85" style="fill: blue"/>
<line x1="872" y1="316" x2="949" y2="316"/>
<line x1="872" y1="401" x2="872" y2="316"/>
<line x1="949" y1="401" x2="949" y2="316"/>
<line x1="949" y1="401" x2="872" y2="401"/>
<rect x="949" y="264" width="75" height="137" style="fill: white"/>
<line x1="949" y1="264" x2="1024" y2="264"/>
<line x1="949" y1="401" x2="949" y2="264"/>
<line x1="1024" y1="401" x2="1024" y2="264"/>
<line x1="1024" y1="401" x2="949" y2="401"/>
<rect x="0" y="401" width="185" height="61" style="fill: red"/>
<line x1="0" y1="401" x2="185" y2="401"/>
<line x1="0" y1="462" x2="0" y2="401"/>
<line x1="185" y1="462" x2="185" y2="401"/>
<line x1="185" y1="462" x2="0" y2="462"/>
<rect x="185" y="401" width="98" height="61" style="fill: white"/>
<line x1="185" y1="401" x2="283" y2="401"/>
<line x1="185" y1="462" x2="185" y2="401"/>
<line x1="283" y1="462" x2="283" y2="401"/>
<line x1="283" y1="462" x2="185" y2="462"/>
<rect x="283" y="401" width="84" height="61" style="fill: yellow"/>
<line x1="283" y1="401" x2="367" y2="401"/>
<line x1="283" y1="462" x2="283" y2="401"/>
<line x1="367" y1="462" x2="367" y2="401"/>
<line x1="367" y1="462" x2="283" y2="462"/>
<rect x="0" y="462" width="43" height="68" style="fill: blue"/>
<line x1="0" y1="462" x2="43" y2="462"/>
<line x1="0" y1="530" x2="0" y2="462"/>
<line x1="43" y1="530" x2="43" y2="462"/>
<line x1="43" y1="530" x2="0" y2="530"/>
<rect x="43" y="462" width="79" height="68" style="fill: white"/>
<line x1="43" y1="462" x2="122" y2="462"/>
<line x1="43" y1="530" x2="43" y2="462"/>
<line x1="122" y1="530" x2="122" y2="462"/>
<line x1="122" y1="530" x2="43" y2="530"/>
<rect x="122" y="462" width="63" height="68" style="fill: red"/>
<line x1="122" y1="462" x2="185" y2="462"/>
<line x1="122" y1="530" x2="122" y2="462"/>
<line x1="185" y1="530" x2="185" y2="462"/>
<line x1="185" y1="530" x2="122" y2="530"/>
<rect x="185" y="462" width="69" height="68" style="fill: white"/>
<line x1="185" y1="462" x2="254" y2="462"/>
<line x1="185" y1="530" x2="185" y2="462"/>
<line x1="254" y1="530" x2="254" y2="462"/>
<line x1="254" y1="530" x2="185" y2="530"/>
<rect x="254" y="462" width="113" height="68" style="fill: yellow"/>
<line x1="254" y1="462" x2="367" y2="462"/>
<line x1="254" y1="530" x2="254" y2="462"/>
<line x1="367" y1="530" x2="367" y2="462"/>
<line x1="367" y1="530" x2="254" y2="530"/>
<rect x="0" y="530" width="367" height="238" style="fill: blue"/>
<line x1="0" y1="530" x2="367" y2="530"/>
<line x1="0" y1="768" x2="0" y2="530"/>
<line x1="367" y1="768" x2="367" y2="530"/>
<line x1="367" y1="768" x2="0" y2="768"/>
<rect x="367" y="401" width="40" height="117" style="fill: white"/>
<line x1="367" y1="401" x2="407" y2="401"/>
<line x1="367" y1="518" x2="367" y2="401"/>
<line x1="407" y1="518" x2="407" y2="401"/>
<line x1="407" y1="518" x2="367" y2="518"/>
<rect x="407" y="401" width="62" height="117" style="fill: red"/>
<line x1="407" y1="401" x2="469" y2="401"/>
<line x1="407" y1="518" x2="407" y2="401"/>
<line x1="469" y1="518" x2="469" y2="401"/>
<line x1="469" y1="518" x2="407" y2="518"/>
<rect x="469" y="401" width="69" height="44" style="fill: white"/>
<line x1="469" y1="401" x2="538" y2="401"/>
<line x1="469" y1="445" x2="469" y2="401"/>
<line x1="538" y1="445" x2="538" y2="401"/>
<line x1="538" y1="445" x2="469" y2="445"/>
<rect x="469" y="445" width="69" height="73" style="fill: yellow"/>
<line x1="469" y1="445" x2="538" y2="445"/>
<line x1="469" y1="518" x2="469" y2="445"/>
<line x1="538" y1="518" x2="538" y2="445"/>
<line x1="538" y1="518" x2="469" y2="518"/>
<rect x="367" y="518" width="63" height="42" style="fill: blue"/>
<line x1="367" y1="518" x2="430" y2="518"/>
<line x1="367" y1="560" x2="367" y2="518"/>
<line x1="430" y1="560" x2="430" y2="518"/>
<line x1="430" y1="560" x2="367" y2="560"/>
<rect x="430" y="518" width="108" height="42" style="fill: white"/>
<line x1="430" y1="518" x2="538" y2="518"/>
<line x1="430" y1="560" x2="430" y2="518"/>
<line x1="538" y1="560" x2="538" y2="518"/>
<line x1="538" y1="560" x2="430" y2="560"/>
<rect x="367" y="560" width="63" height="62" style="fill: red"/>
<line x1="367" y1="560" x2="430" y2="560"/>
<line x1="367" y1="622" x2="367" y2="560"/>
<line x1="430" y1="622" x2="430" y2="560"/>
<line x1="430" y1="622" x2="367" y2="622"/>
<rect x="430" y="560" width="108" height="62" style="fill: white"/>
<line x1="430" y1="560" x2="538" y2="560"/>
<line x1="430" y1="622" x2="430" y2="560"/>
<line x1="538" y1="622" x2="538" y2="560"/>
<line x1="538" y1="622" x2="430" y2="622"/>
<rect x="538" y="401" width="59" height="143" style="fill: yellow"/>
<line x1="538" y1="401" x2="597" y2="401"/>
<line x1="538" y1="544" x2="538" y2="401"/>
<line x1="597" y1="544" x2="597" y2="401"/>
<line x1="597" y1="544" x2="538" y2="544"/>
<rect x="597" y="401" width="64" height="49" style="fill: blue"/>
<line x1="597" y1="401" x2="661" y2="401"/>
<line x1="597" y1="450" x2="597" y2="401"/>
<line x1="661" y1="450" x2="661" y2="401"/>
<line x1="661" y1="450" x2="597" y2="450"/>
<rect x="597" y="450" width="64" height="34" style="fill: white"/>
<line x1="597" y1="450" x2="661" y2="450"/>
<line x1="597" y1="484" x2="597" y2="450"/>
<line x1="661" y1="484" x2="661" y2="450"/>
<line x1="661" y1="484" x2="597" y2="484"/>
<rect x="597" y="484" width="64" height="60" style="fill: red"/>
<line x1="597" y1="484" x2="661" y2="484"/>
<line x1="597" y1="544" x2="597" y2="484"/>
<line x1="661" y1="544" x2="661" y2="484"/>
<line x1="661" y1="544" x2="597" y2="544"/>
<rect x="538" y="544" width="59" height="78" style="fill: white"/>
<line x1="538" y1="544" x2="597" y2="544"/>
<line x1="538" y1="622" x2="538" y2="544"/>
<line x1="597" y1="622" x2="597" y2="544"/>
<line x1="597" y1="622" x2="538" y2="622"/>
<rect x="597" y="544" width="64" height="78" style="fill: yellow"/>
<line x1="597" y1="544" x2="661" y2="544"/>
<line x1="597" y1="622" x2="597" y2="544"/>
<line x1="661" y1="622" x2="661" y2="544"/>
<line x1="661" y1="622" x2="597" y2="622"/>
<rect x="367" y="622" width="48" height="146" style="fill: blue"/>
<line x1="367" y1="622" x2="415" y2="622"/>
<line x1="367" y1="768" x2="367" y2="622"/>
<line x1="415" y1="768" x2="415" y2="622"/>
<line x1="415" y1="768" x2="367" y2="768"/>
<rect x="415" y="622" width="52" height="53" style="fill: white"/>
<line x1="415" y1="622" x2="467" y2="622"/>
<line x1="415" y1="675" x2="415" y2="622"/>
<line x1="467" y1="675" x2="467" y2="622"/>
<line x1="467" y1="675" x2="415" y2="675"/>
<rect x="415" y="675" width="52" height="93" style="fill: red"/>
<line x1="415" y1="675" x2="467" y2="675"/>
<line x1="415" y1="768" x2="415" y2="675"/>
<line x1="467" y1="768" x2="467" y2="675"/>
<line x1="467" y1="768" x2="415" y2="768"/>
<rect x="467" y="622" width="71" height="146" style="fill: white"/>
<line x1="467" y1="622" x2="538" y2="622"/>
<line x1="467" y1="768" x2="467" y2="622"/>
<line x1="538" y1="768" x2="538" y2="622"/>
<line x1="538" y1="768" x2="467" y2="768"/>
<rect x="538" y="622" width="123" height="146" style="fill: yellow"/>
<line x1="538" y1="622" x2="661" y2="622"/>
<line x1="538" y1="768" x2="538" y2="622"/>
<line x1="661" y1="768" x2="661" y2="622"/>
<line x1="661" y1="768" x2="538" y2="768"/>
<rect x="661" y="401" width="363" height="367" style="fill: blue"/>
<line x1="661" y1="401" x2="1024" y2="401"/>
<line x1="661" y1="768" x2="661" y2="401"/>
<line x1="1024" y1="768" x2="1024" y2="401"/>
<line x1="1024" y1="768" x2="661" y2="768"/>
</svg>