<?xml version="1.0" encoding="utf-8"?>
<svg xmlns="http://www.w3.org/2000/svg"
 xmlns:xlink="http://www.w3.org/1999/xlink" width="1024" height="768" >
<defs>
    <style type="text/css"><![CDATA[
        line {
        stroke: #000;
        stroke-width: 5px;
        }
    ]]></style></defs>
<rect x="0" y="0" width="415" height="263" style="fill: skyblue"/>
<line x1="0" y1="0" x2="415" y2="0"/>
<line x1="0" y1="263" x2="0" y2="0"/>
<line x1="415" y1="263" x2="415" y2="0"/>
<line x1="415" y1="263" x2="0" y2="263"/>
<rect x="0" y="263" width="415" height="200" style="fill: black"/>
<line x1="0" y1="263" x2="415" y2="263"/>
<line x1="0" y1="463" x2="0" y2="263"/>
<line x1="415" y1="463" x2="415" y2="263"/>
<line x1="415" y1="463" x2="0" y2="463"/>
<rect x="415" y="0" width="359" height="84" style="fill: white"/>
<line x1="415" y1="0" x2="774" y2="0"/>
<line x1="415" y1="84" x2="415" y2="0"/>
<line x1="774" y1="84" x2="774" y2="0"/>
<line x1="774" y1="84" x2="415" y2="84"/>
<rect x="415" y="84" width="359" height="74" style="fill: white"/>
<line x1="415" y1="84" x2="774" y2="84"/>
<line x1="415" y1="158" x2="415" y2="84"/>
<line x1="774" y1="158" x2="774" y2="84"/>
<line x1="774" y1="158" x2="415" y2="158"/>
<rect x="774" y="0" width="163" height="56" style="fill: white"/>
<line x1="774" y1="0" x2="937" y2="0"/>
<line x1="774" y1="56" x2="774" y2="0"/>
<line x1="937" y1="56" x2="937" y2="0"/>
<line x1="937" y1="56" x2="774" y2="56"/>
<rect x="937" y="0" width="87" height="56" style="fill: white"/>
<line x1="937" y1="0" x2="1024" y2="0"/>
<line x1="937" y1="56" x2="937" y2="0"/>
<line x1="1024" y1="56" x2="1024" y2="0"/>
<line x1="1024" y1="56" x2="937" y2="56"/>
<rect x="774" y="56" width="95" height="63" style="fill: skyblue"/>
<line x1="774" y1="56" x2="869" y2="56"/>
<line x1="774" y1="119" x2="774" y2="56"/>
<line x1="869" y1="119" x2="869" y2="56"/>
<line x1="869" y1="119" x2="774" y2="119"/>
<rect x="869" y="56" width="68" height="63" style="fill: skyblue"/>
<line x1="869" y1="56" x2="937" y2="56"/>
<line x1="869" y1="119" x2="869" y2="56"/>
<line x1="937" y1="119" x2="937" y2="56"/>
<line x1="937" y1="119" x2="869" y2="119"/>
<rect x="774" y="119" width="95" height="39" style="fill: black"/>
<line x1="774" y1="119" x2="869" y2="119"/>
<line x1="774" y1="158" x2="774" y2="119"/>
<line x1="869" y1="158" x2="869" y2="119"/>
<line x1="869" y1="158" x2="774" y2="158"/>
<rect x="869" y="119" width="68" height="39" style="fill: white"/>
<line x1="869" y1="119" x2="937" y2="119"/>
<line x1="869" y1="158" x2="869" y2="119"/>
<line x1="937" y1="158" x2="937" y2="119"/>
<line x1="937" y1="158" x2="869" y2="158"/>
<rect x="937" y="56" width="87" height="102" style="fill: white"/>
<line x1="937" y1="56" x2="1024" y2="56"/>
<line x1="937" y1="158" x2="937" y2="56"/>
<line x1="1024" y1="158" x2="1024" y2="56"/>
<line x1="1024" y1="158" x2="937" y2="158"/>
<rect x="415" y="158" width="125" height="156" style="fill: skyblue"/>
<line x1="415" y1="158" x2="540" y2="158"/>
<line x1="415" y1="314" x2="415" y2="158"/>
<line x1="540" y1="314" x2="540" y2="158"/>
<line x1="540" y1="314" x2="415" y2="314"/>
<rect x="540" y="158" width="95" height="156" style="fill: white"/>
<line x1="540" y1="158" x2="635" y2="158"/>
<line x1="540" y1="314" x2="540" y2="158"/>
<line x1="635" y1="314" x2="635" y2="158"/>
<line x1="635" y1="314" x2="540" y2="314"/>
<rect x="635" y="158" width="56" height="61" style="fill: red"/>
<line x1="635" y1="158" x2="691" y2="158"/>
<line x1="635" y1="219" x2="635" y2="158"/>
<line x1="691" y1="219" x2="691" y2="158"/>
<line x1="691" y1="219" x2="635" y2="219"/>
<rect x="691" y="158" width="83" height="61" style="fill: yellow"/>
<line x1="691" y1="158" x2="774" y2="158"/>
<line x1="691" y1="219" x2="691" y2="158"/>
<line x1="774" y1="219" x2="774" y2="158"/>
<line x1="774" y1="219" x2="691" y2="219"/>
<rect x="635" y="219" width="56" height="95" style="fill: white"/>
<line x1="635" y1="219" x2="691" y2="219"/>
<line x1="635" y1="314" x2="635" y2="219"/>
<line x1="691" y1="314" x2="691" y2="219"/>
<line x1="691" y1="314" x2="635" y2="314"/>
<rect x="691" y="219" width="83" height="95" style="fill: white"/>
<line x1="691" y1="219" x2="774" y2="219"/>
<line x1="691" y1="314" x2="691" y2="219"/>
<line x1="774" y1="314" x2="774" y2="219"/>
<line x1="774" y1="314" x2="691" y2="314"/>
<rect x="415" y="314" width="55" height="86" style="fill: yellow"/>
<line x1="415" y1="314" x2="470" y2="314"/>
<line x1="415" y1="400" x2="415" y2="314"/>
<line x1="470" y1="400" x2="470" y2="314"/>
<line x1="470" y1="400" x2="415" y2="400"/>
<rect x="415" y="400" width="55" height="63" style="fill: white"/>
<line x1="415" y1="400" x2="470" y2="400"/>
<line x1="415" y1="463" x2="415" y2="400"/>
<line x1="470" y1="463" x2="470" y2="400"/>
<line x1="470" y1="463" x2="415" y2="463"/>
<rect x="470" y="314" width="70" height="149" style="fill: white"/>
<line x1="470" y1="314" x2="540" y2="314"/>
<line x1="470" y1="463" x2="470" y2="314"/>
<line x1="540" y1="463" x2="540" y2="314"/>
<line x1="540" y1="463" x2="470" y2="463"/>
<rect x="540" y="314" width="234" height="149" style="fill: yellow"/>
<line x1="540" y1="314" x2="774" y2="314"/>
<line x1="540" y1="463" x2="540" y2="314"/>
<line x1="774" y1="463" x2="774" y2="314"/>
<line x1="774" y1="463" x2="540" y2="463"/>
<rect x="774" y="158" width="113" height="103" style="fill: white"/>
<line x1="774" y1="158" x2="887" y2="158"/>
<line x1="774" y1="261" x2="774" y2="158"/>
<line x1="887" y1="261" x2="887" y2="158"/>
<line x1="887" y1="261" x2="774" y2="261"/>
<rect x="774" y="261" width="113" height="86" style="fill: white"/>
<line x1="774" y1="261" x2="887" y2="261"/>
<line x1="774" y1="347" x2="774" y2="261"/>
<line x1="887" y1="347" x2="887" y2="261"/>
<line x1="887" y1="347" x2="774" y2="347"/>
<rect x="887" y="158" width="79" height="189" style="fill: yellow"/>
<line x1="887" y1="158" x2="966" y2="158"/>
<line x1="887" y1="347" x2="887" y2="158"/>
<line x1="966" y1="347" x2="966" y2="158"/>
<line x1="966" y1="347" x2="887" y2="347"/>
<rect x="966" y="158" width="58" height="189" style="fill: white"/>
<line x1="966" y1="158" x2="1024" y2="158"/>
<line x1="966" y1="347" x2="966" y2="158"/>
<line x1="1024" y1="347" x2="1024" y2="158"/>
<line x1="1024" y1="347" x2="966" y2="347"/>
<rect x="774" y="347" width="113" height="116" style="fill: skyblue"/>
<line x1="774" y1="347" x2="887" y2="347"/>
<line x1="774" y1="463" x2="774" y2="347"/>
<line x1="887" y1="463" x2="887" y2="347"/>
<line x1="887" y1="463" x2="774" y2="463"/>
<rect x="887" y="347" width="92" height="43" style="fill: white"/>
<line x1="887" y1="347" x2="979" y2="347"/>
<line x1="887" y1="390" x2="887" y2="347"/>
<line x1="979" y1="390" x2="979" y2="347"/>
<line x1="979" y1="390" x2="887" y2="390"/>
<rect x="887" y="390" width="92" height="73" style="fill: black"/>
<line x1="887" y1="390" x2="979" y2="390"/>
<line x1="887" y1="463" x2="887" y2="390"/>
<line x1="979" y1="463" x2="979" y2="390"/>
<line x1="979" y1="463" x2="887" y2="463"/>
<rect x="979" y="347" width="45" height="116" style="fill: white"/>
<line x1="979" y1="347" x2="1024" y2="347"/>
<line x1="979" y1="463" x2="979" y2="347"/>
<line x1="1024" y1="463" x2="1024" y2="347"/>
<line x1="1024" y1="463" x2="979" y2="463"/>
<rect x="0" y="463" width="141" height="118" style="fill: white"/>
<line x1="0" y1="463" x2="141" y2="463"/>
<line x1="0" y1="581" x2="0" y2="463"/>
<line x1="141" y1="581" x2="141" y2="463"/>
<line x1="141" y1="581" x2="0" y2="581"/>
<rect x="141" y="463" width="75" height="76" style="fill: white"/>
<line x1="141" y1="463" x2="216" y2="463"/>
<line x1="141" y1="539" x2="141" y2="463"/>
<line x1="216" y1="539" x2="216" y2="463"/>
<line x1="216" y1="539" x2="141" y2="539"/>
<rect x="141" y="539" width="75" height="42" style="fill: white"/>
<line x1="141" y1="539" x2="216" y2="539"/>
<line x1="141" y1="581" x2="141" y2="539"/>
<line x1="216" y1="581" x2="216" y2="539"/>
<line x1="216" y1="581" x2="141" y2="581"/>
<rect x="216" y="463" width="40" height="71" style="fill: white"/>
<line x1="216" y1="463" x2="256" y2="463"/>
<line x1="216" y1="534" x2="216" y2="463"/>
<line x1="256" y1="534" x2="256" y2="463"/>
<line x1="256" y1="534" x2="216" y2="534"/>
<rect x="256" y="463" width="74" height="71" style="fill: red"/>
<line x1="256" y1="463" x2="330" y2="463"/>
<line x1="256" y1="534" x2="256" y2="463"/>
<line x1="330" y1="534" x2="330" y2="463"/>
<line x1="330" y1="534" x2="256" y2="534"/>
<rect x="330" y="463" width="85" height="71" style="fill: white"/>
<line x1="330" y1="463" x2="415" y2="463"/>
<line x1="330" y1="534" x2="330" y2="463"/>
<line x1="415" y1="534" x2="415" y2="463"/>
<line x1="415" y1="534" x2="330" y2="534"/>
<rect x="216" y="534" width="130" height="47" style="fill: white"/>
<line x1="216" y1="534" x2="346" y2="534"/>
<line x1="216" y1="581" x2="216" y2="534"/>
<line x1="346" y1="581" x2="346" y2="534"/>
<line x1="346" y1="581" x2="216" y2="581"/>
<rect x="346" y="534" width="69" height="47" style="fill: white"/>
<line x1="346" y1="534" x2="415" y2="534"/>
<line x1="346" y1="581" x2="346" y2="534"/>
<line x1="415" y1="581" x2="415" y2="534"/>
<line x1="415" y1="581" x2="346" y2="581"/>
<rect x="0" y="581" width="72" height="46" style="fill: skyblue"/>
<line x1="0" y1="581" x2="72" y2="581"/>
<line x1="0" y1="627" x2="0" y2="581"/>
<line x1="72" y1="627" x2="72" y2="581"/>
<line x1="72" y1="627" x2="0" y2="627"/>
<rect x="72" y="581" width="88" height="46" style="fill: white"/>
<line x1="72" y1="581" x2="160" y2="581"/>
<line x1="72" y1="627" x2="72" y2="581"/>
<line x1="160" y1="627" x2="160" y2="581"/>
<line x1="160" y1="627" x2="72" y2="627"/>
<rect x="0" y="627" width="86" height="75" style="fill: yellow"/>
<line x1="0" y1="627" x2="86" y2="627"/>
<line x1="0" y1="702" x2="0" y2="627"/>
<line x1="86" y1="702" x2="86" y2="627"/>
<line x1="86" y1="702" x2="0" y2="702"/>
<rect x="86" y="627" width="74" height="75" style="fill: black"/>
<line x1="86" y1="627" x2="160" y2="627"/>
<line x1="86" y1="702" x2="86" y2="627"/>
<line x1="160" y1="702" x2="160" y2="627"/>
<line x1="160" y1="702" x2="86" y2="702"/>
<rect x="160" y="581" width="132" height="121" style="fill: white"/>
<line x1="160" y1="581" x2="292" y2="581"/>
<line x1="160" y1="702" x2="160" y2="581"/>
<line x1="292" y1="702" x2="292" y2="581"/>
<line x1="292" y1="702" x2="160" y2="702"/>
<rect x="292" y="581" width="78" height="46" style="fill: yellow"/>
<line x1="292" y1="581" x2="370" y2="581"/>
<line x1="292" y1="627" x2="292" y2="581"/>
<line x1="370" y1="627" x2="370" y2="581"/>
<line x1="370" y1="627" x2="292" y2="627"/>
<rect x="370" y="581" width="45" height="46" style="fill: white"/>
<line x1="370" y1="581" x2="415" y2="581"/>
<line x1="370" y1="627" x2="370" y2="581"/>
<line x1="415" y1="627" x2="415" y2="581"/>
<line x1="415" y1="627" x2="370" y2="627"/>
<rect x="292" y="627" width="78" height="75" style="fill: white"/>
<line x1="292" y1="627" x2="370" y2="627"/>
<line x1="292" y1="702" x2="292" y2="627"/>
<line x1="370" y1="702" x2="370" y2="627"/>
<line x1="370" y1="702" x2="292" y2="702"/>
<rect x="370" y="627" width="45" height="75" style="fill: black"/>
<line x1="370" y1="627" x2="415" y2="627"/>
<line x1="370" y1="702" x2="370" y2="627"/>
<line x1="415" y1="702" x2="415" y2="627"/>
<line x1="415" y1="702" x2="370" y2="702"/>
<rect x="0" y="702" width="160" height="66" style="fill: white"/>
<line x1="0" y1="702" x2="160" y2="702"/>
<line x1="0" y1="768" x2="0" y2="702"/>
<line x1="160" y1="768" x2="160" y2="702"/>
<line x1="160" y1="768" x2="0" y2="768"/>
<rect x="160" y="702" width="140" height="66" style="fill: white"/>
<line x1="160" y1="702" x2="300" y2="702"/>
<line x1="160" y1="768" x2="160" y2="702"/>
<line x1="300" y1="768" x2="300" y2="702"/>
<line x1="300" y1="768" x2="160" y2="768"/>
<rect x="300" y="702" width="115" height="66" style="fill: black"/>
<line x1="300" y1="702" x2="415" y2="702"/>
<line x1="300" y1="768" x2="300" y2="702"/>
<line x1="415" y1="768" x2="415" y2="702"/>
<line x1="415" y1="768" x2="300" y2="768"/>
<rect x="415" y="463" width="331" height="305" style="fill: skyblue"/>
<line x1="415" y1="463" x2="746" y2="463"/>
<line x1="415" y1="768" x2="415" y2="463"/>
<line x1="746" y1="768" x2="746" y2="463"/>
<line x1="746" y1="768" x2="415" y2="768"/>
<rect x="746" y="463" width="278" height="305" style="fill: white"/>
<line x1="746" y1="463" x2="1024" y2="463"/>
<line x1="746" y1="768" x2="746" y2="463"/>
<line x1="1024" y1="768" x2="1024" y2="463"/>
<line x1="1024" y1="768" x2="746" y2="768"/>
</svg>