<?xml version="1.0" encoding="utf-8"?>
<svg xmlns="http://www.w3.org/2000/svg" width="1024" height="768">
<rect x="0" y="0" width="278" height="174" style="fill: skyblue;stroke-width:4;stroke:black"/>
<rect x="278" y="0" width="55" height="74" style="fill: red;stroke-width:4;stroke:black"/>
<rect x="333" y="0" width="35" height="74" style="fill: black;stroke-width:4;stroke:black"/>
<rect x="368" y="0" width="65" height="74" style="fill: white;stroke-width:4;stroke:black"/>
<rect x="278" y="74" width="155" height="100" style="fill: skyblue;stroke-width:4;stroke:black"/>
<rect x="0" y="174" width="278" height="101" style="fill: red;stroke-width:4;stroke:black"/>
<rect x="0" y="275" width="131" height="61" style="fill: white;stroke-width:4;stroke:black"/>
<rect x="131" y="275" width="147" height="61" style="fill: yellow;stroke-width:4;stroke:black"/>
<rect x="278" y="174" width="58" height="84" style="fill: black;stroke-width:4;stroke:black"/>
<rect x="336" y="174" width="52" height="84" style="fill: red;stroke-width:4;stroke:black"/>
<rect x="388" y="174" width="45" height="84" style="fill: white;stroke-width:4;stroke:black"/>
<rect x="278" y="258" width="58" height="78" style="fill: white;stroke-width:4;stroke:black"/>
<rect x="336" y="258" width="97" height="78" style="fill: white;stroke-width:4;stroke:black"/>
<rect x="433" y="0" width="75" height="198" style="fill: white;stroke-width:4;stroke:black"/>
<rect x="433" y="198" width="75" height="79" style="fill: white;stroke-width:4;stroke:black"/>
<rect x="433" y="277" width="75" height="59" style="fill: skyblue;stroke-width:4;stroke:black"/>
<rect x="508" y="0" width="72" height="118" style="fill: white;stroke-width:4;stroke:black"/>
<rect x="580" y="0" width="73" height="118" style="fill: red;stroke-width:4;stroke:black"/>
<rect x="508" y="118" width="66" height="70" style="fill: yellow;stroke-width:4;stroke:black"/>
<rect x="574" y="118" width="79" height="70" style="fill: black;stroke-width:4;stroke:black"/>
<rect x="508" y="188" width="145" height="148" style="fill: white;stroke-width:4;stroke:black"/>
<rect x="653" y="0" width="371" height="336" style="fill: white;stroke-width:4;stroke:black"/>
<rect x="0" y="336" width="433" height="238" style="fill: white;stroke-width:4;stroke:black"/>
<rect x="0" y="574" width="75" height="120" style="fill: white;stroke-width:4;stroke:black"/>
<rect x="75" y="574" width="76" height="67" style="fill: red;stroke-width:4;stroke:black"/>
<rect x="151" y="574" width="57" height="67" style="fill: red;stroke-width:4;stroke:black"/>
<rect x="75" y="641" width="76" height="53" style="fill: yellow;stroke-width:4;stroke:black"/>
<rect x="151" y="641" width="57" height="53" style="fill: skyblue;stroke-width:4;stroke:black"/>
<rect x="208" y="574" width="79" height="63" style="fill: white;stroke-width:4;stroke:black"/>
<rect x="287" y="574" width="96" height="63" style="fill: black;stroke-width:4;stroke:black"/>
<rect x="383" y="574" width="50" height="63" style="fill: white;stroke-width:4;stroke:black"/>
<rect x="208" y="637" width="79" height="57" style="fill: yellow;stroke-width:4;stroke:black"/>
<rect x="287" y="637" width="146" height="57" style="fill: red;stroke-width:4;stroke:black"/>
<rect x="0" y="694" width="159" height="74" style="fill: white;stroke-width:4;stroke:black"/>
<rect x="159" y="694" width="83" height="74" style="fill: yellow;stroke-width:4;stroke:black"/>
<rect x="242" y="694" width="85" height="74" style="fill: skyblue;stroke-width:4;stroke:black"/>
<rect x="327" y="694" width="106" height="74" style="fill: white;stroke-width:4;stroke:black"/>
<rect x="433" y="336" width="270" height="91" style="fill: red;stroke-width:4;stroke:black"/>
<rect x="433" y="427" width="270" height="80" style="fill: white;stroke-width:4;stroke:black"/>
<rect x="433" y="507" width="169" height="84" style="fill: yellow;stroke-width:4;stroke:black"/>
<rect x="602" y="507" width="101" height="84" style="fill: white;stroke-width:4;stroke:black"/>
<rect x="703" y="336" width="321" height="255" style="fill: white;stroke-width:4;stroke:black"/>
<rect x="433" y="591" width="101" height="45" style="fill: white;stroke-width:4;stroke:black"/>
<rect x="433" y="636" width="101" height="74" style="fill: black;stroke-width:4;stroke:black"/>
<rect x="534" y="591" width="108" height="119" style="fill: yellow;stroke-width:4;stroke:black"/>
<rect x="642" y="591" width="61" height="43" style="fill: white;stroke-width:4;stroke:black"/>
<rect x="642" y="634" width="61" height="76" style="fill: yellow;stroke-width:4;stroke:black"/>
<rect x="433" y="710" width="111" height="58" style="fill: white;stroke-width:4;stroke:black"/>
<rect x="544" y="710" width="159" height="58" style="fill: yellow;stroke-width:4;stroke:black"/>
<rect x="703" y="591" width="321" height="177" style="fill: skyblue;stroke-width:4;stroke:black"/>
</svg>