<?xml version="1.0" encoding="utf-8"?>
<svg xmlns="http://www.w3.org/2000/svg"
 xmlns:xlink="http://www.w3.org/1999/xlink" width="1024" height="768" >
<defs>
    <style type="text/css"><![CDATA[
        line {
        stroke: #000;
        stroke-width: 5px;
        }
    ]]></style></defs>
<rect x="0" y="0" width="109" height="77" style="fill: yellow"/>
<line x1="0" y1="0" x2="109" y2="0"/>
<line x1="0" y1="77" x2="0" y2="0"/>
<line x1="109" y1="77" x2="109" y2="0"/>
<line x1="109" y1="77" x2="0" y2="77"/>
<rect x="109" y="0" width="54" height="77" style="fill: white"/>
<line x1="109" y1="0" x2="163" y2="0"/>
<line x1="109" y1="77" x2="109" y2="0"/>
<line x1="163" y1="77" x2="163" y2="0"/>
<line x1="163" y1="77" x2="109" y2="77"/>
<rect x="0" y="77" width="84" height="71" style="fill: red"/>
<line x1="0" y1="77" x2="84" y2="77"/>
<line x1="0" y1="148" x2="0" y2="77"/>
<line x1="84" y1="148" x2="84" y2="77"/>
<line x1="84" y1="148" x2="0" y2="148"/>
<rect x="84" y="77" width="79" height="71" style="fill: white"/>
<line x1="84" y1="77" x2="163" y2="77"/>
<line x1="84" y1="148" x2="84" y2="77"/>
<line x1="163" y1="148" x2="163" y2="77"/>
<line x1="163" y1="148" x2="84" y2="148"/>
<rect x="163" y="0" width="211" height="55" style="fill: blue"/>
<line x1="163" y1="0" x2="374" y2="0"/>
<line x1="163" y1="55" x2="163" y2="0"/>
<line x1="374" y1="55" x2="374" y2="0"/>
<line x1="374" y1="55" x2="163" y2="55"/>
<rect x="163" y="55" width="88" height="39" style="fill: yellow"/>
<line x1="163" y1="55" x2="251" y2="55"/>
<line x1="163" y1="94" x2="163" y2="55"/>
<line x1="251" y1="94" x2="251" y2="55"/>
<line x1="251" y1="94" x2="163" y2="94"/>
<rect x="163" y="94" width="88" height="54" style="fill: white"/>
<line x1="163" y1="94" x2="251" y2="94"/>
<line x1="163" y1="148" x2="163" y2="94"/>
<line x1="251" y1="148" x2="251" y2="94"/>
<line x1="251" y1="148" x2="163" y2="148"/>
<rect x="251" y="55" width="74" height="93" style="fill: red"/>
<line x1="251" y1="55" x2="325" y2="55"/>
<line x1="251" y1="148" x2="251" y2="55"/>
<line x1="325" y1="148" x2="325" y2="55"/>
<line x1="325" y1="148" x2="251" y2="148"/>
<rect x="325" y="55" width="49" height="93" style="fill: white"/>
<line x1="325" y1="55" x2="374" y2="55"/>
<line x1="325" y1="148" x2="325" y2="55"/>
<line x1="374" y1="148" x2="374" y2="55"/>
<line x1="374" y1="148" x2="325" y2="148"/>
<rect x="0" y="148" width="92" height="64" style="fill: blue"/>
<line x1="0" y1="148" x2="92" y2="148"/>
<line x1="0" y1="212" x2="0" y2="148"/>
<line x1="92" y1="212" x2="92" y2="148"/>
<line x1="92" y1="212" x2="0" y2="212"/>
<rect x="92" y="148" width="71" height="64" style="fill: yellow"/>
<line x1="92" y1="148" x2="163" y2="148"/>
<line x1="92" y1="212" x2="92" y2="148"/>
<line x1="163" y1="212" x2="163" y2="148"/>
<line x1="163" y1="212" x2="92" y2="212"/>
<rect x="0" y="212" width="92" height="115" style="fill: white"/>
<line x1="0" y1="212" x2="92" y2="212"/>
<line x1="0" y1="327" x2="0" y2="212"/>
<line x1="92" y1="327" x2="92" y2="212"/>
<line x1="92" y1="327" x2="0" y2="327"/>
<rect x="92" y="212" width="71" height="115" style="fill: red"/>
<line x1="92" y1="212" x2="163" y2="212"/>
<line x1="92" y1="327" x2="92" y2="212"/>
<line x1="163" y1="327" x2="163" y2="212"/>
<line x1="163" y1="327" x2="92" y2="327"/>
<rect x="163" y="148" width="37" height="107" style="fill: white"/>
<line x1="163" y1="148" x2="200" y2="148"/>
<line x1="163" y1="255" x2="163" y2="148"/>
<line x1="200" y1="255" x2="200" y2="148"/>
<line x1="200" y1="255" x2="163" y2="255"/>
<rect x="200" y="148" width="66" height="107" style="fill: blue"/>
<line x1="200" y1="148" x2="266" y2="148"/>
<line x1="200" y1="255" x2="200" y2="148"/>
<line x1="266" y1="255" x2="266" y2="148"/>
<line x1="266" y1="255" x2="200" y2="255"/>
<rect x="163" y="255" width="103" height="72" style="fill: yellow"/>
<line x1="163" y1="255" x2="266" y2="255"/>
<line x1="163" y1="327" x2="163" y2="255"/>
<line x1="266" y1="327" x2="266" y2="255"/>
<line x1="266" y1="327" x2="163" y2="327"/>
<rect x="266" y="148" width="66" height="100" style="fill: white"/>
<line x1="266" y1="148" x2="332" y2="148"/>
<line x1="266" y1="248" x2="266" y2="148"/>
<line x1="332" y1="248" x2="332" y2="148"/>
<line x1="332" y1="248" x2="266" y2="248"/>
<rect x="332" y="148" width="42" height="100" style="fill: red"/>
<line x1="332" y1="148" x2="374" y2="148"/>
<line x1="332" y1="248" x2="332" y2="148"/>
<line x1="374" y1="248" x2="374" y2="148"/>
<line x1="374" y1="248" x2="332" y2="248"/>
<rect x="266" y="248" width="66" height="79" style="fill: white"/>
<line x1="266" y1="248" x2="332" y2="248"/>
<line x1="266" y1="327" x2="266" y2="248"/>
<line x1="332" y1="327" x2="332" y2="248"/>
<line x1="332" y1="327" x2="266" y2="327"/>
<rect x="332" y="248" width="42" height="79" style="fill: blue"/>
<line x1="332" y1="248" x2="374" y2="248"/>
<line x1="332" y1="327" x2="332" y2="248"/>
<line x1="374" y1="327" x2="374" y2="248"/>
<line x1="374" y1="327" x2="332" y2="327"/>
<rect x="374" y="0" width="288" height="72" style="fill: yellow"/>
<line x1="374" y1="0" x2="662" y2="0"/>
<line x1="374" y1="72" x2="374" y2="0"/>
<line x1="662" y1="72" x2="662" y2="0"/>
<line x1="662" y1="72" x2="374" y2="72"/>
<rect x="374" y="72" width="99" height="68" style="fill: white"/>
<line x1="374" y1="72" x2="473" y2="72"/>
<line x1="374" y1="140" x2="374" y2="72"/>
<line x1="473" y1="140" x2="473" y2="72"/>
<line x1="473" y1="140" x2="374" y2="140"/>
<rect x="374" y="140" width="99" height="56" style="fill: red"/>
<line x1="374" y1="140" x2="473" y2="140"/>
<line x1="374" y1="196" x2="374" y2="140"/>
<line x1="473" y1="196" x2="473" y2="140"/>
<line x1="473" y1="196" x2="374" y2="196"/>
<rect x="473" y="72" width="65" height="124" style="fill: white"/>
<line x1="473" y1="72" x2="538" y2="72"/>
<line x1="473" y1="196" x2="473" y2="72"/>
<line x1="538" y1="196" x2="538" y2="72"/>
<line x1="538" y1="196" x2="473" y2="196"/>
<rect x="538" y="72" width="50" height="44" style="fill: blue"/>
<line x1="538" y1="72" x2="588" y2="72"/>
<line x1="538" y1="116" x2="538" y2="72"/>
<line x1="588" y1="116" x2="588" y2="72"/>
<line x1="588" y1="116" x2="538" y2="116"/>
<rect x="538" y="116" width="50" height="80" style="fill: yellow"/>
<line x1="538" y1="116" x2="588" y2="116"/>
<line x1="538" y1="196" x2="538" y2="116"/>
<line x1="588" y1="196" x2="588" y2="116"/>
<line x1="588" y1="196" x2="538" y2="196"/>
<rect x="588" y="72" width="74" height="124" style="fill: white"/>
<line x1="588" y1="72" x2="662" y2="72"/>
<line x1="588" y1="196" x2="588" y2="72"/>
<line x1="662" y1="196" x2="662" y2="72"/>
<line x1="662" y1="196" x2="588" y2="196"/>
<rect x="374" y="196" width="86" height="56" style="fill: red"/>
<line x1="374" y1="196" x2="460" y2="196"/>
<line x1="374" y1="252" x2="374" y2="196"/>
<line x1="460" y1="252" x2="460" y2="196"/>
<line x1="460" y1="252" x2="374" y2="252"/>
<rect x="460" y="196" width="53" height="56" style="fill: white"/>
<line x1="460" y1="196" x2="513" y2="196"/>
<line x1="460" y1="252" x2="460" y2="196"/>
<line x1="513" y1="252" x2="513" y2="196"/>
<line x1="513" y1="252" x2="460" y2="252"/>
<rect x="513" y="196" width="149" height="56" style="fill: blue"/>
<line x1="513" y1="196" x2="662" y2="196"/>
<line x1="513" y1="252" x2="513" y2="196"/>
<line x1="662" y1="252" x2="662" y2="196"/>
<line x1="662" y1="252" x2="513" y2="252"/>
<rect x="374" y="252" width="70" height="75" style="fill: yellow"/>
<line x1="374" y1="252" x2="444" y2="252"/>
<line x1="374" y1="327" x2="374" y2="252"/>
<line x1="444" y1="327" x2="444" y2="252"/>
<line x1="444" y1="327" x2="374" y2="327"/>
<rect x="444" y="252" width="69" height="75" style="fill: white"/>
<line x1="444" y1="252" x2="513" y2="252"/>
<line x1="444" y1="327" x2="444" y2="252"/>
<line x1="513" y1="327" x2="513" y2="252"/>
<line x1="513" y1="327" x2="444" y2="327"/>
<rect x="513" y="252" width="149" height="75" style="fill: red"/>
<line x1="513" y1="252" x2="662" y2="252"/>
<line x1="513" y1="327" x2="513" y2="252"/>
<line x1="662" y1="327" x2="662" y2="252"/>
<line x1="662" y1="327" x2="513" y2="327"/>
<rect x="0" y="327" width="374" height="166" style="fill: white"/>
<line x1="0" y1="327" x2="374" y2="327"/>
<line x1="0" y1="493" x2="0" y2="327"/>
<line x1="374" y1="493" x2="374" y2="327"/>
<line x1="374" y1="493" x2="0" y2="493"/>
<rect x="374" y="327" width="98" height="73" style="fill: blue"/>
<line x1="374" y1="327" x2="472" y2="327"/>
<line x1="374" y1="400" x2="374" y2="327"/>
<line x1="472" y1="400" x2="472" y2="327"/>
<line x1="472" y1="400" x2="374" y2="400"/>
<rect x="472" y="327" width="190" height="73" style="fill: yellow"/>
<line x1="472" y1="327" x2="662" y2="327"/>
<line x1="472" y1="400" x2="472" y2="327"/>
<line x1="662" y1="400" x2="662" y2="327"/>
<line x1="662" y1="400" x2="472" y2="400"/>
<rect x="374" y="400" width="60" height="46" style="fill: white"/>
<line x1="374" y1="400" x2="434" y2="400"/>
<line x1="374" y1="446" x2="374" y2="400"/>
<line x1="434" y1="446" x2="434" y2="400"/>
<line x1="434" y1="446" x2="374" y2="446"/>
<rect x="434" y="400" width="38" height="46" style="fill: red"/>
<line x1="434" y1="400" x2="472" y2="400"/>
<line x1="434" y1="446" x2="434" y2="400"/>
<line x1="472" y1="446" x2="472" y2="400"/>
<line x1="472" y1="446" x2="434" y2="446"/>
<rect x="374" y="446" width="60" height="47" style="fill: white"/>
<line x1="374" y1="446" x2="434" y2="446"/>
<line x1="374" y1="493" x2="374" y2="446"/>
<line x1="434" y1="493" x2="434" y2="446"/>
<line x1="434" y1="493" x2="374" y2="493"/>
<rect x="434" y="446" width="38" height="47" style="fill: blue"/>
<line x1="434" y1="446" x2="472" y2="446"/>
<line x1="434" y1="493" x2="434" y2="446"/>
<line x1="472" y1="493" x2="472" y2="446"/>
<line x1="472" y1="493" x2="434" y2="493"/>
<rect x="472" y="400" width="116" height="93" style="fill: yellow"/>
<line x1="472" y1="400" x2="588" y2="400"/>
<line x1="472" y1="493" x2="472" y2="400"/>
<line x1="588" y1="493" x2="588" y2="400"/>
<line x1="588" y1="493" x2="472" y2="493"/>
<rect x="588" y="400" width="74" height="93" style="fill: white"/>
<line x1="588" y1="400" x2="662" y2="400"/>
<line x1="588" y1="493" x2="588" y2="400"/>
<line x1="662" y1="493" x2="662" y2="400"/>
<line x1="662" y1="493" x2="588" y2="493"/>
<rect x="662" y="0" width="168" height="85" style="fill: red"/>
<line x1="662" y1="0" x2="830" y2="0"/>
<line x1="662" y1="85" x2="662" y2="0"/>
<line x1="830" y1="85" x2="830" y2="0"/>
<line x1="830" y1="85" x2="662" y2="85"/>
<rect x="830" y="0" width="78" height="85" style="fill: white"/>
<line x1="830" y1="0" x2="908" y2="0"/>
<line x1="830" y1="85" x2="830" y2="0"/>
<line x1="908" y1="85" x2="908" y2="0"/>
<line x1="908" y1="85" x2="830" y2="85"/>
<rect x="908" y="0" width="43" height="85" style="fill: blue"/>
<line x1="908" y1="0" x2="951" y2="0"/>
<line x1="908" y1="85" x2="908" y2="0"/>
<line x1="951" y1="85" x2="951" y2="0"/>
<line x1="951" y1="85" x2="908" y2="85"/>
<rect x="951" y="0" width="73" height="85" style="fill: yellow"/>
<line x1="951" y1="0" x2="1024" y2="0"/>
<line x1="951" y1="85" x2="951" y2="0"/>
<line x1="1024" y1="85" x2="1024" y2="0"/>
<line x1="1024" y1="85" x2="951" y2="85"/>
<rect x="662" y="85" width="57" height="80" style="fill: white"/>
<line x1="662" y1="85" x2="719" y2="85"/>
<line x1="662" y1="165" x2="662" y2="85"/>
<line x1="719" y1="165" x2="719" y2="85"/>
<line x1="719" y1="165" x2="662" y2="165"/>
<rect x="719" y="85" width="68" height="80" style="fill: red"/>
<line x1="719" y1="85" x2="787" y2="85"/>
<line x1="719" y1="165" x2="719" y2="85"/>
<line x1="787" y1="165" x2="787" y2="85"/>
<line x1="787" y1="165" x2="719" y2="165"/>
<rect x="787" y="85" width="43" height="80" style="fill: white"/>
<line x1="787" y1="85" x2="830" y2="85"/>
<line x1="787" y1="165" x2="787" y2="85"/>
<line x1="830" y1="165" x2="830" y2="85"/>
<line x1="830" y1="165" x2="787" y2="165"/>
<rect x="830" y="85" width="76" height="80" style="fill: blue"/>
<line x1="830" y1="85" x2="906" y2="85"/>
<line x1="830" y1="165" x2="830" y2="85"/>
<line x1="906" y1="165" x2="906" y2="85"/>
<line x1="906" y1="165" x2="830" y2="165"/>
<rect x="906" y="85" width="118" height="80" style="fill: yellow"/>
<line x1="906" y1="85" x2="1024" y2="85"/>
<line x1="906" y1="165" x2="906" y2="85"/>
<line x1="1024" y1="165" x2="1024" y2="85"/>
<line x1="1024" y1="165" x2="906" y2="165"/>
<rect x="662" y="165" width="362" height="328" style="fill: white"/>
<line x1="662" y1="165" x2="1024" y2="165"/>
<line x1="662" y1="493" x2="662" y2="165"/>
<line x1="1024" y1="493" x2="1024" y2="165"/>
<line x1="1024" y1="493" x2="662" y2="493"/>
<rect x="0" y="493" width="175" height="275" style="fill: red"/>
<line x1="0" y1="493" x2="175" y2="493"/>
<line x1="0" y1="768" x2="0" y2="493"/>
<line x1="175" y1="768" x2="175" y2="493"/>
<line x1="175" y1="768" x2="0" y2="768"/>
<rect x="175" y="493" width="100" height="45" style="fill: white"/>
<line x1="175" y1="493" x2="275" y2="493"/>
<line x1="175" y1="538" x2="175" y2="493"/>
<line x1="275" y1="538" x2="275" y2="493"/>
<line x1="275" y1="538" x2="175" y2="538"/>
<rect x="175" y="538" width="100" height="70" style="fill: blue"/>
<line x1="175" y1="538" x2="275" y2="538"/>
<line x1="175" y1="608" x2="175" y2="538"/>
<line x1="275" y1="608" x2="275" y2="538"/>
<line x1="275" y1="608" x2="175" y2="608"/>
<rect x="175" y="608" width="68" height="66" style="fill: yellow"/>
<line x1="175" y1="608" x2="243" y2="608"/>
<line x1="175" y1="674" x2="175" y2="608"/>
<line x1="243" y1="674" x2="243" y2="608"/>
<line x1="243" y1="674" x2="175" y2="674"/>
<rect x="175" y="674" width="68" height="49" style="fill: white"/>
<line x1="175" y1="674" x2="243" y2="674"/>
<line x1="175" y1="723" x2="175" y2="674"/>
<line x1="243" y1="723" x2="243" y2="674"/>
<line x1="243" y1="723" x2="175" y2="723"/>
<rect x="175" y="723" width="68" height="45" style="fill: red"/>
<line x1="175" y1="723" x2="243" y2="723"/>
<line x1="175" y1="768" x2="175" y2="723"/>
<line x1="243" y1="768" x2="243" y2="723"/>
<line x1="243" y1="768" x2="175" y2="768"/>
<rect x="243" y="608" width="32" height="160" style="fill: white"/>
<line x1="243" y1="608" x2="275" y2="608"/>
<line x1="243" y1="768" x2="243" y2="608"/>
<line x1="275" y1="768" x2="275" y2="608"/>
<line x1="275" y1="768" x2="243" y2="768"/>
<rect x="275" y="493" width="107" height="110" style="fill: blue"/>
<line x1="275" y1="493" x2="382" y2="493"/>
<line x1="275" y1="603" x2="275" y2="493"/>
<line x1="382" y1="603" x2="382" y2="493"/>
<line x1="382" y1="603" x2="275" y2="603"/>
<rect x="382" y="493" width="146" height="62" style="fill: yellow"/>
<line x1="382" y1="493" x2="528" y2="493"/>
<line x1="382" y1="555" x2="382" y2="493"/>
<line x1="528" y1="555" x2="528" y2="493"/>
<line x1="528" y1="555" x2="382" y2="555"/>
<rect x="382" y="555" width="92" height="48" style="fill: white"/>
<line x1="382" y1="555" x2="474" y2="555"/>
<line x1="382" y1="603" x2="382" y2="555"/>
<line x1="474" y1="603" x2="474" y2="555"/>
<line x1="474" y1="603" x2="382" y2="603"/>
<rect x="474" y="555" width="54" height="48" style="fill: red"/>
<line x1="474" y1="555" x2="528" y2="555"/>
<line x1="474" y1="603" x2="474" y2="555"/>
<line x1="528" y1="603" x2="528" y2="555"/>
<line x1="528" y1="603" x2="474" y2="603"/>
<rect x="275" y="603" width="69" height="91" style="fill: white"/>
<line x1="275" y1="603" x2="344" y2="603"/>
<line x1="275" y1="694" x2="275" y2="603"/>
<line x1="344" y1="694" x2="344" y2="603"/>
<line x1="344" y1="694" x2="275" y2="694"/>
<rect x="275" y="694" width="69" height="74" style="fill: blue"/>
<line x1="275" y1="694" x2="344" y2="694"/>
<line x1="275" y1="768" x2="275" y2="694"/>
<line x1="344" y1="768" x2="344" y2="694"/>
<line x1="344" y1="768" x2="275" y2="768"/>
<rect x="344" y="603" width="38" height="57" style="fill: yellow"/>
<line x1="344" y1="603" x2="382" y2="603"/>
<line x1="344" y1="660" x2="344" y2="603"/>
<line x1="382" y1="660" x2="382" y2="603"/>
<line x1="382" y1="660" x2="344" y2="660"/>
<rect x="344" y="660" width="38" height="108" style="fill: white"/>
<line x1="344" y1="660" x2="382" y2="660"/>
<line x1="344" y1="768" x2="344" y2="660"/>
<line x1="382" y1="768" x2="382" y2="660"/>
<line x1="382" y1="768" x2="344" y2="768"/>
<rect x="382" y="603" width="146" height="165" style="fill: red"/>
<line x1="382" y1="603" x2="528" y2="603"/>
<line x1="382" y1="768" x2="382" y2="603"/>
<line x1="528" y1="768" x2="528" y2="603"/>
<line x1="528" y1="768" x2="382" y2="768"/>
<rect x="528" y="493" width="134" height="275" style="fill: white"/>
<line x1="528" y1="493" x2="662" y2="493"/>
<line x1="528" y1="768" x2="528" y2="493"/>
<line x1="662" y1="768" x2="662" y2="493"/>
<line x1="662" y1="768" x2="528" y2="768"/>
<rect x="662" y="493" width="157" height="62" style="fill: blue"/>
<line x1="662" y1="493" x2="819" y2="493"/>
<line x1="662" y1="555" x2="662" y2="493"/>
<line x1="819" y1="555" x2="819" y2="493"/>
<line x1="819" y1="555" x2="662" y2="555"/>
<rect x="819" y="493" width="76" height="62" style="fill: yellow"/>
<line x1="819" y1="493" x2="895" y2="493"/>
<line x1="819" y1="555" x2="819" y2="493"/>
<line x1="895" y1="555" x2="895" y2="493"/>
<line x1="895" y1="555" x2="819" y2="555"/>
<rect x="895" y="493" width="129" height="62" style="fill: white"/>
<line x1="895" y1="493" x2="1024" y2="493"/>
<line x1="895" y1="555" x2="895" y2="493"/>
<line x1="1024" y1="555" x2="1024" y2="493"/>
<line x1="1024" y1="555" x2="895" y2="555"/>
<rect x="662" y="555" width="157" height="81" style="fill: red"/>
<line x1="662" y1="555" x2="819" y2="555"/>
<line x1="662" y1="636" x2="662" y2="555"/>
<line x1="819" y1="636" x2="819" y2="555"/>
<line x1="819" y1="636" x2="662" y2="636"/>
<rect x="819" y="555" width="49" height="81" style="fill: white"/>
<line x1="819" y1="555" x2="868" y2="555"/>
<line x1="819" y1="636" x2="819" y2="555"/>
<line x1="868" y1="636" x2="868" y2="555"/>
<line x1="868" y1="636" x2="819" y2="636"/>
<rect x="868" y="555" width="90" height="81" style="fill: blue"/>
<line x1="868" y1="555" x2="958" y2="555"/>
<line x1="868" y1="636" x2="868" y2="555"/>
<line x1="958" y1="636" x2="958" y2="555"/>
<line x1="958" y1="636" x2="868" y2="636"/>
<rect x="958" y="555" width="66" height="81" style="fill: yellow"/>
<line x1="958" y1="555" x2="1024" y2="555"/>
<line x1="958" y1="636" x2="958" y2="555"/>
<line x1="1024" y1="636" x2="1024" y2="555"/>
<line x1="1024" y1="636" x2="958" y2="636"/>
<rect x="662" y="636" width="121" height="69" style="fill: white"/>
<line x1="662" y1="636" x2="783" y2="636"/>
<line x1="662" y1="705" x2="662" y2="636"/>
<line x1="783" y1="705" x2="783" y2="636"/>
<line x1="783" y1="705" x2="662" y2="705"/>
<rect x="783" y="636" width="58" height="69" style="fill: red"/>
<line x1="783" y1="636" x2="841" y2="636"/>
<line x1="783" y1="705" x2="783" y2="636"/>
<line x1="841" y1="705" x2="841" y2="636"/>
<line x1="841" y1="705" x2="783" y2="705"/>
<rect x="662" y="705" width="179" height="63" style="fill: white"/>
<line x1="662" y1="705" x2="841" y2="705"/>
<line x1="662" y1="768" x2="662" y2="705"/>
<line x1="841" y1="768" x2="841" y2="705"/>
<line x1="841" y1="768" x2="662" y2="768"/>
<rect x="841" y="636" width="183" height="132" style="fill: blue"/>
<line x1="841" y1="636" x2="1024" y2="636"/>
<line x1="841" y1="768" x2="841" y2="636"/>
<line x1="1024" y1="768" x2="1024" y2="636"/>
<line x1="1024" y1="768" x2="841" y2="768"/>
</svg>